<svg id="그룹_67" data-name="그룹 67" xmlns="http://www.w3.org/2000/svg" xmlns:xlink="http://www.w3.org/1999/xlink" width="1238.794" height="789" viewBox="0 0 1238.794 789">
  <defs>
    <clipPath id="clip-path">
      <rect id="사각형_52" data-name="사각형 52" width="81.639" height="51.897" transform="translate(1062.939 653.29)" fill="none"/>
    </clipPath>
    <linearGradient id="linear-gradient" x1="0.384" y1="0.395" x2="0.85" y2="0.817" gradientUnits="objectBoundingBox">
      <stop offset="0" stop-color="#a665fb"/>
      <stop offset="1" stop-color="#7744ba"/>
    </linearGradient>
    <linearGradient id="linear-gradient-2" x1="0.163" y1="0.296" x2="0.776" y2="0.668" xlink:href="#linear-gradient"/>
    <linearGradient id="linear-gradient-3" x1="0.498" y1="0.498" x2="0.752" y2="0.85" xlink:href="#linear-gradient"/>
    <linearGradient id="linear-gradient-4" x1="-0.579" y1="0.373" x2="1.553" y2="0.624" xlink:href="#linear-gradient"/>
  </defs>
  <g id="그룹_55" data-name="그룹 55" opacity="0.6">
<!--    <rect id="왼쪽_메뉴바-2" data-name="왼쪽 메뉴바-2" width="1238.794" height="789" fill="#fff"/>-->
  </g>
  <g id="그룹_772" data-name="그룹 772">
<!--    <g id="미래혁신을_위한_스마트_에듀케어" data-name="미래혁신을 위한 스마트 에듀케어" style="isolation: isolate">-->
<!--      <text id="미래혁신을_위한_스마트_에듀케어-2" data-name="미래혁신을 위한 스마트 에듀케어" transform="translate(835.578 696.238)" fill="#393838" font-size="15" font-family="MalgunGothic, Malgun Gothic" style="isolation: isolate"><tspan x="0" y="0">미래혁신을</tspan><tspan y="0" font-family="SegoeUI, Segoe UI"> </tspan><tspan y="0">위한</tspan><tspan y="0" font-family="SegoeUI, Segoe UI"> </tspan><tspan y="0">스마트</tspan><tspan y="0" font-family="SegoeUI, Segoe UI"> </tspan><tspan y="0">에듀케어</tspan></text>-->
<!--    </g>-->
    <g id="그룹_771" data-name="그룹 771">
      <rect id="사각형_8692" data-name="사각형 8692" width="0.567" height="2.813" transform="translate(1113.011 699.356)" fill="#96999c"/>
      <path id="패스_354" data-name="패스 354" d="M1114.043,702.17v-2.813h2.085v.476h-1.518v.623h1.413v.474h-1.413v.766h1.571v.474Z" fill="#96999c"/>
      <g id="그룹_770" data-name="그룹 770">
        <g id="그룹_57" data-name="그룹 57">
          <g id="그룹_56" data-name="그룹 56" clip-path="url(#clip-path)">
            <g id="그룹_769" data-name="그룹 769">
              <path id="패스_355" data-name="패스 355" d="M1118.383,701.135l.55.174a1.227,1.227,0,0,1-.421.684,1.324,1.324,0,0,1-1.668-.159,1.459,1.459,0,0,1-.36-1.047,1.541,1.541,0,0,1,.362-1.091,1.247,1.247,0,0,1,.955-.388,1.177,1.177,0,0,1,.838.306,1.115,1.115,0,0,1,.288.518l-.563.134a.581.581,0,0,0-.592-.471.644.644,0,0,0-.508.224,1.108,1.108,0,0,0-.2.727,1.177,1.177,0,0,0,.192.761.621.621,0,0,0,.5.226.568.568,0,0,0,.389-.143.846.846,0,0,0,.235-.453" fill="#96999c"/>
              <path id="패스_356" data-name="패스 356" d="M1119.347,702.17v-2.813h2.086v.476h-1.518v.623h1.412v.474h-1.412v.766h1.571v.474Z" fill="#96999c"/>
              <path id="패스_357" data-name="패스 357" d="M1121.883,699.356h1.038a2.049,2.049,0,0,1,.535.054.943.943,0,0,1,.424.259,1.238,1.238,0,0,1,.268.456,2.084,2.084,0,0,1,.093.665,1.872,1.872,0,0,1-.086.6,1.244,1.244,0,0,1-.3.5.976.976,0,0,1-.4.225,1.659,1.659,0,0,1-.5.059h-1.068Zm.568.476V701.7h.424a1.414,1.414,0,0,0,.343-.027.521.521,0,0,0,.23-.117.6.6,0,0,0,.149-.272,1.849,1.849,0,0,0,.057-.514,1.692,1.692,0,0,0-.057-.5.669.669,0,0,0-.161-.272.559.559,0,0,0-.263-.133,2.706,2.706,0,0,0-.467-.026Z" fill="#96999c"/>
              <path id="패스_358" data-name="패스 358" d="M1128.048,702.169h-.617l-.245-.639h-1.125l-.232.639h-.6l1.1-2.813h.6ZM1127,701.056l-.387-1.044-.38,1.044Z" fill="#96999c"/>
              <path id="패스_359" data-name="패스 359" d="M1128.266,699.356h.539v.5h-.539Zm0,.775h.539v2.037h-.539Z" fill="#96999c"/>
              <path id="패스_360" data-name="패스 360" d="M1131.311,699.356h.566v1.781a1.865,1.865,0,0,1-.061.537.762.762,0,0,1-.3.394.988.988,0,0,1-.572.148.843.843,0,0,1-.64-.233.95.95,0,0,1-.227-.683l.536-.062a.734.734,0,0,0,.071.342.3.3,0,0,0,.28.151.308.308,0,0,0,.269-.108.86.86,0,0,0,.078-.45Z" fill="#96999c"/>
              <path id="패스_361" data-name="패스 361" d="M1132.275,701.121a1.1,1.1,0,0,1,.131-.52.914.914,0,0,1,.375-.384,1.124,1.124,0,0,1,.542-.133,1.02,1.02,0,0,1,.758.3,1.12,1.12,0,0,1,0,1.526,1.01,1.01,0,0,1-.752.3,1.175,1.175,0,0,1-.534-.126.87.87,0,0,1-.387-.372,1.223,1.223,0,0,1-.131-.6m.551.029a.67.67,0,0,0,.145.464.469.469,0,0,0,.663.045.49.49,0,0,0,.045-.045.682.682,0,0,0,.143-.469.673.673,0,0,0-.143-.461.472.472,0,0,0-.665-.043.56.56,0,0,0-.043.043.676.676,0,0,0-.145.465" fill="#96999c"/>
              <path id="패스_362" data-name="패스 362" d="M1135.123,700.753l-.489-.087a.757.757,0,0,1,.284-.438,1.042,1.042,0,0,1,.6-.142,1.329,1.329,0,0,1,.537.085.552.552,0,0,1,.249.217,1.136,1.136,0,0,1,.072.483l-.006.629a2.139,2.139,0,0,0,.026.4,1.024,1.024,0,0,0,.1.274h-.534c-.013-.036-.031-.089-.052-.159a.577.577,0,0,0-.019-.064.972.972,0,0,1-.3.2.847.847,0,0,1-.336.067.7.7,0,0,1-.5-.17.56.56,0,0,1-.182-.432.573.573,0,0,1,.082-.307.549.549,0,0,1,.232-.208,1.814,1.814,0,0,1,.428-.125,2.868,2.868,0,0,0,.523-.133v-.053a.285.285,0,0,0-.076-.222.469.469,0,0,0-.29-.066.378.378,0,0,0-.223.056.4.4,0,0,0-.132.2m.721.438a3.147,3.147,0,0,1-.328.083,1,1,0,0,0-.293.094.224.224,0,0,0-.106.19.261.261,0,0,0,.085.2.287.287,0,0,0,.215.082.463.463,0,0,0,.278-.1.336.336,0,0,0,.129-.178,1.046,1.046,0,0,0,.021-.263Z" fill="#96999c"/>
              <path id="패스_363" data-name="패스 363" d="M1100.1,683.876h1.67l-2.561,2.915.006.005a1.17,1.17,0,1,0,1.816,1.476h0l3.3-4.057,3.3,4.057h0a1.171,1.171,0,0,0,1.817-1.476l.006-.005-2.561-2.915h1.646a1.171,1.171,0,1,0,0-2.342v-.007H1100.1v.007a1.171,1.171,0,1,0,0,2.342" fill="#2f2528"/>
              <path id="패스_364" data-name="패스 364" d="M1110.886,690.7a1.173,1.173,0,0,0-1.163-1.171v-.007h-4.232v-.882h0a1.172,1.172,0,0,0-2.343,0h-.007v.882H1098.9v.007a1.172,1.172,0,1,0,0,2.343h10.823a1.172,1.172,0,0,0,1.163-1.172" fill="#2f2528"/>
              <path id="패스_365" data-name="패스 365" d="M1108.529,695.165v-.007h-2.811v-.734h0a1.4,1.4,0,0,0-2.791,0h-.009v.734h-2.82v.007a1.171,1.171,0,0,0,0,2.342h1.134a4.455,4.455,0,1,0,6.3.164c-.053-.056-.108-.111-.163-.164h1.166a1.171,1.171,0,0,0,0-2.342m-4.233,7.683a2.115,2.115,0,1,1,2.116-2.115,2.114,2.114,0,0,1-2.116,2.115h0" fill="#2f2528"/>
              <path id="패스_366" data-name="패스 366" d="M1068.146,681.574a5.206,5.206,0,1,0,5.206,5.206,5.206,5.206,0,0,0-5.206-5.206m0,8.07a2.863,2.863,0,1,1,2.863-2.864,2.862,2.862,0,0,1-2.863,2.864" fill="#2f2528"/>
              <path id="패스_367" data-name="패스 367" d="M1079.843,686.752a1.171,1.171,0,0,0-1.162-1.171v-.008H1077V681.9a.389.389,0,0,0-.371-.35h-1.607a.389.389,0,0,0-.372.35v12.336h0a1.172,1.172,0,1,0,2.343,0H1077v-6.311h1.685a1.171,1.171,0,0,0,1.162-1.171" fill="#2f2528"/>
              <path id="패스_368" data-name="패스 368" d="M1118.228,681.574a5.206,5.206,0,1,0,5.2,5.212v-.006a5.206,5.206,0,0,0-5.206-5.206h0m0,8.07a2.863,2.863,0,1,1,2.864-2.864,2.861,2.861,0,0,1-2.864,2.864h0" fill="#2f2528"/>
              <path id="패스_369" data-name="패스 369" d="M1129.922,686.752a1.172,1.172,0,0,0-1.163-1.171v-.008h-1.683V681.9a.391.391,0,0,0-.373-.35H1125.1a.388.388,0,0,0-.371.35v12.336a1.172,1.172,0,0,0,2.343,0h.007v-6.311h1.686a1.172,1.172,0,0,0,1.163-1.171" fill="#2f2528"/>
              <path id="패스_370" data-name="패스 370" d="M1086.184,681.574a5.206,5.206,0,1,0,5.2,5.212v-.006a5.207,5.207,0,0,0-5.2-5.206m0,8.07a2.863,2.863,0,1,1,2.864-2.864,2.861,2.861,0,0,1-2.864,2.864h0" fill="#2f2528"/>
              <path id="패스_371" data-name="패스 371" d="M1095.039,681.9a.391.391,0,0,0-.373-.35h-1.607a.388.388,0,0,0-.371.35v12.336h0a1.172,1.172,0,1,0,2.343,0h.007Z" fill="#2f2528"/>
              <path id="패스_372" data-name="패스 372" d="M1095.421,697.164h-3a.386.386,0,0,0-.39.34v3.316a.383.383,0,0,0,.4.341h1.3v.383a1.565,1.565,0,0,1-1.321,1.689h-.028c-.042.009-.081.015-.117.02a.4.4,0,0,0-.26.334v1.226a.388.388,0,0,0,.369.353c3.439-.245,3.433-3.9,3.433-3.9v-3.739a.393.393,0,0,0-.4-.37" fill="#f36a10"/>
              <path id="패스_373" data-name="패스 373" d="M1136.505,693.581a1.89,1.89,0,1,1-1.89-1.89h0a1.891,1.891,0,0,1,1.89,1.89" fill="#57bbad"/>
              <path id="패스_374" data-name="패스 374" d="M1136.093,681.521h-2.963a.39.39,0,0,0-.406.355v6.8a1.89,1.89,0,0,0,3.78,0v-6.742a.4.4,0,0,0-.4-.405h-.017" fill="#57bbad"/>
              <path id="패스_375" data-name="패스 375" d="M1140.037,653.479s-3.307-1.212-6.228,2.508a12.077,12.077,0,0,1-11.959,1.763,7.658,7.658,0,0,0-10.077,3.962c-.022.051-.043.1-.064.153,0,0-3.339,8.207,7.572,13.078-.163,1.127-.5,2.566-1.208,3.022a7.589,7.589,0,0,0,4-2.239c4.823.951,15.533,1.576,21.2-9.672,0,0,4.519-10.085-3.233-12.574" fill="#ffc600"/>
              <path id="패스_376" data-name="패스 376" d="M1136.628,658.158a.736.736,0,1,1-.427-.949h0a.737.737,0,0,1,.426.949" fill="#625c50"/>
              <path id="패스_377" data-name="패스 377" d="M1140.289,659.55a.735.735,0,1,1-.427-.948h0a.737.737,0,0,1,.426.948" fill="#625c50"/>
              <path id="패스_378" data-name="패스 378" d="M1139.145,661.529a.384.384,0,0,0-.315-.7,2.561,2.561,0,0,1-3.384-1.284h0a.384.384,0,0,0-.7.314h0a3.326,3.326,0,0,0,4.391,1.677h.009" fill="#625c50"/>
              <path id="패스_379" data-name="패스 379" d="M1121.94,662.886a1.023,1.023,0,1,0,.423-1.383h0a1.022,1.022,0,0,0-.424,1.382h0" fill="#625c50"/>
              <path id="패스_380" data-name="패스 380" d="M1117.13,665.44a1.023,1.023,0,1,0,.424-1.383h0a1.024,1.024,0,0,0-.423,1.382" fill="#625c50"/>
              <path id="패스_381" data-name="패스 381" d="M1119.052,667.973a.534.534,0,0,1,.312-1.02,3.562,3.562,0,0,0,4.446-2.358h0a.533.533,0,0,1,1.02.312h0a4.627,4.627,0,0,1-5.767,3.075h-.012" fill="#625c50"/>
            </g>
          </g>
        </g>
      </g>
    </g>
  </g>
  <g id="사각형_8694" data-name="사각형 8694">
    <rect id="사각형_53" data-name="사각형 53" width="248.718" height="479.161" transform="translate(137.19 122.122)" fill="url(#linear-gradient)"/>
    <rect id="사각형_54" data-name="사각형 54" width="248.518" height="478.554" transform="translate(137.29 122.426)" fill="url(#linear-gradient-2)"/>
  </g>
  <g id="사각형_8694-2" data-name="사각형 8694">
    <rect id="사각형_55" data-name="사각형 55" width="49.82" height="479.161" transform="translate(1051.785 122.122)" fill="url(#linear-gradient-3)"/>
    <rect id="사각형_56" data-name="사각형 56" width="49.779" height="478.554" transform="translate(1051.805 122.426)" fill="url(#linear-gradient-4)"/>
  </g>
  <g id="사각형_8694-3" data-name="사각형 8694" opacity="0.8">
    <rect id="사각형_57" data-name="사각형 57" width="665.877" height="479.161" transform="translate(385.908 122.122)" fill="#fff"/>
    <rect id="사각형_58" data-name="사각형 58" width="665.34" height="478.554" transform="translate(386.176 122.426)" fill="#fff"/>
  </g>
<!--  <g id="또래관계_데이터_분석_결과보고서" data-name="또래관계 데이터 분석 결과보고서" style="isolation: isolate">-->
<!--    <text id="또래관계_데이터_분석_결과보고서-2" data-name="또래관계 데이터 분석 결과보고서" transform="translate(559.872 463.531)" fill="#393838" font-size="23.343" font-family="MalgunGothic, Malgun Gothic" style="isolation: isolate"><tspan x="0" y="0">또래관계</tspan><tspan y="0" font-family="SegoeUI, Segoe UI"> </tspan><tspan y="0">데이터</tspan><tspan y="0" font-family="SegoeUI, Segoe UI"> </tspan><tspan y="0">분석</tspan><tspan y="0" font-family="SegoeUI, Segoe UI"> </tspan><tspan y="0">결과보고서</tspan></text>-->
<!--  </g>-->
  <g id="그룹_66" data-name="그룹 66">
    <g id="그룹_58" data-name="그룹 58">
      <path id="패스_24" data-name="패스 24" d="M712.493,325.887c-7.519,0-13.408-8.448-13.408-19.233s5.889-19.232,13.408-19.232,13.41,8.447,13.41,19.232S720.013,325.887,712.493,325.887Zm0-32.406c-3.475,0-7.349,5.41-7.349,13.173s3.874,13.174,7.349,13.174,7.351-5.411,7.351-13.174S715.97,293.481,712.493,293.481Z" fill="#9027f4"/>
    </g>
    <g id="그룹_59" data-name="그룹 59">
      <path id="패스_25" data-name="패스 25" d="M734.861,326.575a2.976,2.976,0,0,1-.6-.059,3.027,3.027,0,0,1-2.377-3.564c1.976-9.882-.028-33.408-.047-33.645a3.029,3.029,0,0,1,6.035-.522c.087,1,2.1,24.628-.047,35.354A3.031,3.031,0,0,1,734.861,326.575Z" fill="#9027f4"/>
    </g>
    <g id="그룹_60" data-name="그룹 60">
      <path id="패스_26" data-name="패스 26" d="M788.7,326.575a2.975,2.975,0,0,1-.6-.059,3.028,3.028,0,0,1-2.377-3.564c1.976-9.882-.028-33.408-.047-33.645a3.029,3.029,0,0,1,6.035-.522c.087,1,2.1,24.628-.047,35.354A3.031,3.031,0,0,1,788.7,326.575Z" fill="#9027f4"/>
    </g>
    <g id="그룹_61" data-name="그룹 61">
      <path id="패스_27" data-name="패스 27" d="M735.778,309.327a3.03,3.03,0,0,1-.268-6.047l8.136-.732a3.03,3.03,0,1,1,.544,6.035l-8.136.732C735.962,309.323,735.869,309.327,735.778,309.327Z" fill="#9027f4"/>
    </g>
    <g id="그룹_62" data-name="그룹 62">
      <path id="패스_28" data-name="패스 28" d="M766,324.029a42.973,42.973,0,0,1-6.969-.432A4.868,4.868,0,0,1,755.7,321.1c-3.7-6.249-1.371-28.008-.7-30.019.615-1.858,1.465-4.393,21.177-2.774a3.03,3.03,0,0,1,2.771,3.267,3.073,3.073,0,0,1-3.266,2.773c-5.653-.46-12.473-.629-15.146-.233-.732,4.915-1.479,20.2.209,23.613,3.864.5,12,.081,14.962-.136a3.03,3.03,0,1,1,.442,6.043C775.357,323.7,770.612,324.029,766,324.029Z" fill="#9027f4"/>
    </g>
    <g id="그룹_63" data-name="그룹 63">
      <path id="패스_29" data-name="패스 29" d="M769.223,323.973a3.03,3.03,0,0,1-3.029-3.029V292.365a3.03,3.03,0,1,1,6.059,0v28.579A3.03,3.03,0,0,1,769.223,323.973Z" fill="#9027f4"/>
    </g>
    <g id="그룹_65" data-name="그룹 65">
      <g id="그룹_64" data-name="그룹 64">
        <path id="패스_30" data-name="패스 30" d="M822.522,307.415h-16.3a2.7,2.7,0,0,1-2.7-2.561l-.786-15.106a2.7,2.7,0,0,1,2.655-2.841l17.083-.273a2.786,2.786,0,0,1,1.938.776,2.7,2.7,0,0,1,.806,1.926v15.378A2.7,2.7,0,0,1,822.522,307.415Zm-13.733-5.4h11.032V292.08l-11.54.184Z" fill="#9027f4"/>
      </g>
      <path id="패스_31" data-name="패스 31" d="M845.351,297.14c0-.041.023-.074.023-.115,0-.057-.029-.1-.032-.159-.126-3.553-.554-6.856-.7-7.906a2.7,2.7,0,0,0-5.349.751c.189,1.344.356,2.959.481,4.612h-5.028c-.182-2.493-.452-4.571-.563-5.363a2.7,2.7,0,0,0-5.35.751c.619,4.412,1.079,11.677.16,14.015a2.7,2.7,0,1,0,5.029,1.975,18.647,18.647,0,0,0,.884-5.975h5.052a13.292,13.292,0,0,1-.505,4,2.7,2.7,0,1,0,5.029,1.975C845.3,303.621,845.448,300.3,845.351,297.14Z" fill="#9027f4"/>
      <path id="패스_32" data-name="패스 32" d="M844.592,311.247a2.7,2.7,0,1,0-5.293,1.081,16.264,16.264,0,0,1,.251,2.717h-30c-.057-1.167-.117-2.168-.158-2.8A2.7,2.7,0,0,0,804,312.6c.106,1.619.187,3.353.239,5.007,0,.049-.028.09-.028.139,0,.069.034.126.039.194a39.829,39.829,0,0,1-.15,6.931,2.7,2.7,0,0,0,2.6,3.444h34.786a2.7,2.7,0,0,0,2.671-2.3C844.3,325.022,845.593,316.147,844.592,311.247Zm-34.919,11.665c.028-.774.033-1.613.029-2.465h29.646c-.074.877-.158,1.718-.243,2.465Z" fill="#9027f4"/>
    </g>
  </g>
</svg>
