<svg xmlns="http://www.w3.org/2000/svg" width="80.811" height="145.992" viewBox="0 0 80.811 145.992">
  <g id="그룹_53" data-name="그룹 53" transform="translate(-2061.122 -2663.254)">
    <g id="그룹_911" data-name="그룹 911">
      <rect id="사각형_903" data-name="사각형 903" width="36.394" height="7.449" rx="3.725" transform="translate(2078.171 2797.845) rotate(-69.615)" fill="#ffa983"/>
      <path id="패스_2950" data-name="패스 2950" d="M2079.469,2794.354s4.457,3.811,6.983,2.595c0,0,1.292,8.983-4.278,9.124a104.527,104.527,0,0,1-15.8-1.151c-4.982-1.046-1.961-8.733,3.255-8.4A20.424,20.424,0,0,0,2079.469,2794.354Z" fill="#fc5151"/>
      <path id="패스_2951" data-name="패스 2951" d="M2079.469,2794.354s4.487,3.87,6.983,2.595" fill="none" stroke="#fff" stroke-linecap="round" stroke-miterlimit="10" stroke-width="1"/>
      <path id="패스_2952" data-name="패스 2952" d="M2076.977,2795.405a3.4,3.4,0,0,0,1.562,1.779" fill="none" stroke="#fff" stroke-linecap="round" stroke-miterlimit="10" stroke-width="1"/>
      <path id="패스_2953" data-name="패스 2953" d="M2074.84,2796.031s.515,1.733,1.391,2.12" fill="none" stroke="#fff" stroke-linecap="round" stroke-miterlimit="10" stroke-width="1"/>
      <path id="패스_2954" data-name="패스 2954" d="M2073.02,2796.378a3.333,3.333,0,0,0,.368,2.367" fill="none" stroke="#fff" stroke-linecap="round" stroke-miterlimit="10" stroke-width="1"/>
      <path id="패스_2955" data-name="패스 2955" d="M2069.014,2796.826a7.262,7.262,0,0,1,1.946,8.379s-6.112-.011-6.645-2.342A5.032,5.032,0,0,1,2069.014,2796.826Z" fill="#fff" stroke="#fc5151" stroke-linejoin="round" stroke-width="1"/>
    </g>
    <g id="그룹_912" data-name="그룹 912">
      <rect id="사각형_904" data-name="사각형 904" width="36.394" height="7.449" rx="3.725" transform="translate(2108.878 2799.977) rotate(-95.957)" fill="#ffa983"/>
      <path id="패스_2956" data-name="패스 2956" d="M2115.9,2795.5s-5.266,2.58-7.409.773c0,0-3.49,8.377,1.869,9.9a104.463,104.463,0,0,0,15.586,2.822c5.086.228,4.076-7.969-1.059-8.945A20.435,20.435,0,0,1,2115.9,2795.5Z" fill="#fc5151"/>
      <path id="패스_2957" data-name="패스 2957" d="M2115.9,2795.5s-5.31,2.63-7.409.773" fill="none" stroke="#fff" stroke-linecap="round" stroke-miterlimit="10" stroke-width="1"/>
      <path id="패스_2958" data-name="패스 2958" d="M2118.052,2797.138a3.4,3.4,0,0,1-1.955,1.333" fill="none" stroke="#fff" stroke-linecap="round" stroke-miterlimit="10" stroke-width="1"/>
      <path id="패스_2959" data-name="패스 2959" d="M2119.966,2798.277s-.931,1.55-1.875,1.706" fill="none" stroke="#fff" stroke-linecap="round" stroke-miterlimit="10" stroke-width="1"/>
      <path id="패스_2960" data-name="패스 2960" d="M2121.642,2799.066a3.335,3.335,0,0,1-.947,2.2" fill="none" stroke="#fff" stroke-linecap="round" stroke-miterlimit="10" stroke-width="1"/>
      <path id="패스_2961" data-name="패스 2961" d="M2125.41,2800.5a7.263,7.263,0,0,0-3.973,7.63s5.922,1.513,7.019-.613A5.03,5.03,0,0,0,2125.41,2800.5Z" fill="#fff" stroke="#fc5151" stroke-linejoin="round" stroke-width="1"/>
    </g>
    <path id="패스_2962" data-name="패스 2962" d="M2117.179,2753.689s2.8,33.921,1.712,36.355c-.839,1.877-10.593,2.347-11.516,1.408s-1.123-25.446-6.27-25.9c-4.225-.376-8.3,27.056-9.927,26.662-1.743.592-10.877-1.838-10.877-3.668s5.175-33.224,8-35.156C2094.49,2749.159,2115.8,2748.962,2117.179,2753.689Z" fill="#2e62a0"/>
    <path id="패스_2963" data-name="패스 2963" d="M2066.712,2734.724c3.968-.052,4.062-.088,5.55-.657l11.809-4.513a3.725,3.725,0,0,1,2.66,6.958l-12.9,4.932s-6.461,2.91-7.779,2.611.828-1.77.174-2.825-4.346-1.527-4.989-2.947S2062.745,2734.775,2066.712,2734.724Z" fill="#ffa983"/>
    <path id="패스_2964" data-name="패스 2964" d="M2137.845,2743.659c-3.636-1.589-3.709-1.658-4.86-2.76l-9.129-8.746a3.725,3.725,0,0,0-5.153,5.38l9.975,9.555s4.824,5.191,6.155,5.428-.076-1.954.936-2.671,4.6.279,5.742-.779S2141.481,2745.247,2137.845,2743.659Z" fill="#ffa983"/>
    <rect id="사각형_905" data-name="사각형 905" width="7.121" height="9.183" rx="3.561" transform="translate(2108.226 2724.995) rotate(-180)" fill="#ffa983"/>
    <circle id="타원_255" data-name="타원 255" cx="27.92" cy="27.92" r="27.92" transform="translate(2076.945 2663.254)" fill="#ffa983"/>
    <path id="패스_2965" data-name="패스 2965" d="M2108.226,2721.434s5.547-2.061,11.085,2.725a92,92,0,0,1,8.714,8.574.488.488,0,0,1-.019.664l-7.127,7.3a.49.49,0,0,1-.7,0l-6.5-6.59Z" fill="#2e62a0"/>
    <path id="패스_2966" data-name="패스 2966" d="M2101.1,2721.434s-1.879-1.592-8.167,1.13a73.876,73.876,0,0,0-11.6,6.521.483.483,0,0,0-.167.59l3.862,9.106a.49.49,0,0,0,.677.243l9.948-5.2Z" fill="#2e62a0"/>
    <path id="패스_2967" data-name="패스 2967" d="M2108.226,2721.434s-2.238,2.156-7.121,0-9.45,7.539-11.222,14.319a114.463,114.463,0,0,0-2.5,16.629.928.928,0,0,0,.918,1l28.876.3a.925.925,0,0,0,.938-.992c-.306-4.253-1.653-20.834-4.344-26.379C2110.676,2719.936,2108.226,2721.434,2108.226,2721.434Z" fill="#fff"/>
    <g id="그룹_913" data-name="그룹 913">
      <circle id="타원_256" data-name="타원 256" cx="1.175" cy="1.175" r="1.175" transform="translate(2107.001 2732.755)" fill="#fc5151"/>
      <circle id="타원_257" data-name="타원 257" cx="1.175" cy="1.175" r="1.175" transform="translate(2098.754 2732.755)" fill="#fc5151"/>
      <path id="패스_2968" data-name="패스 2968" d="M2110.694,2738.418s-5.815,8.2-13.814,0" fill="none" stroke="#fc5151" stroke-linecap="round" stroke-miterlimit="10" stroke-width="1"/>
    </g>
  </g>
</svg>
