<svg xmlns="http://www.w3.org/2000/svg" width="80.81" height="145.992" viewBox="0 0 80.81 145.992">
  <g id="그룹_52" data-name="그룹 52" transform="translate(-1946.094 -2663.254)">
    <g id="그룹_908" data-name="그룹 908">
      <rect id="사각형_900" data-name="사각형 900" width="36.394" height="7.449" rx="3.725" transform="translate(2002.871 2800.44) rotate(-110.385)" fill="#ffa983"/>
      <path id="패스_2931" data-name="패스 2931" d="M2008.557,2794.354s-4.458,3.811-6.983,2.595c0,0-1.293,8.983,4.278,9.124a104.527,104.527,0,0,0,15.8-1.151c4.982-1.046,1.961-8.733-3.255-8.4A20.424,20.424,0,0,1,2008.557,2794.354Z" fill="#fc5151"/>
      <path id="패스_2932" data-name="패스 2932" d="M2008.557,2794.354s-4.487,3.87-6.983,2.595" fill="none" stroke="#fff" stroke-linecap="round" stroke-miterlimit="10" stroke-width="1"/>
      <path id="패스_2933" data-name="패스 2933" d="M2011.048,2795.405a3.4,3.4,0,0,1-1.561,1.779" fill="none" stroke="#fff" stroke-linecap="round" stroke-miterlimit="10" stroke-width="1"/>
      <path id="패스_2934" data-name="패스 2934" d="M2013.186,2796.031s-.515,1.733-1.391,2.12" fill="none" stroke="#fff" stroke-linecap="round" stroke-miterlimit="10" stroke-width="1"/>
      <path id="패스_2935" data-name="패스 2935" d="M2015.006,2796.378a3.33,3.33,0,0,1-.369,2.367" fill="none" stroke="#fff" stroke-linecap="round" stroke-miterlimit="10" stroke-width="1"/>
      <path id="패스_2936" data-name="패스 2936" d="M2019.012,2796.826a7.263,7.263,0,0,0-1.947,8.379s6.112-.011,6.645-2.342A5.031,5.031,0,0,0,2019.012,2796.826Z" fill="#fff" stroke="#fc5151" stroke-linejoin="round" stroke-width="1"/>
    </g>
    <g id="그룹_909" data-name="그룹 909">
      <rect id="사각형_901" data-name="사각형 901" width="36.394" height="7.449" rx="3.725" transform="translate(1971.738 2799.204) rotate(-84.043)" fill="#ffa983"/>
      <path id="패스_2937" data-name="패스 2937" d="M1972.125,2795.5s5.266,2.58,7.409.773c0,0,3.49,8.377-1.869,9.9a104.453,104.453,0,0,1-15.587,2.822c-5.086.228-4.075-7.969,1.06-8.945A20.435,20.435,0,0,0,1972.125,2795.5Z" fill="#fc5151"/>
      <path id="패스_2938" data-name="패스 2938" d="M1972.125,2795.5s5.31,2.63,7.409.773" fill="none" stroke="#fff" stroke-linecap="round" stroke-miterlimit="10" stroke-width="1"/>
      <path id="패스_2939" data-name="패스 2939" d="M1969.974,2797.138a3.4,3.4,0,0,0,1.955,1.333" fill="none" stroke="#fff" stroke-linecap="round" stroke-miterlimit="10" stroke-width="1"/>
      <path id="패스_2940" data-name="패스 2940" d="M1968.06,2798.277s.93,1.55,1.875,1.706" fill="none" stroke="#fff" stroke-linecap="round" stroke-miterlimit="10" stroke-width="1"/>
      <path id="패스_2941" data-name="패스 2941" d="M1966.383,2799.066a3.333,3.333,0,0,0,.947,2.2" fill="none" stroke="#fff" stroke-linecap="round" stroke-miterlimit="10" stroke-width="1"/>
      <path id="패스_2942" data-name="패스 2942" d="M1962.615,2800.5a7.262,7.262,0,0,1,3.973,7.63s-5.922,1.513-7.019-.613A5.031,5.031,0,0,1,1962.615,2800.5Z" fill="#fff" stroke="#fc5151" stroke-linejoin="round" stroke-width="1"/>
    </g>
    <path id="패스_2943" data-name="패스 2943" d="M1970.847,2753.689s-2.8,33.921-1.712,36.355c.839,1.877,10.593,2.347,11.516,1.408s1.122-25.446,6.27-25.9c4.225-.376,8.3,27.056,9.927,26.662,1.742.592,10.877-1.838,10.877-3.668s-5.176-33.224-8-35.156C1993.536,2749.159,1972.227,2748.962,1970.847,2753.689Z" fill="#2e62a0"/>
    <path id="패스_2944" data-name="패스 2944" d="M2021.313,2734.724c-3.967-.052-4.062-.088-5.55-.657l-11.809-4.513a3.724,3.724,0,1,0-2.659,6.958l12.9,4.932s6.461,2.91,7.779,2.611-.828-1.77-.174-2.825,4.345-1.527,4.988-2.947S2025.281,2734.775,2021.313,2734.724Z" fill="#ffa983"/>
    <path id="패스_2945" data-name="패스 2945" d="M1950.181,2743.659c3.636-1.589,3.709-1.658,4.859-2.76l9.13-8.746a3.725,3.725,0,0,1,5.153,5.38l-9.975,9.555s-4.824,5.191-6.155,5.428.075-1.954-.937-2.671-4.6.279-5.741-.779S1946.544,2745.247,1950.181,2743.659Z" fill="#ffa983"/>
    <rect id="사각형_902" data-name="사각형 902" width="7.121" height="9.183" rx="3.561" transform="translate(1979.799 2715.813)" fill="#ffa983"/>
    <circle id="타원_252" data-name="타원 252" cx="27.92" cy="27.92" r="27.92" transform="translate(1955.241 2663.254)" fill="#ffa983"/>
    <path id="패스_2946" data-name="패스 2946" d="M1979.8,2721.434s-5.546-2.061-11.084,2.725a92.2,92.2,0,0,0-8.715,8.574.49.49,0,0,0,.019.664l7.128,7.3a.489.489,0,0,0,.7,0l6.5-6.59Z" fill="#2e62a0"/>
    <path id="패스_2947" data-name="패스 2947" d="M1986.921,2721.434s1.879-1.592,8.167,1.13a73.9,73.9,0,0,1,11.6,6.521.482.482,0,0,1,.166.59l-3.861,9.106a.49.49,0,0,1-.677.243l-9.948-5.2Z" fill="#2e62a0"/>
    <path id="패스_2948" data-name="패스 2948" d="M1979.8,2721.434s2.239,2.156,7.122,0,9.45,7.539,11.221,14.319a114.336,114.336,0,0,1,2.5,16.629.928.928,0,0,1-.918,1l-28.876.3a.926.926,0,0,1-.939-.992c.307-4.253,1.653-20.834,4.345-26.379C1977.35,2719.936,1979.8,2721.434,1979.8,2721.434Z" fill="#fff"/>
    <g id="그룹_910" data-name="그룹 910">
      <circle id="타원_253" data-name="타원 253" cx="1.175" cy="1.175" r="1.175" transform="translate(1978.674 2732.755)" fill="#fc5151"/>
      <circle id="타원_254" data-name="타원 254" cx="1.175" cy="1.175" r="1.175" transform="translate(1986.921 2732.755)" fill="#fc5151"/>
      <path id="패스_2949" data-name="패스 2949" d="M1977.331,2738.418s5.816,8.2,13.815,0" fill="none" stroke="#fc5151" stroke-linecap="round" stroke-miterlimit="10" stroke-width="1"/>
    </g>
  </g>
</svg>
