<svg xmlns="http://www.w3.org/2000/svg" width="208.448" height="214.215" viewBox="0 0 208.448 214.215">
  <g id="그룹_39" data-name="그룹 39" transform="translate(-2037.367 -799.057)">
    <g id="그룹_682" data-name="그룹 682">
      <g id="그룹_681" data-name="그룹 681">
        <path id="패스_2497" data-name="패스 2497" d="M2114.106,807.538v205.734h7.755s.094-57.731,0-76.625,1.042-119.662,1.042-119.662l-.463-9.447Z" fill="#706046"/>
      </g>
    </g>
    <g id="그룹_683" data-name="그룹 683">
      <path id="패스_2498" data-name="패스 2498" d="M2118.488,807.538v205.734h17.588s.213-57.731-.006-76.625,2.361-119.662,2.361-119.662l-1.049-9.447Z" fill="#ffdf99"/>
    </g>
    <g id="그룹_684" data-name="그룹 684">
      <path id="패스_2499" data-name="패스 2499" d="M2040.433,857.608a1.667,1.667,0,0,1,1.227-2.062c13.441-2.84,104.093-21.981,116.144-24.266l10.02-1.9a2.82,2.82,0,0,0,2.1-3.6l-6.374-21.417a1.751,1.751,0,0,1,1.852-2.282c8.276,1.14,33.823,4.807,44.486,8.027,12.814,3.869,32.928,9.191,32.928,14.35s-19.6,47.5-33.239,62.549-14.881,4.3-14.881,4.3l-5.763-14.494c-.642-2.052-6.337-.365-8.363.1-14.852,3.393-71.856,16.493-88.206,21.4-7.468,2.239-31.926,7.519-38.2,8.863a1.6,1.6,0,0,1-1.867-1.207Z" fill="#ffdf99" stroke="#af5c1e" stroke-miterlimit="10" stroke-width="6"/>
<!--      <text id="기차_타러가요_" data-name="기차 타러가요!" transform="matrix(0.979, -0.206, 0.206, 0.979, 2071.809, 879.245)" fill="#706046" font-size="20.388" font-family= "BM JUA_TTF" letter-spacing="0.1em"><tspan x="0" y="0">기차 타러가요!</tspan></text>-->
    </g>
  </g>
</svg>
