<svg xmlns="http://www.w3.org/2000/svg" width="156.284" height="67.945" viewBox="0 0 156.284 67.945">
  <g id="그룹_47" data-name="그룹 47" transform="translate(-409.737 -569.239)">
    <g id="그룹_45" data-name="그룹 45">
      <rect id="사각형_35" data-name="사각형 35" width="38.699" height="8.825" rx="4.412" transform="translate(409.737 582.686)" fill="#fdb43b"/>
      <rect id="사각형_36" data-name="사각형 36" width="5.596" height="5.596" transform="translate(457.784 617.853) rotate(45)" fill="#bf46f9"/>
      <g id="그룹_44" data-name="그룹 44">
        <path id="패스_72" data-name="패스 72" d="M432.838,577.964c0-3.667-.9-8.724-8.4-8.725h0v48.147a15.773,15.773,0,0,0,15.776,15.773h8.112a4.331,4.331,0,0,0,4.395-4.091,4.2,4.2,0,0,0-4.2-4.312h-4.105a11.575,11.575,0,0,1-11.576-11.575Z" fill="#fdb43b"/>
      </g>
      <path id="패스_73" data-name="패스 73" d="M436.918,576.236v38.669s.164,6.689,12.89,6.363" fill="none" stroke="#e06703" stroke-linecap="round" stroke-miterlimit="10" stroke-width="0.5" stroke-dasharray="3"/>
    </g>
    <g id="그룹_46" data-name="그룹 46">
      <path id="패스_74" data-name="패스 74" d="M566,591.566c-.083-.355-.395-.534-.934-.534-.028,0-.371.093-1.034.277a9.365,9.365,0,0,1-2.476.277,1.389,1.389,0,0,1-.942-.227,1.565,1.565,0,0,1-.355-.762,3.257,3.257,0,0,1-.069-1.067,11.446,11.446,0,0,0,2.319.2,4.39,4.39,0,0,0,2.52-.771q1.137-.771.913-1.74a4.991,4.991,0,0,0-1.638-2.461,3.969,3.969,0,0,0-2.609-1.236,3.1,3.1,0,0,0-2.275,1.058,6.388,6.388,0,0,0-1.5,2.619,6.292,6.292,0,0,0-.267,1.445l-.016-.02s-.712,4.582,3.293,5.063c.138.016.278.027.419.032.076,0,.143.017.223.017l0-.011c.23,0,.464,0,.709,0a5.2,5.2,0,0,0,2.786-.692Q566.173,592.336,566,591.566Zm-4.909-5.191c.029-.034.064-.058.1-.089a1.613,1.613,0,0,1,1.816-.258c1.02.5.254,1.5.15,1.642-.325.277-.8.18-2.065.18a5.145,5.145,0,0,1-.519-.021A2.167,2.167,0,0,1,561.087,586.375Z" fill="#fdb43b"/>
      <path id="패스_75" data-name="패스 75" d="M544.513,584.025a.473.473,0,0,1,.518-.494q.476,0,1.285.81a3.262,3.262,0,0,1,.948,1.4,25.651,25.651,0,0,1-.237,2.906q-.286,2.689-.42,4.25-.086.831-.736.831a1.1,1.1,0,0,1-.73-.287,1.637,1.637,0,0,1-.474-.9,8.987,8.987,0,0,1-.166-1.74q-1.359,2.926-2.565,2.927a2.092,2.092,0,0,1-1.712-.821,7.608,7.608,0,0,1-1.26-2.485,11.6,11.6,0,0,1-.042-3.95q.4-2.946,1.345-2.945a1.7,1.7,0,0,1,1.137.514,2.193,2.193,0,0,1,.706,1.127,4.63,4.63,0,0,1-.188,1.324,5.764,5.764,0,0,0-.394,2.758c.125.452.317,1.217.983,1.028.716-.2,1.115-1.3,1.421-2.5A25.845,25.845,0,0,0,544.513,584.025Z" fill="#fdb43b"/>
      <path id="패스_76" data-name="패스 76" d="M541.731,624.113c-.008-.372-.032-.75-.073-1.137s-.108-.906-.2-1.556-.228-2.027-.4-4.133c-.071-.852-.147-1.576-.225-2.225l.005.006s-.637-5.958-1-6.9a8.773,8.773,0,0,0-2.623-3.8,6.22,6.22,0,0,0-4.148-2.1q-2.7.008-4.923,3.219a19.848,19.848,0,0,0-3.091,7.323,15.439,15.439,0,0,0-.154,6.9,7.268,7.268,0,0,0,2.9,3.778,7.474,7.474,0,0,0,4.4,1.824q3.3-.011,5.836-5.265a16.369,16.369,0,0,0,1.553,3.781q.871,1.459,1.656,1.459Q541.853,625.275,541.731,624.113Zm-6.831-5.625q-1.815,2.957-3.857,2.96a2.762,2.762,0,0,1-1.56-.483,2.127,2.127,0,0,1-.934-1.276,11.479,11.479,0,0,1,.25-5.156,18.865,18.865,0,0,1,2.34-5.835,5.276,5.276,0,0,1,2.625-2.472s2.414.177,2.87,5.082A13,13,0,0,1,534.9,618.488Z" fill="#fdb43b"/>
      <path id="패스_77" data-name="패스 77" d="M526.04,593.715c0-.173-.016-.349-.035-.53s-.05-.422-.093-.725-.106-.944-.188-1.926c-.033-.4-.068-.734-.1-1.037l0,0s-.3-2.777-.466-3.218a4.087,4.087,0,0,0-1.223-1.772,2.458,2.458,0,0,0-4.227.52,9.265,9.265,0,0,0-1.441,3.413,7.207,7.207,0,0,0-.071,3.215,3.383,3.383,0,0,0,1.352,1.761,3.487,3.487,0,0,0,2.052.85q1.539,0,2.72-2.454a7.635,7.635,0,0,0,.723,1.762q.406.681.772.68C526,594.257,526.077,594.076,526.04,593.715Zm-3.184-2.621q-.846,1.377-1.8,1.379a1.284,1.284,0,0,1-.727-.225.993.993,0,0,1-.435-.594,5.354,5.354,0,0,1,.116-2.4,8.8,8.8,0,0,1,1.091-2.72,2.462,2.462,0,0,1,1.223-1.152s1.126.083,1.338,2.369A6.062,6.062,0,0,1,522.856,591.094Z" fill="#fdb43b"/>
      <path id="패스_78" data-name="패스 78" d="M564.854,609.861a14.111,14.111,0,0,0-2.716-5.264q-2.02-2.548-3.89-2.545-4,.011-6.5,5.406a8.616,8.616,0,0,0-.242-1.625,5.345,5.345,0,0,0-1.8-2.712A4.051,4.051,0,0,0,547.5,601.9q-.957,0-.6,1.394,1.6,6.267,2.034,24.334a60.764,60.764,0,0,0,.339,6.781,4.407,4.407,0,0,0,1.13,1.784c.618.664,1.132,1,1.537.995s.6-1.055.586-3.16q0-1.533-.04-2.879t-.125-3.391q-.088-2.045-.114-2.833a6.4,6.4,0,0,0,1.712.228,8.446,8.446,0,0,0,4.487-1.43,14.586,14.586,0,0,0,6.313-8.424A10.192,10.192,0,0,0,564.854,609.861Zm-4.266,5.539a10.883,10.883,0,0,1-2.514,3.656c-2.5,1.99-4.956,2.255-5.513.484-1.067-3.388.663-7.684,1.175-8.835a12.52,12.52,0,0,1,.867-1.536q2.1-3.118,3.793-3.123t2.68,3.849A8.367,8.367,0,0,1,560.588,615.4Z" fill="#fdb43b"/>
      <path id="패스_79" data-name="패스 79" d="M518.61,614.932a32.9,32.9,0,0,0-.813-6.338,11.615,11.615,0,0,0-2.135-4.36q-1.513-1.923-2.818-1.92-4.174.012-6.592,10.654a28.349,28.349,0,0,0-.711-4.828c-.385-1.912-2.791-6.419-5.894-5.754-.069.015-.131.043-.2.062a2.675,2.675,0,0,0-.34.106c-.063.025-.121.06-.182.089a3.085,3.085,0,0,0-.567.336c-2.127,1.524-2.932,5.165-2.932,5.165l0,0c-.591,1.747-1.541,5.3-2.862,10.712q.477-9.384-.566-13.469a4.434,4.434,0,0,0-1.48-2.132,3.471,3.471,0,0,0-2.164-1.063q-.609,0-.33,1.6c.027.155.061.352.093.534,0,.007.876,13.415,1.241,17.136a6.292,6.292,0,0,0,.164,1.322,4.22,4.22,0,0,0,1.272,1.576q1.134,1.042,1.68,1.041t1.279-1.722c.226-.589.43-1.131.607-1.628s.426-1.2.743-2.115l.841-2.418q.364-1.044,1.052-3.207t1.037-3.184q.348-1.023.841-2.162a5.905,5.905,0,0,1,.9-1.582,1.2,1.2,0,0,1,.888-.443,1.5,1.5,0,0,1,1.042.67,4.1,4.1,0,0,1,.811,1.647,30.534,30.534,0,0,1,.606,11.238,9.085,9.085,0,0,0-.1,2.7,3,3,0,0,0,1.007,1.391,2.386,2.386,0,0,0,1.386.739q.543,0,.981-1.188a25.021,25.021,0,0,0,.882-3.276q.444-2.091.577-2.51c.088-.279.167-.542.234-.791s.126-.441.177-.581.369-1.169.952-3.091a45.862,45.862,0,0,1,1.766-4.928q.891-2.046,1.98-2.049.868,0,1.621,2.945a28.173,28.173,0,0,1,.526,7.941,29.37,29.37,0,0,0,.1,6.27q.324,1.278,1.239,1.275,1.3,0,1.823-3.257A34.827,34.827,0,0,0,518.61,614.932Z" fill="#fdb43b"/>
      <path id="패스_80" data-name="패스 80" d="M495.3,579.992a12.523,12.523,0,0,0-4.388-.593q-5.636,0-5.41.968a2.479,2.479,0,0,0,.755,1.216,1.7,1.7,0,0,0,1.084.583q.2,0,2.306-.118a40.7,40.7,0,0,1,.3,5.644,33.49,33.49,0,0,0,.1,3.924,2.967,2.967,0,0,0,.908,1.236q.8.762,1.214.761.178,0,.263-.445a21.778,21.778,0,0,0,.038-2.787q-.048-2.343-.016-3.993t.045-2.581c0-.133,0-.251,0-.365v-.01c.013-1.071.506-1.331.757-1.4.376.014.771.03,1.186.051q1.22.059,1.675.059a.985.985,0,0,0,.7-.228.489.489,0,0,0,.184-.484Q496.8,580.584,495.3,579.992Z" fill="#fdb43b"/>
      <path id="패스_81" data-name="패스 81" d="M504.879,584.124q-.16-.693-1.6-.692a2.957,2.957,0,0,0-1.329.365,4.317,4.317,0,0,0-1.25.959c-.732-1.358-1.168-1.626-1.839-1.883a.671.671,0,0,0-.871.928c.257.542,1.261,3.07,1.261,3.07a4.792,4.792,0,0,1,.257,1.75,10.714,10.714,0,0,1-.115,1.809,4.741,4.741,0,0,0-.022,1.572,3.052,3.052,0,0,0,.566,1.117,1.3,1.3,0,0,0,1.066.593q.623,0,.868-1.117a17.447,17.447,0,0,0,.254-3.39,3.806,3.806,0,0,1,1.66-3.5c.114-.079.3-.217.557-.415l.2-.188a1.245,1.245,0,0,0,.189-.208c.034-.052.08-.135.14-.246A.789.789,0,0,0,504.879,584.124Z" fill="#fdb43b"/>
      <path id="패스_82" data-name="패스 82" d="M555.947,584.353q-.16-.691-1.6-.691a2.961,2.961,0,0,0-1.33.365,4.328,4.328,0,0,0-1.25.959c-.731-1.358-1.168-1.626-1.839-1.883a.67.67,0,0,0-.871.928c.257.542,1.262,3.07,1.262,3.07a4.784,4.784,0,0,1,.256,1.75,10.714,10.714,0,0,1-.114,1.809,4.687,4.687,0,0,0-.022,1.572,3.05,3.05,0,0,0,.565,1.117,1.3,1.3,0,0,0,1.066.593q.622,0,.868-1.117a17.371,17.371,0,0,0,.254-3.391,3.8,3.8,0,0,1,1.66-3.5c.114-.079.3-.217.557-.416.044-.039.111-.1.2-.187a1.251,1.251,0,0,0,.189-.208c.034-.052.081-.135.141-.246A.793.793,0,0,0,555.947,584.353Z" fill="#fdb43b"/>
      <path id="패스_83" data-name="패스 83" d="M536.248,590.823a2.3,2.3,0,0,0-.758-1.279,5.229,5.229,0,0,0-1.413-.913q-.723-.395-1.344-.771a1.846,1.846,0,0,1-.766-.65c-.272-.516-.188-1.31.364-1.521a1.915,1.915,0,0,1,1.22-.075,3.287,3.287,0,0,1,1.35.921.682.682,0,0,0,.942.139.5.5,0,0,0,.225-.633,3.522,3.522,0,0,0-1.1-1.6,4.552,4.552,0,0,0-.453-.386l-.011-.007c-.936-.7-2.994-1.781-4.506.5-1.051,1.584-.771,2.688-.368,3.329a1.633,1.633,0,0,0,.181.254c.014.018.029.035.043.051a1.326,1.326,0,0,0,.107.128c.019.016.038.028.056.043a1.946,1.946,0,0,0,.229.191l0-.011a8.45,8.45,0,0,0,1.174.795,14,14,0,0,1,1.433.9c.451.323.8.611.768.88-.092.808-.628,1.043-1.441.958a7.428,7.428,0,0,1-2.535-1.137,1.6,1.6,0,0,0-.658-.2q-.634,0-.454.771t1.494,1.5a5.915,5.915,0,0,0,2.927.732,3.966,3.966,0,0,0,2.615-.831A2.239,2.239,0,0,0,536.248,590.823Z" fill="#fdb43b"/>
      <path id="패스_84" data-name="패스 84" d="M515.292,591.566c-.083-.355-.4-.534-.934-.534-.028,0-.371.093-1.034.277a9.364,9.364,0,0,1-2.476.277,1.394,1.394,0,0,1-.943-.227,1.574,1.574,0,0,1-.354-.762,3.257,3.257,0,0,1-.069-1.067,11.446,11.446,0,0,0,2.319.2,4.389,4.389,0,0,0,2.52-.771q1.137-.771.913-1.74a4.991,4.991,0,0,0-1.638-2.461,3.969,3.969,0,0,0-2.609-1.236,3.1,3.1,0,0,0-2.275,1.058,6.388,6.388,0,0,0-1.5,2.619,6.291,6.291,0,0,0-.267,1.445l-.016-.02s-.712,4.582,3.293,5.063c.138.016.278.027.418.032.077,0,.143.017.224.017l-.005-.011c.23,0,.464,0,.709,0a5.2,5.2,0,0,0,2.786-.692Q515.47,592.336,515.292,591.566Zm-4.909-5.191c.029-.034.063-.058.1-.089a1.613,1.613,0,0,1,1.816-.258c1.02.5.253,1.5.15,1.642-.325.277-.8.18-2.066.18a5.109,5.109,0,0,1-.518-.021A2.167,2.167,0,0,1,510.383,586.375Z" fill="#fdb43b"/>
    </g>
  </g>
</svg>
