<svg xmlns="http://www.w3.org/2000/svg" width="156.284" height="67.945" viewBox="0 0 156.284 67.945">
  <g id="그룹_40" data-name="그룹 40" transform="translate(-407.355 -379.499)">
    <g id="그룹_38" data-name="그룹 38">
      <rect id="사각형_31" data-name="사각형 31" width="38.699" height="8.825" rx="4.412" transform="translate(407.355 392.945)" fill="#bf46f9"/>
      <rect id="사각형_32" data-name="사각형 32" width="5.596" height="5.596" transform="translate(455.401 428.112) rotate(45)" fill="#bf46f9"/>
      <g id="그룹_37" data-name="그룹 37">
        <path id="패스_46" data-name="패스 46" d="M430.456,388.223c0-3.667-.9-8.724-8.4-8.724h0v48.147a15.773,15.773,0,0,0,15.777,15.772h8.112a4.331,4.331,0,0,0,4.4-4.091,4.2,4.2,0,0,0-4.2-4.312h-4.106a11.575,11.575,0,0,1-11.575-11.575Z" fill="#bf46f9"/>
      </g>
      <path id="패스_47" data-name="패스 47" d="M434.536,386.495v38.669s.163,6.69,12.89,6.363" fill="none" stroke="#bf46f9" stroke-linecap="round" stroke-miterlimit="10" stroke-width="0.5" stroke-dasharray="3"/>
    </g>
    <g id="그룹_39" data-name="그룹 39">
      <path id="패스_48" data-name="패스 48" d="M563.614,401.825q-.125-.533-.935-.533c-.027,0-.37.092-1.034.276a9.357,9.357,0,0,1-2.475.277,1.388,1.388,0,0,1-.943-.227,1.569,1.569,0,0,1-.354-.761,3.265,3.265,0,0,1-.069-1.068,11.443,11.443,0,0,0,2.319.2,4.39,4.39,0,0,0,2.52-.771q1.137-.771.912-1.74a4.988,4.988,0,0,0-1.637-2.461,3.969,3.969,0,0,0-2.609-1.236,3.1,3.1,0,0,0-2.275,1.058,6.4,6.4,0,0,0-1.5,2.619,6.257,6.257,0,0,0-.267,1.445l-.017-.02s-.711,4.582,3.294,5.063c.138.016.278.027.418.032.077,0,.143.017.223.018l0-.012c.23,0,.464,0,.709,0a5.184,5.184,0,0,0,2.785-.692Q563.792,402.6,563.614,401.825Zm-4.909-5.191a1.126,1.126,0,0,1,.095-.088,1.609,1.609,0,0,1,1.816-.258c1.02.5.253,1.5.15,1.641-.325.277-.8.18-2.066.18-.224,0-.4-.007-.519-.02A2.168,2.168,0,0,1,558.705,396.634Z" fill="#bf46f9"/>
      <path id="패스_49" data-name="패스 49" d="M542.131,394.284a.472.472,0,0,1,.518-.494q.476,0,1.285.81a3.272,3.272,0,0,1,.948,1.4,25.653,25.653,0,0,1-.237,2.906q-.288,2.689-.42,4.251-.085.829-.737.83a1.1,1.1,0,0,1-.729-.287,1.635,1.635,0,0,1-.475-.9,9.094,9.094,0,0,1-.165-1.74q-1.359,2.926-2.565,2.926a2.089,2.089,0,0,1-1.712-.821,7.635,7.635,0,0,1-1.261-2.485,11.576,11.576,0,0,1-.041-3.949q.395-2.946,1.345-2.946a1.7,1.7,0,0,1,1.137.514,2.211,2.211,0,0,1,.706,1.127,4.609,4.609,0,0,1-.189,1.324,5.762,5.762,0,0,0-.393,2.758c.125.452.316,1.218.983,1.028.716-.2,1.115-1.3,1.421-2.5A25.949,25.949,0,0,0,542.131,394.284Z" fill="#bf46f9"/>
      <path id="패스_50" data-name="패스 50" d="M539.349,434.372q-.013-.557-.073-1.137t-.2-1.556q-.139-.975-.4-4.132c-.07-.853-.146-1.576-.224-2.226l0,.006s-.636-5.957-1-6.9a8.779,8.779,0,0,0-2.623-3.8,6.218,6.218,0,0,0-4.149-2.1q-2.7.007-4.922,3.218a19.852,19.852,0,0,0-3.091,7.324,15.434,15.434,0,0,0-.154,6.9,7.263,7.263,0,0,0,2.9,3.779,7.469,7.469,0,0,0,4.4,1.823q3.3-.009,5.836-5.265a16.356,16.356,0,0,0,1.553,3.781q.872,1.461,1.656,1.459Q539.471,435.533,539.349,434.372Zm-6.831-5.625q-1.815,2.956-3.857,2.96a2.752,2.752,0,0,1-1.56-.483,2.128,2.128,0,0,1-.935-1.276,11.489,11.489,0,0,1,.25-5.155,18.837,18.837,0,0,1,2.341-5.836,5.272,5.272,0,0,1,2.625-2.472s2.414.177,2.87,5.082A13,13,0,0,1,532.518,428.747Z" fill="#bf46f9"/>
      <path id="패스_51" data-name="패스 51" d="M523.657,403.975c0-.174-.015-.35-.034-.531s-.05-.422-.094-.725-.106-.944-.187-1.926c-.033-.4-.068-.734-.1-1.037l0,0s-.3-2.776-.466-3.218a4.094,4.094,0,0,0-1.223-1.771,2.457,2.457,0,0,0-4.227.52,9.259,9.259,0,0,0-1.441,3.413,7.2,7.2,0,0,0-.072,3.214,3.393,3.393,0,0,0,1.352,1.761,3.485,3.485,0,0,0,2.052.85q1.54,0,2.72-2.454a7.642,7.642,0,0,0,.724,1.763q.406.68.772.679C523.619,404.516,523.7,404.335,523.657,403.975Zm-3.183-2.622q-.846,1.377-1.8,1.379a1.284,1.284,0,0,1-.727-.225.989.989,0,0,1-.435-.594,5.353,5.353,0,0,1,.116-2.4,8.809,8.809,0,0,1,1.091-2.72,2.46,2.46,0,0,1,1.223-1.152s1.125.083,1.338,2.369A6.062,6.062,0,0,1,520.474,401.353Z" fill="#bf46f9"/>
      <path id="패스_52" data-name="패스 52" d="M562.471,420.121a14.09,14.09,0,0,0-2.715-5.265q-2.02-2.548-3.891-2.545-4,.012-6.5,5.406a8.6,8.6,0,0,0-.241-1.624,5.339,5.339,0,0,0-1.8-2.713,4.054,4.054,0,0,0-2.205-1.225q-.957,0-.6,1.395,1.6,6.266,2.033,24.334a61.307,61.307,0,0,0,.339,6.78,4.422,4.422,0,0,0,1.131,1.784c.618.664,1.132,1,1.537,1s.6-1.055.586-3.161q0-1.531-.04-2.879t-.125-3.391q-.089-2.045-.114-2.832a6.4,6.4,0,0,0,1.712.227,8.445,8.445,0,0,0,4.486-1.43,14.577,14.577,0,0,0,6.313-8.423A10.173,10.173,0,0,0,562.471,420.121Zm-4.265,5.538a10.887,10.887,0,0,1-2.514,3.656c-2.5,1.991-4.956,2.256-5.513.484-1.067-3.388.663-7.684,1.175-8.834a12.477,12.477,0,0,1,.867-1.537q2.1-3.119,3.793-3.122t2.68,3.848A8.367,8.367,0,0,1,558.206,425.659Z" fill="#bf46f9"/>
      <path id="패스_53" data-name="패스 53" d="M516.228,425.192a32.9,32.9,0,0,0-.813-6.339,11.637,11.637,0,0,0-2.135-4.36q-1.515-1.923-2.818-1.92-4.175.012-6.592,10.654a28.346,28.346,0,0,0-.711-4.828c-.385-1.912-2.791-6.419-5.894-5.754-.069.015-.132.043-.2.062a2.725,2.725,0,0,0-.34.106c-.063.025-.12.06-.181.089a3,3,0,0,0-.567.337c-2.128,1.523-2.932,5.164-2.932,5.164l0,0c-.59,1.746-1.541,5.3-2.861,10.711q.477-9.384-.566-13.469a4.441,4.441,0,0,0-1.48-2.132,3.473,3.473,0,0,0-2.164-1.063q-.61,0-.33,1.6c.027.156.061.353.092.535,0,.006.877,13.414,1.242,17.135a6.252,6.252,0,0,0,.163,1.323,4.232,4.232,0,0,0,1.273,1.575q1.134,1.043,1.679,1.041t1.28-1.722q.339-.882.607-1.627t.743-2.116q.477-1.371.841-2.417t1.052-3.207q.687-2.163,1.036-3.185t.841-2.162a5.932,5.932,0,0,1,.9-1.582,1.2,1.2,0,0,1,.889-.443,1.5,1.5,0,0,1,1.041.67,4.1,4.1,0,0,1,.812,1.647,30.534,30.534,0,0,1,.606,11.238,9.064,9.064,0,0,0-.1,2.695,3,3,0,0,0,1.008,1.391,2.378,2.378,0,0,0,1.386.739q.543,0,.98-1.187a24.884,24.884,0,0,0,.882-3.277q.445-2.091.578-2.51c.088-.279.167-.542.234-.79s.126-.442.177-.582.369-1.168.952-3.091a45.719,45.719,0,0,1,1.766-4.928q.891-2.046,1.98-2.048.867,0,1.621,2.944a28.178,28.178,0,0,1,.526,7.942,29.388,29.388,0,0,0,.1,6.269q.325,1.278,1.24,1.275,1.3,0,1.822-3.257A34.822,34.822,0,0,0,516.228,425.192Z" fill="#bf46f9"/>
      <path id="패스_54" data-name="패스 54" d="M492.921,390.251a12.522,12.522,0,0,0-4.388-.593q-5.635,0-5.41.969a2.474,2.474,0,0,0,.755,1.215,1.7,1.7,0,0,0,1.084.583q.2,0,2.306-.118a40.57,40.57,0,0,1,.3,5.644,33.362,33.362,0,0,0,.1,3.924,2.967,2.967,0,0,0,.908,1.236q.8.762,1.214.761.177,0,.263-.445a21.872,21.872,0,0,0,.037-2.787q-.048-2.343-.015-3.993t.045-2.581c0-.132,0-.251,0-.365v-.01c.013-1.07.5-1.331.757-1.394.376.013.77.03,1.186.05q1.219.059,1.675.059a.985.985,0,0,0,.7-.228.488.488,0,0,0,.184-.484Q494.421,390.845,492.921,390.251Z" fill="#bf46f9"/>
      <path id="패스_55" data-name="패스 55" d="M502.5,394.383q-.16-.691-1.6-.692a2.943,2.943,0,0,0-1.329.366,4.314,4.314,0,0,0-1.251.958c-.731-1.358-1.167-1.626-1.838-1.883a.671.671,0,0,0-.871.928c.257.543,1.261,3.071,1.261,3.071a4.806,4.806,0,0,1,.257,1.749,10.735,10.735,0,0,1-.115,1.81,4.681,4.681,0,0,0-.022,1.571,3.065,3.065,0,0,0,.565,1.117,1.3,1.3,0,0,0,1.066.593q.624,0,.869-1.116a17.4,17.4,0,0,0,.253-3.391,3.809,3.809,0,0,1,1.661-3.5c.114-.078.3-.217.556-.415.044-.039.112-.1.2-.187a1.236,1.236,0,0,0,.189-.208c.035-.053.081-.135.141-.247A.784.784,0,0,0,502.5,394.383Z" fill="#bf46f9"/>
      <path id="패스_56" data-name="패스 56" d="M553.565,394.613q-.16-.691-1.6-.692a2.956,2.956,0,0,0-1.329.365,4.33,4.33,0,0,0-1.25.959c-.732-1.358-1.168-1.626-1.839-1.883a.67.67,0,0,0-.871.928c.257.543,1.261,3.071,1.261,3.071a4.784,4.784,0,0,1,.257,1.749,10.63,10.63,0,0,1-.115,1.81,4.736,4.736,0,0,0-.022,1.571,3.053,3.053,0,0,0,.566,1.117,1.3,1.3,0,0,0,1.066.593q.622,0,.868-1.117a17.438,17.438,0,0,0,.254-3.39,3.806,3.806,0,0,1,1.66-3.5c.114-.078.3-.217.557-.415l.2-.188a1.249,1.249,0,0,0,.189-.208c.034-.052.08-.134.141-.246A.8.8,0,0,0,553.565,394.613Z" fill="#bf46f9"/>
      <path id="패스_57" data-name="패스 57" d="M533.865,401.083a2.287,2.287,0,0,0-.758-1.28,5.222,5.222,0,0,0-1.412-.913q-.723-.395-1.345-.77a1.86,1.86,0,0,1-.766-.651c-.271-.516-.187-1.31.364-1.521a1.918,1.918,0,0,1,1.221-.075,3.287,3.287,0,0,1,1.349.921.684.684,0,0,0,.943.14.5.5,0,0,0,.225-.633,3.524,3.524,0,0,0-1.1-1.6,4.477,4.477,0,0,0-.454-.386l-.01-.007c-.937-.7-2.994-1.781-4.506.5-1.051,1.583-.772,2.687-.368,3.328a1.53,1.53,0,0,0,.181.254c.014.018.028.035.043.052a1.287,1.287,0,0,0,.107.127c.018.016.038.028.056.044a1.992,1.992,0,0,0,.229.19l0-.011a8.475,8.475,0,0,0,1.174.8,13.917,13.917,0,0,1,1.434.9c.451.323.8.611.767.88-.091.808-.627,1.044-1.441.958a7.442,7.442,0,0,1-2.534-1.136,1.589,1.589,0,0,0-.658-.2q-.635,0-.455.771t1.494,1.5a5.918,5.918,0,0,0,2.928.732,3.973,3.973,0,0,0,2.615-.83A2.24,2.24,0,0,0,533.865,401.083Z" fill="#bf46f9"/>
      <path id="패스_58" data-name="패스 58" d="M512.909,401.825q-.123-.533-.934-.533-.041,0-1.034.276a9.356,9.356,0,0,1-2.475.277,1.388,1.388,0,0,1-.943-.227,1.569,1.569,0,0,1-.354-.761,3.264,3.264,0,0,1-.069-1.068,11.437,11.437,0,0,0,2.319.2,4.392,4.392,0,0,0,2.52-.771q1.137-.771.912-1.74a4.988,4.988,0,0,0-1.637-2.461,3.971,3.971,0,0,0-2.609-1.236,3.1,3.1,0,0,0-2.275,1.058,6.4,6.4,0,0,0-1.5,2.619,6.258,6.258,0,0,0-.267,1.445l-.017-.02s-.711,4.582,3.294,5.063c.138.016.278.027.418.032.077,0,.143.017.223.018l0-.012c.229,0,.464,0,.709,0a5.184,5.184,0,0,0,2.785-.692Q513.088,402.6,512.909,401.825ZM508,396.634c.029-.034.064-.058.1-.088a1.611,1.611,0,0,1,1.817-.258c1.02.5.253,1.5.15,1.641-.326.277-.8.18-2.066.18-.224,0-.4-.007-.519-.02A2.173,2.173,0,0,1,508,396.634Z" fill="#bf46f9"/>
    </g>
  </g>
</svg>
