<svg xmlns="http://www.w3.org/2000/svg" width="131.709" height="21.046" viewBox="0 0 131.709 21.046">
  <g id="그룹_61" data-name="그룹 61" transform="translate(-457.295 -664.432)">
    <g id="그룹_50" data-name="그룹 50">
      <path id="패스_87" data-name="패스 87" d="M540.47,677q-.129-.551-.965-.551c-.029,0-.384.095-1.069.285a9.68,9.68,0,0,1-2.558.286,1.441,1.441,0,0,1-.974-.234,1.626,1.626,0,0,1-.366-.787,3.394,3.394,0,0,1-.071-1.1,11.772,11.772,0,0,0,2.4.205,4.538,4.538,0,0,0,2.6-.8q1.175-.8.943-1.8a5.158,5.158,0,0,0-1.692-2.542,4.1,4.1,0,0,0-2.7-1.278,3.206,3.206,0,0,0-2.351,1.093,6.624,6.624,0,0,0-1.549,2.707,6.45,6.45,0,0,0-.275,1.492l-.017-.02s-.736,4.734,3.4,5.231c.143.017.287.029.432.033.079,0,.148.018.23.018l0-.011c.237,0,.479,0,.733,0a5.376,5.376,0,0,0,2.878-.714Q540.654,677.8,540.47,677Zm-5.072-5.364a1.207,1.207,0,0,1,.1-.091,1.666,1.666,0,0,1,1.877-.267c1.054.513.261,1.55.155,1.7-.337.286-.825.185-2.135.185a5.2,5.2,0,0,1-.536-.021A2.242,2.242,0,0,1,535.4,671.639Z" fill="#fdb43b"/>
    </g>
    <g id="그룹_51" data-name="그룹 51">
      <path id="패스_88" data-name="패스 88" d="M518.273,669.211a.489.489,0,0,1,.535-.511q.492,0,1.328.838a3.367,3.367,0,0,1,.979,1.45,26.472,26.472,0,0,1-.244,3q-.3,2.778-.435,4.392c-.058.571-.312.858-.76.858a1.135,1.135,0,0,1-.754-.3,1.691,1.691,0,0,1-.49-.93,9.325,9.325,0,0,1-.172-1.8q-1.4,3.024-2.65,3.024a2.162,2.162,0,0,1-1.769-.848,7.9,7.9,0,0,1-1.3-2.568,11.965,11.965,0,0,1-.042-4.081q.408-3.043,1.389-3.044a1.754,1.754,0,0,1,1.175.532,2.271,2.271,0,0,1,.729,1.164,4.716,4.716,0,0,1-.194,1.368,5.95,5.95,0,0,0-.407,2.85c.129.467.327,1.258,1.016,1.062.739-.21,1.152-1.343,1.468-2.58A26.667,26.667,0,0,0,518.273,669.211Z" fill="#fdb43b"/>
    </g>
    <g id="그룹_52" data-name="그룹 52">
      <path id="패스_89" data-name="패스 89" d="M577.581,678.994c0-.177-.015-.357-.035-.541s-.051-.431-.1-.741-.108-.965-.191-1.968c-.034-.406-.07-.75-.107-1.06l0,0s-.3-2.837-.476-3.288a4.178,4.178,0,0,0-1.249-1.81,2.511,2.511,0,0,0-4.319.532,9.447,9.447,0,0,0-1.472,3.487,7.344,7.344,0,0,0-.073,3.285,3.459,3.459,0,0,0,1.381,1.8,3.56,3.56,0,0,0,2.1.868q1.573,0,2.779-2.507a7.806,7.806,0,0,0,.739,1.8q.416.7.789.695C577.542,679.548,577.62,679.363,577.581,678.994Zm-3.253-2.678q-.864,1.407-1.836,1.409a1.314,1.314,0,0,1-.743-.23,1.011,1.011,0,0,1-.445-.607,5.474,5.474,0,0,1,.119-2.455,8.991,8.991,0,0,1,1.114-2.779,2.511,2.511,0,0,1,1.25-1.177s1.15.084,1.367,2.42A6.186,6.186,0,0,1,574.328,676.316Z" fill="#fdb43b"/>
      <path id="패스_90" data-name="패스 90" d="M573.038,679.818a3.829,3.829,0,0,1-2.249-.921,3.723,3.723,0,0,1-1.475-1.94,7.639,7.639,0,0,1,.071-3.4,9.782,9.782,0,0,1,1.512-3.582,3.2,3.2,0,0,1,2.556-1.643h.005a3.218,3.218,0,0,1,2.15,1.073,4.375,4.375,0,0,1,1.321,1.932,32.289,32.289,0,0,1,.482,3.325l.024.227c.01.087.02.177.029.27l.038.351-.005-.005c.007.071.013.144.019.22.082.99.146,1.647.19,1.952s.078.564.1.751.032.372.036.552a.848.848,0,0,1-.14.678.46.46,0,0,1-.349.151h0c-.349,0-.679-.269-1.009-.821a6.994,6.994,0,0,1-.575-1.265c-.785,1.389-1.7,2.094-2.722,2.1Zm.42-10.971h0a2.718,2.718,0,0,0-2.132,1.421,9.255,9.255,0,0,0-1.432,3.393,7.148,7.148,0,0,0-.075,3.167,3.23,3.23,0,0,0,1.287,1.658,3.342,3.342,0,0,0,1.936.816h0c.937,0,1.794-.8,2.547-2.361l.292-.606.188.645a7.637,7.637,0,0,0,.714,1.741c.289.484.479.559.549.568a2.279,2.279,0,0,0-.008-.267V679q-.006-.255-.033-.52c-.02-.181-.051-.426-.095-.731s-.111-.983-.193-1.984c-.034-.4-.07-.743-.106-1.05l-.1-.868.01.012a20.684,20.684,0,0,0-.364-2.367,3.967,3.967,0,0,0-1.187-1.717A2.74,2.74,0,0,0,573.458,668.847Zm-.969,9.137a1.574,1.574,0,0,1-.883-.274,1.26,1.26,0,0,1-.552-.758,5.648,5.648,0,0,1,.117-2.576,9.288,9.288,0,0,1,1.147-2.858,2.721,2.721,0,0,1,1.393-1.288l.076-.012c.014,0,1.384.073,1.624,2.655a6.482,6.482,0,0,1-.863,3.578c-.622,1.015-1.314,1.531-2.056,1.533Zm1.316-7.24a2.413,2.413,0,0,0-1.048,1.046,8.733,8.733,0,0,0-1.082,2.7,5.246,5.246,0,0,0-.121,2.334.759.759,0,0,0,.337.456,1.058,1.058,0,0,0,.6.187h0c.55,0,1.094-.434,1.617-1.286h0a5.968,5.968,0,0,0,.788-3.28C574.729,671.117,573.991,670.8,573.8,670.744Z" fill="#fdb43b"/>
    </g>
    <g id="그룹_53" data-name="그룹 53">
      <path id="패스_91" data-name="패스 91" d="M499.186,679.224c-.005-.179-.016-.362-.036-.548s-.052-.436-.1-.749-.109-.976-.193-1.99c-.034-.411-.071-.759-.108-1.072l0,0s-.307-2.869-.481-3.325a4.228,4.228,0,0,0-1.264-1.83,2.538,2.538,0,0,0-4.367.537,9.556,9.556,0,0,0-1.489,3.527,7.433,7.433,0,0,0-.074,3.321,3.5,3.5,0,0,0,1.4,1.819,3.59,3.59,0,0,0,2.12.878q1.592,0,2.81-2.535a7.887,7.887,0,0,0,.748,1.821q.42.7.8.7C499.146,679.783,499.225,679.6,499.186,679.224Zm-3.29-2.709q-.873,1.423-1.857,1.425a1.332,1.332,0,0,1-.751-.232,1.021,1.021,0,0,1-.45-.615,5.522,5.522,0,0,1,.12-2.482,9.1,9.1,0,0,1,1.127-2.81,2.547,2.547,0,0,1,1.264-1.191s1.162.086,1.382,2.448A6.259,6.259,0,0,1,495.9,676.515Z" fill="#fdb43b"/>
      <path id="패스_92" data-name="패스 92" d="M494.591,680.054a3.863,3.863,0,0,1-2.271-.931,3.748,3.748,0,0,1-1.491-1.961,7.71,7.71,0,0,1,.071-3.438,9.875,9.875,0,0,1,1.529-3.621,3.23,3.23,0,0,1,2.582-1.661,3.331,3.331,0,0,1,2.178,1.085,4.421,4.421,0,0,1,1.334,1.952,32.536,32.536,0,0,1,.488,3.362l.026.241c.008.074.016.151.024.229l.028.257,0,0c.011.112.021.229.031.351.083,1,.148,1.667.192,1.974s.078.571.1.759.032.376.036.559a.852.852,0,0,1-.14.682.462.462,0,0,1-.351.152h0c-.351,0-.684-.271-1.017-.829a7.019,7.019,0,0,1-.582-1.284c-.794,1.407-1.718,2.122-2.753,2.125Zm.425-11.1h0a2.752,2.752,0,0,0-2.158,1.438,9.343,9.343,0,0,0-1.448,3.433,7.229,7.229,0,0,0-.077,3.2,3.277,3.277,0,0,0,1.3,1.678,3.375,3.375,0,0,0,1.959.825h0c.949,0,1.816-.807,2.579-2.389l.291-.606.189.646a7.662,7.662,0,0,0,.722,1.76c.3.5.49.568.56.576a2.259,2.259,0,0,0-.007-.273l0-.021c0-.173-.015-.348-.034-.527s-.051-.43-.1-.739-.11-.978-.2-2.006c-.033-.407-.069-.752-.107-1.062l-.089-.742.009.01a22.424,22.424,0,0,0-.383-2.528,4.02,4.02,0,0,0-1.2-1.737A2.775,2.775,0,0,0,495.016,668.959Zm-.979,9.24a1.594,1.594,0,0,1-.892-.276,1.274,1.274,0,0,1-.557-.766,5.7,5.7,0,0,1,.119-2.6,9.378,9.378,0,0,1,1.158-2.889,2.75,2.75,0,0,1,1.408-1.3l.076-.012c.014,0,1.4.073,1.64,2.682a6.567,6.567,0,0,1-.873,3.616h0c-.63,1.026-1.328,1.547-2.076,1.549Zm1.33-7.322a2.451,2.451,0,0,0-1.063,1.06,8.882,8.882,0,0,0-1.094,2.731,5.324,5.324,0,0,0-.122,2.361.762.762,0,0,0,.343.463,1.066,1.066,0,0,0,.606.19h0c.556,0,1.107-.439,1.637-1.3a6.03,6.03,0,0,0,.8-3.317C496.3,671.254,495.555,670.93,495.367,670.877Z" fill="#fdb43b"/>
    </g>
    <g id="그룹_54" data-name="그룹 54">
      <path id="패스_93" data-name="패스 93" d="M588.592,672.208A6.729,6.729,0,0,0,587.3,669.7a2.571,2.571,0,0,0-1.853-1.212q-1.9.006-3.093,2.574a4.174,4.174,0,0,0-.115-.773A2.55,2.55,0,0,0,581.38,669a1.933,1.933,0,0,0-1.05-.583q-.456,0-.286.664.761,2.984.968,11.587a29.157,29.157,0,0,0,.161,3.229,2.11,2.11,0,0,0,.538.85q.442.474.732.474t.279-1.505q0-.73-.018-1.371t-.06-1.615q-.042-.974-.054-1.349a3.072,3.072,0,0,0,.815.109,4.025,4.025,0,0,0,2.136-.681,6.939,6.939,0,0,0,3.006-4.011A4.861,4.861,0,0,0,588.592,672.208Zm-2.031,2.637a5.187,5.187,0,0,1-1.2,1.741c-1.191.948-2.359,1.074-2.625.231a6.758,6.758,0,0,1,.56-4.207,6.073,6.073,0,0,1,.412-.732q1-1.485,1.807-1.487t1.276,1.833A3.983,3.983,0,0,1,586.561,674.845Z" fill="#fdb43b"/>
      <path id="패스_94" data-name="패스 94" d="M582.441,685.477a1.368,1.368,0,0,1-.919-.556,2.33,2.33,0,0,1-.6-.962,23.217,23.217,0,0,1-.169-3.287c-.137-5.688-.46-9.567-.961-11.529a.885.885,0,0,1,.068-.78.562.562,0,0,1,.468-.207h0a2.087,2.087,0,0,1,1.218.647,2.8,2.8,0,0,1,.94,1.423l0,.014a3.45,3.45,0,0,1,2.953-2.009h0a2.811,2.811,0,0,1,2.052,1.31,6.989,6.989,0,0,1,1.341,2.6,5.118,5.118,0,0,1-.047,2.723,7.209,7.209,0,0,1-3.116,4.159,4.3,4.3,0,0,1-2.274.72H583.4a3.352,3.352,0,0,1-.539-.044c.009.253.024.591.042,1.015.028.65.047,1.189.06,1.618s.018.89.018,1.379c.009,1.2-.123,1.5-.267,1.647A.328.328,0,0,1,582.441,685.477Zm-2.174-16.794s-.039.073.027.332c.51,2,.838,5.918.976,11.645a26.712,26.712,0,0,0,.154,3.171,1.882,1.882,0,0,0,.476.738,1.393,1.393,0,0,0,.468.373,4.321,4.321,0,0,0,.1-1.226q0-.729-.019-1.366t-.059-1.612c-.029-.649-.046-1.1-.055-1.35l-.011-.35.338.092a3.042,3.042,0,0,0,.746.1,3.794,3.794,0,0,0,2-.641,6.672,6.672,0,0,0,2.9-3.864,4.6,4.6,0,0,0,.042-2.452h0a6.463,6.463,0,0,0-1.245-2.41c-.586-.739-1.14-1.114-1.647-1.114h0c-1.171,0-2.107.8-2.86,2.424l-.431.932-.061-1.025a3.911,3.911,0,0,0-.107-.725,2.305,2.305,0,0,0-.777-1.16c-.545-.47-.8-.521-.88-.521h0A.13.13,0,0,0,580.267,668.683Zm3.3,8.955a1.316,1.316,0,0,1-.389-.055,1,1,0,0,1-.682-.688,6.994,6.994,0,0,1,.57-4.39,6.009,6.009,0,0,1,.434-.771c.724-1.075,1.384-1.6,2.02-1.6h0c.678,0,1.176.663,1.524,2.027a4.258,4.258,0,0,1-.245,2.787h0a5.457,5.457,0,0,1-1.257,1.826A3.412,3.412,0,0,1,583.563,677.638Zm1.956-6.988h0c-.438,0-.989.476-1.592,1.373a5.62,5.62,0,0,0-.395.7,6.481,6.481,0,0,0-.546,4.017.494.494,0,0,0,.341.35,2.431,2.431,0,0,0,1.877-.705,4.948,4.948,0,0,0,1.121-1.641h0a3.746,3.746,0,0,0,.219-2.455C586.273,671.231,585.909,670.65,585.519,670.65Z" fill="#fdb43b"/>
    </g>
    <g id="그룹_55" data-name="그룹 55">
      <path id="패스_95" data-name="패스 95" d="M566.571,674.623a15.582,15.582,0,0,0-.387-3.018,5.53,5.53,0,0,0-1.016-2.077q-.722-.915-1.342-.914-1.988.006-3.139,5.073a13.549,13.549,0,0,0-.339-2.3c-.183-.91-1.329-3.056-2.806-2.74-.033.007-.063.021-.095.03a1.318,1.318,0,0,0-.162.05c-.03.012-.057.029-.086.043a1.411,1.411,0,0,0-.27.16,4.758,4.758,0,0,0-1.4,2.459h0c-.281.832-.734,2.523-1.363,5.1a24.017,24.017,0,0,0-.269-6.414,2.118,2.118,0,0,0-.7-1.015,1.65,1.65,0,0,0-1.031-.506q-.289,0-.157.764l.044.254s.418,6.388.591,8.16a3.071,3.071,0,0,0,.078.63,2.035,2.035,0,0,0,.606.75q.542.5.8.5t.609-.821c.108-.28.205-.538.289-.775s.2-.571.354-1.007.285-.819.4-1.151.282-.841.5-1.527.383-1.192.493-1.517.244-.667.4-1.029a2.793,2.793,0,0,1,.429-.753.569.569,0,0,1,.423-.211.709.709,0,0,1,.5.319,1.942,1.942,0,0,1,.386.784,14.537,14.537,0,0,1,.289,5.351,4.333,4.333,0,0,0-.046,1.284,1.43,1.43,0,0,0,.48.662,1.133,1.133,0,0,0,.66.352c.172,0,.328-.189.467-.566a11.9,11.9,0,0,0,.42-1.56q.211-1,.275-1.2c.042-.133.079-.258.111-.376s.06-.211.085-.277.175-.557.453-1.472a21.692,21.692,0,0,1,.841-2.347q.425-.973.943-.975.413,0,.772,1.4a13.415,13.415,0,0,1,.25,3.781,14.063,14.063,0,0,0,.047,2.986q.156.609.591.607.62,0,.867-1.551A16.485,16.485,0,0,0,566.571,674.623Z" fill="#fdb43b"/>
      <path id="패스_96" data-name="패스 96" d="M554.125,679.869c-.247,0-.547-.174-.971-.564a2.136,2.136,0,0,1-.682-.877,3.246,3.246,0,0,1-.086-.684c-.173-1.765-.591-8.148-.591-8.169l-.04-.21c-.081-.466-.054-.749.087-.917a.414.414,0,0,1,.324-.149h0a1.872,1.872,0,0,1,1.2.57,2.367,2.367,0,0,1,.784,1.146,17.477,17.477,0,0,1,.347,4.1c.333-1.291.595-2.222.782-2.781a4.948,4.948,0,0,1,1.5-2.612,1.605,1.605,0,0,1,.311-.184c.048-.025.073-.038.1-.049a1.759,1.759,0,0,1,.2-.061.818.818,0,0,1,.1-.031,1.8,1.8,0,0,1,1.391.3,4.749,4.749,0,0,1,1.723,2.643c.071.275.133.585.186.924.767-2.621,1.766-3.9,3.038-3.9h0a2.118,2.118,0,0,1,1.543,1.012,5.832,5.832,0,0,1,1.064,2.172,16.042,16.042,0,0,1,.394,3.07,16.865,16.865,0,0,1-.158,3.46c-.07.437-.282,1.766-1.123,1.768h0c-.29,0-.671-.139-.84-.8a13.915,13.915,0,0,1-.055-3.061,13.254,13.254,0,0,0-.243-3.707c-.291-1.137-.521-1.207-.523-1.207-.223,0-.474.292-.7.82a21.759,21.759,0,0,0-.831,2.319c-.371,1.225-.44,1.438-.458,1.487s-.048.147-.078.255-.071.25-.114.387c-.039.12-.128.514-.268,1.17a12.129,12.129,0,0,1-.431,1.6c-.067.181-.27.733-.709.734a1.346,1.346,0,0,1-.83-.416,1.641,1.641,0,0,1-.56-.793,3.951,3.951,0,0,1,.04-1.379,14.367,14.367,0,0,0-.283-5.255,1.708,1.708,0,0,0-.334-.682c-.14-.167-.245-.227-.3-.227h0a.309.309,0,0,0-.235.128,2.533,2.533,0,0,0-.381.68c-.152.351-.284.69-.393,1.01s-.274.828-.492,1.512-.387,1.2-.5,1.534l-.4,1.151q-.227.656-.355,1.01c-.084.237-.182.5-.29.78-.3.694-.55.986-.851.986Zm-1.893-11.05a1.554,1.554,0,0,0,.031.457l.045.255c.007.087.421,6.418.594,8.178a2.787,2.787,0,0,0,.071.592c.011.043.08.212.53.623s.606.428.623.428a2.066,2.066,0,0,0,.374-.663c.1-.269.2-.525.283-.76s.2-.572.353-1.006l.4-1.151q.172-.495.5-1.521t.495-1.521c.113-.333.25-.686.408-1.049a3.019,3.019,0,0,1,.475-.825.825.825,0,0,1,.614-.3h0a.937.937,0,0,1,.692.412,2.235,2.235,0,0,1,.439.886,14.878,14.878,0,0,1,.294,5.446,3.932,3.932,0,0,0-.051,1.189,1.152,1.152,0,0,0,.4.532c.295.259.44.288.489.288,0,0,.1-.048.225-.4a11.582,11.582,0,0,0,.409-1.525c.194-.908.253-1.131.281-1.219.042-.13.078-.251.108-.366s.066-.227.093-.3c.015-.042.106-.329.448-1.457a22.07,22.07,0,0,1,.851-2.375c.331-.759.717-1.129,1.179-1.131h0c.43,0,.736.478,1.022,1.6a13.731,13.731,0,0,1,.258,3.857,12.978,12.978,0,0,0,.04,2.91c.1.411.262.433.339.413.251,0,.48-.5.613-1.334a16.237,16.237,0,0,0,.153-3.353,15.469,15.469,0,0,0-.379-2.967,5.3,5.3,0,0,0-.97-1.98c-.419-.534-.813-.816-1.136-.816h0c-1.182,0-2.154,1.643-2.888,4.872l-.381,1.683-.128-1.72a13.4,13.4,0,0,0-.331-2.255,4.222,4.222,0,0,0-1.5-2.326,1.288,1.288,0,0,0-1-.225l-.087.027a1.271,1.271,0,0,0-.132.041l-.067.035a1.159,1.159,0,0,0-.224.132,4.282,4.282,0,0,0-1.267,2.176l.01.009-.051.153c-.28.829-.736,2.537-1.356,5.079l-.508-.074a23.994,23.994,0,0,0-.263-6.337,1.863,1.863,0,0,0-.625-.885A1.556,1.556,0,0,0,552.232,668.819Z" fill="#fdb43b"/>
    </g>
    <g id="그룹_56" data-name="그룹 56">
      <path id="패스_97" data-name="패스 97" d="M467.428,665.044a12.948,12.948,0,0,0-4.534-.612q-5.823,0-5.59,1a2.563,2.563,0,0,0,.78,1.256,1.754,1.754,0,0,0,1.12.6q.2,0,2.383-.123a42.106,42.106,0,0,1,.307,5.832,34.7,34.7,0,0,0,.1,4.055,3.062,3.062,0,0,0,.938,1.277q.826.786,1.254.786.185,0,.272-.46a22.723,22.723,0,0,0,.039-2.88q-.049-2.42-.016-4.125t.047-2.667c0-.137,0-.259,0-.377v-.01c.014-1.107.523-1.376.783-1.441q.582.02,1.225.052,1.26.06,1.73.06a1.017,1.017,0,0,0,.722-.235.506.506,0,0,0,.19-.5Q468.978,665.658,467.428,665.044Z" fill="#fdb43b"/>
    </g>
    <g id="그룹_57" data-name="그룹 57">
      <path id="패스_98" data-name="패스 98" d="M477.321,669.313q-.165-.714-1.656-.714a3.045,3.045,0,0,0-1.374.377,4.456,4.456,0,0,0-1.292.991c-.755-1.4-1.206-1.681-1.9-1.946a.692.692,0,0,0-.9.959c.265.56,1.3,3.172,1.3,3.172a4.958,4.958,0,0,1,.265,1.808,11.056,11.056,0,0,1-.118,1.87,4.833,4.833,0,0,0-.023,1.623,3.133,3.133,0,0,0,.584,1.154,1.344,1.344,0,0,0,1.1.613q.645,0,.9-1.153a17.978,17.978,0,0,0,.263-3.5,3.932,3.932,0,0,1,1.715-3.616q.177-.121.575-.429l.211-.193a1.267,1.267,0,0,0,.2-.215c.036-.054.084-.14.146-.255A.817.817,0,0,0,477.321,669.313Z" fill="#fdb43b"/>
    </g>
    <g id="그룹_58" data-name="그룹 58">
      <path id="패스_99" data-name="패스 99" d="M530.087,669.551q-.166-.716-1.657-.715a3.043,3.043,0,0,0-1.373.378,4.457,4.457,0,0,0-1.292.99c-.756-1.4-1.207-1.68-1.9-1.946a.693.693,0,0,0-.9.959c.266.561,1.3,3.173,1.3,3.173a4.952,4.952,0,0,1,.265,1.807,11.171,11.171,0,0,1-.119,1.87,4.834,4.834,0,0,0-.022,1.624,3.145,3.145,0,0,0,.583,1.154,1.345,1.345,0,0,0,1.1.613q.644,0,.9-1.154a17.9,17.9,0,0,0,.262-3.5,3.935,3.935,0,0,1,1.716-3.615c.118-.082.309-.225.575-.43.045-.04.115-.1.211-.193a1.32,1.32,0,0,0,.2-.215c.036-.054.083-.139.145-.255A.812.812,0,0,0,530.087,669.551Z" fill="#fdb43b"/>
    </g>
    <g id="그룹_59" data-name="그룹 59">
      <path id="패스_100" data-name="패스 100" d="M509.733,676.236a2.368,2.368,0,0,0-.783-1.322,5.4,5.4,0,0,0-1.459-.944q-.748-.408-1.39-.8a1.927,1.927,0,0,1-.792-.672c-.28-.533-.193-1.353.377-1.571a1.981,1.981,0,0,1,1.261-.078,3.387,3.387,0,0,1,1.394.952.706.706,0,0,0,.974.144.513.513,0,0,0,.233-.654,3.644,3.644,0,0,0-1.139-1.655,4.592,4.592,0,0,0-.469-.4l-.01-.007c-.968-.726-3.094-1.84-4.656.513-1.087,1.636-.8,2.777-.381,3.439a1.633,1.633,0,0,0,.187.263l.045.053a1.38,1.38,0,0,0,.111.131c.019.017.038.029.058.045a2,2,0,0,0,.236.2l0-.011a8.866,8.866,0,0,0,1.213.821,14.289,14.289,0,0,1,1.482.93c.465.334.824.632.793.909-.1.835-.648,1.079-1.489.99a7.676,7.676,0,0,1-2.619-1.174,1.64,1.64,0,0,0-.68-.2q-.655,0-.47.8t1.544,1.553a6.118,6.118,0,0,0,3.025.756,4.107,4.107,0,0,0,2.7-.858A2.315,2.315,0,0,0,509.733,676.236Z" fill="#fdb43b"/>
    </g>
    <g id="그룹_60" data-name="그룹 60">
      <path id="패스_101" data-name="패스 101" d="M488.081,677q-.129-.551-.966-.551c-.028,0-.383.095-1.068.285a9.68,9.68,0,0,1-2.558.286,1.439,1.439,0,0,1-.974-.234,1.626,1.626,0,0,1-.366-.787,3.367,3.367,0,0,1-.071-1.1,11.772,11.772,0,0,0,2.4.205,4.539,4.539,0,0,0,2.6-.8q1.174-.8.942-1.8a5.155,5.155,0,0,0-1.691-2.542,4.1,4.1,0,0,0-2.7-1.278,3.206,3.206,0,0,0-2.351,1.093,6.624,6.624,0,0,0-1.549,2.707,6.45,6.45,0,0,0-.275,1.492l-.018-.02s-.735,4.734,3.4,5.231c.142.017.286.029.432.033.079,0,.147.018.23.018l0-.011c.237,0,.479,0,.732,0a5.371,5.371,0,0,0,2.878-.714Q488.264,677.8,488.081,677Zm-5.073-5.364c.03-.035.066-.06.1-.091a1.667,1.667,0,0,1,1.877-.267c1.054.513.262,1.55.155,1.7-.336.286-.825.185-2.134.185a5.184,5.184,0,0,1-.536-.021A2.241,2.241,0,0,1,483.008,671.639Z" fill="#fdb43b"/>
    </g>
  </g>
</svg>
