<svg xmlns="http://www.w3.org/2000/svg" width="156.02" height="65.218" viewBox="0 0 156.02 65.218">
  <g id="그룹_212" data-name="그룹 212" transform="translate(-166.283 -201.562)">
    <g id="그룹_199" data-name="그룹 199">
      <path id="패스_265" data-name="패스 265" d="M224.793,230.816a29.236,29.236,0,0,0-51.381-19.106.99.99,0,0,0-.256.3,29.281,29.281,0,0,0-4.937,8.362,1.058,1.058,0,0,0-.081.2,29.241,29.241,0,0,0,26.823,39.485.847.847,0,0,0,.111.016c.034,0,.068-.007.1-.01.121,0,.242.009.364.009a29.085,29.085,0,0,0,16.186-4.9.959.959,0,0,0,.279-.188A29.244,29.244,0,0,0,224.793,230.816Zm-1.984,0a27.263,27.263,0,0,1-11.9,22.513c-3.765.761-6.834.4-9.115-1.09a8.228,8.228,0,0,1-2.493-2.582,2.644,2.644,0,0,0,.4.127,4.645,4.645,0,0,0,2.1.02,1.589,1.589,0,0,0,.3-.083c7.4-1.771,12.155-5.152,14.137-10.067,3.173-7.874-1.8-17.056-3.418-19.707a1.272,1.272,0,0,1-.163-.833,7.3,7.3,0,0,0,.047-1.307,7.238,7.238,0,1,0-12.051,5.8,7.3,7.3,0,0,0,1.134.83l-1.7-.247a2,2,0,0,1-1.5-1.093l-2.031-4.114a24.05,24.05,0,0,0-2.6-15.387c.525-.03,1.053-.049,1.585-.049A27.3,27.3,0,0,1,222.809,230.816Zm-27.074,27.267A25.042,25.042,0,0,1,194,248.007c.008-.371.01-.741.011-1.109l2.455,1.29a10.525,10.525,0,0,0,4.213,5.691,11.6,11.6,0,0,0,6.03,1.807A27.1,27.1,0,0,1,195.735,258.083ZM181.151,235.35l-4.924-4.8a2,2,0,0,1,1.108-3.408l6.8-.989a3.985,3.985,0,0,0,3-2.179l3.043-6.166a2,2,0,0,1,3.584,0l3.043,6.166a3.985,3.985,0,0,0,3,2.179l5.7.827c-2.186,2.5-6.153,5.607-13.1,7.327l-.1.029c-4.17,1.492-4.268,3.777-4.116,4.691.373,2.249,3.216,3.918,6.759,3.97.122,0,.241,0,.36,0a21.12,21.12,0,0,0,9.422-2.013.992.992,0,0,0-.944-1.745,19.565,19.565,0,0,1-8.484,1.774c-.107,0-.216,0-.325,0-2.754-.04-4.652-1.231-4.831-2.311-.143-.858.922-1.807,2.782-2.481,13.841-3.449,16.777-12.1,16.9-12.47.005-.015.005-.031.01-.047.009-.034.016-.068.022-.1s.008-.062.01-.094,0-.064,0-.1a.759.759,0,0,0-.008-.1c0-.031-.01-.063-.017-.094a.912.912,0,0,0-.027-.093.828.828,0,0,0-.034-.087q-.022-.048-.048-.093c-.009-.015-.014-.03-.023-.044a.354.354,0,0,0-.026-.031.89.89,0,0,0-.066-.083c-.021-.023-.041-.046-.064-.067a.9.9,0,0,0-.074-.062c-.027-.02-.053-.039-.081-.057s-.053-.029-.08-.043a.85.85,0,0,0-.1-.042c-.013-.005-.024-.013-.038-.017s-.031-.006-.046-.01a.949.949,0,0,0-.106-.022.841.841,0,0,0-.086-.01.97.97,0,0,0-.108,0,.734.734,0,0,0-.082.007.789.789,0,0,0-.108.02c-.027.006-.053.014-.079.022s-.068.025-.1.04-.053.026-.078.041-.035.015-.052.026a5.249,5.249,0,1,1,2.226-3.1c0,.01,0,.02,0,.03a.85.85,0,0,0-.016.1c0,.031-.008.062-.008.094s0,.063,0,.094,0,.066.01.1.014.058.022.088a.708.708,0,0,0,.066.175.927.927,0,0,0,.053.1c0,.008.008.017.013.024.07.1,6.974,10.447,3.69,18.593-1.8,4.466-6.382,7.519-13.615,9.078a1.955,1.955,0,0,1-.871-.23l-6.087-3.2a3.981,3.981,0,0,0-3.706,0l-6.087,3.2a2,2,0,0,1-2.9-2.106l1.163-6.778A3.986,3.986,0,0,0,181.151,235.35Zm-6.807-21.669a26.858,26.858,0,0,1,11.086,9.271l-.071.144a2,2,0,0,1-1.5,1.093l-1.983.289a16.161,16.161,0,0,0-11.228-4.773A27.277,27.277,0,0,1,174.344,213.681Zm17.41-9.867a21.224,21.224,0,0,1,3.086,12.118,3.978,3.978,0,0,0-6.437,1l-1.982,4.015a28.81,28.81,0,0,0-10.7-8.832A27.218,27.218,0,0,1,191.754,203.814Zm-23.487,27a27.144,27.144,0,0,1,1.562-9.086,13.552,13.552,0,0,1,9.448,3.124l-2.228.324a3.983,3.983,0,0,0-2.207,6.793l4.924,4.8a2,2,0,0,1,.575,1.769l-1.162,6.778a3.984,3.984,0,0,0,5.779,4.2l6.086-3.2a1.991,1.991,0,0,1,.978-.223c.006.618.006,1.243-.008,1.873a27.425,27.425,0,0,0,1.559,10.043A27.3,27.3,0,0,1,168.267,230.816Z" fill="#fdb43b"/>
      <rect id="사각형_66" data-name="사각형 66" width="1.882" height="1.882" transform="matrix(0.707, -0.707, 0.707, 0.707, 198.535, 209.895)" fill="#fdb43b"/>
      <rect id="사각형_67" data-name="사각형 67" width="1.231" height="1.231" transform="translate(214.19 219.157) rotate(-45)" fill="#fdb43b"/>
      <rect id="사각형_68" data-name="사각형 68" width="1.023" height="1.023" transform="matrix(0.707, -0.707, 0.707, 0.707, 203.43, 208.09)" fill="#fdb43b"/>
    </g>
    <g id="그룹_211" data-name="그룹 211">
      <g id="그룹_200" data-name="그룹 200">
        <path id="패스_266" data-name="패스 266" d="M322.278,220.911c-.082-.355-.394-.534-.934-.534q-.041,0-1.034.277a9.359,9.359,0,0,1-2.476.277,1.392,1.392,0,0,1-.942-.227,1.565,1.565,0,0,1-.354-.762,3.257,3.257,0,0,1-.069-1.067,11.435,11.435,0,0,0,2.319.2,4.392,4.392,0,0,0,2.52-.771q1.137-.771.912-1.74a4.988,4.988,0,0,0-1.637-2.461,3.971,3.971,0,0,0-2.609-1.236,3.1,3.1,0,0,0-2.275,1.058,6.4,6.4,0,0,0-1.5,2.619,6.236,6.236,0,0,0-.266,1.445l-.017-.02s-.711,4.582,3.294,5.063c.138.016.277.027.418.032.077,0,.143.017.223.017l0-.011c.229,0,.464,0,.709,0a5.193,5.193,0,0,0,2.785-.692Q322.457,221.681,322.278,220.911Zm-4.909-5.191c.029-.034.064-.058.1-.089a1.615,1.615,0,0,1,1.817-.258c1.02.5.253,1.5.15,1.642-.326.277-.8.18-2.066.18a5.144,5.144,0,0,1-.519-.021A2.167,2.167,0,0,1,317.369,215.72Z" fill="#fdb43b"/>
      </g>
      <g id="그룹_201" data-name="그룹 201">
        <path id="패스_267" data-name="패스 267" d="M300.8,213.37a.472.472,0,0,1,.517-.494q.477,0,1.286.81a3.271,3.271,0,0,1,.948,1.4,25.825,25.825,0,0,1-.238,2.906q-.286,2.689-.42,4.25-.084.831-.736.831a1.1,1.1,0,0,1-.729-.287,1.638,1.638,0,0,1-.475-.9,9.064,9.064,0,0,1-.166-1.74q-1.357,2.927-2.565,2.927a2.094,2.094,0,0,1-1.712-.821,7.628,7.628,0,0,1-1.26-2.485,11.582,11.582,0,0,1-.041-3.95q.395-2.946,1.345-2.945a1.7,1.7,0,0,1,1.137.514,2.206,2.206,0,0,1,.706,1.127,4.611,4.611,0,0,1-.189,1.324,5.777,5.777,0,0,0-.394,2.758c.125.452.317,1.217.984,1.028.716-.2,1.115-1.3,1.421-2.5A25.975,25.975,0,0,0,300.8,213.37Z" fill="#fdb43b"/>
      </g>
      <g id="그룹_202" data-name="그룹 202">
        <path id="패스_268" data-name="패스 268" d="M298.014,253.458c-.009-.372-.033-.75-.074-1.137s-.107-.906-.2-1.556-.228-2.027-.4-4.133c-.071-.852-.146-1.576-.225-2.225l.005.006s-.636-5.958-1-6.9a8.768,8.768,0,0,0-2.624-3.8,6.22,6.22,0,0,0-4.148-2.1q-2.7.007-4.922,3.218a19.861,19.861,0,0,0-3.092,7.324,15.454,15.454,0,0,0-.154,6.9,7.268,7.268,0,0,0,2.9,3.778,7.476,7.476,0,0,0,4.4,1.824q3.306-.01,5.836-5.265a16.413,16.413,0,0,0,1.554,3.781q.871,1.459,1.655,1.459Q298.135,254.619,298.014,253.458Zm-6.832-5.625q-1.814,2.957-3.857,2.96a2.765,2.765,0,0,1-1.56-.483,2.126,2.126,0,0,1-.934-1.276,11.479,11.479,0,0,1,.25-5.156,18.865,18.865,0,0,1,2.34-5.835,5.28,5.28,0,0,1,2.625-2.472s2.414.177,2.871,5.082A13,13,0,0,1,291.182,247.833Z" fill="#fdb43b"/>
        <path id="패스_269" data-name="패스 269" d="M288.47,254.9a7.761,7.761,0,0,1-4.542-1.874,7.545,7.545,0,0,1-2.992-3.916,15.764,15.764,0,0,1,.152-7.012,20.19,20.19,0,0,1,3.13-7.414c1.527-2.2,3.251-3.32,5.128-3.325h.011a6.48,6.48,0,0,1,4.31,2.172,9.04,9.04,0,0,1,2.693,3.92,69.93,69.93,0,0,1,1.006,6.94l.042.394c.067.587.125,1.189.178,1.831.173,2.085.307,3.469.4,4.117s.161,1.177.2,1.565.065.769.074,1.149a1.558,1.558,0,0,1-.219,1.208.676.676,0,0,1-.516.22h0c-.622,0-1.234-.516-1.869-1.581a15.614,15.614,0,0,1-1.4-3.237c-1.663,3.207-3.6,4.836-5.779,4.843Zm.887-23.041h-.01c-1.7.005-3.29,1.051-4.718,3.11a19.688,19.688,0,0,0-3.052,7.233,15.265,15.265,0,0,0-.156,6.785,7.059,7.059,0,0,0,2.81,3.64,7.29,7.29,0,0,0,4.239,1.773h.012c2.089-.007,3.977-1.731,5.611-5.123l.282-.587.183.625a16.3,16.3,0,0,0,1.528,3.724c.523.875,1.02,1.336,1.44,1.336h0a.175.175,0,0,0,.145-.054c.049-.054.155-.243.093-.832v-.021c-.009-.369-.033-.745-.072-1.117s-.108-.9-.2-1.547-.231-2.053-.4-4.147c-.065-.783-.138-1.507-.224-2.215l-.1-.841.016.019a54.552,54.552,0,0,0-.894-6.018,8.582,8.582,0,0,0-2.563-3.71A6.021,6.021,0,0,0,289.357,231.855Zm-2.037,19.188a3.027,3.027,0,0,1-1.692-.524,2.385,2.385,0,0,1-1.039-1.423,11.773,11.773,0,0,1,.248-5.272,19.2,19.2,0,0,1,2.372-5.913,5.539,5.539,0,0,1,2.763-2.58l.074-.01c.027,0,2.639.144,3.12,5.308a13.324,13.324,0,0,1-1.771,7.334c-1.251,2.04-2.62,3.076-4.069,3.08Zm2.748-15.216a5.17,5.17,0,0,0-2.434,2.348,18.681,18.681,0,0,0-2.309,5.759,11.311,11.311,0,0,0-.252,5.039,1.873,1.873,0,0,0,.831,1.129,2.536,2.536,0,0,0,1.416.441h.005c1.263,0,2.489-.96,3.644-2.841h0a12.815,12.815,0,0,0,1.7-7.044C292.272,236.425,290.373,235.886,290.068,235.827Z" fill="#fdb43b"/>
      </g>
      <g id="그룹_203" data-name="그룹 203">
        <path id="패스_270" data-name="패스 270" d="M282.322,223.06c0-.173-.015-.349-.034-.53s-.05-.422-.094-.725-.106-.944-.187-1.926c-.033-.4-.068-.734-.1-1.037l0,0s-.3-2.777-.466-3.218a4.083,4.083,0,0,0-1.222-1.772,2.458,2.458,0,0,0-4.227.52,9.249,9.249,0,0,0-1.441,3.413,7.194,7.194,0,0,0-.072,3.215,3.388,3.388,0,0,0,1.352,1.761,3.492,3.492,0,0,0,2.052.85q1.541,0,2.72-2.454a7.631,7.631,0,0,0,.724,1.762q.406.681.771.68Q282.378,223.6,282.322,223.06Zm-3.184-2.621q-.844,1.377-1.8,1.379a1.284,1.284,0,0,1-.727-.225.994.994,0,0,1-.436-.594,5.371,5.371,0,0,1,.117-2.4,8.774,8.774,0,0,1,1.091-2.72,2.455,2.455,0,0,1,1.223-1.152s1.125.083,1.338,2.369A6.054,6.054,0,0,1,279.138,220.439Z" fill="#fdb43b"/>
        <path id="패스_271" data-name="패스 271" d="M277.874,223.864a3.737,3.737,0,0,1-2.2-.9,3.631,3.631,0,0,1-1.443-1.9,7.483,7.483,0,0,1,.069-3.328,9.558,9.558,0,0,1,1.48-3.5,3.125,3.125,0,0,1,2.5-1.608h0a3.149,3.149,0,0,1,2.1,1.051,4.272,4.272,0,0,1,1.292,1.89,31.522,31.522,0,0,1,.472,3.253l.018.173q.018.157.036.333l.054.505-.009-.012,0,.041c.08.97.142,1.613.186,1.91s.076.553.1.735.03.364.035.54a.83.83,0,0,1-.137.662.444.444,0,0,1-.339.146h0c-.339,0-.661-.262-.984-.8a6.954,6.954,0,0,1-.564-1.243c-.768,1.362-1.663,2.054-2.664,2.057Zm.412-10.739h0a2.666,2.666,0,0,0-2.089,1.393,9.075,9.075,0,0,0-1.4,3.322,7.006,7.006,0,0,0-.074,3.1,3.171,3.171,0,0,0,1.261,1.623,3.274,3.274,0,0,0,1.895.8h.005c.919,0,1.758-.781,2.5-2.312l.282-.586.183.624a7.493,7.493,0,0,0,.7,1.7c.287.479.474.549.542.557a2.015,2.015,0,0,0-.006-.266l0-.018c0-.167-.014-.337-.033-.51s-.049-.418-.092-.717-.107-.945-.189-1.94c-.033-.394-.068-.728-.1-1.029l-.124-1.038.008.012a17.885,17.885,0,0,0-.333-2.128,3.881,3.881,0,0,0-1.163-1.681A2.687,2.687,0,0,0,278.286,213.125Zm-.951,8.943a1.546,1.546,0,0,1-.859-.266,1.237,1.237,0,0,1-.54-.742,5.538,5.538,0,0,1,.115-2.519,9.087,9.087,0,0,1,1.122-2.8,2.664,2.664,0,0,1,1.362-1.259l.074-.011c.013,0,1.351.07,1.587,2.6a6.349,6.349,0,0,1-.845,3.5h0c-.609.993-1.286,1.5-2.01,1.5Zm1.291-7.086a2.366,2.366,0,0,0-1.028,1.026,8.59,8.59,0,0,0-1.06,2.644,5.151,5.151,0,0,0-.117,2.285.747.747,0,0,0,.331.448,1.032,1.032,0,0,0,.584.183h0c.539,0,1.073-.425,1.586-1.26h0a5.847,5.847,0,0,0,.771-3.211C279.533,215.346,278.808,215.034,278.626,214.982Z" fill="#fdb43b"/>
      </g>
      <g id="그룹_204" data-name="그룹 204">
        <path id="패스_272" data-name="패스 272" d="M321.136,239.206a14.092,14.092,0,0,0-2.715-5.264q-2.022-2.549-3.891-2.545-4,.011-6.5,5.406a8.616,8.616,0,0,0-.241-1.625,5.347,5.347,0,0,0-1.8-2.712,4.047,4.047,0,0,0-2.2-1.225q-.959,0-.6,1.394,1.6,6.267,2.033,24.334a60.759,60.759,0,0,0,.339,6.781,4.407,4.407,0,0,0,1.13,1.784q.928,1,1.537.995t.586-3.16q0-1.533-.039-2.879t-.126-3.391q-.087-2.045-.114-2.833a6.4,6.4,0,0,0,1.712.228,8.446,8.446,0,0,0,4.487-1.43,14.576,14.576,0,0,0,6.313-8.424A10.182,10.182,0,0,0,321.136,239.206Zm-4.265,5.539a10.9,10.9,0,0,1-2.514,3.656c-2.5,1.99-4.956,2.255-5.514.484-1.066-3.388.664-7.684,1.176-8.835a12.657,12.657,0,0,1,.866-1.536q2.1-3.119,3.794-3.123t2.679,3.849A8.373,8.373,0,0,1,316.871,244.745Z" fill="#fdb43b"/>
        <path id="패스_273" data-name="패스 273" d="M308.224,266.78a2.668,2.668,0,0,1-1.72-1.077,4.6,4.6,0,0,1-1.189-1.892,59.516,59.516,0,0,1-.347-6.836c-.287-11.97-.969-20.138-2.025-24.278a1.6,1.6,0,0,1,.09-1.385.9.9,0,0,1,.752-.321h0a4.206,4.206,0,0,1,2.367,1.286,5.6,5.6,0,0,1,1.881,2.84,7.811,7.811,0,0,1,.159.795c1.651-3.156,3.78-4.757,6.335-4.765h.008c1.318,0,2.691.888,4.08,2.639a14.411,14.411,0,0,1,2.761,5.359h0a10.471,10.471,0,0,1-.1,5.564,14.82,14.82,0,0,1-6.42,8.567,8.731,8.731,0,0,1-4.619,1.468h-.011a6.652,6.652,0,0,1-1.44-.157q.03.832.1,2.5.087,2.046.126,3.394t.039,2.887c.018,2.437-.246,3.019-.478,3.253a.5.5,0,0,1-.356.158Zm-4.436-35.289h0c-.26,0-.334.1-.358.127-.069.088-.16.332,0,.956,1.066,4.175,1.753,12.381,2.041,24.389a62.225,62.225,0,0,0,.331,6.725,4.214,4.214,0,0,0,1.071,1.675c.705.757,1.125.917,1.353.917h0c.027-.018.355-.266.336-2.909q0-1.531-.039-2.875t-.126-3.386q-.087-2.047-.113-2.835l-.012-.339.328.089a6.239,6.239,0,0,0,1.634.219h.011a8.24,8.24,0,0,0,4.354-1.392,14.323,14.323,0,0,0,6.206-8.281,9.989,9.989,0,0,0,.091-5.3h0a13.907,13.907,0,0,0-2.669-5.171c-1.289-1.626-2.53-2.45-3.688-2.45h-.006c-2.549.008-4.658,1.777-6.27,5.261l-.417.9-.059-.992a8.556,8.556,0,0,0-.234-1.578,5.123,5.123,0,0,0-1.723-2.584C304.712,231.693,304.1,231.491,303.788,231.491Zm6.8,18.828a2.486,2.486,0,0,1-.741-.1,1.816,1.816,0,0,1-1.239-1.254c-1.086-3.449.633-7.769,1.185-9.011a12.7,12.7,0,0,1,.888-1.575c1.462-2.172,2.771-3.23,4-3.233h0c1.271,0,2.225,1.32,2.918,4.037a8.658,8.658,0,0,1-.5,5.666h0a11.215,11.215,0,0,1-2.572,3.738A6.864,6.864,0,0,1,310.585,250.319Zm4.1-14.678h0c-1.037,0-2.244,1.017-3.587,3.013a12.173,12.173,0,0,0-.849,1.506c-.532,1.193-2.195,5.369-1.163,8.65a1.324,1.324,0,0,0,.909.926c1.023.314,2.633-.275,4.211-1.531a10.708,10.708,0,0,0,2.441-3.558,8.174,8.174,0,0,0,.474-5.346C316.5,236.872,315.678,235.641,314.683,235.641Z" fill="#fdb43b"/>
      </g>
      <g id="그룹_205" data-name="그룹 205">
        <path id="패스_274" data-name="패스 274" d="M274.892,244.277a32.833,32.833,0,0,0-.812-6.338,11.63,11.63,0,0,0-2.135-4.36q-1.515-1.923-2.818-1.92-4.175.012-6.592,10.654a28.346,28.346,0,0,0-.711-4.828c-.385-1.912-2.791-6.419-5.9-5.754-.068.015-.131.043-.2.062a2.728,2.728,0,0,0-.34.106c-.063.025-.121.06-.181.089a3.051,3.051,0,0,0-.567.336c-2.128,1.524-2.933,5.165-2.933,5.165l0,0c-.591,1.747-1.541,5.3-2.861,10.712q.476-9.384-.567-13.469a4.432,4.432,0,0,0-1.479-2.132,3.473,3.473,0,0,0-2.165-1.063q-.609,0-.33,1.6c.028.155.062.352.093.534,0,.007.876,13.415,1.241,17.136a6.292,6.292,0,0,0,.164,1.322,4.23,4.23,0,0,0,1.272,1.576q1.136,1.043,1.68,1.041t1.279-1.722q.341-.884.607-1.628t.744-2.115q.475-1.371.841-2.418t1.052-3.207q.687-2.162,1.036-3.184t.841-2.162a5.932,5.932,0,0,1,.9-1.582,1.2,1.2,0,0,1,.888-.443,1.5,1.5,0,0,1,1.042.67,4.1,4.1,0,0,1,.812,1.646,30.562,30.562,0,0,1,.606,11.239,9.063,9.063,0,0,0-.1,2.7,3,3,0,0,0,1.008,1.391,2.382,2.382,0,0,0,1.385.739q.543,0,.981-1.188a25.016,25.016,0,0,0,.882-3.276q.445-2.091.577-2.51c.088-.279.167-.542.234-.791s.127-.441.178-.581.369-1.169.951-3.091a45.619,45.619,0,0,1,1.767-4.928q.891-2.046,1.979-2.049.868,0,1.622,2.945a28.174,28.174,0,0,1,.526,7.941,29.4,29.4,0,0,0,.1,6.27q.326,1.278,1.239,1.275,1.3,0,1.823-3.257A34.754,34.754,0,0,0,274.892,244.277Z" fill="#fdb43b"/>
        <path id="패스_275" data-name="패스 275" d="M248.76,255c-.439,0-1.026-.351-1.848-1.107a4.344,4.344,0,0,1-1.345-1.7,6.5,6.5,0,0,1-.172-1.375c-.347-3.54-1.149-15.737-1.239-17.116l-.091-.52c-.152-.873-.114-1.409.119-1.688a.578.578,0,0,1,.457-.209h0a3.723,3.723,0,0,1,2.327,1.125,4.7,4.7,0,0,1,1.557,2.258,43.615,43.615,0,0,1,.675,11.06c1-4.015,1.76-6.794,2.26-8.28l0-.017c.034-.152.851-3.752,3.031-5.314a3.276,3.276,0,0,1,.606-.36l.055-.027a1.2,1.2,0,0,1,.14-.067,2.984,2.984,0,0,1,.373-.118l.06-.019a1.062,1.062,0,0,1,.146-.043,3.455,3.455,0,0,1,2.7.583,9.638,9.638,0,0,1,3.494,5.365,24.846,24.846,0,0,1,.576,3.351c1.617-6.3,3.743-9.37,6.481-9.376h.007c.956,0,1.94.659,3.008,2.015a11.924,11.924,0,0,1,2.181,4.452,33.3,33.3,0,0,1,.82,6.389,35.152,35.152,0,0,1-.33,7.2c-.372,2.331-1.048,3.466-2.069,3.468h0c-.505,0-1.171-.254-1.479-1.463a29.136,29.136,0,0,1-.107-6.344,28.079,28.079,0,0,0-.518-7.868c-.636-2.486-1.176-2.756-1.379-2.756h0c-.614,0-1.2.641-1.751,1.9a45.889,45.889,0,0,0-1.757,4.9c-.873,2.887-.936,3.053-.957,3.107-.047.133-.1.321-.17.559s-.147.518-.236.8c-.059.188-.207.773-.571,2.486a25.4,25.4,0,0,1-.892,3.312c-.335.907-.732,1.348-1.214,1.351a2.564,2.564,0,0,1-1.552-.8,3.2,3.2,0,0,1-1.085-1.516,9.088,9.088,0,0,1,.09-2.788,30.449,30.449,0,0,0-.6-11.146,3.884,3.884,0,0,0-.761-1.547c-.319-.38-.613-.582-.85-.582a.961.961,0,0,0-.7.364,5.7,5.7,0,0,0-.855,1.51c-.325.751-.605,1.472-.834,2.144s-.578,1.741-1.035,3.181c-.453,1.422-.808,2.5-1.054,3.213l-.841,2.417q-.477,1.374-.744,2.119c-.178.5-.382,1.042-.609,1.631-.557,1.3-1.022,1.882-1.512,1.883Zm-4.116-23.213h0a.081.081,0,0,0-.075.031c-.045.053-.179.3-.009,1.28l.092.534c.1,1.418.9,13.608,1.244,17.154a6.192,6.192,0,0,0,.157,1.285c.054.212.305.635,1.2,1.454.923.848,1.342.975,1.51.975h0c.063,0,.411-.077,1.049-1.571.223-.577.425-1.118.6-1.612s.425-1.2.743-2.114l.841-2.418c.245-.705.6-1.782,1.049-3.2q.69-2.164,1.039-3.189c.232-.685.518-1.418.848-2.181a6.052,6.052,0,0,1,.947-1.652c.649-.7,1.461-.772,2.3.237a4.373,4.373,0,0,1,.862,1.745,30.914,30.914,0,0,1,.612,11.329,8.431,8.431,0,0,0-.1,2.6,2.783,2.783,0,0,0,.93,1.264c.637.56,1.015.677,1.22.677.234,0,.507-.375.747-1.024a24.915,24.915,0,0,0,.872-3.242c.3-1.392.492-2.244.583-2.534.087-.274.165-.535.231-.78s.131-.457.184-.6c.029-.081.191-.582.947-3.08a46.265,46.265,0,0,1,1.777-4.955c.643-1.477,1.365-2.2,2.208-2.2h0c.725,0,1.318.995,1.863,3.133a28.528,28.528,0,0,1,.533,8.015,29.43,29.43,0,0,0,.093,6.2c.277,1.088.827,1.109,1,1.086.9,0,1.355-1.657,1.576-3.046a34.73,34.73,0,0,0,.325-7.1,32.8,32.8,0,0,0-.8-6.289,11.427,11.427,0,0,0-2.09-4.266c-.953-1.21-1.834-1.824-2.616-1.824h0c-2.638.006-4.775,3.525-6.349,10.459L262.409,244l-.124-1.665a28.21,28.21,0,0,0-.7-4.785,9.2,9.2,0,0,0-3.281-5.058,2.992,2.992,0,0,0-2.318-.513c-.03.007-.059.018-.088.027l-.1.032a2.5,2.5,0,0,0-.317.1.849.849,0,0,0-.091.045l-.071.035a2.767,2.767,0,0,0-.524.311c-1.809,1.3-2.642,4.232-2.809,4.888l.011.01-.047.151c-.588,1.739-1.549,5.336-2.856,10.69l-.492-.072c.315-6.2.127-10.707-.559-13.4a4.213,4.213,0,0,0-1.4-2.006A3.268,3.268,0,0,0,244.644,231.789Z" fill="#fdb43b"/>
      </g>
      <g id="그룹_206" data-name="그룹 206">
        <path id="패스_276" data-name="패스 276" d="M251.586,209.337a12.523,12.523,0,0,0-4.388-.593q-5.636,0-5.41.968a2.472,2.472,0,0,0,.755,1.216,1.7,1.7,0,0,0,1.084.583q.2,0,2.305-.118a40.539,40.539,0,0,1,.3,5.644,33.745,33.745,0,0,0,.1,3.924,2.962,2.962,0,0,0,.909,1.236q.8.762,1.213.761.179,0,.264-.445a21.874,21.874,0,0,0,.037-2.787q-.048-2.343-.015-3.993t.045-2.581c0-.133,0-.251,0-.365v-.01c.013-1.071.506-1.331.758-1.395.376.014.77.03,1.186.051q1.22.059,1.674.059a.987.987,0,0,0,.7-.228.491.491,0,0,0,.184-.484Q253.086,209.929,251.586,209.337Z" fill="#fdb43b"/>
      </g>
      <g id="그룹_207" data-name="그룹 207">
        <path id="패스_277" data-name="패스 277" d="M261.161,213.469q-.161-.693-1.6-.692a2.96,2.96,0,0,0-1.33.365,4.344,4.344,0,0,0-1.25.959c-.731-1.358-1.168-1.626-1.839-1.883a.67.67,0,0,0-.871.928c.257.542,1.262,3.07,1.262,3.07a4.813,4.813,0,0,1,.257,1.75,10.716,10.716,0,0,1-.115,1.809,4.687,4.687,0,0,0-.022,1.572,3.049,3.049,0,0,0,.565,1.117,1.3,1.3,0,0,0,1.066.593q.623,0,.868-1.117a17.367,17.367,0,0,0,.254-3.39,3.811,3.811,0,0,1,1.66-3.5q.171-.119.557-.415l.2-.188a1.165,1.165,0,0,0,.189-.208c.034-.052.081-.135.141-.246A.79.79,0,0,0,261.161,213.469Z" fill="#fdb43b"/>
      </g>
      <g id="그룹_208" data-name="그룹 208">
        <path id="패스_278" data-name="패스 278" d="M312.229,213.7q-.16-.691-1.6-.691a2.953,2.953,0,0,0-1.329.365,4.318,4.318,0,0,0-1.251.959c-.731-1.358-1.167-1.626-1.838-1.883a.67.67,0,0,0-.871.928c.257.542,1.261,3.07,1.261,3.07a4.811,4.811,0,0,1,.257,1.75,10.724,10.724,0,0,1-.115,1.809,4.714,4.714,0,0,0-.022,1.572,3.065,3.065,0,0,0,.565,1.117,1.3,1.3,0,0,0,1.066.593q.624,0,.869-1.117a17.388,17.388,0,0,0,.253-3.391,3.806,3.806,0,0,1,1.661-3.5c.114-.079.3-.217.557-.416.043-.039.111-.1.2-.187a1.164,1.164,0,0,0,.189-.208c.035-.052.081-.135.141-.246A.786.786,0,0,0,312.229,213.7Z" fill="#fdb43b"/>
      </g>
      <g id="그룹_209" data-name="그룹 209">
        <path id="패스_279" data-name="패스 279" d="M292.53,220.168a2.288,2.288,0,0,0-.758-1.279,5.223,5.223,0,0,0-1.412-.913q-.724-.395-1.345-.771a1.86,1.86,0,0,1-.766-.65c-.271-.516-.187-1.31.364-1.521a1.918,1.918,0,0,1,1.221-.075,3.284,3.284,0,0,1,1.349.921.682.682,0,0,0,.942.139.5.5,0,0,0,.226-.633,3.518,3.518,0,0,0-1.1-1.6,4.317,4.317,0,0,0-.453-.386l-.01-.007c-.937-.7-2.994-1.781-4.506.5-1.052,1.584-.772,2.688-.368,3.329a1.625,1.625,0,0,0,.18.254l.043.051a1.327,1.327,0,0,0,.108.128c.018.016.037.028.056.043a2,2,0,0,0,.228.191l0-.011a8.572,8.572,0,0,0,1.174.795,14.188,14.188,0,0,1,1.434.9c.45.324.8.612.767.881-.092.808-.627,1.043-1.441.958a7.424,7.424,0,0,1-2.534-1.137,1.6,1.6,0,0,0-.658-.2q-.635,0-.455.771t1.494,1.5a5.918,5.918,0,0,0,2.927.732,3.969,3.969,0,0,0,2.616-.831A2.238,2.238,0,0,0,292.53,220.168Z" fill="#fdb43b"/>
      </g>
      <g id="그룹_210" data-name="그룹 210">
        <path id="패스_280" data-name="패스 280" d="M271.574,220.911c-.082-.355-.394-.534-.934-.534q-.041,0-1.034.277a9.359,9.359,0,0,1-2.476.277,1.392,1.392,0,0,1-.942-.227,1.564,1.564,0,0,1-.354-.762,3.229,3.229,0,0,1-.069-1.067,11.435,11.435,0,0,0,2.319.2,4.392,4.392,0,0,0,2.52-.771q1.135-.771.912-1.74a5,5,0,0,0-1.637-2.461,3.971,3.971,0,0,0-2.61-1.236,3.1,3.1,0,0,0-2.274,1.058,6.39,6.39,0,0,0-1.5,2.619,6.236,6.236,0,0,0-.266,1.445l-.017-.02s-.712,4.582,3.294,5.063c.138.016.277.027.418.032.077,0,.143.017.223.017l0-.011c.229,0,.463,0,.709,0a5.2,5.2,0,0,0,2.785-.692Q271.752,221.681,271.574,220.911Zm-4.909-5.191c.029-.034.064-.058.1-.089a1.615,1.615,0,0,1,1.817-.258c1.02.5.253,1.5.15,1.642-.326.277-.8.18-2.066.18a5.146,5.146,0,0,1-.519-.021A2.167,2.167,0,0,1,266.665,215.72Z" fill="#fdb43b"/>
      </g>
    </g>
  </g>
</svg>
