<svg xmlns="http://www.w3.org/2000/svg" width="156.02" height="65.218" viewBox="0 0 156.02 65.218">
  <g id="그룹_198" data-name="그룹 198" transform="translate(-166.283 -290.783)">
    <g id="그룹_185" data-name="그룹 185">
      <path id="패스_249" data-name="패스 249" d="M224.793,320.038a29.236,29.236,0,0,0-51.381-19.107,1,1,0,0,0-.256.3,29.281,29.281,0,0,0-4.937,8.362,1.058,1.058,0,0,0-.081.2,29.242,29.242,0,0,0,26.823,39.486,1.06,1.06,0,0,0,.111.016.883.883,0,0,0,.1-.011c.121,0,.242.009.364.009a29.084,29.084,0,0,0,16.186-4.9A.979.979,0,0,0,212,344.2,29.246,29.246,0,0,0,224.793,320.038Zm-1.984,0a27.261,27.261,0,0,1-11.9,22.512c-3.765.761-6.834.4-9.115-1.09a8.228,8.228,0,0,1-2.493-2.582,2.759,2.759,0,0,0,.4.128,4.645,4.645,0,0,0,2.1.019,1.513,1.513,0,0,0,.3-.083c7.4-1.771,12.155-5.151,14.137-10.067,3.173-7.874-1.8-17.055-3.418-19.706a1.273,1.273,0,0,1-.163-.833,7.316,7.316,0,0,0,.047-1.308,7.238,7.238,0,1,0-12.051,5.8,7.3,7.3,0,0,0,1.134.829l-1.7-.246a2,2,0,0,1-1.5-1.094l-2.031-4.114a24.046,24.046,0,0,0-2.6-15.386c.525-.031,1.053-.05,1.585-.05A27.3,27.3,0,0,1,222.809,320.038ZM195.735,347.3A25.034,25.034,0,0,1,194,337.229c.008-.372.01-.741.011-1.11l2.455,1.29a10.525,10.525,0,0,0,4.213,5.691,11.6,11.6,0,0,0,6.03,1.807A27.1,27.1,0,0,1,195.735,347.3Zm-14.584-22.732-4.924-4.8a2,2,0,0,1,1.108-3.409l6.8-.989a3.984,3.984,0,0,0,3-2.178l3.043-6.166a2,2,0,0,1,3.584,0l3.043,6.166a3.984,3.984,0,0,0,3,2.178l5.7.828c-2.186,2.5-6.153,5.606-13.1,7.327l-.1.029c-4.17,1.492-4.268,3.777-4.116,4.69.373,2.249,3.216,3.918,6.759,3.97l.36,0a21.121,21.121,0,0,0,9.422-2.013.992.992,0,0,0-.944-1.746,19.54,19.54,0,0,1-8.484,1.775l-.325,0c-2.754-.04-4.652-1.23-4.831-2.311-.143-.858.922-1.806,2.782-2.481,13.841-3.449,16.777-12.1,16.9-12.469.005-.016.005-.032.01-.048.009-.034.016-.067.022-.1s.008-.062.01-.093,0-.065,0-.1a.743.743,0,0,0-.008-.1c0-.032-.01-.063-.017-.1s-.016-.062-.027-.093-.021-.058-.034-.087-.031-.063-.048-.093c-.009-.014-.014-.029-.023-.043a.256.256,0,0,0-.026-.032,1.046,1.046,0,0,0-.066-.083.8.8,0,0,0-.064-.066.9.9,0,0,0-.074-.062.85.85,0,0,0-.081-.057.886.886,0,0,0-.08-.043.856.856,0,0,0-.1-.043c-.013-.005-.024-.012-.038-.017s-.031-.005-.046-.009a.953.953,0,0,0-.106-.023c-.029,0-.057-.008-.086-.01s-.072,0-.108,0l-.082.007c-.037.005-.072.012-.108.02s-.053.014-.079.023a.789.789,0,0,0-.1.04.714.714,0,0,0-.078.04c-.017.01-.035.016-.052.026a5.249,5.249,0,1,1,2.226-3.1c0,.01,0,.02,0,.03a.883.883,0,0,0-.016.1c0,.032-.008.063-.008.094s0,.063,0,.1,0,.065.01.1a.875.875,0,0,0,.022.088.853.853,0,0,0,.03.1c.01.026.023.051.036.077a.943.943,0,0,0,.053.1c0,.008.008.016.013.024.07.1,6.974,10.447,3.69,18.593-1.8,4.465-6.382,7.518-13.615,9.077a1.941,1.941,0,0,1-.871-.23l-6.087-3.2a3.981,3.981,0,0,0-3.706,0l-6.087,3.2a2,2,0,0,1-2.9-2.106L182.3,328.1A3.983,3.983,0,0,0,181.151,324.572Zm-6.807-21.67a26.858,26.858,0,0,1,11.086,9.271l-.071.144a2,2,0,0,1-1.5,1.094l-1.983.288a16.161,16.161,0,0,0-11.228-4.773A27.3,27.3,0,0,1,174.344,302.9Zm17.41-9.866a21.219,21.219,0,0,1,3.086,12.117,3.978,3.978,0,0,0-6.437,1l-1.982,4.015a28.81,28.81,0,0,0-10.7-8.832A27.217,27.217,0,0,1,191.754,293.036Zm-23.487,27a27.144,27.144,0,0,1,1.562-9.086,13.552,13.552,0,0,1,9.448,3.124l-2.228.324a3.983,3.983,0,0,0-2.207,6.793l4.924,4.8a2,2,0,0,1,.575,1.768l-1.162,6.778a3.983,3.983,0,0,0,5.779,4.2l6.086-3.2a1.992,1.992,0,0,1,.978-.224c.006.619.006,1.243-.008,1.873a27.433,27.433,0,0,0,1.559,10.044A27.3,27.3,0,0,1,168.267,320.038Z" fill="#bf46f9"/>
      <rect id="사각형_63" data-name="사각형 63" width="1.882" height="1.882" transform="matrix(0.707, -0.707, 0.707, 0.707, 198.535, 299.116)" fill="#bf46f9"/>
      <rect id="사각형_64" data-name="사각형 64" width="1.231" height="1.231" transform="translate(214.19 308.378) rotate(-45)" fill="#bf46f9"/>
      <rect id="사각형_65" data-name="사각형 65" width="1.023" height="1.023" transform="matrix(0.707, -0.707, 0.707, 0.707, 203.43, 297.312)" fill="#bf46f9"/>
    </g>
    <g id="그룹_197" data-name="그룹 197">
      <g id="그룹_186" data-name="그룹 186">
        <path id="패스_250" data-name="패스 250" d="M322.278,310.133q-.123-.534-.934-.534-.041,0-1.034.276a9.359,9.359,0,0,1-2.476.277,1.387,1.387,0,0,1-.942-.227,1.556,1.556,0,0,1-.354-.761,3.263,3.263,0,0,1-.069-1.068,11.364,11.364,0,0,0,2.319.2,4.392,4.392,0,0,0,2.52-.771q1.137-.771.912-1.74a4.993,4.993,0,0,0-1.637-2.461,3.971,3.971,0,0,0-2.609-1.236,3.1,3.1,0,0,0-2.275,1.058,6.4,6.4,0,0,0-1.5,2.62,6.238,6.238,0,0,0-.266,1.444l-.017-.019s-.711,4.581,3.294,5.062c.138.016.277.028.418.032.077,0,.143.017.223.018l0-.012c.229,0,.464,0,.709,0a5.193,5.193,0,0,0,2.785-.691Q322.457,310.9,322.278,310.133Zm-4.909-5.192c.029-.034.064-.058.1-.088a1.611,1.611,0,0,1,1.817-.258c1.02.5.253,1.5.15,1.642-.326.276-.8.179-2.066.179-.224,0-.4-.007-.519-.02A2.168,2.168,0,0,1,317.369,304.941Z" fill="#bf46f9"/>
      </g>
      <g id="그룹_187" data-name="그룹 187">
        <path id="패스_251" data-name="패스 251" d="M300.8,302.591a.472.472,0,0,1,.517-.494q.477,0,1.286.811a3.264,3.264,0,0,1,.948,1.4,25.809,25.809,0,0,1-.238,2.906q-.286,2.689-.42,4.251-.084.83-.736.83a1.1,1.1,0,0,1-.729-.286,1.641,1.641,0,0,1-.475-.9,9.064,9.064,0,0,1-.166-1.74q-1.357,2.926-2.565,2.926a2.092,2.092,0,0,1-1.712-.821,7.628,7.628,0,0,1-1.26-2.485,11.576,11.576,0,0,1-.041-3.949q.395-2.946,1.345-2.946a1.7,1.7,0,0,1,1.137.514,2.21,2.21,0,0,1,.706,1.127,4.608,4.608,0,0,1-.189,1.324,5.779,5.779,0,0,0-.394,2.759c.125.452.317,1.217.984,1.027.716-.2,1.115-1.3,1.421-2.5A25.954,25.954,0,0,0,300.8,302.591Z" fill="#bf46f9"/>
      </g>
      <g id="그룹_188" data-name="그룹 188">
        <path id="패스_252" data-name="패스 252" d="M298.014,342.68q-.014-.558-.074-1.138t-.2-1.555q-.14-.975-.4-4.133c-.071-.853-.146-1.576-.225-2.225l.005.006s-.636-5.958-1-6.9a8.769,8.769,0,0,0-2.624-3.8,6.216,6.216,0,0,0-4.148-2.1q-2.7.008-4.922,3.218a19.854,19.854,0,0,0-3.092,7.324,15.454,15.454,0,0,0-.154,6.9,7.268,7.268,0,0,0,2.9,3.778,7.474,7.474,0,0,0,4.4,1.823q3.306-.009,5.836-5.265a16.423,16.423,0,0,0,1.554,3.782q.871,1.459,1.655,1.458Q298.135,343.84,298.014,342.68Zm-6.832-5.626q-1.814,2.957-3.857,2.96a2.757,2.757,0,0,1-1.56-.483,2.124,2.124,0,0,1-.934-1.275,11.479,11.479,0,0,1,.25-5.156,18.871,18.871,0,0,1,2.34-5.836,5.28,5.28,0,0,1,2.625-2.472s2.414.177,2.871,5.082A12.994,12.994,0,0,1,291.182,337.054Z" fill="#bf46f9"/>
        <path id="패스_253" data-name="패스 253" d="M288.47,344.117a7.761,7.761,0,0,1-4.542-1.874,7.541,7.541,0,0,1-2.992-3.916,15.763,15.763,0,0,1,.152-7.012,20.2,20.2,0,0,1,3.13-7.414c1.527-2.2,3.251-3.32,5.128-3.325h.011a6.485,6.485,0,0,1,4.31,2.172,9.046,9.046,0,0,1,2.693,3.92,69.972,69.972,0,0,1,1.006,6.94l.042.394c.067.587.125,1.189.178,1.831.173,2.085.307,3.47.4,4.117s.161,1.177.2,1.566.065.768.074,1.148a1.557,1.557,0,0,1-.219,1.208.673.673,0,0,1-.516.221h0c-.622,0-1.234-.517-1.869-1.581a15.648,15.648,0,0,1-1.4-3.238c-1.663,3.208-3.6,4.836-5.779,4.843Zm.887-23.041h-.01c-1.7.005-3.29,1.051-4.718,3.111a19.683,19.683,0,0,0-3.052,7.232,15.265,15.265,0,0,0-.156,6.785,7.065,7.065,0,0,0,2.81,3.641,7.288,7.288,0,0,0,4.239,1.772h.012c2.089-.007,3.977-1.73,5.611-5.123l.282-.587.183.625a16.258,16.258,0,0,0,1.528,3.724c.523.875,1.02,1.337,1.44,1.337h0a.172.172,0,0,0,.145-.055c.049-.054.155-.243.093-.832v-.02c-.009-.37-.033-.746-.072-1.118s-.108-.9-.2-1.546-.231-2.053-.4-4.148c-.065-.782-.138-1.507-.224-2.215l-.1-.841.016.019a54.59,54.59,0,0,0-.894-6.018,8.588,8.588,0,0,0-2.563-3.71A6.026,6.026,0,0,0,289.357,321.076Zm-2.037,19.189a3.028,3.028,0,0,1-1.692-.525,2.382,2.382,0,0,1-1.039-1.423,11.773,11.773,0,0,1,.248-5.272,19.194,19.194,0,0,1,2.372-5.912,5.539,5.539,0,0,1,2.763-2.58l.074-.011c.027,0,2.639.145,3.12,5.309a13.324,13.324,0,0,1-1.771,7.334c-1.251,2.04-2.62,3.076-4.069,3.08Zm2.748-15.217a5.168,5.168,0,0,0-2.434,2.349,18.675,18.675,0,0,0-2.309,5.758,11.311,11.311,0,0,0-.252,5.039,1.873,1.873,0,0,0,.831,1.129,2.537,2.537,0,0,0,1.416.442h.005c1.263,0,2.489-.96,3.644-2.842h0a12.813,12.813,0,0,0,1.7-7.044C292.272,325.647,290.373,325.107,290.068,325.048Z" fill="#bf46f9"/>
      </g>
      <g id="그룹_189" data-name="그룹 189">
        <path id="패스_254" data-name="패스 254" d="M282.322,312.282c0-.174-.015-.35-.034-.53s-.05-.422-.094-.725-.106-.945-.187-1.926c-.033-.4-.068-.735-.1-1.037l0,0s-.3-2.776-.466-3.218a4.081,4.081,0,0,0-1.222-1.771,2.457,2.457,0,0,0-4.227.52,9.242,9.242,0,0,0-1.441,3.413,7.194,7.194,0,0,0-.072,3.215,3.386,3.386,0,0,0,1.352,1.76,3.479,3.479,0,0,0,2.052.85q1.541,0,2.72-2.454a7.641,7.641,0,0,0,.724,1.763q.406.679.771.68C282.284,312.823,282.36,312.643,282.322,312.282Zm-3.184-2.622q-.844,1.379-1.8,1.38a1.293,1.293,0,0,1-.727-.226.994.994,0,0,1-.436-.594,5.371,5.371,0,0,1,.117-2.4,8.768,8.768,0,0,1,1.091-2.719,2.463,2.463,0,0,1,1.223-1.153s1.125.083,1.338,2.369A6.054,6.054,0,0,1,279.138,309.66Z" fill="#bf46f9"/>
        <path id="패스_255" data-name="패스 255" d="M277.874,313.085a3.742,3.742,0,0,1-2.2-.9,3.636,3.636,0,0,1-1.443-1.9,7.483,7.483,0,0,1,.069-3.328,9.565,9.565,0,0,1,1.48-3.5,3.126,3.126,0,0,1,2.5-1.607h0a3.145,3.145,0,0,1,2.1,1.051,4.269,4.269,0,0,1,1.292,1.889,31.561,31.561,0,0,1,.472,3.253l.018.173c.012.1.024.217.036.333l.054.506-.009-.013,0,.041c.08.971.142,1.613.186,1.91s.076.553.1.736.03.363.035.54a.832.832,0,0,1-.137.662.443.443,0,0,1-.339.145h0c-.339,0-.661-.261-.984-.8a6.934,6.934,0,0,1-.564-1.244c-.768,1.363-1.663,2.054-2.664,2.057Zm.412-10.738h0a2.665,2.665,0,0,0-2.089,1.392,9.072,9.072,0,0,0-1.4,3.323,7,7,0,0,0-.074,3.1,3.167,3.167,0,0,0,1.261,1.623,3.274,3.274,0,0,0,1.895.8h.005c.919,0,1.758-.78,2.5-2.311l.282-.586.183.624a7.512,7.512,0,0,0,.7,1.7c.287.478.474.549.542.556a2,2,0,0,0-.006-.265l0-.019c0-.167-.014-.337-.033-.51s-.049-.418-.092-.716-.107-.946-.189-1.941c-.033-.393-.068-.727-.1-1.028l-.124-1.038.008.011a17.856,17.856,0,0,0-.333-2.127,3.876,3.876,0,0,0-1.163-1.681A2.682,2.682,0,0,0,278.286,302.347Zm-.951,8.942a1.552,1.552,0,0,1-.859-.265,1.241,1.241,0,0,1-.54-.743,5.533,5.533,0,0,1,.115-2.518,9.077,9.077,0,0,1,1.122-2.8,2.671,2.671,0,0,1,1.362-1.26l.074-.011c.013,0,1.351.071,1.587,2.6a6.349,6.349,0,0,1-.845,3.5h0c-.609.993-1.286,1.5-2.01,1.5Zm1.291-7.086a2.369,2.369,0,0,0-1.028,1.027,8.584,8.584,0,0,0-1.06,2.643,5.151,5.151,0,0,0-.117,2.285.749.749,0,0,0,.331.449,1.031,1.031,0,0,0,.584.182h0c.539,0,1.073-.425,1.586-1.26h0a5.847,5.847,0,0,0,.771-3.211C279.533,304.567,278.808,304.255,278.626,304.2Z" fill="#bf46f9"/>
      </g>
      <g id="그룹_190" data-name="그룹 190">
        <path id="패스_256" data-name="패스 256" d="M321.136,328.428a14.1,14.1,0,0,0-2.715-5.265q-2.022-2.549-3.891-2.545-4,.012-6.5,5.406a8.593,8.593,0,0,0-.241-1.624,5.339,5.339,0,0,0-1.8-2.712,4.057,4.057,0,0,0-2.2-1.226q-.959,0-.6,1.395,1.6,6.267,2.033,24.334a60.751,60.751,0,0,0,.339,6.78,4.4,4.4,0,0,0,1.13,1.784q.928,1,1.537,1t.586-3.16q0-1.533-.039-2.88t-.126-3.391q-.087-2.045-.114-2.832a6.443,6.443,0,0,0,1.712.228,8.464,8.464,0,0,0,4.487-1.43,14.584,14.584,0,0,0,6.313-8.424A10.182,10.182,0,0,0,321.136,328.428Zm-4.265,5.539a10.892,10.892,0,0,1-2.514,3.655c-2.5,1.991-4.956,2.256-5.514.484-1.066-3.388.664-7.684,1.176-8.834a12.6,12.6,0,0,1,.866-1.537q2.1-3.117,3.794-3.122t2.679,3.848A8.377,8.377,0,0,1,316.871,333.967Z" fill="#bf46f9"/>
        <path id="패스_257" data-name="패스 257" d="M308.224,356a2.67,2.67,0,0,1-1.72-1.076,4.594,4.594,0,0,1-1.189-1.893,59.516,59.516,0,0,1-.347-6.836c-.287-11.969-.969-20.137-2.025-24.278a1.6,1.6,0,0,1,.09-1.385.9.9,0,0,1,.752-.321h0a4.212,4.212,0,0,1,2.367,1.286,5.611,5.611,0,0,1,1.881,2.84,7.831,7.831,0,0,1,.159.8c1.651-3.156,3.78-4.758,6.335-4.766h.008c1.318,0,2.691.888,4.08,2.64a14.408,14.408,0,0,1,2.761,5.358h0a10.475,10.475,0,0,1-.1,5.565,14.822,14.822,0,0,1-6.42,8.566,8.732,8.732,0,0,1-4.619,1.469h-.011a6.714,6.714,0,0,1-1.44-.157q.03.831.1,2.5.087,2.046.126,3.393c.026.9.039,1.862.039,2.888.018,2.436-.246,3.018-.478,3.253a.5.5,0,0,1-.356.157Zm-4.436-35.289h0c-.26,0-.334.1-.358.127-.069.089-.16.332,0,.956,1.066,4.176,1.753,12.382,2.041,24.39a62.2,62.2,0,0,0,.331,6.724,4.208,4.208,0,0,0,1.071,1.675c.705.758,1.125.917,1.353.917h0c.027-.018.355-.266.336-2.908q0-1.533-.039-2.875t-.126-3.387q-.087-2.046-.113-2.835l-.012-.339.328.089a6.2,6.2,0,0,0,1.634.22h.011a8.25,8.25,0,0,0,4.354-1.393,14.323,14.323,0,0,0,6.206-8.281,9.989,9.989,0,0,0,.091-5.3h0a13.915,13.915,0,0,0-2.669-5.171c-1.289-1.626-2.53-2.45-3.688-2.45h-.006c-2.549.008-4.658,1.778-6.27,5.261l-.417.9-.059-.992a8.569,8.569,0,0,0-.234-1.578,5.123,5.123,0,0,0-1.723-2.584C304.712,320.914,304.1,320.712,303.788,320.712Zm6.8,18.828a2.518,2.518,0,0,1-.741-.1,1.819,1.819,0,0,1-1.239-1.254c-1.086-3.45.633-7.77,1.185-9.012a12.678,12.678,0,0,1,.888-1.574c1.462-2.173,2.771-3.231,4-3.234h0c1.271,0,2.225,1.321,2.918,4.037a8.657,8.657,0,0,1-.5,5.666h0a11.22,11.22,0,0,1-2.572,3.739A6.861,6.861,0,0,1,310.585,339.54Zm4.1-14.678h0c-1.037,0-2.244,1.017-3.587,3.013a12.248,12.248,0,0,0-.849,1.506c-.532,1.193-2.195,5.369-1.163,8.65a1.322,1.322,0,0,0,.909.926c1.023.315,2.633-.274,4.211-1.53a10.713,10.713,0,0,0,2.441-3.559,8.172,8.172,0,0,0,.474-5.345C316.5,326.094,315.678,324.862,314.683,324.862Z" fill="#bf46f9"/>
      </g>
      <g id="그룹_191" data-name="그룹 191">
        <path id="패스_258" data-name="패스 258" d="M274.892,333.5a32.834,32.834,0,0,0-.812-6.339,11.637,11.637,0,0,0-2.135-4.36q-1.515-1.923-2.818-1.919-4.175.01-6.592,10.653a28.362,28.362,0,0,0-.711-4.828c-.385-1.912-2.791-6.418-5.9-5.754-.068.015-.131.043-.2.062a2.725,2.725,0,0,0-.34.106c-.063.026-.121.06-.181.089a3,3,0,0,0-.567.337c-2.128,1.524-2.933,5.164-2.933,5.164l0,0c-.591,1.747-1.541,5.3-2.861,10.711q.476-9.384-.567-13.469a4.432,4.432,0,0,0-1.479-2.132,3.466,3.466,0,0,0-2.165-1.062q-.609,0-.33,1.6c.028.156.062.353.093.535,0,.006.876,13.414,1.241,17.135a6.3,6.3,0,0,0,.164,1.323,4.246,4.246,0,0,0,1.272,1.576q1.136,1.042,1.68,1.04t1.279-1.722q.341-.882.607-1.627t.744-2.115q.475-1.371.841-2.418t1.052-3.207q.687-2.163,1.036-3.185t.841-2.162a5.966,5.966,0,0,1,.9-1.582,1.2,1.2,0,0,1,.888-.443,1.5,1.5,0,0,1,1.042.67,4.107,4.107,0,0,1,.812,1.647,30.559,30.559,0,0,1,.606,11.239,9.056,9.056,0,0,0-.1,2.694,3,3,0,0,0,1.008,1.391,2.37,2.37,0,0,0,1.385.739q.543,0,.981-1.187a25.038,25.038,0,0,0,.882-3.277q.445-2.091.577-2.51c.088-.279.167-.542.234-.79s.127-.442.178-.581.369-1.169.951-3.092a45.7,45.7,0,0,1,1.767-4.928q.891-2.046,1.979-2.048.868,0,1.622,2.944a28.178,28.178,0,0,1,.526,7.942,29.407,29.407,0,0,0,.1,6.27q.326,1.278,1.239,1.274,1.3,0,1.823-3.256A34.758,34.758,0,0,0,274.892,333.5Z" fill="#bf46f9"/>
        <path id="패스_259" data-name="패스 259" d="M248.76,344.224c-.439,0-1.026-.352-1.848-1.108a4.337,4.337,0,0,1-1.345-1.7,6.5,6.5,0,0,1-.172-1.375c-.347-3.54-1.149-15.736-1.239-17.115l-.091-.521c-.152-.873-.114-1.409.119-1.687a.575.575,0,0,1,.457-.209h0a3.723,3.723,0,0,1,2.327,1.125,4.7,4.7,0,0,1,1.557,2.258,43.606,43.606,0,0,1,.675,11.059c1-4.014,1.76-6.794,2.26-8.28l0-.017c.034-.152.851-3.752,3.031-5.313a3.276,3.276,0,0,1,.606-.361l.055-.027a1.193,1.193,0,0,1,.14-.066,2.826,2.826,0,0,1,.373-.118l.06-.02a1.221,1.221,0,0,1,.146-.043,3.459,3.459,0,0,1,2.7.583,9.641,9.641,0,0,1,3.494,5.365,24.89,24.89,0,0,1,.576,3.352c1.617-6.3,3.743-9.37,6.481-9.377h.007c.956,0,1.94.659,3.008,2.016a11.909,11.909,0,0,1,2.181,4.452,33.292,33.292,0,0,1,.82,6.388,35.145,35.145,0,0,1-.33,7.2c-.372,2.332-1.048,3.466-2.069,3.468h0c-.505,0-1.171-.254-1.479-1.463a29.126,29.126,0,0,1-.107-6.343,28.083,28.083,0,0,0-.518-7.869c-.636-2.486-1.176-2.755-1.379-2.755h0c-.614,0-1.2.64-1.751,1.9a45.967,45.967,0,0,0-1.757,4.9c-.873,2.887-.936,3.053-.957,3.108-.047.133-.1.32-.17.558s-.147.518-.236.8c-.059.189-.207.774-.571,2.487a25.425,25.425,0,0,1-.892,3.311c-.335.907-.732,1.349-1.214,1.352a2.57,2.57,0,0,1-1.552-.8,3.193,3.193,0,0,1-1.085-1.517,9.088,9.088,0,0,1,.09-2.788,30.445,30.445,0,0,0-.6-11.145,3.878,3.878,0,0,0-.761-1.547c-.319-.381-.613-.582-.85-.582a.96.96,0,0,0-.7.363,5.711,5.711,0,0,0-.855,1.511c-.325.751-.605,1.471-.834,2.143s-.578,1.742-1.035,3.181c-.453,1.423-.808,2.5-1.054,3.213l-.841,2.418q-.477,1.373-.744,2.118t-.609,1.632c-.557,1.3-1.022,1.882-1.512,1.883Zm-4.116-23.213h0a.081.081,0,0,0-.075.03c-.045.054-.179.305-.009,1.28l.092.535c.1,1.418.9,13.607,1.244,17.154a6.191,6.191,0,0,0,.157,1.284c.054.212.305.636,1.2,1.454.923.849,1.342.976,1.51.976h0c.063,0,.411-.077,1.049-1.572.223-.577.425-1.118.6-1.612s.425-1.2.743-2.113l.841-2.418c.245-.705.6-1.782,1.049-3.2q.69-2.166,1.039-3.19c.232-.684.518-1.418.848-2.18a6.077,6.077,0,0,1,.947-1.653c.649-.7,1.461-.771,2.3.238a4.36,4.36,0,0,1,.862,1.745,30.912,30.912,0,0,1,.612,11.329,8.424,8.424,0,0,0-.1,2.6,2.784,2.784,0,0,0,.93,1.265c.637.559,1.015.677,1.22.677.234,0,.507-.375.747-1.025a24.916,24.916,0,0,0,.872-3.242c.3-1.392.492-2.243.583-2.533.087-.275.165-.535.231-.78s.131-.457.184-.6c.029-.08.191-.582.947-3.079a46.106,46.106,0,0,1,1.777-4.955c.643-1.478,1.365-2.2,2.208-2.2h0c.725,0,1.318.995,1.863,3.132a28.531,28.531,0,0,1,.533,8.015,29.43,29.43,0,0,0,.093,6.2c.277,1.088.827,1.11,1,1.086.9,0,1.355-1.657,1.576-3.046a34.721,34.721,0,0,0,.325-7.1,32.79,32.79,0,0,0-.8-6.289,11.431,11.431,0,0,0-2.09-4.267c-.953-1.21-1.834-1.824-2.616-1.824h0c-2.638.007-4.775,3.525-6.349,10.459l-.369,1.628-.124-1.665a28.179,28.179,0,0,0-.7-4.785,9.2,9.2,0,0,0-3.281-5.059,2.992,2.992,0,0,0-2.318-.513.894.894,0,0,0-.088.028l-.1.031a2.5,2.5,0,0,0-.317.1.694.694,0,0,0-.091.045l-.071.035a2.767,2.767,0,0,0-.524.31c-1.809,1.3-2.642,4.233-2.809,4.889l.011.01-.047.15c-.588,1.739-1.549,5.336-2.856,10.69l-.492-.072c.315-6.2.127-10.707-.559-13.394a4.209,4.209,0,0,0-1.4-2.006A3.268,3.268,0,0,0,244.644,321.011Z" fill="#bf46f9"/>
      </g>
      <g id="그룹_192" data-name="그룹 192">
        <path id="패스_260" data-name="패스 260" d="M251.586,298.558a12.526,12.526,0,0,0-4.388-.592q-5.636,0-5.41.968a2.476,2.476,0,0,0,.755,1.216,1.7,1.7,0,0,0,1.084.583q.2,0,2.305-.119a40.554,40.554,0,0,1,.3,5.645,33.734,33.734,0,0,0,.1,3.923,2.964,2.964,0,0,0,.909,1.237q.8.76,1.213.76.179,0,.264-.444a21.9,21.9,0,0,0,.037-2.788q-.048-2.343-.015-3.993t.045-2.581c0-.132,0-.251,0-.365V302c.013-1.07.506-1.331.758-1.394.376.013.77.03,1.186.05q1.22.059,1.674.059a.987.987,0,0,0,.7-.228.489.489,0,0,0,.184-.483Q253.086,299.151,251.586,298.558Z" fill="#bf46f9"/>
      </g>
      <g id="그룹_193" data-name="그룹 193">
        <path id="패스_261" data-name="패스 261" d="M261.161,302.69Q261,302,259.558,302a2.95,2.95,0,0,0-1.33.366,4.324,4.324,0,0,0-1.25.958c-.731-1.358-1.168-1.626-1.839-1.883a.671.671,0,0,0-.871.928c.257.543,1.262,3.071,1.262,3.071a4.806,4.806,0,0,1,.257,1.749,10.733,10.733,0,0,1-.115,1.81,4.681,4.681,0,0,0-.022,1.571,3.041,3.041,0,0,0,.565,1.117,1.3,1.3,0,0,0,1.066.593q.623,0,.868-1.116a17.378,17.378,0,0,0,.254-3.391,3.811,3.811,0,0,1,1.66-3.5c.114-.078.3-.217.557-.415.044-.039.111-.1.2-.187a1.238,1.238,0,0,0,.189-.208c.034-.053.081-.135.141-.247A.79.79,0,0,0,261.161,302.69Z" fill="#bf46f9"/>
      </g>
      <g id="그룹_194" data-name="그룹 194">
        <path id="패스_262" data-name="패스 262" d="M312.229,302.92q-.16-.691-1.6-.692a2.943,2.943,0,0,0-1.329.366,4.315,4.315,0,0,0-1.251.958c-.731-1.358-1.167-1.626-1.838-1.883a.671.671,0,0,0-.871.928c.257.543,1.261,3.071,1.261,3.071a4.806,4.806,0,0,1,.257,1.749,10.734,10.734,0,0,1-.115,1.81,4.708,4.708,0,0,0-.022,1.571,3.065,3.065,0,0,0,.565,1.117,1.3,1.3,0,0,0,1.066.593q.624,0,.869-1.116a17.4,17.4,0,0,0,.253-3.391,3.809,3.809,0,0,1,1.661-3.5c.114-.078.3-.217.557-.415l.2-.187a1.238,1.238,0,0,0,.189-.208c.035-.053.081-.135.141-.247A.783.783,0,0,0,312.229,302.92Z" fill="#bf46f9"/>
      </g>
      <g id="그룹_195" data-name="그룹 195">
        <path id="패스_263" data-name="패스 263" d="M292.53,309.39a2.282,2.282,0,0,0-.758-1.279,5.228,5.228,0,0,0-1.412-.914q-.724-.395-1.345-.77a1.86,1.86,0,0,1-.766-.651c-.271-.516-.187-1.309.364-1.52a1.911,1.911,0,0,1,1.221-.075,3.275,3.275,0,0,1,1.349.921.684.684,0,0,0,.942.139.5.5,0,0,0,.226-.633,3.52,3.52,0,0,0-1.1-1.6,4.222,4.222,0,0,0-.453-.385l-.01-.008c-.937-.7-2.994-1.781-4.506.5-1.052,1.583-.772,2.687-.368,3.328a1.536,1.536,0,0,0,.18.254l.043.052a1.444,1.444,0,0,0,.108.127c.018.016.037.028.056.044a2.046,2.046,0,0,0,.228.19l0-.011a8.4,8.4,0,0,0,1.174.8,14.015,14.015,0,0,1,1.434.9c.45.323.8.611.767.88-.092.808-.627,1.044-1.441.958a7.442,7.442,0,0,1-2.534-1.136,1.589,1.589,0,0,0-.658-.2q-.635,0-.455.771t1.494,1.5a5.918,5.918,0,0,0,2.927.732,3.974,3.974,0,0,0,2.616-.83A2.239,2.239,0,0,0,292.53,309.39Z" fill="#bf46f9"/>
      </g>
      <g id="그룹_196" data-name="그룹 196">
        <path id="패스_264" data-name="패스 264" d="M271.574,310.133q-.123-.534-.934-.534-.041,0-1.034.276a9.359,9.359,0,0,1-2.476.277,1.387,1.387,0,0,1-.942-.227,1.556,1.556,0,0,1-.354-.761,3.235,3.235,0,0,1-.069-1.068,11.364,11.364,0,0,0,2.319.2,4.392,4.392,0,0,0,2.52-.771q1.135-.771.912-1.74a5,5,0,0,0-1.637-2.461,3.971,3.971,0,0,0-2.61-1.236,3.1,3.1,0,0,0-2.274,1.058,6.394,6.394,0,0,0-1.5,2.62,6.238,6.238,0,0,0-.266,1.444l-.017-.019s-.712,4.581,3.294,5.062c.138.016.277.028.418.032.077,0,.143.017.223.018l0-.012c.229,0,.463,0,.709,0a5.2,5.2,0,0,0,2.785-.691Q271.752,310.9,271.574,310.133Zm-4.909-5.192c.029-.034.064-.058.1-.088a1.611,1.611,0,0,1,1.817-.258c1.02.5.253,1.5.15,1.642-.326.276-.8.179-2.066.179-.224,0-.4-.007-.519-.02A2.168,2.168,0,0,1,266.665,304.941Z" fill="#bf46f9"/>
      </g>
    </g>
  </g>
</svg>
