<svg xmlns="http://www.w3.org/2000/svg" width="131.709" height="21.046" viewBox="0 0 131.709 21.046">
  <g id="그룹_76" data-name="그룹 76" transform="translate(-458.285 -723.696)">
    <g id="그룹_65" data-name="그룹 65">
      <path id="패스_104" data-name="패스 104" d="M541.46,736.267q-.128-.551-.965-.551c-.028,0-.383.095-1.068.285a9.678,9.678,0,0,1-2.558.286,1.439,1.439,0,0,1-.974-.234,1.617,1.617,0,0,1-.366-.787,3.339,3.339,0,0,1-.071-1.1,11.777,11.777,0,0,0,2.4.2,4.539,4.539,0,0,0,2.6-.8q1.175-.8.942-1.8a5.155,5.155,0,0,0-1.691-2.542,4.1,4.1,0,0,0-2.7-1.278,3.206,3.206,0,0,0-2.351,1.093,6.613,6.613,0,0,0-1.549,2.707,6.441,6.441,0,0,0-.275,1.492l-.018-.02s-.735,4.734,3.4,5.231c.142.017.286.028.431.033.08,0,.148.018.231.018l0-.011c.237,0,.479,0,.732,0a5.371,5.371,0,0,0,2.878-.714Q541.644,737.064,541.46,736.267Zm-5.072-5.364c.03-.035.066-.06.1-.091a1.667,1.667,0,0,1,1.877-.267c1.054.513.262,1.55.155,1.7-.336.286-.825.185-2.134.185a5.182,5.182,0,0,1-.536-.021A2.241,2.241,0,0,1,536.388,730.9Z" fill="#bf46f9"/>
    </g>
    <g id="그룹_66" data-name="그룹 66">
      <path id="패스_105" data-name="패스 105" d="M519.264,728.475a.489.489,0,0,1,.535-.511q.492,0,1.328.838a3.367,3.367,0,0,1,.979,1.45,26.387,26.387,0,0,1-.245,3q-.3,2.778-.434,4.392c-.058.571-.312.858-.761.858a1.132,1.132,0,0,1-.753-.3,1.7,1.7,0,0,1-.491-.93,9.428,9.428,0,0,1-.171-1.8q-1.4,3.024-2.65,3.024a2.161,2.161,0,0,1-1.769-.848,7.863,7.863,0,0,1-1.3-2.568,11.983,11.983,0,0,1-.043-4.081q.408-3.043,1.39-3.044a1.75,1.75,0,0,1,1.174.532,2.28,2.28,0,0,1,.73,1.164,4.775,4.775,0,0,1-.2,1.368,5.975,5.975,0,0,0-.407,2.85c.129.467.327,1.258,1.016,1.062.74-.21,1.152-1.343,1.469-2.58A26.941,26.941,0,0,0,519.264,728.475Z" fill="#bf46f9"/>
    </g>
    <g id="그룹_67" data-name="그룹 67">
      <path id="패스_106" data-name="패스 106" d="M578.572,738.258c0-.177-.016-.357-.035-.541s-.051-.431-.1-.741-.108-.965-.191-1.968c-.034-.406-.07-.75-.107-1.06l0,0s-.3-2.837-.476-3.288a4.187,4.187,0,0,0-1.249-1.81,2.512,2.512,0,0,0-4.32.531,9.492,9.492,0,0,0-1.472,3.488,7.374,7.374,0,0,0-.073,3.285,3.461,3.461,0,0,0,1.382,1.8,3.557,3.557,0,0,0,2.1.868q1.573,0,2.779-2.507a7.8,7.8,0,0,0,.74,1.8c.276.464.54.7.788.7Q578.63,738.812,578.572,738.258Zm-3.253-2.678q-.864,1.407-1.837,1.409a1.316,1.316,0,0,1-.743-.23,1,1,0,0,1-.444-.607,5.445,5.445,0,0,1,.119-2.455,8.963,8.963,0,0,1,1.114-2.779,2.511,2.511,0,0,1,1.25-1.177s1.149.084,1.367,2.42A6.2,6.2,0,0,1,575.319,735.58Z" fill="#bf46f9"/>
      <path id="패스_107" data-name="패스 107" d="M574.029,739.082a3.829,3.829,0,0,1-2.249-.921,3.719,3.719,0,0,1-1.475-1.94,7.625,7.625,0,0,1,.071-3.4,9.783,9.783,0,0,1,1.512-3.582,3.193,3.193,0,0,1,2.556-1.643h0a3.219,3.219,0,0,1,2.151,1.073,4.372,4.372,0,0,1,1.32,1.932,32.022,32.022,0,0,1,.483,3.325l.024.227c.01.087.02.177.029.27l.038.351-.005,0c.006.071.013.144.019.22.082.99.146,1.647.19,1.952s.077.564.1.751.032.372.036.552a.848.848,0,0,1-.14.678.46.46,0,0,1-.349.151h0c-.35,0-.68-.269-1.01-.821a7.066,7.066,0,0,1-.574-1.265c-.785,1.389-1.7,2.094-2.722,2.1Zm.419-10.971h0a2.717,2.717,0,0,0-2.132,1.421,9.256,9.256,0,0,0-1.432,3.393,7.152,7.152,0,0,0-.076,3.167,3.238,3.238,0,0,0,1.288,1.658,3.342,3.342,0,0,0,1.935.816h.005c.936,0,1.793-.8,2.547-2.361l.291-.606.189.645a7.593,7.593,0,0,0,.713,1.741c.29.484.479.559.55.568a2.294,2.294,0,0,0-.008-.267v-.022c-.005-.17-.016-.343-.034-.52s-.051-.426-.1-.731-.11-.983-.193-1.984c-.033-.4-.069-.743-.106-1.05l-.1-.868.01.012a20.74,20.74,0,0,0-.363-2.367,3.97,3.97,0,0,0-1.188-1.717A2.736,2.736,0,0,0,574.448,728.111Zm-.968,9.137a1.571,1.571,0,0,1-.883-.274,1.266,1.266,0,0,1-.553-.758,5.651,5.651,0,0,1,.118-2.576,9.277,9.277,0,0,1,1.146-2.858,2.728,2.728,0,0,1,1.393-1.288l.077-.012c.014,0,1.383.073,1.624,2.655a6.482,6.482,0,0,1-.863,3.578c-.623,1.015-1.315,1.531-2.056,1.533Zm1.316-7.24a2.415,2.415,0,0,0-1.049,1.046,8.755,8.755,0,0,0-1.081,2.7,5.246,5.246,0,0,0-.121,2.334.755.755,0,0,0,.337.455,1.051,1.051,0,0,0,.6.188h0c.55,0,1.094-.434,1.617-1.286h0a5.968,5.968,0,0,0,.787-3.28C575.72,730.381,574.982,730.06,574.8,730.008Z" fill="#bf46f9"/>
    </g>
    <g id="그룹_68" data-name="그룹 68">
      <path id="패스_108" data-name="패스 108" d="M500.176,738.488c0-.179-.016-.362-.035-.548s-.052-.436-.1-.749-.11-.976-.194-1.99c-.034-.411-.07-.759-.108-1.072l0,0s-.307-2.869-.482-3.325a4.224,4.224,0,0,0-1.263-1.83,2.539,2.539,0,0,0-4.368.537,9.554,9.554,0,0,0-1.488,3.527,7.418,7.418,0,0,0-.074,3.321,3.493,3.493,0,0,0,1.4,1.819,3.594,3.594,0,0,0,2.121.878q1.59,0,2.81-2.535a7.888,7.888,0,0,0,.748,1.821c.279.469.546.7.8.7C500.137,739.047,500.215,738.861,500.176,738.488Zm-3.289-2.709q-.875,1.424-1.858,1.425a1.335,1.335,0,0,1-.751-.232,1.028,1.028,0,0,1-.45-.615,5.525,5.525,0,0,1,.121-2.482,9.062,9.062,0,0,1,1.127-2.81,2.542,2.542,0,0,1,1.264-1.191s1.162.086,1.382,2.448A6.259,6.259,0,0,1,496.887,735.779Z" fill="#bf46f9"/>
      <path id="패스_109" data-name="패스 109" d="M495.582,739.318a3.868,3.868,0,0,1-2.272-.931,3.753,3.753,0,0,1-1.491-1.961,7.712,7.712,0,0,1,.072-3.438,9.875,9.875,0,0,1,1.529-3.621A3.23,3.23,0,0,1,496,727.706a3.327,3.327,0,0,1,2.177,1.085,4.424,4.424,0,0,1,1.335,1.952A32.824,32.824,0,0,1,500,734.1l.025.241c.009.074.017.151.025.229l.027.257,0,0c.01.112.02.229.031.351.083,1,.148,1.667.192,1.974s.078.571.1.759.032.376.036.559a.852.852,0,0,1-.14.682.462.462,0,0,1-.351.152h0c-.352,0-.685-.271-1.017-.829a7.085,7.085,0,0,1-.583-1.284c-.793,1.407-1.718,2.122-2.753,2.125Zm.424-11.095h0a2.751,2.751,0,0,0-2.158,1.438,9.343,9.343,0,0,0-1.448,3.433,7.2,7.2,0,0,0-.077,3.2,3.272,3.272,0,0,0,1.3,1.678,3.375,3.375,0,0,0,1.959.825h0c.949,0,1.816-.807,2.578-2.389l.292-.606.188.646a7.706,7.706,0,0,0,.722,1.76c.3.5.49.568.56.576a2.03,2.03,0,0,0-.007-.273v-.021c0-.173-.015-.348-.034-.527s-.051-.43-.1-.739-.11-.978-.2-2.006c-.034-.407-.07-.752-.107-1.062l-.09-.742.01.01a22.35,22.35,0,0,0-.384-2.528,4.016,4.016,0,0,0-1.2-1.737A2.775,2.775,0,0,0,496.006,728.223Zm-.979,9.24a1.591,1.591,0,0,1-.891-.276,1.276,1.276,0,0,1-.558-.766,5.728,5.728,0,0,1,.119-2.6,9.354,9.354,0,0,1,1.159-2.889,2.749,2.749,0,0,1,1.407-1.3l.077-.012c.014,0,1.4.073,1.639,2.682a6.558,6.558,0,0,1-.872,3.616h0c-.63,1.026-1.329,1.547-2.077,1.549Zm1.331-7.322a2.446,2.446,0,0,0-1.063,1.06,8.858,8.858,0,0,0-1.094,2.731,5.309,5.309,0,0,0-.122,2.361.764.764,0,0,0,.342.463,1.068,1.068,0,0,0,.606.19h0c.557,0,1.108-.439,1.638-1.3a6.038,6.038,0,0,0,.8-3.317C497.3,730.518,496.545,730.194,496.358,730.141Z" fill="#bf46f9"/>
    </g>
    <g id="그룹_69" data-name="그룹 69">
      <path id="패스_110" data-name="패스 110" d="M589.582,731.472a6.713,6.713,0,0,0-1.293-2.507,2.568,2.568,0,0,0-1.852-1.212q-1.906.006-3.094,2.574a4.01,4.01,0,0,0-.115-.773,2.543,2.543,0,0,0-.858-1.292,1.926,1.926,0,0,0-1.05-.583q-.456,0-.286.664.762,2.983.968,11.587a28.99,28.99,0,0,0,.162,3.229,2.109,2.109,0,0,0,.538.85q.442.474.732.474t.279-1.5q0-.73-.019-1.371t-.06-1.615q-.04-.973-.054-1.349a3.084,3.084,0,0,0,.815.109,4.028,4.028,0,0,0,2.137-.681,6.95,6.95,0,0,0,3.006-4.011A4.851,4.851,0,0,0,589.582,731.472Zm-2.031,2.637a5.171,5.171,0,0,1-1.2,1.741c-1.191.948-2.36,1.074-2.625.231a6.766,6.766,0,0,1,.559-4.207,5.947,5.947,0,0,1,.413-.732q1-1.485,1.806-1.487t1.276,1.833A3.984,3.984,0,0,1,587.551,734.109Z" fill="#bf46f9"/>
      <path id="패스_111" data-name="패스 111" d="M583.431,744.741a1.368,1.368,0,0,1-.918-.556,2.319,2.319,0,0,1-.6-.962,23.061,23.061,0,0,1-.17-3.287c-.137-5.688-.459-9.567-.96-11.529a.878.878,0,0,1,.068-.78.56.56,0,0,1,.467-.207h0a2.087,2.087,0,0,1,1.218.647,2.813,2.813,0,0,1,.94,1.423l0,.014a3.453,3.453,0,0,1,2.954-2.009h0a2.811,2.811,0,0,1,2.051,1.31,6.99,6.99,0,0,1,1.341,2.6,5.118,5.118,0,0,1-.046,2.723,7.2,7.2,0,0,1-3.117,4.159,4.3,4.3,0,0,1-2.273.72h-.006a3.373,3.373,0,0,1-.54-.044q.015.379.043,1.015.04.975.059,1.618t.019,1.379c.009,1.2-.124,1.5-.268,1.647A.328.328,0,0,1,583.431,744.741Zm-2.174-16.794s-.039.073.028.332c.51,2,.838,5.918.976,11.645a27.226,27.226,0,0,0,.153,3.171,1.887,1.887,0,0,0,.477.738,1.393,1.393,0,0,0,.468.373,4.3,4.3,0,0,0,.095-1.226q0-.729-.018-1.366t-.06-1.612q-.042-.973-.054-1.35l-.012-.35.338.092a3.051,3.051,0,0,0,.747.1,3.8,3.8,0,0,0,2-.641,6.683,6.683,0,0,0,2.895-3.864,4.619,4.619,0,0,0,.042-2.452h0a6.477,6.477,0,0,0-1.245-2.41c-.586-.739-1.14-1.114-1.647-1.114h0c-1.171,0-2.106.8-2.859,2.424l-.431.932-.061-1.025a3.832,3.832,0,0,0-.108-.725,2.31,2.31,0,0,0-.776-1.16c-.545-.47-.8-.521-.881-.521h0A.136.136,0,0,0,581.257,727.947Zm3.3,8.955a1.323,1.323,0,0,1-.39-.055,1,1,0,0,1-.681-.688,7,7,0,0,1,.569-4.39,6.126,6.126,0,0,1,.435-.771c.723-1.075,1.384-1.6,2.02-1.6h0c.678,0,1.177.663,1.524,2.027a4.258,4.258,0,0,1-.244,2.787h0a5.472,5.472,0,0,1-1.257,1.826A3.418,3.418,0,0,1,584.554,736.9Zm1.955-6.988h0c-.439,0-.989.475-1.592,1.372a5.453,5.453,0,0,0-.4.7,6.481,6.481,0,0,0-.546,4.017.492.492,0,0,0,.341.35,2.436,2.436,0,0,0,1.877-.705,4.93,4.93,0,0,0,1.12-1.641h0a3.753,3.753,0,0,0,.219-2.455C587.263,730.495,586.9,729.914,586.509,729.914Z" fill="#bf46f9"/>
    </g>
    <g id="그룹_70" data-name="그룹 70">
      <path id="패스_112" data-name="패스 112" d="M567.562,733.887a15.581,15.581,0,0,0-.387-3.018,5.531,5.531,0,0,0-1.017-2.077q-.72-.915-1.342-.914-1.987.006-3.139,5.073a13.455,13.455,0,0,0-.338-2.3c-.183-.91-1.329-3.056-2.807-2.74-.033.007-.062.021-.094.03a1.313,1.313,0,0,0-.162.05c-.03.012-.058.029-.087.043a1.475,1.475,0,0,0-.27.16,4.758,4.758,0,0,0-1.4,2.459h0c-.281.832-.733,2.523-1.362,5.1a24.049,24.049,0,0,0-.27-6.414,2.109,2.109,0,0,0-.7-1.015,1.652,1.652,0,0,0-1.031-.506c-.193,0-.246.255-.157.764l.044.254s.417,6.388.591,8.16a3.063,3.063,0,0,0,.078.63,2.024,2.024,0,0,0,.606.75q.54.5.8.5c.172,0,.376-.274.609-.821.108-.28.2-.538.289-.775s.2-.571.354-1.007.285-.819.4-1.151.283-.841.5-1.527.383-1.192.494-1.517.244-.667.4-1.029a2.85,2.85,0,0,1,.429-.753.571.571,0,0,1,.423-.211.707.707,0,0,1,.5.319,1.944,1.944,0,0,1,.387.784,14.537,14.537,0,0,1,.288,5.351,4.32,4.32,0,0,0-.045,1.284,1.431,1.431,0,0,0,.48.662,1.133,1.133,0,0,0,.66.352c.172,0,.328-.189.466-.566a11.746,11.746,0,0,0,.42-1.56q.213-1,.275-1.2c.042-.133.08-.258.112-.376s.06-.211.084-.277.176-.557.453-1.472a21.68,21.68,0,0,1,.842-2.347q.423-.974.942-.975.414,0,.772,1.4a13.411,13.411,0,0,1,.251,3.781,14.054,14.054,0,0,0,.047,2.986q.155.609.59.607.621,0,.868-1.551A16.562,16.562,0,0,0,567.562,733.887Z" fill="#bf46f9"/>
      <path id="패스_113" data-name="패스 113" d="M555.116,739.133c-.248,0-.548-.174-.972-.564a2.123,2.123,0,0,1-.681-.877,3.238,3.238,0,0,1-.086-.684c-.173-1.765-.591-8.148-.591-8.169l-.041-.21c-.081-.466-.054-.749.087-.917a.418.418,0,0,1,.325-.149h0a1.868,1.868,0,0,1,1.2.57,2.354,2.354,0,0,1,.784,1.146,17.415,17.415,0,0,1,.348,4.1c.332-1.291.594-2.222.781-2.781a4.953,4.953,0,0,1,1.5-2.612,1.594,1.594,0,0,1,.31-.184c.049-.025.074-.038.1-.049a1.751,1.751,0,0,1,.2-.061.791.791,0,0,1,.1-.031,1.8,1.8,0,0,1,1.391.3,4.749,4.749,0,0,1,1.723,2.643c.071.275.133.585.186.924.767-2.621,1.766-3.9,3.038-3.905h0a2.114,2.114,0,0,1,1.543,1.012,5.818,5.818,0,0,1,1.064,2.172,15.958,15.958,0,0,1,.4,3.07,16.86,16.86,0,0,1-.159,3.46c-.069.437-.281,1.766-1.122,1.768h0c-.29,0-.67-.139-.839-.8a13.907,13.907,0,0,1-.055-3.061,13.254,13.254,0,0,0-.243-3.707c-.291-1.137-.522-1.207-.524-1.207-.223,0-.473.292-.7.82a21.562,21.562,0,0,0-.83,2.319c-.372,1.225-.44,1.438-.458,1.487s-.048.147-.078.255-.071.25-.115.386c-.038.121-.128.515-.268,1.171a12.294,12.294,0,0,1-.43,1.6c-.067.181-.27.733-.709.734a1.347,1.347,0,0,1-.831-.416,1.645,1.645,0,0,1-.559-.793,3.966,3.966,0,0,1,.039-1.379,14.346,14.346,0,0,0-.282-5.255,1.7,1.7,0,0,0-.335-.682c-.14-.167-.244-.227-.3-.227h0a.31.31,0,0,0-.236.128,2.542,2.542,0,0,0-.38.68c-.152.351-.284.69-.393,1.01s-.274.828-.492,1.512-.388,1.2-.5,1.534l-.4,1.151q-.228.656-.356,1.01t-.29.78c-.3.694-.549.986-.85.986Zm-1.894-11.05a1.569,1.569,0,0,0,.032.457l.044.255c.007.086.422,6.418.594,8.178a2.92,2.92,0,0,0,.071.592c.011.042.081.212.531.623s.606.427.622.428a2.071,2.071,0,0,0,.375-.663c.1-.269.2-.525.283-.76s.2-.572.353-1.006l.4-1.151q.172-.5.5-1.521t.495-1.521c.114-.333.251-.686.408-1.049a3.018,3.018,0,0,1,.476-.825.825.825,0,0,1,.614-.295h0a.935.935,0,0,1,.691.412,2.223,2.223,0,0,1,.439.886,14.875,14.875,0,0,1,.295,5.446,3.956,3.956,0,0,0-.052,1.189,1.161,1.161,0,0,0,.4.532c.3.259.44.288.489.288,0,0,.1-.048.225-.4a11.546,11.546,0,0,0,.41-1.525c.193-.908.253-1.131.281-1.219.041-.13.077-.251.108-.366s.066-.227.092-.3c.016-.042.107-.329.448-1.457a22.078,22.078,0,0,1,.852-2.375c.33-.759.716-1.129,1.179-1.131h0c.43,0,.736.478,1.022,1.6a13.7,13.7,0,0,1,.257,3.857,13.125,13.125,0,0,0,.04,2.91c.1.411.263.433.34.413.251,0,.48-.5.613-1.334a16.31,16.31,0,0,0,.153-3.353,15.469,15.469,0,0,0-.379-2.967,5.3,5.3,0,0,0-.97-1.98c-.42-.534-.813-.816-1.137-.816h0c-1.183,0-2.154,1.643-2.888,4.872l-.382,1.683-.127-1.72a13.487,13.487,0,0,0-.331-2.255,4.224,4.224,0,0,0-1.5-2.326,1.288,1.288,0,0,0-1-.225l-.086.027a1.189,1.189,0,0,0-.132.041l-.068.035a1.181,1.181,0,0,0-.223.132,4.274,4.274,0,0,0-1.267,2.176l.009.009-.05.153c-.28.828-.736,2.537-1.356,5.079l-.509-.074a23.96,23.96,0,0,0-.262-6.337,1.866,1.866,0,0,0-.626-.885A1.551,1.551,0,0,0,553.222,728.083Z" fill="#bf46f9"/>
    </g>
    <g id="그룹_71" data-name="그룹 71">
      <path id="패스_114" data-name="패스 114" d="M468.418,724.308a12.942,12.942,0,0,0-4.534-.612q-5.822,0-5.59,1a2.565,2.565,0,0,0,.781,1.256,1.757,1.757,0,0,0,1.12.6q.2,0,2.382-.123a42.084,42.084,0,0,1,.308,5.832,34.838,34.838,0,0,0,.1,4.055,3.076,3.076,0,0,0,.939,1.277q.827.786,1.254.786c.123,0,.213-.153.272-.46a22.61,22.61,0,0,0,.038-2.88q-.05-2.421-.016-4.125t.047-2.667c0-.137,0-.259,0-.377v-.011c.013-1.106.522-1.375.782-1.44.389.013.8.031,1.226.052q1.26.06,1.73.06a1.021,1.021,0,0,0,.722-.235.506.506,0,0,0,.19-.5Q469.969,724.921,468.418,724.308Z" fill="#bf46f9"/>
    </g>
    <g id="그룹_72" data-name="그룹 72">
      <path id="패스_115" data-name="패스 115" d="M478.312,728.577q-.167-.714-1.657-.715a3.043,3.043,0,0,0-1.373.378,4.443,4.443,0,0,0-1.292.991c-.756-1.4-1.207-1.681-1.9-1.946a.693.693,0,0,0-.9.959c.266.56,1.3,3.172,1.3,3.172a4.962,4.962,0,0,1,.266,1.808,11.17,11.17,0,0,1-.119,1.87,4.826,4.826,0,0,0-.022,1.623,3.144,3.144,0,0,0,.583,1.154,1.345,1.345,0,0,0,1.1.613q.643,0,.9-1.153a18,18,0,0,0,.262-3.5,3.935,3.935,0,0,1,1.716-3.616c.118-.081.309-.224.575-.429l.211-.194a1.321,1.321,0,0,0,.2-.214c.036-.054.083-.14.145-.255A.815.815,0,0,0,478.312,728.577Z" fill="#bf46f9"/>
    </g>
    <g id="그룹_73" data-name="그룹 73">
      <path id="패스_116" data-name="패스 116" d="M531.077,728.815q-.165-.715-1.656-.715a3.047,3.047,0,0,0-1.374.378,4.468,4.468,0,0,0-1.292.99c-.755-1.4-1.206-1.68-1.9-1.946a.693.693,0,0,0-.9.959c.265.561,1.3,3.173,1.3,3.173a4.951,4.951,0,0,1,.265,1.807,11.048,11.048,0,0,1-.118,1.87,4.866,4.866,0,0,0-.023,1.624,3.166,3.166,0,0,0,.584,1.154,1.344,1.344,0,0,0,1.1.613q.644,0,.9-1.154a18.062,18.062,0,0,0,.262-3.5,3.932,3.932,0,0,1,1.715-3.615q.177-.123.576-.43c.045-.04.115-.1.21-.193a1.331,1.331,0,0,0,.2-.215c.035-.054.083-.139.145-.255A.808.808,0,0,0,531.077,728.815Z" fill="#bf46f9"/>
    </g>
    <g id="그룹_74" data-name="그룹 74">
      <path id="패스_117" data-name="패스 117" d="M510.723,735.5a2.362,2.362,0,0,0-.783-1.322,5.4,5.4,0,0,0-1.459-.944q-.747-.408-1.389-.8a1.927,1.927,0,0,1-.792-.672c-.28-.533-.193-1.353.376-1.571a1.981,1.981,0,0,1,1.261-.078,3.391,3.391,0,0,1,1.395.952.705.705,0,0,0,.973.144.512.512,0,0,0,.233-.654A3.636,3.636,0,0,0,509.4,728.9a4.553,4.553,0,0,0-.468-.4l-.011-.007c-.968-.726-3.093-1.84-4.656.513-1.086,1.636-.8,2.777-.38,3.439a1.584,1.584,0,0,0,.187.262l.044.054a1.531,1.531,0,0,0,.111.131c.019.017.039.029.058.045a2.106,2.106,0,0,0,.236.2l0-.011a8.739,8.739,0,0,0,1.213.821,14.492,14.492,0,0,1,1.482.93c.465.334.824.632.792.909-.1.835-.648,1.079-1.489.99A7.679,7.679,0,0,1,503.9,735.6a1.649,1.649,0,0,0-.68-.2q-.655,0-.47.8t1.544,1.553a6.114,6.114,0,0,0,3.024.756,4.109,4.109,0,0,0,2.7-.858A2.312,2.312,0,0,0,510.723,735.5Z" fill="#bf46f9"/>
    </g>
    <g id="그룹_75" data-name="그룹 75">
      <path id="패스_118" data-name="패스 118" d="M489.071,736.267c-.085-.367-.408-.551-.965-.551-.028,0-.383.095-1.068.285a9.678,9.678,0,0,1-2.558.286,1.439,1.439,0,0,1-.974-.234,1.608,1.608,0,0,1-.366-.787,3.34,3.34,0,0,1-.071-1.1,11.76,11.76,0,0,0,2.395.2,4.536,4.536,0,0,0,2.6-.8q1.175-.8.943-1.8a5.151,5.151,0,0,0-1.692-2.542,4.1,4.1,0,0,0-2.7-1.278,3.2,3.2,0,0,0-2.35,1.093,6.6,6.6,0,0,0-1.549,2.707,6.5,6.5,0,0,0-.276,1.492l-.017-.02s-.735,4.734,3.4,5.231q.214.026.432.033c.08,0,.148.018.231.018l-.005-.011c.237,0,.48,0,.733,0a5.371,5.371,0,0,0,2.878-.714Q489.255,737.064,489.071,736.267ZM484,730.9c.03-.035.066-.06.1-.091a1.667,1.667,0,0,1,1.877-.267c1.054.513.262,1.55.155,1.7-.336.286-.825.185-2.135.185a5.2,5.2,0,0,1-.536-.021A2.242,2.242,0,0,1,484,730.9Z" fill="#bf46f9"/>
    </g>
  </g>
</svg>
