<svg xmlns="http://www.w3.org/2000/svg" width="73.953" height="73.953" viewBox="0 0 73.953 73.953">
  <g id="그룹_253" data-name="그룹 253" transform="translate(-322.364 -167.191)">
    <circle id="타원_10" data-name="타원 10" cx="5.246" cy="5.246" r="5.246" transform="translate(339.532 188.365)" fill="#1e0e08"/>
    <circle id="타원_11" data-name="타원 11" cx="5.246" cy="5.246" r="5.246" transform="translate(368.303 190.303)" fill="#1e0e08"/>
    <circle id="타원_12" data-name="타원 12" cx="35.477" cy="35.477" r="35.477" transform="translate(323.864 168.691)" fill="none" stroke="#1e0e08" stroke-linecap="round" stroke-miterlimit="10" stroke-width="3"/>
    <path id="패스_12" data-name="패스 12" d="M415.789,228.958s-4.957-14.092,5.559-22.257c0,0,21.216-4.505,36.139,0a33.511,33.511,0,0,1,6.566,24.556" transform="translate(-81.816)" fill="none" stroke="#1e0e08" stroke-linecap="round" stroke-linejoin="round" stroke-width="3"/>
    <path id="패스_13" data-name="패스 13" d="M425.108,217.119s13.421,3.379,25.012,1.267" transform="translate(-81.816)" fill="none" stroke="#1e0e08" stroke-linecap="round" stroke-linejoin="round" stroke-width="3"/>
    <path id="패스_14" data-name="패스 14" d="M425.108,226.993s13.421,3.378,25.012,1.267" transform="translate(-81.816)" fill="none" stroke="#1e0e08" stroke-linecap="round" stroke-linejoin="round" stroke-width="3"/>
    <path id="패스_15" data-name="패스 15" d="M457.487,206.7s11.418,1,16.878-15.032" transform="translate(-81.816)" fill="none" stroke="#1e0e08" stroke-linecap="round" stroke-linejoin="round" stroke-width="3"/>
    <path id="패스_16" data-name="패스 16" d="M421.348,206.7s-13.268-.462-10.808-20.456" transform="translate(-81.816)" fill="none" stroke="#1e0e08" stroke-linecap="round" stroke-linejoin="round" stroke-width="3"/>
  </g>
</svg>
