<svg xmlns="http://www.w3.org/2000/svg" width="73.953" height="73.953" viewBox="0 0 73.953 73.953">
  <g id="그룹_254" data-name="그룹 254" transform="translate(-420.242 -167.191)">
    <circle id="타원_13" data-name="타원 13" cx="5.246" cy="5.246" r="5.246" transform="translate(437.41 188.365)" fill="#1e0e08"/>
    <circle id="타원_14" data-name="타원 14" cx="5.246" cy="5.246" r="5.246" transform="translate(466.181 188.303)" fill="#1e0e08"/>
    <circle id="타원_15" data-name="타원 15" cx="35.477" cy="35.477" r="35.477" transform="translate(421.742 168.691)" fill="none" stroke="#1e0e08" stroke-linecap="round" stroke-miterlimit="10" stroke-width="3"/>
    <path id="패스_17" data-name="패스 17" d="M513.667,228.958s-4.957-14.092,5.559-22.257c0,0,21.216-4.505,36.139,0a33.508,33.508,0,0,1,6.565,24.556" transform="translate(-81.816)" fill="none" stroke="#1e0e08" stroke-linecap="round" stroke-linejoin="round" stroke-width="3"/>
    <path id="패스_18" data-name="패스 18" d="M522.985,217.119S536.406,220.5,548,218.386" transform="translate(-81.816)" fill="none" stroke="#1e0e08" stroke-linecap="round" stroke-linejoin="round" stroke-width="3"/>
    <path id="패스_19" data-name="패스 19" d="M522.985,226.993s13.421,3.378,25.012,1.267" transform="translate(-81.816)" fill="none" stroke="#1e0e08" stroke-linecap="round" stroke-linejoin="round" stroke-width="3"/>
    <path id="패스_20" data-name="패스 20" d="M555.365,206.7s11.418,1,16.877-15.032" transform="translate(-81.816)" fill="none" stroke="#1e0e08" stroke-linecap="round" stroke-linejoin="round" stroke-width="3"/>
    <path id="패스_21" data-name="패스 21" d="M519.226,206.7s-13.269-.462-10.808-20.456" transform="translate(-81.816)" fill="none" stroke="#1e0e08" stroke-linecap="round" stroke-linejoin="round" stroke-width="3"/>
    <path id="패스_22" data-name="패스 22" d="M517.8,185.673s9.867,5.568,14.859,3.551" transform="translate(-81.816)" fill="none" stroke="#1e0e08" stroke-linecap="round" stroke-miterlimit="10" stroke-width="3"/>
    <path id="패스_23" data-name="패스 23" d="M559.35,185.673s-9.867,5.568-14.858,3.551" transform="translate(-81.816)" fill="none" stroke="#1e0e08" stroke-linecap="round" stroke-miterlimit="10" stroke-width="3"/>
  </g>
</svg>
