<svg xmlns="http://www.w3.org/2000/svg" width="87.545" height="87.545" viewBox="0 0 87.545 87.545">
  <g id="그룹_52" data-name="그룹 52" transform="translate(-2232.639 -257.214)">
    <circle id="타원_16" data-name="타원 16" cx="13.501" cy="13.501" r="13.501" transform="translate(2278.276 303.836)" fill="none" stroke="#9027f4" stroke-miterlimit="10" stroke-width="3"/>
    <circle id="타원_17" data-name="타원 17" cx="13.501" cy="13.501" r="13.501" transform="translate(2247.014 272.459)" fill="none" stroke="#9027f4" stroke-miterlimit="10" stroke-width="3"/>
    <circle id="타원_18" data-name="타원 18" cx="42.272" cy="42.272" r="42.272" transform="translate(2234.139 258.714)" fill="none" stroke="#9027f4" stroke-linecap="round" stroke-miterlimit="10" stroke-width="3"/>
    <rect id="사각형_47" data-name="사각형 47" width="4.889" height="4.889" transform="translate(2309.146 293.33) rotate(27.319)" fill="#9027f4"/>
    <rect id="사각형_48" data-name="사각형 48" width="3.011" height="3.011" transform="matrix(0.821, 0.571, -0.571, 0.821, 2242.911, 305.812)" fill="#9027f4"/>
    <rect id="사각형_49" data-name="사각형 49" width="2.066" height="2.066" transform="matrix(0.821, 0.571, -0.571, 0.821, 2302.354, 291.892)" fill="#9027f4"/>
    <rect id="사각형_50" data-name="사각형 50" width="3.876" height="3.876" transform="matrix(0.821, 0.571, -0.571, 0.821, 2243.832, 295.591)" fill="#9027f4"/>
    <path id="패스_20" data-name="패스 20" d="M2256.043,299.338s-2.3,9.044,10.411,15.612c9.359,4.835,3.568,13.381-2.942,12.129-7.479-1.438-14.725-7.189-17.2-9.985" fill="none" stroke="#9027f4" stroke-linecap="round" stroke-linejoin="round" stroke-width="3"/>
    <path id="패스_21" data-name="패스 21" d="M2293.777,303.836s3.223-8.759-8.749-16.6c-8.812-5.772-2.172-13.677,4.174-11.761,7.292,2.2,13.908,8.667,16.077,11.7" fill="none" stroke="#9027f4" stroke-linecap="round" stroke-linejoin="round" stroke-width="3"/>
    <path id="패스_22" data-name="패스 22" d="M2273.17,276.852s6.1-7.066,18.761-.4c9.322,4.907,13.449-5.5,8.7-10.117" fill="none" stroke="#9027f4" stroke-linecap="round" stroke-linejoin="round" stroke-width="3"/>
    <path id="패스_23" data-name="패스 23" d="M2280,324.346s-5.4,7.615-18.638,2.184c-9.746-4-12.533,6.158-7.362,10.3" fill="none" stroke="#9027f4" stroke-linecap="round" stroke-linejoin="round" stroke-width="3"/>
  </g>
</svg>
