<svg xmlns="http://www.w3.org/2000/svg" width="40.836" height="39.242" viewBox="0 0 40.836 39.242">
  <g id="그룹_1946" data-name="그룹 1946" transform="translate(-172 -393.768)">
    <path id="패스_4786" data-name="패스 4786" d="M27.981,358.158a7.563,7.563,0,1,0-15.064.923c.627,6.435,7.5,12.279,7.5,12.279,8.181-7.18,7.563-13.2,7.563-13.2" transform="translate(172 44.173)" fill="#fff"/>
    <path id="패스_4787" data-name="패스 4787" d="M27.981,358.158a7.563,7.563,0,1,0-15.064.923c.627,6.435,7.5,12.279,7.5,12.279C28.6,364.18,27.981,358.158,27.981,358.158Z" transform="translate(172 44.173)" fill="none" stroke="#a666fb" stroke-linejoin="round" stroke-width="2"/>
    <path id="패스_4788" data-name="패스 4788" d="M23.54,358.157a3.117,3.117,0,1,1-3.117-3.117,3.117,3.117,0,0,1,3.117,3.117" transform="translate(172 44.173)" fill="#a666fb"/>
    <line id="선_181" data-name="선 181" x1="5.45" y2="4.848" transform="translate(176.973 420.508)" fill="#fff"/>
    <line id="선_182" data-name="선 182" x1="5.45" y2="4.848" transform="translate(176.973 420.508)" fill="none" stroke="#a666fb" stroke-linecap="round" stroke-linejoin="round" stroke-width="2"/>
    <path id="패스_4789" data-name="패스 4789" d="M2,377.839l5.95,6.689L1,384.793Z" transform="translate(172 44.173)" fill="#fff"/>
    <path id="패스_4790" data-name="패스 4790" d="M2,377.839l5.95,6.689L1,384.793Z" transform="translate(172 44.173)" fill="none" stroke="#a666fb" stroke-linejoin="round" stroke-width="2"/>
    <line id="선_183" data-name="선 183" y2="7.294" transform="translate(192.423 419.348)" fill="#fff"/>
    <line id="선_184" data-name="선 184" y2="7.294" transform="translate(192.423 419.348)" fill="none" stroke="#a666fb" stroke-linecap="round" stroke-linejoin="round" stroke-width="2"/>
    <path id="패스_4791" data-name="패스 4791" d="M15.947,382.469H24.9l-4.419,5.368Z" transform="translate(172 44.173)" fill="#fff"/>
    <path id="패스_4792" data-name="패스 4792" d="M15.947,382.469H24.9l-4.419,5.368Z" transform="translate(172 44.173)" fill="none" stroke="#a666fb" stroke-linejoin="round" stroke-width="2"/>
    <line id="선_185" data-name="선 185" x2="5.45" y2="4.848" transform="translate(202.413 420.508)" fill="#fff"/>
    <line id="선_186" data-name="선 186" x2="5.45" y2="4.848" transform="translate(202.413 420.508)" fill="none" stroke="#a666fb" stroke-linecap="round" stroke-linejoin="round" stroke-width="2"/>
    <path id="패스_4793" data-name="패스 4793" d="M38.838,377.839l-5.95,6.689,6.948.265Z" transform="translate(172 44.173)" fill="#fff"/>
    <path id="패스_4794" data-name="패스 4794" d="M38.838,377.839l-5.95,6.689,6.948.265Z" transform="translate(172 44.173)" fill="none" stroke="#a666fb" stroke-linejoin="round" stroke-width="2"/>
  </g>
</svg>
