<svg xmlns="http://www.w3.org/2000/svg" width="31.102" height="38.718" viewBox="0 0 31.102 38.718">
  <g id="그룹_1940" data-name="그룹 1940" transform="translate(-177.421 -123.621)">
    <line id="선_166" data-name="선 166" x2="2.743" y2="4.325" transform="translate(195.749 145.431)" fill="#9f9f9f"/>
    <line id="선_167" data-name="선 167" x2="2.743" y2="4.325" transform="translate(195.749 145.431)" fill="none" stroke="#fff" stroke-linejoin="round" stroke-width="3"/>
    <path id="패스_4755" data-name="패스 4755" d="M33.992,114.416l-2.585,1.639a1.362,1.362,0,0,1-1.881-.421l-4.686-7.389a1.363,1.363,0,0,1,.421-1.881l2.585-1.639a1.362,1.362,0,0,1,1.881.421l4.686,7.389a1.363,1.363,0,0,1-.421,1.881" transform="translate(172 44.173)" fill="#fff"/>
    <rect id="사각형_9399" data-name="사각형 9399" width="5.787" height="11.476" rx="1.363" transform="translate(196.11 151.267) rotate(-32.377)" fill="none" stroke="#a666fb" stroke-linejoin="round" stroke-width="2"/>
    <path id="패스_4756" data-name="패스 4756" d="M27.231,85.707A11.269,11.269,0,1,1,11.68,82.226a11.269,11.269,0,0,1,15.551,3.481" transform="translate(172 44.173)" fill="#fff"/>
    <path id="패스_4757" data-name="패스 4757" d="M27.231,85.707A11.269,11.269,0,1,1,11.68,82.226,11.269,11.269,0,0,1,27.231,85.707Z" transform="translate(172 44.173)" fill="none" stroke="#a666fb" stroke-linejoin="round" stroke-width="2"/>
    <line id="선_168" data-name="선 168" y1="4.52" x2="7.128" transform="translate(184.896 131.543)" fill="#fff"/>
    <line id="선_169" data-name="선 169" y1="4.52" x2="7.128" transform="translate(184.896 131.543)" fill="none" stroke="#a666fb" stroke-linecap="round" stroke-linejoin="round" stroke-width="2"/>
    <line id="선_170" data-name="선 170" y1="4.52" x2="7.128" transform="translate(187.814 136.143)" fill="#fff"/>
    <line id="선_171" data-name="선 171" y1="4.52" x2="7.128" transform="translate(187.814 136.143)" fill="none" stroke="#a666fb" stroke-linecap="round" stroke-linejoin="round" stroke-width="2"/>
  </g>
</svg>
