<svg xmlns="http://www.w3.org/2000/svg" width="43.317" height="43.317" viewBox="0 0 43.317 43.317">
  <g id="그룹_1939" data-name="그룹 1939" transform="translate(-276.035 -124.919)">
    <path id="패스_4758" data-name="패스 4758" d="M143.392,102.4a17.7,17.7,0,1,1-17.7-17.7,17.7,17.7,0,0,1,17.7,17.7" transform="translate(172 44.173)" fill="#fff"/>
    <circle id="타원_35" data-name="타원 35" cx="17.698" cy="17.698" r="17.698" transform="translate(277.193 160.936) rotate(-80.008)" fill="none" stroke="#a666fb" stroke-linejoin="round" stroke-width="2"/>
    <path id="패스_4759" data-name="패스 4759" d="M130.279,94.239c-4.388,0-4.586,3.473-4.586,3.473s-.2-3.473-4.585-3.473c-4.125,0-5.823,3.335-5.232,7.01.291,1.806,2.234,6.775,9.817,9.32,7.161-2.369,9.527-7.514,9.818-9.32.591-3.675-1.107-7.01-5.232-7.01" transform="translate(172 44.173)" fill="#a666fb"/>
  </g>
</svg>
