<svg xmlns="http://www.w3.org/2000/svg" width="36" height="32.802" viewBox="0 0 36 32.802">
  <g id="그룹_1938" data-name="그룹 1938" transform="translate(-279.632 -46.362)">
    <path id="패스_4795" data-name="패스 4795" d="M132.115,6.457c-6.782,0-7.087,5.367-7.087,5.367s-.306-5.367-7.088-5.367c-6.375,0-9,5.155-8.085,10.835.449,2.79,3.452,10.471,15.173,14.405C136.1,28.035,139.751,20.082,140.2,17.292c.914-5.68-1.711-10.835-8.086-10.835" transform="translate(172 44.173)" fill="#fff"/>
    <path id="패스_4796" data-name="패스 4796" d="M132.115,6.457c-6.782,0-7.087,5.367-7.087,5.367s-.306-5.367-7.088-5.367c-6.375,0-9,5.155-8.085,10.835.449,2.79,3.452,10.471,15.173,14.405C136.1,28.035,139.751,20.082,140.2,17.292,141.115,11.612,138.49,6.457,132.115,6.457Z" transform="translate(172 44.173)" fill="none" stroke="#a666fb" stroke-linejoin="round" stroke-width="2"/>
    <path id="패스_4797" data-name="패스 4797" d="M111.05,33.406l-1.811-2.032a1.749,1.749,0,0,1,.142-2.468L137.746,3.633a1.747,1.747,0,0,1,2.467.142l1.811,2.032a1.749,1.749,0,0,1-.142,2.468L113.517,33.548a1.747,1.747,0,0,1-2.467-.142" transform="translate(172 44.173)" fill="#a666fb"/>
    <path id="패스_4798" data-name="패스 4798" d="M111.05,33.406l-1.811-2.032a1.749,1.749,0,0,1,.142-2.468L137.746,3.633a1.747,1.747,0,0,1,2.467.142l1.811,2.032a1.749,1.749,0,0,1-.142,2.468L113.517,33.548A1.747,1.747,0,0,1,111.05,33.406Z" transform="translate(172 44.173)" fill="none" stroke="#fff" stroke-linejoin="round" stroke-width="2"/>
  </g>
</svg>
