<svg xmlns="http://www.w3.org/2000/svg" width="42.02" height="21.569" viewBox="0 0 42.02 21.569">
  <g id="그룹_1945" data-name="그룹 1945" transform="translate(-276.683 -406.65)">
    <path id="패스_4770" data-name="패스 4770" d="M122.027,371.877c-.568-3.527.63-6.787,3.667-7.947a7.229,7.229,0,0,0-2.6-.453c-5.258,0-5.5,4.161-5.5,4.161s-.236-4.161-5.5-4.161c-4.942,0-6.978,4-6.269,8.4.349,2.164,2.677,8.119,11.764,11.169a19.973,19.973,0,0,0,8.036-4.829,12.423,12.423,0,0,1-3.605-6.34" transform="translate(172 44.173)" fill="#fff"/>
    <path id="패스_4771" data-name="패스 4771" d="M122.027,371.877c-.568-3.527.63-6.787,3.667-7.947a7.229,7.229,0,0,0-2.6-.453c-5.258,0-5.5,4.161-5.5,4.161s-.236-4.161-5.5-4.161c-4.942,0-6.978,4-6.269,8.4.349,2.164,2.677,8.119,11.764,11.169a19.973,19.973,0,0,0,8.036-4.829A12.423,12.423,0,0,1,122.027,371.877Z" transform="translate(172 44.173)" fill="none" stroke="#a666fb" stroke-linejoin="round" stroke-width="2"/>
    <path id="패스_4772" data-name="패스 4772" d="M139.286,363.477c-5.258,0-5.495,4.161-5.495,4.161s-.237-4.161-5.495-4.161a7.22,7.22,0,0,0-2.6.453c3.037,1.16,4.234,4.42,3.666,7.947a13.1,13.1,0,0,1-3.728,6.34,20.47,20.47,0,0,0,8.159,4.829c8.58-2.84,11.415-9.005,11.764-11.169.709-4.4-1.326-8.4-6.269-8.4" transform="translate(172 44.173)" fill="#fff"/>
    <path id="패스_4773" data-name="패스 4773" d="M139.286,363.477c-5.258,0-5.495,4.161-5.495,4.161s-.237-4.161-5.495-4.161a7.22,7.22,0,0,0-2.6.453c3.037,1.16,4.234,4.42,3.666,7.947a13.1,13.1,0,0,1-3.728,6.34,20.47,20.47,0,0,0,8.159,4.829c8.58-2.84,11.415-9.005,11.764-11.169C146.264,367.474,144.229,363.477,139.286,363.477Z" transform="translate(172 44.173)" fill="none" stroke="#a666fb" stroke-linejoin="round" stroke-width="2"/>
    <path id="패스_4774" data-name="패스 4774" d="M129.36,371.877c.568-3.527-.63-6.787-3.666-7.947-3.037,1.16-4.235,4.42-3.667,7.947a12.423,12.423,0,0,0,3.605,6.34,13.1,13.1,0,0,0,3.728-6.34" transform="translate(172 44.173)" fill="#a666fb"/>
  </g>
</svg>
