<svg xmlns="http://www.w3.org/2000/svg" width="104.431" height="128.375" viewBox="0 0 104.431 128.375">
  <g id="그룹_6" data-name="그룹 6" transform="translate(-2319.409 -1079.19)">
    <path id="패스_1638" data-name="패스 1638" d="M2342.065,1087.979s-1.4-7.015,9.248-6.735,59.533-.008,59.533-.008,10.431-.834,10.807,6.743,0,63.416,0,63.416-.967,7.015-10.807,7.015h-61.174s-7.668.983-7.656-8.068C2342.025,1142.765,2342.065,1087.979,2342.065,1087.979Z" fill="none" stroke="#a666fb" stroke-miterlimit="10" stroke-width="4"/>
    <path id="패스_1639" data-name="패스 1639" d="M2327.715,1103.794s-1.4-7.015,9.247-6.734,59.533-.009,59.533-.009,10.432-.833,10.807,6.743,0,63.417,0,63.417-.966,7.015-10.807,7.015h-61.173s-7.668.982-7.657-8.069C2327.675,1158.581,2327.715,1103.794,2327.715,1103.794Z" fill="#fff" stroke="#a666fb" stroke-miterlimit="10" stroke-width="4"/>
    <line id="선_11" data-name="선 11" x2="27.593" transform="translate(2353.765 1136.408)" fill="none" stroke="#a666fb" stroke-linecap="round" stroke-miterlimit="10" stroke-width="4"/>
    <line id="선_12" data-name="선 12" y1="27.593" transform="translate(2367.562 1122.611)" fill="none" stroke="#a666fb" stroke-linecap="round" stroke-miterlimit="10" stroke-width="4"/>
    <g id="그룹_517" data-name="그룹 517">
      <rect id="사각형_425" data-name="사각형 425" width="19.752" height="47.54" rx="4.063" transform="translate(2343.968 1153.571) rotate(27.379)" fill="none" stroke="#a666fb" stroke-miterlimit="10" stroke-width="4"/>
      <path id="패스_1640" data-name="패스 1640" d="M2357.241,1145.442l-13.813,9.758a2.059,2.059,0,0,0,.241,3.51l13.813,7.154a2.059,2.059,0,0,0,3.006-1.829v-16.912A2.059,2.059,0,0,0,2357.241,1145.442Z" fill="#fff" stroke="#a666fb" stroke-miterlimit="10" stroke-width="4"/>
      <path id="패스_1641" data-name="패스 1641" d="M2357.509,1145.43l-4.05,2.543a2.058,2.058,0,0,0,.148,3.571l4.31,2.232a2.059,2.059,0,0,0,3-1.94l-.26-4.775A2.059,2.059,0,0,0,2357.509,1145.43Z" fill="#a666fb"/>
    </g>
  </g>
</svg>
