<svg xmlns="http://www.w3.org/2000/svg" xmlns:xlink="http://www.w3.org/1999/xlink" width="35" height="33.991" viewBox="0 0 35 33.991">
  <defs>
    <clipPath id="clip-path">
      <rect id="사각형_9407" data-name="사각형 9407" width="35" height="33.991" transform="translate(3.003)" fill="none"/>
    </clipPath>
  </defs>
  <g id="그룹_1937" data-name="그룹 1937" transform="translate(-3.003)">
    <g id="그룹_1936" data-name="그룹 1936" clip-path="url(#clip-path)">
      <path id="패스_4800" data-name="패스 4800" d="M32.952,33.991H8.055a.885.885,0,0,1-.885-.885V19.8H3.888a.886.886,0,0,1-.651-1.485L19.852.272a.916.916,0,0,1,1.3-.005l.005.005L37.769,18.319a.886.886,0,0,1-.651,1.485h-3.28V33.1a.885.885,0,0,1-.885.885M8.94,32.221H32.067v-13.3a.885.885,0,0,1,.885-.885H35.1L20.5,2.179,5.9,18.034H8.055a.885.885,0,0,1,.885.885Z" fill="#a666fb"/>
      <path id="패스_4801" data-name="패스 4801" d="M24.994,33.515H16.015V21.624A1.081,1.081,0,0,1,17.1,20.541h6.819A1.083,1.083,0,0,1,25,21.624Z" fill="#a666fb"/>
    </g>
  </g>
</svg>
