<svg xmlns="http://www.w3.org/2000/svg" xmlns:xlink="http://www.w3.org/1999/xlink" width="35" height="32.184" viewBox="0 0 35 32.184">
  <defs>
    <clipPath id="clip-path">
      <rect id="사각형_8991" data-name="사각형 8991" width="35" height="32.184" fill="none"/>
    </clipPath>
  </defs>
  <g id="그룹_1336" data-name="그룹 1336" transform="translate(0 0)">
    <g id="그룹_1335" data-name="그룹 1335" transform="translate(0 0)" clip-path="url(#clip-path)">
      <path id="패스_2249" data-name="패스 2249" d="M23.9,4.264c-6.655,0-6.954,5.266-6.954,5.266s-.3-5.266-6.955-5.266c-6.255,0-8.831,5.058-7.933,10.632.441,2.738,3.387,10.275,14.888,14.135C27.8,25.437,31.389,17.633,31.831,14.9c.9-5.573-1.679-10.632-7.934-10.632" transform="translate(-0.035 -0.08)" fill="#fff"/>
      <path id="패스_2250" data-name="패스 2250" d="M16.923,29.993a.976.976,0,0,1-.312-.051C3.106,25.41,1.235,16.082,1.066,15.033A10.924,10.924,0,0,1,3.073,6.172a8.719,8.719,0,0,1,6.9-2.908c3.972,0,5.961,1.722,6.954,3.349.993-1.628,2.982-3.349,6.954-3.349a8.719,8.719,0,0,1,6.9,2.908,10.928,10.928,0,0,1,2.008,8.861c-.462,2.868-4.156,11.14-15.549,14.91a.953.953,0,0,1-.309.05M9.969,5.226a6.734,6.734,0,0,0-5.4,2.219A8.992,8.992,0,0,0,3,14.721c.148.92,1.793,9.057,13.922,13.256,10.222-3.506,13.513-10.74,13.918-13.256A9,9,0,0,0,29.28,7.445a6.738,6.738,0,0,0-5.4-2.219c-5.51,0-5.943,3.9-5.975,4.348a.984.984,0,0,1-.978.915h-.007a.977.977,0,0,1-.973-.921c-.03-.439-.464-4.341-5.975-4.341" transform="translate(-0.017 -0.061)" fill="#9f9f9f"/>
      <path id="패스_2251" data-name="패스 2251" d="M3.21,30.646,1.433,28.652a1.716,1.716,0,0,1,.139-2.422l27.833-24.8a1.714,1.714,0,0,1,2.421.139L33.6,3.566a1.716,1.716,0,0,1-.139,2.422L5.63,30.786a1.714,1.714,0,0,1-2.421-.139" transform="translate(-0.019 -0.018)" fill="#9f9f9f"/>
      <path id="패스_2252" data-name="패스 2252" d="M4.474,32.184c-.052,0-.1,0-.158,0a2.675,2.675,0,0,1-1.857-.9L.682,29.287A2.7,2.7,0,0,1,.9,25.481L28.734.681A2.7,2.7,0,0,1,32.54.9l1.777,1.994A2.694,2.694,0,0,1,34.1,6.7L6.265,31.5a2.678,2.678,0,0,1-1.791.683m-.55-2.208a.736.736,0,0,0,.505.244.72.72,0,0,0,.53-.184l27.833-24.8a.733.733,0,0,0,.06-1.035L31.075,2.206a.736.736,0,0,0-1.036-.059L2.207,26.946a.735.735,0,0,0-.06,1.036Z" transform="translate(0 0)" fill="#fff"/>
    </g>
  </g>
</svg>
