<svg xmlns="http://www.w3.org/2000/svg" xmlns:xlink="http://www.w3.org/1999/xlink" width="35" height="35" viewBox="0 0 35 35">
  <defs>
    <clipPath id="clip-path">
      <rect id="사각형_8982" data-name="사각형 8982" width="35" height="35" fill="none"/>
    </clipPath>
  </defs>
  <g id="그룹_1323" data-name="그룹 1323" transform="translate(0 0)">
    <g id="그룹_1322" data-name="그룹 1322" transform="translate(0 0)" clip-path="url(#clip-path)">
      <path id="패스_2213" data-name="패스 2213" d="M34.128,17.564A16.564,16.564,0,1,1,17.564,1,16.564,16.564,0,0,1,34.128,17.564" transform="translate(-0.064 -0.064)" fill="#fff"/>
      <circle id="타원_7" data-name="타원 7" cx="16.564" cy="16.564" r="16.564" transform="translate(0.936 0.936)" fill="none" stroke="#9f9f9f" stroke-linejoin="round" stroke-width="2"/>
      <path id="패스_2214" data-name="패스 2214" d="M22.354,10.533c-4.107,0-4.292,3.25-4.292,3.25s-.185-3.25-4.291-3.25c-3.861,0-5.45,3.121-4.9,6.561.272,1.69,2.091,6.341,9.188,8.723,6.7-2.217,8.917-7.033,9.188-8.723.554-3.44-1.035-6.561-4.9-6.561" transform="translate(-0.562 -0.675)" fill="#9f9f9f"/>
    </g>
  </g>
</svg>
