<svg id="그룹_1332" data-name="그룹 1332" xmlns="http://www.w3.org/2000/svg" xmlns:xlink="http://www.w3.org/1999/xlink" width="43.052" height="41.043" viewBox="0 0 43.052 41.043">
  <defs>
    <clipPath id="clip-path">
      <rect id="사각형_8989" data-name="사각형 8989" width="43.052" height="41.043" fill="none"/>
    </clipPath>
  </defs>
  <path id="패스_2233" data-name="패스 2233" d="M15.42,14.652,1,15.913,11.163,25.13,8.841,40.043l12.686-6.694,12.686,6.694L31.89,25.13l10.163-9.217L27.634,14.652,21.527,1Z" fill="#9f9f9f"/>
  <g id="그룹_1331" data-name="그룹 1331">
    <g id="그룹_1330" data-name="그룹 1330" clip-path="url(#clip-path)">
      <path id="패스_2234" data-name="패스 2234" d="M8.841,41.043a1,1,0,0,1-.988-1.154l2.24-14.38L.329,16.655a1,1,0,0,1,.584-1.738l13.834-1.21L20.614.592a1,1,0,0,1,1.825,0l5.867,13.115,13.833,1.21a1,1,0,0,1,.585,1.738L32.96,25.509,35.2,39.889a1,1,0,0,1-1.456,1.039L21.527,34.481,9.308,40.928a1,1,0,0,1-.467.115M21.527,32.35a1,1,0,0,1,.466.115L32.917,38.23,30.9,25.285a1,1,0,0,1,.316-.9l8.468-7.679-12.14-1.061a1,1,0,0,1-.826-.588L21.527,3.45,16.333,15.061a1,1,0,0,1-.826.588L3.368,16.71l8.468,7.679a1,1,0,0,1,.316.9L10.135,38.23l10.924-5.765a1,1,0,0,1,.468-.115" fill="#fff"/>
      <path id="패스_2235" data-name="패스 2235" d="M28.046,29.806H15.008a.448.448,0,0,1-.448-.448,6.625,6.625,0,0,1,6.625-6.625h.684a6.625,6.625,0,0,1,6.625,6.625.449.449,0,0,1-.448.448" fill="#fff"/>
      <path id="패스_2236" data-name="패스 2236" d="M25.508,19.507a3.982,3.982,0,1,1-3.982-3.982,3.982,3.982,0,0,1,3.982,3.982" fill="#fff"/>
    </g>
  </g>
</svg>
