<svg xmlns="http://www.w3.org/2000/svg" xmlns:xlink="http://www.w3.org/1999/xlink" width="33.23" height="35" viewBox="0 0 33.23 35">
  <defs>
    <clipPath id="clip-path">
      <rect id="사각형_8983" data-name="사각형 8983" width="33.23" height="35" fill="none"/>
    </clipPath>
  </defs>
  <g id="그룹_1326" data-name="그룹 1326" transform="translate(0 0)">
    <path id="패스_2215" data-name="패스 2215" d="M17.409,9.7l2.27,4.6,5.076.737-3.673,3.581.867,5.055-4.54-2.387-4.54,2.387.867-5.055-3.673-3.581,5.076-.737Z" transform="translate(-0.714 -0.642)" fill="#9f9f9f"/>
    <g id="그룹_1325" data-name="그룹 1325" transform="translate(0 0)">
      <g id="그룹_1324" data-name="그룹 1324" clip-path="url(#clip-path)">
        <path id="패스_2216" data-name="패스 2216" d="M21.422,24.018a.946.946,0,0,1-.446-.111l-3.908-2.054-3.908,2.054a.959.959,0,0,1-1.392-1.01l.746-4.352L9.353,15.463a.959.959,0,0,1,.531-1.635l4.37-.635,1.954-3.959a1,1,0,0,1,1.721,0l1.954,3.959,4.37.635a.959.959,0,0,1,.531,1.635l-3.161,3.083.746,4.352a.961.961,0,0,1-.946,1.121M17.068,19.81a.95.95,0,0,1,.446.11l2.635,1.385-.5-2.934a.961.961,0,0,1,.276-.849l2.131-2.077-2.946-.428a.96.96,0,0,1-.722-.525l-1.317-2.668-1.317,2.668a.96.96,0,0,1-.722.525l-2.946.428,2.131,2.077a.961.961,0,0,1,.276.849l-.5,2.934,2.635-1.385a.95.95,0,0,1,.446-.11" transform="translate(-0.37 -0.357)" fill="#fff"/>
        <line id="선_114" data-name="선 114" x1="4.933" y1="4.388" transform="translate(4.555 4.231)" fill="#fff"/>
        <path id="패스_2217" data-name="패스 2217" d="M9.64,9.717A.952.952,0,0,1,9,9.475L4.07,5.088A.959.959,0,0,1,5.345,3.655l4.933,4.387A.959.959,0,0,1,9.64,9.717" transform="translate(-0.153 -0.14)" fill="#9f9f9f"/>
        <path id="패스_2218" data-name="패스 2218" d="M1.9,7.3,7.288,1.246,1,1.005Z" transform="translate(-0.041 -0.041)" fill="#fff"/>
        <path id="패스_2219" data-name="패스 2219" d="M1.863,8.218a.972.972,0,0,1-.276-.04.96.96,0,0,1-.673-.784L.01,1.1A.958.958,0,0,1,.246.322.893.893,0,0,1,1,.006L7.284.247a.959.959,0,0,1,.68,1.6L2.579,7.9a.966.966,0,0,1-.716.321m.209-6.252.447,3.111L5.18,2.085Z" transform="translate(0 0)" fill="#9f9f9f"/>
        <line id="선_115" data-name="선 115" y1="4.388" x2="4.933" transform="translate(23.743 4.231)" fill="#fff"/>
        <path id="패스_2220" data-name="패스 2220" d="M24.714,9.717a.959.959,0,0,1-.638-1.676l4.933-4.387a.959.959,0,0,1,1.275,1.433L25.351,9.475a.952.952,0,0,1-.637.243" transform="translate(-0.971 -0.14)" fill="#9f9f9f"/>
        <path id="패스_2221" data-name="패스 2221" d="M32.475,7.3,27.09,1.246l6.288-.241Z" transform="translate(-1.107 -0.041)" fill="#fff"/>
        <path id="패스_2222" data-name="패스 2222" d="M32.434,8.218a.963.963,0,0,1-.716-.321L26.333,1.843a.959.959,0,0,1,.68-1.6L33.3.006a.892.892,0,0,1,.749.317.961.961,0,0,1,.237.778l-.9,6.294a.961.961,0,0,1-.672.784.979.979,0,0,1-.277.04M29.116,2.085l2.662,2.993.447-3.111Z" transform="translate(-1.066 0)" fill="#9f9f9f"/>
        <line id="선_116" data-name="선 116" x1="4.933" y2="4.388" transform="translate(4.555 26.386)" fill="#fff"/>
        <path id="패스_2223" data-name="패스 2223" d="M4.708,32.816a.959.959,0,0,1-.638-1.676L9,26.754a.959.959,0,0,1,1.275,1.433L5.345,32.574a.952.952,0,0,1-.637.243" transform="translate(-0.153 -1.083)" fill="#9f9f9f"/>
        <path id="패스_2224" data-name="패스 2224" d="M1.9,28.929l5.385,6.053L1,35.223Z" transform="translate(-0.041 -1.182)" fill="#fff"/>
        <path id="패스_2225" data-name="패스 2225" d="M.959,36.141a.96.96,0,0,1-.95-1.1l.9-6.294a.959.959,0,0,1,1.666-.5L7.964,34.3a.959.959,0,0,1-.68,1.6L1,36.14H.959m1.56-5.072-.447,3.11,3.109-.119Z" transform="translate(0 -1.141)" fill="#9f9f9f"/>
        <line id="선_117" data-name="선 117" x2="4.933" y2="4.388" transform="translate(23.743 26.386)" fill="#fff"/>
        <path id="패스_2226" data-name="패스 2226" d="M29.646,32.816a.952.952,0,0,1-.637-.243l-4.933-4.387a.959.959,0,0,1,1.275-1.433l4.933,4.387a.959.959,0,0,1-.638,1.676" transform="translate(-0.971 -1.083)" fill="#9f9f9f"/>
        <path id="패스_2227" data-name="패스 2227" d="M32.475,28.929,27.09,34.982l6.288.241Z" transform="translate(-1.107 -1.182)" fill="#fff"/>
        <path id="패스_2228" data-name="패스 2228" d="M33.337,36.141H33.3L27.013,35.9a.959.959,0,0,1-.68-1.6l5.385-6.053a.959.959,0,0,1,1.666.5l.9,6.293a.96.96,0,0,1-.95,1.1m-4.221-2.08,3.109.119-.447-3.11Z" transform="translate(-1.066 -1.141)" fill="#9f9f9f"/>
      </g>
    </g>
  </g>
</svg>
