<svg xmlns="http://www.w3.org/2000/svg" width="95.104" height="27.497" viewBox="0 0 95.104 27.497">
  <g id="그룹_43" data-name="그룹 43" transform="translate(-2555.496 -518.623)">
    <g id="그룹_695" data-name="그룹 695">
      <path id="패스_2511" data-name="패스 2511" d="M2564.212,544.542c-4.887,0-8.716-5.492-8.716-12.5s3.829-12.5,8.716-12.5,8.718,5.492,8.718,12.5S2569.1,544.542,2564.212,544.542Zm0-21.067c-2.259,0-4.777,3.517-4.777,8.564s2.518,8.564,4.777,8.564,4.779-3.517,4.779-8.564S2566.473,523.475,2564.212,523.475Z" fill="#9027f4"/>
    </g>
    <g id="그룹_696" data-name="그룹 696">
      <path id="패스_2512" data-name="패스 2512" d="M2578.754,544.99a1.9,1.9,0,0,1-.388-.039,1.967,1.967,0,0,1-1.545-2.317c1.284-6.424-.018-21.718-.031-21.872a1.969,1.969,0,0,1,3.923-.34c.057.652,1.365,16.011-.03,22.984A1.972,1.972,0,0,1,2578.754,544.99Z" fill="#9027f4"/>
    </g>
    <g id="그룹_697" data-name="그룹 697">
      <path id="패스_2513" data-name="패스 2513" d="M2613.755,544.99a1.92,1.92,0,0,1-.389-.039,1.969,1.969,0,0,1-1.545-2.317c1.285-6.424-.018-21.718-.03-21.872a1.969,1.969,0,0,1,3.923-.34c.057.652,1.364,16.011-.031,22.984A1.97,1.97,0,0,1,2613.755,544.99Z" fill="#9027f4"/>
    </g>
    <g id="그룹_698" data-name="그룹 698">
      <path id="패스_2514" data-name="패스 2514" d="M2579.35,533.777a1.97,1.97,0,0,1-.174-3.932l5.289-.475a1.969,1.969,0,1,1,.354,3.923l-5.289.476C2579.47,533.774,2579.409,533.777,2579.35,533.777Z" fill="#9027f4"/>
    </g>
    <g id="그룹_699" data-name="그룹 699">
      <path id="패스_2515" data-name="패스 2515" d="M2599,543.334a27.847,27.847,0,0,1-4.53-.281,3.158,3.158,0,0,1-2.17-1.62c-2.405-4.062-.891-18.208-.455-19.516.4-1.208.953-2.855,13.767-1.8a1.971,1.971,0,0,1,1.8,2.124,2,2,0,0,1-2.124,1.8,60.206,60.206,0,0,0-9.846-.152c-.475,3.2-.961,13.134.136,15.351a66.734,66.734,0,0,0,9.727-.088,1.969,1.969,0,1,1,.287,3.928C2605.081,543.118,2602,543.334,2599,543.334Z" fill="#9027f4"/>
    </g>
    <g id="그룹_700" data-name="그룹 700">
      <path id="패스_2516" data-name="패스 2516" d="M2601.093,543.3a1.97,1.97,0,0,1-1.97-1.969v-18.58a1.969,1.969,0,0,1,3.939,0v18.58A1.97,1.97,0,0,1,2601.093,543.3Z" fill="#9027f4"/>
    </g>
    <g id="그룹_702" data-name="그룹 702">
      <g id="그룹_701" data-name="그룹 701">
        <path id="패스_2517" data-name="패스 2517" d="M2635.742,532.534h-10.594a1.756,1.756,0,0,1-1.754-1.665l-.511-9.821a1.755,1.755,0,0,1,1.726-1.847l11.105-.177a1.811,1.811,0,0,1,1.26.5,1.758,1.758,0,0,1,.525,1.252v10A1.757,1.757,0,0,1,2635.742,532.534Zm-8.927-3.513h7.171v-6.457l-7.5.12Z" fill="#9027f4"/>
      </g>
      <path id="패스_2518" data-name="패스 2518" d="M2650.583,525.854c0-.026.015-.049.015-.075s-.018-.067-.021-.1c-.081-2.309-.359-4.456-.455-5.139a1.756,1.756,0,0,0-3.478.488c.123.874.232,1.924.313,3h-3.269c-.118-1.621-.294-2.972-.366-3.487a1.756,1.756,0,0,0-3.478.488c.4,2.868.7,7.591.1,9.111a1.756,1.756,0,1,0,3.269,1.285,12.119,12.119,0,0,0,.575-3.885h3.284a8.644,8.644,0,0,1-.328,2.6,1.756,1.756,0,1,0,3.269,1.285A15.747,15.747,0,0,0,2650.583,525.854Z" fill="#9027f4"/>
      <path id="패스_2519" data-name="패스 2519" d="M2650.09,535.025a1.756,1.756,0,0,0-3.441.7,10.545,10.545,0,0,1,.163,1.767h-19.506c-.037-.759-.075-1.41-.1-1.819a1.756,1.756,0,0,0-3.505.229c.069,1.053.121,2.18.155,3.256,0,.031-.018.058-.018.09s.022.082.026.126a25.839,25.839,0,0,1-.1,4.506,1.757,1.757,0,0,0,1.689,2.239h22.614a1.756,1.756,0,0,0,1.736-1.494C2649.9,543.98,2650.741,538.211,2650.09,535.025Zm-22.7,7.583c.018-.5.022-1.048.019-1.6h19.273c-.048.57-.1,1.117-.158,1.6Z" fill="#9027f4"/>
    </g>
  </g>
</svg>
