<svg xmlns="http://www.w3.org/2000/svg" xmlns:xlink="http://www.w3.org/1999/xlink" width="27.948" height="35" viewBox="0 0 27.948 35">
  <defs>
    <clipPath id="clip-path">
      <rect id="사각형_8981" data-name="사각형 8981" width="27.948" height="35" fill="none"/>
    </clipPath>
  </defs>
  <g id="그룹_1321" data-name="그룹 1321" transform="translate(0 0)">
    <line id="선_108" data-name="선 108" x2="2.743" y2="4.325" transform="translate(16.816 19.967)" fill="#9f9f9f"/>
    <line id="선_109" data-name="선 109" x2="2.743" y2="4.325" transform="translate(16.816 19.967)" fill="none" stroke="#fff" stroke-linejoin="round" stroke-width="3"/>
    <g id="그룹_1320" data-name="그룹 1320" transform="translate(0 0)">
      <g id="그룹_1319" data-name="그룹 1319" clip-path="url(#clip-path)">
        <path id="패스_2210" data-name="패스 2210" d="M27.855,34.212,25.462,35.73a1.261,1.261,0,0,1-1.742-.39L19.38,28.5a1.262,1.262,0,0,1,.39-1.742l2.394-1.518a1.261,1.261,0,0,1,1.742.39l4.339,6.842a1.262,1.262,0,0,1-.39,1.742" transform="translate(-1.419 -1.853)" fill="#fff"/>
        <rect id="사각형_8980" data-name="사각형 8980" width="5.359" height="10.627" rx="1.363" transform="matrix(0.845, -0.535, 0.535, 0.845, 17.285, 25.579)" fill="none" stroke="#9f9f9f" stroke-linejoin="round" stroke-width="2"/>
        <path id="패스_2211" data-name="패스 2211" d="M20.249,5.848a10.435,10.435,0,1,1-14.4-3.223,10.435,10.435,0,0,1,14.4,3.223" transform="translate(-0.074 -0.074)" fill="#fff"/>
        <path id="패스_2212" data-name="패스 2212" d="M20.249,5.848a10.435,10.435,0,1,1-14.4-3.223A10.435,10.435,0,0,1,20.249,5.848Z" transform="translate(-0.074 -0.074)" fill="none" stroke="#9f9f9f" stroke-linejoin="round" stroke-width="2"/>
        <line id="선_110" data-name="선 110" y1="4.186" x2="6.601" transform="translate(6.901 7.314)" fill="#fff"/>
        <line id="선_111" data-name="선 111" y1="4.186" x2="6.601" transform="translate(6.901 7.314)" fill="none" stroke="#9f9f9f" stroke-linecap="round" stroke-linejoin="round" stroke-width="2"/>
        <line id="선_112" data-name="선 112" y1="4.186" x2="6.601" transform="translate(9.603 11.574)" fill="#fff"/>
        <line id="선_113" data-name="선 113" y1="4.186" x2="6.601" transform="translate(9.603 11.574)" fill="none" stroke="#9f9f9f" stroke-linecap="round" stroke-linejoin="round" stroke-width="2"/>
      </g>
    </g>
  </g>
</svg>
