<svg xmlns="http://www.w3.org/2000/svg" width="40.121" height="40.122" viewBox="0 0 40.121 40.122">
  <g id="그룹_1943" data-name="그룹 1943" transform="translate(-172.357 -303.042)">
    <path id="패스_4776" data-name="패스 4776" d="M35.149,278.93A14.731,14.731,0,1,1,20.418,264.2,14.731,14.731,0,0,1,35.149,278.93" transform="translate(172 44.173)" fill="#fff"/>
    <circle id="타원_36" data-name="타원 36" cx="14.731" cy="14.731" r="14.731" transform="translate(177.687 308.372)" fill="none" stroke="#a666fb" stroke-linejoin="round" stroke-width="2"/>
    <path id="패스_4777" data-name="패스 4777" d="M20.418,293.661V264.2S3.077,277.448,20.418,293.661Z" transform="translate(172 44.173)" fill="none" stroke="#a666fb" stroke-linejoin="round" stroke-width="2"/>
    <path id="패스_4778" data-name="패스 4778" d="M20.418,293.661V264.2S37.759,277.448,20.418,293.661Z" transform="translate(172 44.173)" fill="none" stroke="#a666fb" stroke-linejoin="round" stroke-width="2"/>
    <path id="패스_4779" data-name="패스 4779" d="M5.687,278.93H35.149S21.9,262.77,5.687,278.93Z" transform="translate(172 44.173)" fill="none" stroke="#a666fb" stroke-linejoin="round" stroke-width="2"/>
    <path id="패스_4780" data-name="패스 4780" d="M5.687,278.93H35.149S21.9,295.09,5.687,278.93Z" transform="translate(172 44.173)" fill="none" stroke="#a666fb" stroke-linejoin="round" stroke-width="2"/>
    <path id="패스_4781" data-name="패스 4781" d="M39.478,278.93a19.061,19.061,0,1,1-19.061-19.061A19.061,19.061,0,0,1,39.478,278.93Z" transform="translate(172 44.173)" fill="none" stroke="#a666fb" stroke-linejoin="round" stroke-width="2"/>
  </g>
</svg>
