<svg xmlns="http://www.w3.org/2000/svg" width="43.052" height="41.043" viewBox="0 0 43.052 41.043">
  <g id="그룹_1944" data-name="그룹 1944" transform="translate(-276.106 -306.627)">
    <path id="패스_4782" data-name="패스 4782" d="M125.632,263.454l6.107,13.652,14.419,1.261-10.163,9.217,2.323,14.913L125.632,295.8,112.946,302.5l2.323-14.913-10.163-9.217,14.419-1.261Z" transform="translate(172 44.173)" fill="#a666fb"/>
    <path id="패스_4783" data-name="패스 4783" d="M125.632,263.454l6.107,13.652,14.419,1.261-10.163,9.217,2.323,14.913L125.632,295.8,112.946,302.5l2.323-14.913-10.163-9.217,14.419-1.261Z" transform="translate(172 44.173)" fill="none" stroke="#fff" stroke-linejoin="round" stroke-width="2"/>
    <path id="패스_4784" data-name="패스 4784" d="M132.151,292.26H119.113a.448.448,0,0,1-.448-.448,6.625,6.625,0,0,1,6.625-6.625h.684a6.625,6.625,0,0,1,6.625,6.625.449.449,0,0,1-.448.448" transform="translate(172 44.173)" fill="#fff"/>
    <path id="패스_4785" data-name="패스 4785" d="M129.614,281.961a3.982,3.982,0,1,1-3.982-3.982,3.982,3.982,0,0,1,3.982,3.982" transform="translate(172 44.173)" fill="#fff"/>
  </g>
</svg>
