<svg xmlns="http://www.w3.org/2000/svg" width="106.203" height="114.986" viewBox="0 0 106.203 114.986">
  <g id="그룹_4" data-name="그룹 4" transform="translate(-2020.173 -1075.47)">
    <path id="패스_1631" data-name="패스 1631" d="M2044.6,1094.155s-1.4-9.386,9.248-9.01,59.533-.011,59.533-.011,10.431-1.116,10.807,9.021,0,84.843,0,84.843-.967,9.385-10.807,9.385h-61.174s-7.668,1.314-7.656-10.8C2044.562,1167.452,2044.6,1094.155,2044.6,1094.155Z" fill="none" stroke="#a666fb" stroke-miterlimit="10" stroke-width="4"/>
    <path id="패스_1632" data-name="패스 1632" d="M2036.437,1086.553s-1.4-9.386,9.247-9.01,59.533-.011,59.533-.011,10.432-1.116,10.807,9.021,0,84.843,0,84.843-.966,9.385-10.807,9.385h-61.173s-7.668,1.314-7.656-10.8C2036.4,1159.85,2036.437,1086.553,2036.437,1086.553Z" fill="#fff" stroke="#a666fb" stroke-miterlimit="10" stroke-width="4"/>
    <path id="패스_1633" data-name="패스 1633" d="M2043.96,1098.65s-3.281-9.915-14.411-8.137c-8.834,1.412-9.547,11.4-2.951,15.674,5.4,3.5,9.3,2.4,9.3,2.4" fill="none" stroke="#a666fb" stroke-linecap="round" stroke-miterlimit="10" stroke-width="4"/>
    <path id="패스_1634" data-name="패스 1634" d="M2043.96,1126.663s-3.281-9.914-14.411-8.136c-8.834,1.411-9.547,11.4-2.951,15.674,5.4,3.5,9.3,2.4,9.3,2.4" fill="none" stroke="#a666fb" stroke-linecap="round" stroke-miterlimit="10" stroke-width="4"/>
    <path id="패스_1635" data-name="패스 1635" d="M2043.96,1154.677s-3.281-9.915-14.411-8.136c-8.834,1.411-9.547,11.4-2.951,15.673,5.4,3.5,9.3,2.4,9.3,2.4" fill="none" stroke="#a666fb" stroke-linecap="round" stroke-miterlimit="10" stroke-width="4"/>
    <rect id="사각형_424" data-name="사각형 424" width="40.263" height="12.505" rx="1.806" transform="translate(2056.158 1095.258)" fill="none" stroke="#a666fb" stroke-linecap="round" stroke-miterlimit="10" stroke-width="4"/>
    <line id="선_4" data-name="선 4" x2="79.804" transform="translate(2036.388 1169.986)" fill="none" stroke="#a666fb" stroke-linecap="round" stroke-miterlimit="10" stroke-width="4"/>
  </g>
</svg>
