<svg xmlns="http://www.w3.org/2000/svg" xmlns:xlink="http://www.w3.org/1999/xlink" width="35" height="33.635" viewBox="0 0 35 33.635">
  <defs>
    <clipPath id="clip-path">
      <rect id="사각형_8990" data-name="사각형 8990" width="35" height="33.635" fill="none"/>
    </clipPath>
  </defs>
  <g id="그룹_1334" data-name="그룹 1334" transform="translate(0 0)">
    <g id="그룹_1333" data-name="그룹 1333" transform="translate(0 0)" clip-path="url(#clip-path)">
      <path id="패스_2237" data-name="패스 2237" d="M25.82,7.482a6.482,6.482,0,1,0-12.911.791c.537,5.515,6.429,10.524,6.429,10.524C26.349,12.644,25.82,7.482,25.82,7.482" transform="translate(-1.837 -0.143)" fill="#fff"/>
      <path id="패스_2238" data-name="패스 2238" d="M19.194,19.512a.852.852,0,0,1-.555-.2c-.251-.213-6.162-5.3-6.727-11.094a7.228,7.228,0,0,1-.057-.874A7.339,7.339,0,0,1,26.534,7.3c.044.61.2,5.876-6.774,12a.86.86,0,0,1-.566.213m0-17.8a5.594,5.594,0,0,0-5.579,6.313c.405,4.154,4.154,8.1,5.584,9.469,5.945-5.506,5.628-10.03,5.623-10.076,0-.025,0-.056,0-.081a5.631,5.631,0,0,0-5.625-5.624" transform="translate(-1.694 0)" fill="#9f9f9f"/>
      <path id="패스_2239" data-name="패스 2239" d="M22.649,8.118a2.672,2.672,0,1,1-2.672-2.672,2.672,2.672,0,0,1,2.672,2.672" transform="translate(-2.473 -0.778)" fill="#9f9f9f"/>
      <line id="선_118" data-name="선 118" x1="4.671" y2="4.155" transform="translate(4.262 22.919)" fill="#fff"/>
      <path id="패스_2240" data-name="패스 2240" d="M4.831,31.609a.857.857,0,0,1-.57-1.5l4.671-4.155a.857.857,0,0,1,1.139,1.281L5.4,31.393a.851.851,0,0,1-.569.217" transform="translate(-0.568 -3.678)" fill="#9f9f9f"/>
      <path id="패스_2241" data-name="패스 2241" d="M1.855,28.244l5.1,5.733L1,34.2Z" transform="translate(-0.143 -4.036)" fill="#fff"/>
      <path id="패스_2242" data-name="패스 2242" d="M.857,34.92a.858.858,0,0,1-.849-.979l.855-5.96a.857.857,0,0,1,1.489-.448l5.1,5.732a.857.857,0,0,1-.608,1.426L.89,34.919H.857M2.3,30.05l-.447,3.116,3.114-.119Z" transform="translate(0 -3.893)" fill="#9f9f9f"/>
      <line id="선_119" data-name="선 119" y2="6.252" transform="translate(17.505 21.925)" fill="#fff"/>
      <path id="패스_2243" data-name="패스 2243" d="M20.28,32.546a.857.857,0,0,1-.857-.857V25.437a.857.857,0,1,1,1.714,0v6.252a.857.857,0,0,1-.857.857" transform="translate(-2.775 -3.512)" fill="#9f9f9f"/>
      <path id="패스_2244" data-name="패스 2244" d="M15.947,32.874H23.62l-3.788,4.6Z" transform="translate(-2.279 -4.698)" fill="#fff"/>
      <path id="패스_2245" data-name="패스 2245" d="M19.69,38.189a.86.86,0,0,1-.655-.3l-3.884-4.6a.858.858,0,0,1,.655-1.411h7.673a.857.857,0,0,1,.662,1.4l-3.788,4.6a.859.859,0,0,1-.656.312Zm-2.039-4.6,2.031,2.406,1.98-2.406Z" transform="translate(-2.136 -4.555)" fill="#9f9f9f"/>
      <line id="선_120" data-name="선 120" x2="4.671" y2="4.155" transform="translate(26.067 22.919)" fill="#fff"/>
      <path id="패스_2246" data-name="패스 2246" d="M34.94,31.609a.851.851,0,0,1-.569-.217L29.7,27.237a.857.857,0,1,1,1.139-1.281l4.671,4.155a.857.857,0,0,1-.57,1.5" transform="translate(-4.203 -3.678)" fill="#9f9f9f"/>
      <path id="패스_2247" data-name="패스 2247" d="M37.987,28.244l-5.1,5.733,5.955.227Z" transform="translate(-4.699 -4.036)" fill="#fff"/>
      <path id="패스_2248" data-name="패스 2248" d="M38.7,34.919h-.033l-5.954-.228a.857.857,0,0,1-.608-1.426l5.1-5.733a.857.857,0,0,1,1.489.449l.855,5.96a.856.856,0,0,1-.849.979m-4.107-1.872,3.113.119-.447-3.116Z" transform="translate(-4.556 -3.893)" fill="#9f9f9f"/>
    </g>
  </g>
</svg>
