<svg xmlns="http://www.w3.org/2000/svg" width="34.647" height="36.486" viewBox="0 0 34.647 36.486">
  <g id="그룹_1942" data-name="그룹 1942" transform="translate(-175.094 -214.575)">
    <path id="패스_4760" data-name="패스 4760" d="M20.5,180.092l2.27,4.6,5.076.737-3.673,3.581.867,5.055-4.54-2.387-4.54,2.387.867-5.055-3.673-3.581,5.076-.737Z" transform="translate(172 44.173)" fill="#a666fb"/>
    <path id="패스_4761" data-name="패스 4761" d="M20.5,180.092l2.27,4.6,5.076.737-3.673,3.581.867,5.055-4.54-2.387-4.54,2.387.867-5.055-3.673-3.581,5.076-.737Z" transform="translate(172 44.173)" fill="none" stroke="#fff" stroke-linejoin="round" stroke-width="2"/>
    <line id="선_172" data-name="선 172" x1="5.143" y1="4.575" transform="translate(179.843 218.981)" fill="#fff"/>
    <line id="선_173" data-name="선 173" x1="5.143" y1="4.575" transform="translate(179.843 218.981)" fill="none" stroke="#a666fb" stroke-linecap="round" stroke-linejoin="round" stroke-width="2"/>
    <path id="패스_4762" data-name="패스 4762" d="M5.036,177.964l5.614-6.311L4.094,171.4Z" transform="translate(172 44.173)" fill="#fff"/>
    <path id="패스_4763" data-name="패스 4763" d="M5.036,177.964l5.614-6.311L4.094,171.4Z" transform="translate(172 44.173)" fill="none" stroke="#a666fb" stroke-linejoin="round" stroke-width="2"/>
    <line id="선_174" data-name="선 174" y1="4.575" x2="5.143" transform="translate(199.849 218.981)" fill="#fff"/>
    <line id="선_175" data-name="선 175" y1="4.575" x2="5.143" transform="translate(199.849 218.981)" fill="none" stroke="#a666fb" stroke-linecap="round" stroke-linejoin="round" stroke-width="2"/>
    <path id="패스_4764" data-name="패스 4764" d="M35.8,177.964l-5.614-6.311,6.556-.251Z" transform="translate(172 44.173)" fill="#fff"/>
    <path id="패스_4765" data-name="패스 4765" d="M35.8,177.964l-5.614-6.311,6.556-.251Z" transform="translate(172 44.173)" fill="none" stroke="#a666fb" stroke-linejoin="round" stroke-width="2"/>
    <line id="선_176" data-name="선 176" x1="5.143" y2="4.575" transform="translate(179.843 242.079)" fill="#fff"/>
    <line id="선_177" data-name="선 177" x1="5.143" y2="4.575" transform="translate(179.843 242.079)" fill="none" stroke="#a666fb" stroke-linecap="round" stroke-linejoin="round" stroke-width="2"/>
    <path id="패스_4766" data-name="패스 4766" d="M5.036,199.326l5.614,6.311-6.556.251Z" transform="translate(172 44.173)" fill="#fff"/>
    <path id="패스_4767" data-name="패스 4767" d="M5.036,199.326l5.614,6.311-6.556.251Z" transform="translate(172 44.173)" fill="none" stroke="#a666fb" stroke-linejoin="round" stroke-width="2"/>
    <line id="선_178" data-name="선 178" x2="5.143" y2="4.575" transform="translate(199.849 242.079)" fill="#fff"/>
    <line id="선_179" data-name="선 179" x2="5.143" y2="4.575" transform="translate(199.849 242.079)" fill="none" stroke="#a666fb" stroke-linecap="round" stroke-linejoin="round" stroke-width="2"/>
    <path id="패스_4768" data-name="패스 4768" d="M35.8,199.326l-5.614,6.311,6.556.251Z" transform="translate(172 44.173)" fill="#fff"/>
    <path id="패스_4769" data-name="패스 4769" d="M35.8,199.326l-5.614,6.311,6.556.251Z" transform="translate(172 44.173)" fill="none" stroke="#a666fb" stroke-linejoin="round" stroke-width="2"/>
  </g>
</svg>
