<svg xmlns="http://www.w3.org/2000/svg" width="119.545" height="117.369" viewBox="0 0 119.545 117.369">
  <g id="그룹_5" data-name="그룹 5" transform="translate(-2164.77 -1077.607)">
    <path id="패스_1636" data-name="패스 1636" d="M2166.863,1088.69s-1.4-9.385,9.248-9.01,59.533-.011,59.533-.011,10.431-1.115,10.807,9.021,0,84.843,0,84.843-.967,9.386-10.807,9.386H2174.47s-7.668,1.314-7.656-10.795C2166.823,1161.987,2166.863,1088.69,2166.863,1088.69Z" fill="#fff" stroke="#a666fb" stroke-miterlimit="10" stroke-width="4"/>
    <path id="패스_1637" data-name="패스 1637" d="M2178.126,1098.674s-1.4-9.385,9.247-9.01,59.533-.011,59.533-.011,10.432-1.115,10.807,9.021,0,84.844,0,84.844-.966,9.385-10.807,9.385h-61.173s-7.668,1.314-7.657-10.795C2178.086,1171.972,2178.126,1098.674,2178.126,1098.674Z" fill="none" stroke="#a666fb" stroke-miterlimit="10" stroke-width="4"/>
    <line id="선_5" data-name="선 5" x2="39.794" transform="translate(2193.289 1109.487)" fill="none" stroke="#a666fb" stroke-linecap="round" stroke-miterlimit="10" stroke-width="4"/>
    <line id="선_6" data-name="선 6" x2="26.282" transform="translate(2193.289 1125.384)" fill="none" stroke="#a666fb" stroke-linecap="round" stroke-miterlimit="10" stroke-width="4"/>
    <line id="선_7" data-name="선 7" x2="31.479" transform="translate(2193.289 1141.281)" fill="none" stroke="#a666fb" stroke-linecap="round" stroke-miterlimit="10" stroke-width="4"/>
    <line id="선_8" data-name="선 8" x2="13.958" transform="translate(2193.289 1157.178)" fill="none" stroke="#a666fb" stroke-linecap="round" stroke-miterlimit="10" stroke-width="4"/>
    <line id="선_9" data-name="선 9" x2="21.085" transform="translate(2193.289 1173.075)" fill="none" stroke="#a666fb" stroke-linecap="round" stroke-miterlimit="10" stroke-width="4"/>
    <g id="그룹_516" data-name="그룹 516">
      <circle id="타원_158" data-name="타원 158" cx="17.977" cy="17.977" r="17.977" transform="translate(2234.258 1130.87)" fill="#fff" stroke="#a666fb" stroke-miterlimit="10" stroke-width="4"/>
      <line id="선_10" data-name="선 10" x2="16.39" y2="20.278" transform="translate(2265.112 1163.208)" fill="none" stroke="#a666fb" stroke-linecap="round" stroke-miterlimit="10" stroke-width="4"/>
    </g>
  </g>
</svg>
