<svg xmlns="http://www.w3.org/2000/svg" xmlns:xlink="http://www.w3.org/1999/xlink" width="99.838" height="99.838" viewBox="0 0 99.838 99.838">
  <defs>
    <clipPath id="clip-path">
      <rect id="사각형_167" data-name="사각형 167" width="99.838" height="99.838" rx="12" transform="translate(5264.67 3061.928)" fill="none"/>
    </clipPath>
  </defs>
  <g id="그룹_216" data-name="그룹 216" transform="translate(-5264.67 -3061.928)">
    <g id="그룹_215" data-name="그룹 215">
      <g id="그룹_214" data-name="그룹 214">
        <g id="그룹_213" data-name="그룹 213" clip-path="url(#clip-path)">
          <path id="패스_493" data-name="패스 493" d="M5264.746,3061.928l-.076.108v-.108Z" fill="#9f60f2"/>
          <path id="패스_494" data-name="패스 494" d="M5266.86,3061.928l-2.19,3.139v-3.031l.076-.108Z" fill="#9f60f1"/>
          <path id="패스_495" data-name="패스 495" d="M5268.975,3061.928l-4.3,6.17v-3.031l2.19-3.139Z" fill="#9e5ff0"/>
          <path id="패스_496" data-name="패스 496" d="M5271.089,3061.928l-6.419,9.2V3068.1l4.3-6.17Z" fill="#9d5fef"/>
          <path id="패스_497" data-name="패스 497" d="M5273.2,3061.928l-8.534,12.233v-3.031l6.419-9.2Z" fill="#9c5eee"/>
          <path id="패스_498" data-name="패스 498" d="M5275.318,3061.928l-10.648,15.264v-3.031l8.534-12.233Z" fill="#9c5eed"/>
          <path id="패스_499" data-name="패스 499" d="M5277.433,3061.928l-12.763,18.3v-3.031l10.648-15.264Z" fill="#9b5dec"/>
          <path id="패스_500" data-name="패스 500" d="M5279.547,3061.928l-14.877,21.326v-3.031l12.763-18.3Z" fill="#9a5deb"/>
          <path id="패스_501" data-name="패스 501" d="M5281.662,3061.928l-16.992,24.357v-3.031l14.877-21.326Z" fill="#9a5cea"/>
          <path id="패스_502" data-name="패스 502" d="M5283.777,3061.928l-19.107,27.389v-3.031l16.992-24.357Z" fill="#995ce9"/>
          <path id="패스_503" data-name="패스 503" d="M5285.891,3061.928l-21.221,30.42v-3.031l19.107-27.389Z" fill="#985be8"/>
          <path id="패스_504" data-name="패스 504" d="M5288.006,3061.928l-23.336,33.451v-3.031l21.221-30.42Z" fill="#975be7"/>
          <path id="패스_505" data-name="패스 505" d="M5290.12,3061.928l-25.45,36.482v-3.031l23.336-33.451Z" fill="#975ae6"/>
          <path id="패스_506" data-name="패스 506" d="M5292.235,3061.928l-27.565,39.513v-3.031l25.45-36.482Z" fill="#965ae5"/>
          <path id="패스_507" data-name="패스 507" d="M5294.35,3061.928l-29.68,42.544v-3.031l27.565-39.513Z" fill="#9559e4"/>
          <path id="패스_508" data-name="패스 508" d="M5296.464,3061.928,5264.67,3107.5v-3.031l29.68-42.544Z" fill="#9459e3"/>
          <path id="패스_509" data-name="패스 509" d="M5298.579,3061.928l-33.909,48.607V3107.5l31.794-45.576Z" fill="#9458e2"/>
          <path id="패스_510" data-name="패스 510" d="M5300.693,3061.928l-36.023,51.638v-3.031l33.909-48.607Z" fill="#9358e1"/>
          <path id="패스_511" data-name="패스 511" d="M5302.808,3061.928,5264.67,3116.6v-3.031l36.023-51.638Z" fill="#9257e0"/>
          <path id="패스_512" data-name="패스 512" d="M5304.922,3061.928l-40.252,57.7V3116.6l38.138-54.669Z" fill="#9157df"/>
          <path id="패스_513" data-name="패스 513" d="M5307.037,3061.928l-42.367,60.732v-3.031l40.252-57.7Z" fill="#9156de"/>
          <path id="패스_514" data-name="패스 514" d="M5309.151,3061.928l-44.481,63.763v-3.031l42.367-60.732Z" fill="#9056dd"/>
          <path id="패스_515" data-name="패스 515" d="M5311.266,3061.928l-46.6,66.794v-3.031l44.481-63.763Z" fill="#8f55dc"/>
          <path id="패스_516" data-name="패스 516" d="M5313.38,3061.928l-48.71,69.825v-3.031l46.6-66.794Z" fill="#8f55db"/>
          <path id="패스_517" data-name="패스 517" d="M5315.5,3061.928l-50.825,72.856v-3.031l48.71-69.825Z" fill="#8e54d9"/>
          <path id="패스_518" data-name="패스 518" d="M5317.61,3061.928l-52.94,75.887v-3.031l50.825-72.856Z" fill="#8d53d8"/>
          <path id="패스_519" data-name="패스 519" d="M5319.724,3061.928l-55.054,78.919v-3.031l52.94-75.887Z" fill="#8c53d7"/>
          <path id="패스_520" data-name="패스 520" d="M5321.839,3061.928l-57.169,81.95v-3.031l55.054-78.919Z" fill="#8c52d6"/>
          <path id="패스_521" data-name="패스 521" d="M5323.954,3061.928l-59.284,84.981v-3.031l57.169-81.95Z" fill="#8b52d5"/>
          <path id="패스_522" data-name="패스 522" d="M5326.068,3061.928l-61.4,88.012v-3.031l59.284-84.981Z" fill="#8a51d4"/>
          <path id="패스_523" data-name="패스 523" d="M5328.183,3061.928l-63.513,91.043v-3.031l61.4-88.012Z" fill="#8951d3"/>
          <path id="패스_524" data-name="패스 524" d="M5330.3,3061.928,5264.67,3156v-3.031l63.513-91.043Z" fill="#8950d2"/>
          <path id="패스_525" data-name="패스 525" d="M5332.412,3061.928l-67.742,97.106V3156l65.627-94.074Z" fill="#8850d1"/>
          <path id="패스_526" data-name="패스 526" d="M5334.526,3061.928l-69.069,99.009-.787-.549v-1.355l67.742-97.106Z" fill="#874fd0"/>
          <path id="패스_527" data-name="패스 527" d="M5336.641,3061.928l-69.647,99.838h-.349l-1.187-.828,69.069-99.009Z" fill="#864fcf"/>
          <path id="패스_528" data-name="패스 528" d="M5338.755,3061.928l-69.647,99.838h-2.115l69.647-99.838Z" fill="#864ece"/>
          <path id="패스_529" data-name="패스 529" d="M5340.87,3061.928l-69.647,99.838h-2.115l69.647-99.838Z" fill="#854ecd"/>
          <path id="패스_530" data-name="패스 530" d="M5342.984,3061.928l-69.647,99.838h-2.114l69.647-99.838Z" fill="#844dcc"/>
          <path id="패스_531" data-name="패스 531" d="M5345.1,3061.928l-69.647,99.838h-2.115l69.647-99.838Z" fill="#834dcb"/>
          <path id="패스_532" data-name="패스 532" d="M5347.214,3061.928l-69.648,99.838h-2.114l69.647-99.838Z" fill="#834cca"/>
          <path id="패스_533" data-name="패스 533" d="M5349.328,3061.928l-69.647,99.838h-2.115l69.648-99.838Z" fill="#824cc9"/>
          <path id="패스_534" data-name="패스 534" d="M5351.443,3061.928l-69.647,99.838h-2.115l69.647-99.838Z" fill="#814bc8"/>
          <path id="패스_535" data-name="패스 535" d="M5353.557,3061.928l-69.647,99.838H5281.8l69.647-99.838Z" fill="#814bc7"/>
          <path id="패스_536" data-name="패스 536" d="M5355.672,3061.928l-69.647,99.838h-2.115l69.647-99.838Z" fill="#804ac6"/>
          <path id="패스_537" data-name="패스 537" d="M5357.787,3061.928l-69.647,99.838h-2.115l69.647-99.838Z" fill="#7f4ac5"/>
          <path id="패스_538" data-name="패스 538" d="M5359.9,3061.928l-69.647,99.838h-2.114l69.647-99.838Z" fill="#7e49c4"/>
          <path id="패스_539" data-name="패스 539" d="M5362.016,3061.928l-69.647,99.838h-2.115l69.647-99.838Z" fill="#7e49c3"/>
          <path id="패스_540" data-name="패스 540" d="M5362.534,3061.928l1.074.749-69.125,99.088h-2.115l69.647-99.838Z" fill="#7d48c2"/>
          <path id="패스_541" data-name="패스 541" d="M5363.607,3062.677l.9.628v1.112l-67.911,97.348h-2.114Z" fill="#7c48c1"/>
          <path id="패스_542" data-name="패스 542" d="M5364.508,3067.449l-65.8,94.317H5296.6l67.911-97.348Z" fill="#7b47c0"/>
          <path id="패스_543" data-name="패스 543" d="M5364.508,3070.48l-63.682,91.286h-2.114l65.8-94.317Z" fill="#7b47bf"/>
          <path id="패스_544" data-name="패스 544" d="M5364.508,3073.511l-61.567,88.255h-2.115l63.682-91.286Z" fill="#7a46be"/>
          <path id="패스_545" data-name="패스 545" d="M5364.508,3076.542l-59.452,85.223h-2.115l61.567-88.255Z" fill="#7946bd"/>
          <path id="패스_546" data-name="패스 546" d="M5364.508,3079.573l-57.338,82.192h-2.114l59.452-85.223Z" fill="#7845bc"/>
          <path id="패스_547" data-name="패스 547" d="M5364.508,3082.6l-55.223,79.161h-2.115l57.338-82.192Z" fill="#7845bb"/>
          <path id="패스_548" data-name="패스 548" d="M5364.508,3085.636l-53.108,76.13h-2.115l55.223-79.161Z" fill="#7744ba"/>
          <path id="패스_549" data-name="패스 549" d="M5311.4,3161.766l53.108-76.13v76.13Z" fill="#7744ba"/>
        </g>
      </g>
    </g>
<!--    <text id="출발" transform="translate(5283.725 3128.308)" fill="#fff" font-size="49.74" font-family="NanumPen, Nanum Pen Script" letter-spacing="0.1em"><tspan x="0" y="0">출발</tspan></text>-->
  </g>
</svg>
