<svg id="그룹_1088" data-name="그룹 1088" xmlns="http://www.w3.org/2000/svg" xmlns:xlink="http://www.w3.org/1999/xlink" width="102" height="85.354" viewBox="0 0 102 85.354">
  <defs>
    <clipPath id="clip-path">
      <rect id="사각형_8113" data-name="사각형 8113" width="102" height="85.354" fill="none"/>
    </clipPath>
  </defs>
  <g id="그룹_901" data-name="그룹 901" clip-path="url(#clip-path)">
    <path id="패스_1351" data-name="패스 1351" d="M141.124,85.805a8.033,8.033,0,1,1-8.463-7.579,8.033,8.033,0,0,1,8.463,7.579" transform="translate(-49.067 -30.684)" fill="#fff"/>
    <path id="패스_1352" data-name="패스 1352" d="M141.124,85.805a8.033,8.033,0,1,1-8.463-7.579A8.033,8.033,0,0,1,141.124,85.805Z" transform="translate(-49.067 -30.684)" fill="none" stroke="#a666fb" stroke-width="4"/>
    <path id="패스_1353" data-name="패스 1353" d="M32.39,88.814a8.033,8.033,0,1,1-8.463-7.579,8.033,8.033,0,0,1,8.463,7.579" transform="translate(-6.409 -31.865)" fill="#fff"/>
    <path id="패스_1354" data-name="패스 1354" d="M32.39,88.814a8.033,8.033,0,1,1-8.463-7.579A8.033,8.033,0,0,1,32.39,88.814Z" transform="translate(-6.409 -31.865)" fill="none" stroke="#a666fb" stroke-width="4"/>
    <path id="패스_1355" data-name="패스 1355" d="M94.82,66.019A30.874,30.874,0,1,1,62.294,36.891,30.874,30.874,0,0,1,94.82,66.019" transform="translate(-12.993 -14.454)" fill="#fff"/>
    <circle id="타원_65" data-name="타원 65" cx="30.874" cy="30.874" r="30.874" transform="translate(7.451 56.399) rotate(-49.118)" fill="none" stroke="#a666fb" stroke-width="4"/>
    <path id="패스_1356" data-name="패스 1356" d="M66.346,100.546a3.156,3.156,0,1,1-3.325-2.978,3.156,3.156,0,0,1,3.325,2.978" transform="translate(-23.554 -38.275)" fill="#a666fb"/>
    <path id="패스_1357" data-name="패스 1357" d="M49.063,43.175S57.89,57.713,47.793,66.7c-7.18,6.392-14.67,3.274-14.67,3.274s-.166-18.519,15.94-26.8" transform="translate(-12.995 -16.938)" fill="#a666fb"/>
    <path id="패스_1358" data-name="패스 1358" d="M65.482,38.294s-7.578.979-6.887,4.141S61.2,62.154,75.816,63.8a142.4,142.4,0,0,0,28.838.159s-3.7-31.692-39.172-25.667" transform="translate(-22.956 -14.725)" fill="#a666fb"/>
    <path id="패스_1359" data-name="패스 1359" d="M63.134,94.442s-4.248,4.618-8.283,5.053" transform="translate(-21.519 -37.051)" fill="#fff"/>
    <path id="패스_1360" data-name="패스 1360" d="M63.134,94.442s-4.248,4.618-8.283,5.053" transform="translate(-21.519 -37.051)" fill="none" stroke="#a666fb" stroke-linecap="round" stroke-width="4"/>
    <path id="패스_1361" data-name="패스 1361" d="M64.541,84.32s-2.951-2.614-9.69,2.019" transform="translate(-21.519 -32.792)" fill="#fff"/>
    <path id="패스_1362" data-name="패스 1362" d="M64.541,84.32s-2.951-2.614-9.69,2.019" transform="translate(-21.519 -32.792)" fill="none" stroke="#a666fb" stroke-linecap="round" stroke-width="4"/>
    <path id="패스_1363" data-name="패스 1363" d="M94.155,100.546a3.156,3.156,0,1,0,3.325-2.978,3.156,3.156,0,0,0-3.325,2.978" transform="translate(-36.936 -38.275)" fill="#a666fb"/>
    <path id="패스_1364" data-name="패스 1364" d="M96.094,94.442s4.248,4.618,8.283,5.053" transform="translate(-37.699 -37.051)" fill="#fff"/>
    <path id="패스_1365" data-name="패스 1365" d="M96.094,94.442s4.248,4.618,8.283,5.053" transform="translate(-37.699 -37.051)" fill="none" stroke="#a666fb" stroke-linecap="round" stroke-width="4"/>
    <path id="패스_1366" data-name="패스 1366" d="M91.418,84.252s3.019-2.534,9.632,2.276" transform="translate(-35.865 -32.792)" fill="#fff"/>
    <path id="패스_1367" data-name="패스 1367" d="M91.418,84.252s3.019-2.534,9.632,2.276" transform="translate(-35.865 -32.792)" fill="none" stroke="#a666fb" stroke-linecap="round" stroke-width="4"/>
    <path id="패스_1368" data-name="패스 1368" d="M67.433,117.639s10-5.628,17.691,1.593" transform="translate(-26.455 -45.332)" fill="#fff"/>
    <path id="패스_1369" data-name="패스 1369" d="M67.433,117.639s10-5.628,17.691,1.593" transform="translate(-26.455 -45.332)" fill="none" stroke="#a666fb" stroke-linecap="round" stroke-width="4"/>
    <path id="패스_1370" data-name="패스 1370" d="M116.8,51.281l9.13-19.71a2.01,2.01,0,0,0-2.53-2.727L106.04,35.355a2.01,2.01,0,0,0-.856,3.148l10.238,12.628Z" transform="translate(-41.089 -11.264)" fill="#a666fb"/>
    <path id="패스_1371" data-name="패스 1371" d="M36.753,50.752,27.42,31.136a2.01,2.01,0,0,1,2.5-2.753l17.425,6.331a2.01,2.01,0,0,1,.888,3.139L38.127,50.588Z" transform="translate(-10.678 -11.086)" fill="#a666fb"/>
    <path id="패스_1372" data-name="패스 1372" d="M140.973,17.1,145.28,3.7a.689.689,0,0,1,1.166-.251L155.9,13.882a.689.689,0,0,1-.364,1.136l-13.76,2.97a.689.689,0,0,1-.8-.884" transform="translate(-55.292 -1.265)" fill="#a666fb"/>
    <path id="패스_1373" data-name="패스 1373" d="M140.973,17.1,145.28,3.7a.689.689,0,0,1,1.166-.251L155.9,13.882a.689.689,0,0,1-.364,1.136l-13.76,2.97A.689.689,0,0,1,140.973,17.1Z" transform="translate(-55.292 -1.265)" fill="none" stroke="#a666fb" stroke-width="4"/>
    <path id="패스_1374" data-name="패스 1374" d="M16.107,16.951,2.511,13.3A.689.689,0,0,1,2.2,12.152L12.159,2.2a.688.688,0,0,1,1.152.309l3.64,13.6a.689.689,0,0,1-.843.843" transform="translate(-0.785 -0.784)" fill="#a666fb"/>
    <path id="패스_1375" data-name="패스 1375" d="M16.107,16.951,2.511,13.3A.689.689,0,0,1,2.2,12.152L12.159,2.2a.688.688,0,0,1,1.152.309l3.64,13.6A.689.689,0,0,1,16.107,16.951Z" transform="translate(-0.785 -0.784)" fill="none" stroke="#a666fb" stroke-width="4"/>
  </g>
</svg>
