<svg id="그룹_1089" data-name="그룹 1089" xmlns="http://www.w3.org/2000/svg" xmlns:xlink="http://www.w3.org/1999/xlink" width="102" height="86.26" viewBox="0 0 102 86.26">
  <defs>
    <clipPath id="clip-path">
      <rect id="사각형_8112" data-name="사각형 8112" width="102" height="86.26" fill="none"/>
    </clipPath>
  </defs>
  <g id="그룹_899" data-name="그룹 899" clip-path="url(#clip-path)">
    <path id="패스_1330" data-name="패스 1330" d="M139.58,84.225a8.222,8.222,0,1,1-8.662-7.757,8.221,8.221,0,0,1,8.662,7.757" transform="translate(-46.56 -28.906)" fill="#fff"/>
    <path id="패스_1331" data-name="패스 1331" d="M139.58,84.225a8.222,8.222,0,1,1-8.662-7.757A8.221,8.221,0,0,1,139.58,84.225Z" transform="translate(-46.56 -28.906)" fill="none" stroke="#4a3e56" stroke-width="4"/>
    <path id="패스_1332" data-name="패스 1332" d="M30.846,87.234a8.222,8.222,0,1,1-8.662-7.757,8.221,8.221,0,0,1,8.662,7.757" transform="translate(-5.45 -30.044)" fill="#fff"/>
    <path id="패스_1333" data-name="패스 1333" d="M30.846,87.234a8.222,8.222,0,1,1-8.662-7.757A8.221,8.221,0,0,1,30.846,87.234Z" transform="translate(-5.45 -30.044)" fill="none" stroke="#4a3e56" stroke-width="4"/>
    <path id="패스_1334" data-name="패스 1334" d="M94.345,64.945A31.6,31.6,0,1,1,61.057,35.134,31.6,31.6,0,0,1,94.345,64.945" transform="translate(-11.795 -13.265)" fill="#fff"/>
    <circle id="타원_64" data-name="타원 64" cx="31.597" cy="31.597" r="31.597" transform="translate(6.431 56.627) rotate(-49.118)" fill="none" stroke="#4a3e56" stroke-width="4"/>
    <path id="패스_1335" data-name="패스 1335" d="M64.215,97.189a4.309,4.309,0,1,1-4.539-4.065,4.309,4.309,0,0,1,4.539,4.065" transform="translate(-21.023 -35.205)" fill="#4a3e56"/>
    <path id="패스_1336" data-name="패스 1336" d="M101.5,95.135a4.309,4.309,0,1,1-4.539-4.065,4.309,4.309,0,0,1,4.539,4.065" transform="translate(-35.12 -34.429)" fill="#4a3e56"/>
    <path id="패스_1337" data-name="패스 1337" d="M47.516,41.417S56.55,56.3,46.217,65.5c-7.349,6.542-15.014,3.35-15.014,3.35s-.17-18.953,16.313-27.429" transform="translate(-11.797 -15.659)" fill="#4a3e56"/>
    <path id="패스_1338" data-name="패스 1338" d="M63.776,36.554l-7.048,4.238S59.4,60.973,74.352,62.66a145.737,145.737,0,0,0,29.514.163s-3.783-32.435-40.09-26.269" transform="translate(-21.447 -13.525)" fill="#4a3e56"/>
    <path id="패스_1339" data-name="패스 1339" d="M89.885,90.753s5.651,5.41,14.021-4.48" transform="translate(-33.983 -32.618)" fill="#fff"/>
    <path id="패스_1340" data-name="패스 1340" d="M89.885,90.753s5.651,5.41,14.021-4.48" transform="translate(-33.983 -32.618)" fill="none" stroke="#4a3e56" stroke-linecap="round" stroke-width="4"/>
    <path id="패스_1341" data-name="패스 1341" d="M63.252,92.375S57.6,97.785,49.231,87.9" transform="translate(-18.613 -33.231)" fill="#fff"/>
    <path id="패스_1342" data-name="패스 1342" d="M63.252,92.375S57.6,97.785,49.231,87.9" transform="translate(-18.613 -33.231)" fill="none" stroke="#4a3e56" stroke-linecap="round" stroke-width="4"/>
    <path id="패스_1343" data-name="패스 1343" d="M59.472,117.056s-2.283-6.428,5.829-5.015,17.893-1.957,20.5-2.717,7.608,9.455-1.63,9.89-23.178,5.124-24.7-2.158" transform="translate(-22.373 -41.318)" fill="#fff"/>
    <path id="패스_1344" data-name="패스 1344" d="M59.472,117.056s-2.283-6.428,5.829-5.015,17.893-1.957,20.5-2.717,7.608,9.455-1.63,9.89S60.994,124.338,59.472,117.056Z" transform="translate(-22.373 -41.318)" fill="none" stroke="#4a3e56" stroke-linecap="round" stroke-width="4"/>
    <path id="패스_1345" data-name="패스 1345" d="M114.1,49.95l9.183-19.824a2.022,2.022,0,0,0-2.544-2.743l-17.459,6.548a2.022,2.022,0,0,0-.861,3.167l10.3,12.7Z" transform="translate(-38.55 -10.302)" fill="#4a3e56"/>
    <path id="패스_1346" data-name="패스 1346" d="M36.355,50.412,26.968,30.683a2.022,2.022,0,0,1,2.516-2.769L47.01,34.282A2.022,2.022,0,0,1,47.9,37.44L37.737,50.247Z" transform="translate(-10.119 -10.506)" fill="#4a3e56"/>
    <path id="패스_1347" data-name="패스 1347" d="M137.587,16.15l4.319-13.439a.7.7,0,0,1,1.193-.257l9.479,10.46a.7.7,0,0,1-.374,1.162l-13.8,2.979a.7.7,0,0,1-.82-.9" transform="translate(-52.005 -0.84)" fill="#4a3e56"/>
    <path id="패스_1348" data-name="패스 1348" d="M137.587,16.15l4.319-13.439a.7.7,0,0,1,1.193-.257l9.479,10.46a.7.7,0,0,1-.374,1.162l-13.8,2.979A.7.7,0,0,1,137.587,16.15Z" transform="translate(-52.005 -0.84)" fill="none" stroke="#4a3e56" stroke-width="4"/>
    <path id="패스_1349" data-name="패스 1349" d="M16.157,17.021,2.522,13.364a.7.7,0,0,1-.315-1.179l9.984-9.979a.7.7,0,0,1,1.179.316l3.65,13.636a.7.7,0,0,1-.863.863" transform="translate(-0.756 -0.756)" fill="#4a3e56"/>
    <path id="패스_1350" data-name="패스 1350" d="M16.157,17.021,2.522,13.364a.7.7,0,0,1-.315-1.179l9.984-9.979a.7.7,0,0,1,1.179.316l3.65,13.636A.7.7,0,0,1,16.157,17.021Z" transform="translate(-0.756 -0.756)" fill="none" stroke="#4a3e56" stroke-width="4"/>
  </g>
</svg>
