<svg xmlns="http://www.w3.org/2000/svg" xmlns:xlink="http://www.w3.org/1999/xlink" width="194.786" height="147.816" viewBox="0 0 194.786 147.816">
  <defs>
    <clipPath id="clip-path">
      <rect id="사각형_8599" data-name="사각형 8599" width="194.786" height="147.816" fill="none"/>
    </clipPath>
  </defs>
  <g id="그룹_1074" data-name="그룹 1074" clip-path="url(#clip-path)">
    <path id="패스_1699" data-name="패스 1699" d="M147.71,60.855A18.5,18.5,0,1,1,128.218,43.4,18.5,18.5,0,0,1,147.71,60.855" transform="translate(44.248 17.33)" fill="#fff"/>
    <path id="패스_1700" data-name="패스 1700" d="M147.71,60.855A18.5,18.5,0,1,1,128.218,43.4,18.5,18.5,0,0,1,147.71,60.855Z" transform="translate(44.248 17.33)" fill="none" stroke="#f96797" stroke-width="4"/>
    <path id="패스_1701" data-name="패스 1701" d="M38.976,63.864A18.5,18.5,0,1,1,19.484,46.408,18.5,18.5,0,0,1,38.976,63.864" transform="translate(0.799 18.533)" fill="#fff"/>
    <path id="패스_1702" data-name="패스 1702" d="M38.976,63.864A18.5,18.5,0,1,1,19.484,46.408,18.5,18.5,0,0,1,38.976,63.864Z" transform="translate(0.799 18.533)" fill="none" stroke="#f96797" stroke-width="4"/>
    <path id="패스_1703" data-name="패스 1703" d="M160.889,69.2A71.107,71.107,0,1,1,85.978,2.11,71.107,71.107,0,0,1,160.889,69.2" transform="translate(7.505 0.799)" fill="#fff"/>
    <ellipse id="타원_70" data-name="타원 70" cx="71.107" cy="71.107" rx="71.107" ry="71.107" transform="translate(-2.911 81.033) rotate(-49.063)" fill="none" stroke="#f96797" stroke-width="4"/>
    <path id="패스_1704" data-name="패스 1704" d="M62.568,69.2a9.7,9.7,0,1,1-10.216-9.148A9.7,9.7,0,0,1,62.568,69.2" transform="translate(17.258 23.988)" fill="#f96797"/>
    <path id="패스_1705" data-name="패스 1705" d="M99.855,67.141a9.7,9.7,0,1,1-10.216-9.148,9.7,9.7,0,0,1,10.216,9.148" transform="translate(32.157 23.167)" fill="#f96797"/>
    <path id="패스_1706" data-name="패스 1706" d="M55.5,8.332s20.33,33.484-2.924,54.188c-16.538,14.722-33.787,7.54-33.787,7.54S18.4,27.407,55.5,8.332" transform="translate(7.507 3.329)" fill="#f96797"/>
    <path id="패스_1707" data-name="패스 1707" d="M60.175,4.444s-18.69,2.684-15.862,9.537,6,45.417,39.66,49.212a327.964,327.964,0,0,0,66.419.367S141.878-9.432,60.175,4.444" transform="translate(17.707 1.075)" fill="#f96797"/>
    <path id="패스_1708" data-name="패스 1708" d="M50.9,86.948s22.762,23.969,53.091,0" transform="translate(20.338 34.743)" fill="#fff"/>
    <path id="패스_1709" data-name="패스 1709" d="M50.9,86.948s22.762,23.969,53.091,0" transform="translate(20.338 34.743)" fill="none" stroke="#f96797" stroke-linecap="round" stroke-width="4"/>
    <path id="패스_1710" data-name="패스 1710" d="M58.859,51.228s-13.044-7.78-19.894,5.894" transform="translate(15.57 19.589)" fill="#fff"/>
    <path id="패스_1711" data-name="패스 1711" d="M58.859,51.228s-13.044-7.78-19.894,5.894" transform="translate(15.57 19.589)" fill="none" stroke="#f96797" stroke-linecap="round" stroke-width="4"/>
    <path id="패스_1712" data-name="패스 1712" d="M78.577,52.312S91.621,39.7,104.993,53.83" transform="translate(31.399 18.832)" fill="#fff"/>
    <path id="패스_1713" data-name="패스 1713" d="M78.577,52.312S91.621,39.7,104.993,53.83" transform="translate(31.399 18.832)" fill="none" stroke="#f96797" stroke-linecap="round" stroke-width="4"/>
  </g>
</svg>
