<svg id="그룹_1087" data-name="그룹 1087" xmlns="http://www.w3.org/2000/svg" xmlns:xlink="http://www.w3.org/1999/xlink" width="102" height="85.583" viewBox="0 0 102 85.583">
  <defs>
    <clipPath id="clip-path">
      <rect id="사각형_8115" data-name="사각형 8115" width="102" height="85.583" fill="none"/>
    </clipPath>
  </defs>
  <g id="그룹_905" data-name="그룹 905" clip-path="url(#clip-path)">
    <path id="패스_1394" data-name="패스 1394" d="M141.124,86.183a8.033,8.033,0,1,1-8.463-7.579,8.033,8.033,0,0,1,8.463,7.579" transform="translate(-49.067 -30.833)" fill="#fff"/>
    <path id="패스_1395" data-name="패스 1395" d="M141.124,86.183a8.033,8.033,0,1,1-8.463-7.579A8.033,8.033,0,0,1,141.124,86.183Z" transform="translate(-49.067 -30.833)" fill="none" stroke="#679ff9" stroke-width="4"/>
    <path id="패스_1396" data-name="패스 1396" d="M32.39,89.192a8.033,8.033,0,1,1-8.463-7.579,8.033,8.033,0,0,1,8.463,7.579" transform="translate(-6.409 -32.013)" fill="#fff"/>
    <path id="패스_1397" data-name="패스 1397" d="M32.39,89.192a8.033,8.033,0,1,1-8.463-7.579A8.033,8.033,0,0,1,32.39,89.192Z" transform="translate(-6.409 -32.013)" fill="none" stroke="#679ff9" stroke-width="4"/>
    <path id="패스_1398" data-name="패스 1398" d="M94.82,66.4A30.874,30.874,0,1,1,62.294,37.269,30.874,30.874,0,0,1,94.82,66.4" transform="translate(-12.993 -14.603)" fill="#fff"/>
    <circle id="타원_67" data-name="타원 67" cx="30.874" cy="30.874" r="30.874" transform="translate(7.451 56.629) rotate(-49.118)" fill="none" stroke="#679ff9" stroke-width="4"/>
    <path id="패스_1399" data-name="패스 1399" d="M64.366,96.074a3.818,3.818,0,1,1-4.022-3.6,3.818,3.818,0,0,1,4.022,3.6" transform="translate(-22.258 -36.275)" fill="#679ff9"/>
    <path id="패스_1400" data-name="패스 1400" d="M49.063,43.553s8.827,14.538-1.269,23.528c-7.18,6.392-14.67,3.274-14.67,3.274s-.166-18.519,15.94-26.8" transform="translate(-12.995 -17.086)" fill="#679ff9"/>
    <path id="패스_1401" data-name="패스 1401" d="M65.487,38.672s-7.553.61-6.887,4.141S61.207,62.532,75.821,64.18a142.4,142.4,0,0,0,28.838.159s-3.7-31.692-39.172-25.667" transform="translate(-22.961 -14.873)" fill="#679ff9"/>
    <path id="패스_1402" data-name="패스 1402" d="M60.486,83.668s-2.649-.137-6.226,2.978" transform="translate(-21.287 -32.824)" fill="none" stroke="#679ff9" stroke-linecap="round" stroke-linejoin="round" stroke-width="4"/>
    <path id="패스_1403" data-name="패스 1403" d="M55.158,105.055a8.408,8.408,0,0,1,10.353,0" transform="translate(-21.639 -40.511)" fill="none" stroke="#679ff9" stroke-linecap="round" stroke-linejoin="round" stroke-width="4"/>
    <path id="패스_1404" data-name="패스 1404" d="M95.813,95.953a3.818,3.818,0,1,0,4.022-3.6,3.818,3.818,0,0,0-4.022,3.6" transform="translate(-37.587 -36.228)" fill="#679ff9"/>
    <path id="패스_1405" data-name="패스 1405" d="M100.6,83.548s2.649-.137,6.226,2.978" transform="translate(-39.468 -32.777)" fill="none" stroke="#679ff9" stroke-linecap="round" stroke-linejoin="round" stroke-width="4"/>
    <path id="패스_1406" data-name="패스 1406" d="M103.267,104.935a8.408,8.408,0,0,0-10.353,0" transform="translate(-36.452 -40.464)" fill="none" stroke="#679ff9" stroke-linecap="round" stroke-linejoin="round" stroke-width="4"/>
    <path id="패스_1407" data-name="패스 1407" d="M70.448,118.558s7.552-4.142,13.652.425" transform="translate(-27.638 -45.837)" fill="none" stroke="#679ff9" stroke-linecap="round" stroke-linejoin="round" stroke-width="4"/>
    <path id="패스_1408" data-name="패스 1408" d="M111.137,110.757s-2.669,7.084,0,8.991,5-.465,3.943-4.251A6.824,6.824,0,0,0,111.137,110.757Z" transform="translate(-43.135 -43.452)" fill="none" stroke="#679ff9" stroke-linecap="round" stroke-linejoin="round" stroke-width="4"/>
    <line id="선_262" data-name="선 262" x2="3.04" y2="1.745" transform="translate(32.085 57.019)" fill="#fff"/>
    <line id="선_263" data-name="선 263" x2="3.04" y2="1.745" transform="translate(32.085 57.019)" fill="none" stroke="#679ff9" stroke-linecap="round" stroke-width="3"/>
    <path id="패스_1409" data-name="패스 1409" d="M116.8,51.281l9.13-19.71a2.01,2.01,0,0,0-2.53-2.727L106.04,35.355a2.01,2.01,0,0,0-.856,3.148l10.238,12.628Z" transform="translate(-41.089 -11.264)" fill="#679ff9"/>
    <path id="패스_1410" data-name="패스 1410" d="M36.753,50.753,27.42,31.137a2.01,2.01,0,0,1,2.5-2.753l17.425,6.332a2.01,2.01,0,0,1,.888,3.139L38.127,50.588Z" transform="translate(-10.678 -11.086)" fill="#679ff9"/>
    <path id="패스_1411" data-name="패스 1411" d="M140.973,17.1,145.28,3.7a.689.689,0,0,1,1.166-.252L155.9,13.882a.689.689,0,0,1-.364,1.136l-13.76,2.97a.688.688,0,0,1-.8-.884" transform="translate(-55.292 -1.265)" fill="#679ff9"/>
    <path id="패스_1412" data-name="패스 1412" d="M140.973,17.1,145.28,3.7a.689.689,0,0,1,1.166-.252L155.9,13.882a.689.689,0,0,1-.364,1.136l-13.76,2.97A.688.688,0,0,1,140.973,17.1Z" transform="translate(-55.292 -1.265)" fill="none" stroke="#679ff9" stroke-width="4"/>
    <path id="패스_1413" data-name="패스 1413" d="M16.107,16.952l-13.6-3.647A.689.689,0,0,1,2.2,12.153L12.159,2.2a.688.688,0,0,1,1.152.309l3.64,13.6a.689.689,0,0,1-.843.843" transform="translate(-0.785 -0.785)" fill="#679ff9"/>
    <path id="패스_1414" data-name="패스 1414" d="M16.107,16.952l-13.6-3.647A.689.689,0,0,1,2.2,12.153L12.159,2.2a.688.688,0,0,1,1.152.309l3.64,13.6A.689.689,0,0,1,16.107,16.952Z" transform="translate(-0.785 -0.785)" fill="none" stroke="#679ff9" stroke-width="4"/>
    <line id="선_264" data-name="선 264" y1="1.685" x2="3.48" transform="translate(64.809 57.621)" fill="#fff"/>
    <line id="선_265" data-name="선 265" y1="1.685" x2="3.48" transform="translate(64.809 57.621)" fill="none" stroke="#679ff9" stroke-linecap="round" stroke-width="3"/>
  </g>
</svg>
