<svg id="그룹_1086" data-name="그룹 1086" xmlns="http://www.w3.org/2000/svg" xmlns:xlink="http://www.w3.org/1999/xlink" width="102" height="85.424" viewBox="0 0 102 85.424">
  <defs>
    <clipPath id="clip-path">
      <rect id="사각형_8116" data-name="사각형 8116" width="102" height="85.424" fill="none"/>
    </clipPath>
  </defs>
  <g id="그룹_907" data-name="그룹 907" clip-path="url(#clip-path)">
    <path id="패스_1415" data-name="패스 1415" d="M140.45,85.921a8.033,8.033,0,1,1-8.463-7.579,8.033,8.033,0,0,1,8.463,7.579" transform="translate(-48.802 -30.73)" fill="#fff"/>
    <path id="패스_1416" data-name="패스 1416" d="M140.45,85.921a8.033,8.033,0,1,1-8.463-7.579A8.033,8.033,0,0,1,140.45,85.921Z" transform="translate(-48.802 -30.73)" fill="none" stroke="#73d371" stroke-width="4"/>
    <path id="패스_1417" data-name="패스 1417" d="M31.716,88.93a8.033,8.033,0,1,1-8.463-7.579,8.033,8.033,0,0,1,8.463,7.579" transform="translate(-6.144 -31.91)" fill="#fff"/>
    <path id="패스_1418" data-name="패스 1418" d="M31.716,88.93a8.033,8.033,0,1,1-8.463-7.579A8.033,8.033,0,0,1,31.716,88.93Z" transform="translate(-6.144 -31.91)" fill="none" stroke="#73d371" stroke-width="4"/>
    <path id="패스_1419" data-name="패스 1419" d="M94.145,66.135A30.874,30.874,0,1,1,61.619,37.007,30.874,30.874,0,0,1,94.145,66.135" transform="translate(-12.728 -14.5)" fill="#fff"/>
    <circle id="타원_68" data-name="타원 68" cx="30.874" cy="30.874" r="30.874" transform="translate(7.041 56.47) rotate(-49.118)" fill="none" stroke="#73d371" stroke-width="4"/>
    <path id="패스_1420" data-name="패스 1420" d="M64.576,98.725a3.982,3.982,0,1,1-4.2-3.757,3.982,3.982,0,0,1,4.2,3.757" transform="translate(-22.212 -37.255)" fill="#73d371"/>
    <path id="패스_1421" data-name="패스 1421" d="M48.389,43.291s8.827,14.538-1.269,23.528c-7.18,6.392-14.67,3.274-14.67,3.274s-.166-18.519,15.94-26.8" transform="translate(-12.73 -16.984)" fill="#73d371"/>
    <path id="패스_1422" data-name="패스 1422" d="M64.861,38.41l-6.887,4.141S60.58,62.27,75.195,63.918a142.4,142.4,0,0,0,28.838.159s-3.7-31.692-39.172-25.667" transform="translate(-22.744 -14.77)" fill="#73d371"/>
    <path id="패스_1423" data-name="패스 1423" d="M60.822,91.828s-4.87,3.957-8.926,3.8" transform="translate(-20.36 -36.025)" fill="#fff"/>
    <path id="패스_1424" data-name="패스 1424" d="M60.822,91.828s-4.87,3.957-8.926,3.8" transform="translate(-20.36 -36.025)" fill="none" stroke="#73d371" stroke-linecap="round" stroke-width="4"/>
    <path id="패스_1425" data-name="패스 1425" d="M97,98.725a3.982,3.982,0,1,0,4.2-3.757A3.982,3.982,0,0,0,97,98.725" transform="translate(-38.054 -37.255)" fill="#73d371"/>
    <path id="패스_1426" data-name="패스 1426" d="M100.138,91.828s4.87,3.957,8.926,3.8" transform="translate(-39.286 -36.025)" fill="#fff"/>
    <path id="패스_1427" data-name="패스 1427" d="M100.138,91.828s4.87,3.957,8.926,3.8" transform="translate(-39.286 -36.025)" fill="none" stroke="#73d371" stroke-linecap="round" stroke-width="4"/>
    <path id="패스_1428" data-name="패스 1428" d="M84.009,119.3a3.6,3.6,0,1,1-3.6-3.6,3.6,3.6,0,0,1,3.6,3.6" transform="translate(-30.13 -45.389)" fill="#fff"/>
    <path id="패스_1429" data-name="패스 1429" d="M84.009,119.3a3.6,3.6,0,1,1-3.6-3.6A3.6,3.6,0,0,1,84.009,119.3Z" transform="translate(-30.13 -45.389)" fill="none" stroke="#73d371" stroke-linecap="round" stroke-width="4"/>
    <path id="패스_1430" data-name="패스 1430" d="M60.373,81.6s-7.639-2.223-13.536,6.206" transform="translate(-18.375 -31.91)" fill="#fff"/>
    <path id="패스_1431" data-name="패스 1431" d="M60.373,81.6s-7.639-2.223-13.536,6.206" transform="translate(-18.375 -31.91)" fill="none" stroke="#73d371" stroke-linecap="round" stroke-width="4"/>
    <path id="패스_1432" data-name="패스 1432" d="M95.164,81.6S102.8,79.38,108.7,87.809" transform="translate(-37.334 -31.91)" fill="#fff"/>
    <path id="패스_1433" data-name="패스 1433" d="M95.164,81.6S102.8,79.38,108.7,87.809" transform="translate(-37.334 -31.91)" fill="none" stroke="#73d371" stroke-linecap="round" stroke-width="4"/>
    <path id="패스_1434" data-name="패스 1434" d="M116.8,51.282l9.13-19.71a2.01,2.01,0,0,0-2.53-2.727L106.04,35.356a2.01,2.01,0,0,0-.856,3.148l10.238,12.628Z" transform="translate(-41.089 -11.264)" fill="#73d371"/>
    <path id="패스_1435" data-name="패스 1435" d="M36.753,50.753,27.42,31.137a2.01,2.01,0,0,1,2.5-2.753l17.425,6.332a2.01,2.01,0,0,1,.888,3.139L38.127,50.588Z" transform="translate(-10.678 -11.086)" fill="#73d371"/>
    <path id="패스_1436" data-name="패스 1436" d="M140.973,17.1,145.28,3.7a.689.689,0,0,1,1.166-.252L155.9,13.882a.689.689,0,0,1-.364,1.136l-13.76,2.97a.688.688,0,0,1-.8-.884" transform="translate(-55.292 -1.265)" fill="#73d371"/>
    <path id="패스_1437" data-name="패스 1437" d="M140.973,17.1,145.28,3.7a.689.689,0,0,1,1.166-.252L155.9,13.882a.689.689,0,0,1-.364,1.136l-13.76,2.97A.688.688,0,0,1,140.973,17.1Z" transform="translate(-55.292 -1.265)" fill="none" stroke="#73d371" stroke-width="4"/>
    <path id="패스_1438" data-name="패스 1438" d="M16.107,16.952l-13.6-3.647A.689.689,0,0,1,2.2,12.153L12.159,2.2a.688.688,0,0,1,1.152.309l3.64,13.6a.689.689,0,0,1-.843.843" transform="translate(-0.785 -0.785)" fill="#73d371"/>
    <path id="패스_1439" data-name="패스 1439" d="M16.107,16.952l-13.6-3.647A.689.689,0,0,1,2.2,12.153L12.159,2.2a.688.688,0,0,1,1.152.309l3.64,13.6A.689.689,0,0,1,16.107,16.952Z" transform="translate(-0.785 -0.785)" fill="none" stroke="#73d371" stroke-width="4"/>
  </g>
</svg>
