<svg id="그룹_908" data-name="그룹 908" xmlns="http://www.w3.org/2000/svg" xmlns:xlink="http://www.w3.org/1999/xlink" width="218.578" height="183.057" viewBox="0 0 218.578 183.057">
  <defs>
    <clipPath id="clip-path">
      <rect id="사각형_8116" data-name="사각형 8116" width="218.578" height="183.057" fill="none"/>
    </clipPath>
  </defs>
  <g id="그룹_907" data-name="그룹 907" clip-path="url(#clip-path)">
    <path id="패스_1415" data-name="패스 1415" d="M158.8,94.6a17.215,17.215,0,1,1-18.136-16.241A17.215,17.215,0,0,1,158.8,94.6" transform="translate(37.595 23.673)" fill="#fff"/>
    <path id="패스_1416" data-name="패스 1416" d="M158.8,94.6a17.215,17.215,0,1,1-18.136-16.241A17.215,17.215,0,0,1,158.8,94.6Z" transform="translate(37.595 23.673)" fill="none" stroke="#73d371" stroke-width="4"/>
    <path id="패스_1417" data-name="패스 1417" d="M50.065,97.606A17.215,17.215,0,1,1,31.929,81.365,17.215,17.215,0,0,1,50.065,97.606" transform="translate(4.733 24.582)" fill="#fff"/>
    <path id="패스_1418" data-name="패스 1418" d="M50.065,97.606A17.215,17.215,0,1,1,31.929,81.365,17.215,17.215,0,0,1,50.065,97.606Z" transform="translate(4.733 24.582)" fill="none" stroke="#73d371" stroke-width="4"/>
    <path id="패스_1419" data-name="패스 1419" d="M164.665,99.481a66.16,66.16,0,1,1-69.7-62.419,66.16,66.16,0,0,1,69.7,62.419" transform="translate(9.805 11.17)" fill="#fff"/>
    <circle id="타원_68" data-name="타원 68" cx="66.16" cy="66.16" r="66.16" transform="translate(15.088 121.01) rotate(-49.118)" fill="none" stroke="#73d371" stroke-width="4"/>
    <path id="패스_1420" data-name="패스 1420" d="M73.672,103.027a8.534,8.534,0,1,1-8.991-8.052,8.534,8.534,0,0,1,8.991,8.052" transform="translate(17.111 28.699)" fill="#73d371"/>
    <path id="패스_1421" data-name="패스 1421" d="M66.606,43.291s18.916,31.154-2.72,50.418c-15.387,13.7-31.437,7.015-31.437,7.015s-.356-39.685,34.157-57.433" transform="translate(9.807 13.083)" fill="#73d371"/>
    <path id="패스_1422" data-name="패스 1422" d="M72.732,39.281,57.974,48.154s5.585,42.257,36.9,45.789a305.151,305.151,0,0,0,61.8.341s-7.921-67.913-83.942-55" transform="translate(17.521 11.378)" fill="#73d371"/>
    <path id="패스_1423" data-name="패스 1423" d="M71.023,91.828S60.587,100.307,51.9,99.981" transform="translate(15.684 27.752)" fill="#fff"/>
    <path id="패스_1424" data-name="패스 1424" d="M71.023,91.828S60.587,100.307,51.9,99.981" transform="translate(15.684 27.752)" fill="none" stroke="#73d371" stroke-linecap="round" stroke-width="4"/>
    <path id="패스_1425" data-name="패스 1425" d="M97.011,103.027A8.534,8.534,0,1,0,106,94.975a8.534,8.534,0,0,0-8.991,8.052" transform="translate(29.315 28.699)" fill="#73d371"/>
    <path id="패스_1426" data-name="패스 1426" d="M100.138,91.828s10.436,8.479,19.127,8.153" transform="translate(30.264 27.752)" fill="#fff"/>
    <path id="패스_1427" data-name="패스 1427" d="M100.138,91.828s10.436,8.479,19.127,8.153" transform="translate(30.264 27.752)" fill="none" stroke="#73d371" stroke-linecap="round" stroke-width="4"/>
    <path id="패스_1428" data-name="패스 1428" d="M92.247,123.417a7.723,7.723,0,1,1-7.722-7.722,7.722,7.722,0,0,1,7.722,7.722" transform="translate(23.211 34.965)" fill="#fff"/>
    <path id="패스_1429" data-name="패스 1429" d="M92.247,123.417a7.723,7.723,0,1,1-7.722-7.722A7.722,7.722,0,0,1,92.247,123.417Z" transform="translate(23.211 34.965)" fill="none" stroke="#73d371" stroke-linecap="round" stroke-width="4"/>
    <path id="패스_1430" data-name="패스 1430" d="M75.844,81.906S59.475,77.142,46.837,95.2" transform="translate(14.155 24.582)" fill="#fff"/>
    <path id="패스_1431" data-name="패스 1431" d="M75.844,81.906S59.475,77.142,46.837,95.2" transform="translate(14.155 24.582)" fill="none" stroke="#73d371" stroke-linecap="round" stroke-width="4"/>
    <path id="패스_1432" data-name="패스 1432" d="M95.164,81.906s16.369-4.764,29.007,13.3" transform="translate(28.76 24.582)" fill="#fff"/>
    <path id="패스_1433" data-name="패스 1433" d="M95.164,81.906s16.369-4.764,29.007,13.3" transform="translate(28.76 24.582)" fill="none" stroke="#73d371" stroke-linecap="round" stroke-width="4"/>
    <path id="패스_1434" data-name="패스 1434" d="M130.585,77.079l19.566-42.237A4.308,4.308,0,0,0,144.73,29l-37.2,13.952A4.307,4.307,0,0,0,105.7,49.7l21.94,27.06Z" transform="translate(31.653 8.677)" fill="#73d371"/>
    <path id="패스_1435" data-name="패스 1435" d="M47.65,76.462l-20-42.034a4.308,4.308,0,0,1,5.361-5.9L70.351,42.1a4.308,4.308,0,0,1,1.9,6.727L50.594,76.109Z" transform="translate(8.226 8.54)" fill="#73d371"/>
    <path id="패스_1436" data-name="패스 1436" d="M141.012,32.968l9.23-28.719a1.475,1.475,0,0,1,2.5-.539l20.255,22.353a1.476,1.476,0,0,1-.78,2.434l-29.486,6.365a1.475,1.475,0,0,1-1.716-1.893" transform="translate(42.594 0.975)" fill="#73d371"/>
    <path id="패스_1437" data-name="패스 1437" d="M141.012,32.968l9.23-28.719a1.475,1.475,0,0,1,2.5-.539l20.255,22.353a1.476,1.476,0,0,1-.78,2.434l-29.486,6.365A1.475,1.475,0,0,1,141.012,32.968Z" transform="translate(42.594 0.975)" fill="none" stroke="#73d371" stroke-width="4"/>
    <path id="패스_1438" data-name="패스 1438" d="M32.23,34.041,3.094,26.226a1.476,1.476,0,0,1-.66-2.469L23.769,2.432a1.475,1.475,0,0,1,2.468.663l7.8,29.14a1.476,1.476,0,0,1-1.807,1.806" transform="translate(0.604 0.604)" fill="#73d371"/>
    <path id="패스_1439" data-name="패스 1439" d="M32.23,34.041,3.094,26.226a1.476,1.476,0,0,1-.66-2.469L23.769,2.432a1.475,1.475,0,0,1,2.468.663l7.8,29.14A1.476,1.476,0,0,1,32.23,34.041Z" transform="translate(0.604 0.604)" fill="none" stroke="#73d371" stroke-width="4"/>
  </g>
</svg>
