<svg id="그룹_904" data-name="그룹 904" xmlns="http://www.w3.org/2000/svg" xmlns:xlink="http://www.w3.org/1999/xlink" width="218.966" height="183.724" viewBox="0 0 218.966 183.724">
  <defs>
    <clipPath id="clip-path">
      <rect id="사각형_8114" data-name="사각형 8114" width="218.966" height="183.724" fill="none"/>
    </clipPath>
  </defs>
  <g id="그룹_903" data-name="그룹 903" clip-path="url(#clip-path)">
    <path id="패스_1376" data-name="패스 1376" d="M159.035,94.888a17.245,17.245,0,1,1-18.168-16.27,17.245,17.245,0,0,1,18.168,16.27" transform="translate(37.936 23.934)" fill="#fff"/>
    <path id="패스_1377" data-name="패스 1377" d="M159.035,94.888a17.245,17.245,0,1,1-18.168-16.27A17.245,17.245,0,0,1,159.035,94.888Z" transform="translate(37.936 23.934)" fill="none" stroke="#f99367" stroke-width="4"/>
    <path id="패스_1378" data-name="패스 1378" d="M50.3,97.9a17.245,17.245,0,1,1-18.168-16.27A17.245,17.245,0,0,1,50.3,97.9" transform="translate(4.822 24.85)" fill="#fff"/>
    <path id="패스_1379" data-name="패스 1379" d="M50.3,97.9a17.245,17.245,0,1,1-18.168-16.27A17.245,17.245,0,0,1,50.3,97.9Z" transform="translate(4.822 24.85)" fill="none" stroke="#f99367" stroke-width="4"/>
    <path id="패스_1380" data-name="패스 1380" d="M165.075,99.854a66.278,66.278,0,1,1-69.824-62.53,66.279,66.279,0,0,1,69.824,62.53" transform="translate(9.934 11.335)" fill="#fff"/>
    <circle id="타원_66" data-name="타원 66" cx="66.277" cy="66.277" r="66.277" transform="translate(15.342 121.567) rotate(-49.118)" fill="none" stroke="#f99367" stroke-width="4"/>
    <path id="패스_1381" data-name="패스 1381" d="M72.616,103.387a8.2,8.2,0,1,1-8.635-7.733,8.2,8.2,0,0,1,8.635,7.733" transform="translate(17.126 29.126)" fill="#f99367"/>
    <path id="패스_1382" data-name="패스 1382" d="M66.841,43.553s18.95,31.21-2.725,50.508c-15.414,13.722-31.493,7.028-31.493,7.028s-.356-39.756,34.218-57.535" transform="translate(9.935 13.263)" fill="#f99367"/>
    <path id="패스_1383" data-name="패스 1383" d="M72.932,39.546,58.148,48.435s5.6,42.332,36.968,45.87a305.694,305.694,0,0,0,61.908.342s-7.935-68.034-84.092-55.1" transform="translate(17.708 11.545)" fill="#f99367"/>
    <path id="패스_1384" data-name="패스 1384" d="M113.01,95.779c-10.264-1.255-19.075,6.464-18.661,6.077-.737.086,11.617.464,17.435,4.982" transform="translate(28.723 29.126)" fill="none" stroke="#f99367" stroke-linecap="round" stroke-linejoin="round" stroke-width="4"/>
    <path id="패스_1385" data-name="패스 1385" d="M71.443,89.4s-9.107-5.467-16.785,1.22" transform="translate(16.645 26.584)" fill="none" stroke="#f99367" stroke-linecap="round" stroke-linejoin="round" stroke-width="3"/>
    <path id="패스_1386" data-name="패스 1386" d="M93.279,89.325s5.426-10.942,18.086-5.167" transform="translate(28.407 25.117)" fill="none" stroke="#f99367" stroke-linecap="round" stroke-linejoin="round" stroke-width="3"/>
    <path id="패스_1387" data-name="패스 1387" d="M110.343,110.349C95.3,129.5,66.942,121.6,66.942,121.6s1.914,15.714,22.19,14.287C113.762,134.148,112.832,110.571,110.343,110.349Z" transform="translate(20.386 33.605)" fill="none" stroke="#f99367" stroke-linecap="round" stroke-linejoin="round" stroke-width="4"/>
    <line id="선_260" data-name="선 260" x2="6.525" y2="3.745" transform="translate(68.878 125.014)" fill="#fff"/>
    <line id="선_261" data-name="선 261" x2="6.525" y2="3.745" transform="translate(68.878 125.014)" fill="none" stroke="#f99367" stroke-linecap="round" stroke-width="3"/>
    <path id="패스_1388" data-name="패스 1388" d="M130.631,77.164l19.6-42.313A4.315,4.315,0,0,0,144.8,29L107.537,42.974a4.315,4.315,0,0,0-1.837,6.759l21.979,27.108Z" transform="translate(31.895 8.743)" fill="#f99367"/>
    <path id="패스_1389" data-name="패스 1389" d="M47.686,76.548,27.651,34.439a4.316,4.316,0,0,1,5.371-5.911L70.428,42.121a4.315,4.315,0,0,1,1.906,6.739l-21.7,27.334Z" transform="translate(8.289 8.605)" fill="#f99367"/>
    <path id="패스_1390" data-name="패스 1390" d="M141.012,33.021l9.247-28.77a1.478,1.478,0,0,1,2.5-.54L173.051,26.1a1.479,1.479,0,0,1-.781,2.438l-29.539,6.377a1.478,1.478,0,0,1-1.719-1.9" transform="translate(42.921 0.982)" fill="#f99367"/>
    <path id="패스_1391" data-name="패스 1391" d="M141.012,33.021l9.247-28.77a1.478,1.478,0,0,1,2.5-.54L173.051,26.1a1.479,1.479,0,0,1-.781,2.438l-29.539,6.377A1.478,1.478,0,0,1,141.012,33.021Z" transform="translate(42.921 0.982)" fill="none" stroke="#f99367" stroke-width="4"/>
    <path id="패스_1392" data-name="패스 1392" d="M32.283,34.1,3.1,26.27A1.478,1.478,0,0,1,2.434,23.8L23.808,2.433A1.478,1.478,0,0,1,26.28,3.1l7.814,29.192A1.478,1.478,0,0,1,32.283,34.1" transform="translate(0.609 0.609)" fill="#f99367"/>
    <path id="패스_1393" data-name="패스 1393" d="M32.283,34.1,3.1,26.27A1.478,1.478,0,0,1,2.434,23.8L23.808,2.433A1.478,1.478,0,0,1,26.28,3.1l7.814,29.192A1.478,1.478,0,0,1,32.283,34.1Z" transform="translate(0.609 0.609)" fill="none" stroke="#f99367" stroke-width="4"/>
  </g>
</svg>
