<svg id="그룹_1090" data-name="그룹 1090" xmlns="http://www.w3.org/2000/svg" xmlns:xlink="http://www.w3.org/1999/xlink" width="102" height="85.583" viewBox="0 0 102 85.583">
  <defs>
    <clipPath id="clip-path">
      <rect id="사각형_8114" data-name="사각형 8114" width="102" height="85.583" fill="none"/>
    </clipPath>
  </defs>
  <g id="그룹_903" data-name="그룹 903" clip-path="url(#clip-path)">
    <path id="패스_1376" data-name="패스 1376" d="M140.624,86.183a8.033,8.033,0,1,1-8.463-7.579,8.033,8.033,0,0,1,8.463,7.579" transform="translate(-48.87 -30.833)" fill="#fff"/>
    <path id="패스_1377" data-name="패스 1377" d="M140.624,86.183a8.033,8.033,0,1,1-8.463-7.579A8.033,8.033,0,0,1,140.624,86.183Z" transform="translate(-48.87 -30.833)" fill="none" stroke="#f99367" stroke-width="4"/>
    <path id="패스_1378" data-name="패스 1378" d="M31.89,89.192a8.033,8.033,0,1,1-8.463-7.579,8.033,8.033,0,0,1,8.463,7.579" transform="translate(-6.213 -32.013)" fill="#fff"/>
    <path id="패스_1379" data-name="패스 1379" d="M31.89,89.192a8.033,8.033,0,1,1-8.463-7.579A8.033,8.033,0,0,1,31.89,89.192Z" transform="translate(-6.213 -32.013)" fill="none" stroke="#f99367" stroke-width="4"/>
    <path id="패스_1380" data-name="패스 1380" d="M94.32,66.4A30.874,30.874,0,1,1,61.794,37.269,30.874,30.874,0,0,1,94.32,66.4" transform="translate(-12.797 -14.603)" fill="#fff"/>
    <circle id="타원_66" data-name="타원 66" cx="30.874" cy="30.874" r="30.874" transform="translate(7.147 56.629) rotate(-49.118)" fill="none" stroke="#f99367" stroke-width="4"/>
    <path id="패스_1381" data-name="패스 1381" d="M63.866,99.25a3.818,3.818,0,1,1-4.022-3.6,3.818,3.818,0,0,1,4.022,3.6" transform="translate(-22.062 -37.521)" fill="#f99367"/>
    <path id="패스_1382" data-name="패스 1382" d="M48.563,43.553s8.827,14.538-1.269,23.528c-7.18,6.392-14.67,3.274-14.67,3.274s-.166-18.519,15.94-26.8" transform="translate(-12.798 -17.086)" fill="#f99367"/>
    <path id="패스_1383" data-name="패스 1383" d="M65.035,38.672l-6.887,4.141S60.754,62.532,75.369,64.18a142.4,142.4,0,0,0,28.838.159s-3.7-31.692-39.172-25.667" transform="translate(-22.812 -14.873)" fill="#f99367"/>
    <path id="패스_1384" data-name="패스 1384" d="M103.024,95.705c-4.781-.585-8.886,3.011-8.693,2.831-.343.04,5.411.216,8.122,2.321" transform="translate(-37.002 -37.521)" fill="none" stroke="#f99367" stroke-linecap="round" stroke-linejoin="round" stroke-width="4"/>
    <path id="패스_1385" data-name="패스 1385" d="M62.477,88.276s-4.242-2.547-7.819.568" transform="translate(-21.443 -34.247)" fill="none" stroke="#f99367" stroke-linecap="round" stroke-linejoin="round" stroke-width="3"/>
    <path id="패스_1386" data-name="패스 1386" d="M93.279,85.666s2.527-5.1,8.425-2.407" transform="translate(-36.595 -32.356)" fill="none" stroke="#f99367" stroke-linecap="round" stroke-linejoin="round" stroke-width="3"/>
    <path id="패스_1387" data-name="패스 1387" d="M87.159,110.349c-7.009,8.921-20.217,5.239-20.217,5.239s.891,7.32,10.337,6.655C88.752,121.435,88.319,110.452,87.159,110.349Z" transform="translate(-26.262 -43.292)" fill="none" stroke="#f99367" stroke-linecap="round" stroke-linejoin="round" stroke-width="4"/>
    <line id="선_260" data-name="선 260" x2="3.04" y2="1.745" transform="translate(32.085 58.235)" fill="#fff"/>
    <line id="선_261" data-name="선 261" x2="3.04" y2="1.745" transform="translate(32.085 58.235)" fill="none" stroke="#f99367" stroke-linecap="round" stroke-width="3"/>
    <path id="패스_1388" data-name="패스 1388" d="M116.8,51.281l9.13-19.71a2.01,2.01,0,0,0-2.53-2.727L106.04,35.355a2.01,2.01,0,0,0-.856,3.148l10.238,12.628Z" transform="translate(-41.089 -11.264)" fill="#f99367"/>
    <path id="패스_1389" data-name="패스 1389" d="M36.753,50.753,27.42,31.137a2.01,2.01,0,0,1,2.5-2.753l17.425,6.332a2.01,2.01,0,0,1,.888,3.139L38.127,50.588Z" transform="translate(-10.678 -11.086)" fill="#f99367"/>
    <path id="패스_1390" data-name="패스 1390" d="M140.973,17.1,145.28,3.7a.689.689,0,0,1,1.166-.252L155.9,13.882a.689.689,0,0,1-.364,1.136l-13.76,2.97a.688.688,0,0,1-.8-.884" transform="translate(-55.292 -1.265)" fill="#f99367"/>
    <path id="패스_1391" data-name="패스 1391" d="M140.973,17.1,145.28,3.7a.689.689,0,0,1,1.166-.252L155.9,13.882a.689.689,0,0,1-.364,1.136l-13.76,2.97A.688.688,0,0,1,140.973,17.1Z" transform="translate(-55.292 -1.265)" fill="none" stroke="#f99367" stroke-width="4"/>
    <path id="패스_1392" data-name="패스 1392" d="M16.107,16.952l-13.6-3.647A.689.689,0,0,1,2.2,12.153L12.159,2.2a.688.688,0,0,1,1.152.309l3.64,13.6a.689.689,0,0,1-.843.843" transform="translate(-0.785 -0.785)" fill="#f99367"/>
    <path id="패스_1393" data-name="패스 1393" d="M16.107,16.952l-13.6-3.647A.689.689,0,0,1,2.2,12.153L12.159,2.2a.688.688,0,0,1,1.152.309l3.64,13.6A.689.689,0,0,1,16.107,16.952Z" transform="translate(-0.785 -0.785)" fill="none" stroke="#f99367" stroke-width="4"/>
  </g>
</svg>
