<svg id="그룹_906" data-name="그룹 906" xmlns="http://www.w3.org/2000/svg" xmlns:xlink="http://www.w3.org/1999/xlink" width="218.966" height="183.724" viewBox="0 0 218.966 183.724">
  <defs>
    <clipPath id="clip-path">
      <rect id="사각형_8115" data-name="사각형 8115" width="218.966" height="183.724" fill="none"/>
    </clipPath>
  </defs>
  <g id="그룹_905" data-name="그룹 905" clip-path="url(#clip-path)">
    <path id="패스_1394" data-name="패스 1394" d="M159.535,94.888a17.245,17.245,0,1,1-18.168-16.27,17.245,17.245,0,0,1,18.168,16.27" transform="translate(38.088 23.934)" fill="#fff"/>
    <path id="패스_1395" data-name="패스 1395" d="M159.535,94.888a17.245,17.245,0,1,1-18.168-16.27A17.245,17.245,0,0,1,159.535,94.888Z" transform="translate(38.088 23.934)" fill="none" stroke="#679ff9" stroke-width="4"/>
    <path id="패스_1396" data-name="패스 1396" d="M50.8,97.9a17.245,17.245,0,1,1-18.168-16.27A17.245,17.245,0,0,1,50.8,97.9" transform="translate(4.975 24.85)" fill="#fff"/>
    <path id="패스_1397" data-name="패스 1397" d="M50.8,97.9a17.245,17.245,0,1,1-18.168-16.27A17.245,17.245,0,0,1,50.8,97.9Z" transform="translate(4.975 24.85)" fill="none" stroke="#679ff9" stroke-width="4"/>
    <path id="패스_1398" data-name="패스 1398" d="M165.575,99.854a66.278,66.278,0,1,1-69.824-62.53,66.279,66.279,0,0,1,69.824,62.53" transform="translate(10.086 11.335)" fill="#fff"/>
    <circle id="타원_67" data-name="타원 67" cx="66.277" cy="66.277" r="66.277" transform="translate(15.995 121.567) rotate(-49.118)" fill="none" stroke="#679ff9" stroke-width="4"/>
    <path id="패스_1399" data-name="패스 1399" d="M73.116,100.211a8.2,8.2,0,1,1-8.635-7.733,8.2,8.2,0,0,1,8.635,7.733" transform="translate(17.278 28.159)" fill="#679ff9"/>
    <path id="패스_1400" data-name="패스 1400" d="M67.341,43.553s18.95,31.21-2.725,50.508c-15.414,13.722-31.493,7.028-31.493,7.028s-.356-39.756,34.218-57.535" transform="translate(10.087 13.263)" fill="#679ff9"/>
    <path id="패스_1401" data-name="패스 1401" d="M73.432,39.546s-16.215,1.31-14.784,8.889,5.6,42.332,36.968,45.87a305.694,305.694,0,0,0,61.908.342s-7.935-68.034-84.092-55.1" transform="translate(17.86 11.545)" fill="#679ff9"/>
    <path id="패스_1402" data-name="패스 1402" d="M67.626,83.669s-5.686-.295-13.366,6.392" transform="translate(16.524 25.48)" fill="none" stroke="#679ff9" stroke-linecap="round" stroke-linejoin="round" stroke-width="4"/>
    <path id="패스_1403" data-name="패스 1403" d="M55.158,107.112s10.143-8.663,22.225,0" transform="translate(16.798 31.447)" fill="none" stroke="#679ff9" stroke-linecap="round" stroke-linejoin="round" stroke-width="4"/>
    <path id="패스_1404" data-name="패스 1404" d="M95.82,100.09a8.2,8.2,0,1,0,8.635-7.733,8.2,8.2,0,0,0-8.635,7.733" transform="translate(29.177 28.122)" fill="#679ff9"/>
    <path id="패스_1405" data-name="패스 1405" d="M100.6,83.549s5.686-.295,13.366,6.392" transform="translate(30.637 25.443)" fill="none" stroke="#679ff9" stroke-linecap="round" stroke-linejoin="round" stroke-width="4"/>
    <path id="패스_1406" data-name="패스 1406" d="M115.139,106.992s-10.143-8.663-22.225,0" transform="translate(28.296 31.41)" fill="none" stroke="#679ff9" stroke-linecap="round" stroke-linejoin="round" stroke-width="4"/>
    <path id="패스_1407" data-name="패스 1407" d="M70.448,120.532s16.211-8.892,29.308.912" transform="translate(21.454 35.581)" fill="none" stroke="#679ff9" stroke-linecap="round" stroke-linejoin="round" stroke-width="4"/>
    <path id="패스_1408" data-name="패스 1408" d="M112.5,110.757s-5.73,15.207,0,19.3,10.744-1,8.465-9.127S112.5,110.757,112.5,110.757Z" transform="translate(33.484 33.729)" fill="none" stroke="#679ff9" stroke-linecap="round" stroke-linejoin="round" stroke-width="4"/>
    <line id="선_262" data-name="선 262" x2="6.525" y2="3.745" transform="translate(68.878 122.405)" fill="#fff"/>
    <line id="선_263" data-name="선 263" x2="6.525" y2="3.745" transform="translate(68.878 122.405)" fill="none" stroke="#679ff9" stroke-linecap="round" stroke-width="3"/>
    <path id="패스_1409" data-name="패스 1409" d="M130.631,77.164l19.6-42.313A4.315,4.315,0,0,0,144.8,29L107.537,42.974a4.315,4.315,0,0,0-1.837,6.759l21.979,27.108Z" transform="translate(31.895 8.743)" fill="#679ff9"/>
    <path id="패스_1410" data-name="패스 1410" d="M47.686,76.548,27.651,34.439a4.316,4.316,0,0,1,5.371-5.911L70.428,42.121a4.315,4.315,0,0,1,1.906,6.739l-21.7,27.334Z" transform="translate(8.289 8.605)" fill="#679ff9"/>
    <path id="패스_1411" data-name="패스 1411" d="M141.012,33.021l9.247-28.77a1.478,1.478,0,0,1,2.5-.54L173.051,26.1a1.479,1.479,0,0,1-.781,2.438l-29.539,6.377a1.478,1.478,0,0,1-1.719-1.9" transform="translate(42.921 0.982)" fill="#679ff9"/>
    <path id="패스_1412" data-name="패스 1412" d="M141.012,33.021l9.247-28.77a1.478,1.478,0,0,1,2.5-.54L173.051,26.1a1.479,1.479,0,0,1-.781,2.438l-29.539,6.377A1.478,1.478,0,0,1,141.012,33.021Z" transform="translate(42.921 0.982)" fill="none" stroke="#679ff9" stroke-width="4"/>
    <path id="패스_1413" data-name="패스 1413" d="M32.283,34.1,3.1,26.27A1.478,1.478,0,0,1,2.434,23.8L23.808,2.433A1.478,1.478,0,0,1,26.28,3.1l7.814,29.192A1.478,1.478,0,0,1,32.283,34.1" transform="translate(0.609 0.609)" fill="#679ff9"/>
    <path id="패스_1414" data-name="패스 1414" d="M32.283,34.1,3.1,26.27A1.478,1.478,0,0,1,2.434,23.8L23.808,2.433A1.478,1.478,0,0,1,26.28,3.1l7.814,29.192A1.478,1.478,0,0,1,32.283,34.1Z" transform="translate(0.609 0.609)" fill="none" stroke="#679ff9" stroke-width="4"/>
    <line id="선_264" data-name="선 264" y1="3.616" x2="7.47" transform="translate(139.127 123.696)" fill="#fff"/>
    <line id="선_265" data-name="선 265" y1="3.616" x2="7.47" transform="translate(139.127 123.696)" fill="none" stroke="#679ff9" stroke-linecap="round" stroke-width="3"/>
  </g>
</svg>
