<svg id="그룹_900" data-name="그룹 900" xmlns="http://www.w3.org/2000/svg" xmlns:xlink="http://www.w3.org/1999/xlink" width="218.363" height="184.667" viewBox="0 0 218.363 184.667">
  <defs>
    <clipPath id="clip-path">
      <rect id="사각형_8112" data-name="사각형 8112" width="218.363" height="184.667" fill="none"/>
    </clipPath>
  </defs>
  <g id="그룹_899" data-name="그룹 899" clip-path="url(#clip-path)">
    <path id="패스_1330" data-name="패스 1330" d="M158.325,93.088a17.6,17.6,0,1,1-18.543-16.606,17.6,17.6,0,0,1,18.543,16.606" transform="translate(40.815 25.339)" fill="#fff"/>
    <path id="패스_1331" data-name="패스 1331" d="M158.325,93.088a17.6,17.6,0,1,1-18.543-16.606A17.6,17.6,0,0,1,158.325,93.088Z" transform="translate(40.815 25.339)" fill="none" stroke="#4a3e56" stroke-width="4"/>
    <path id="패스_1332" data-name="패스 1332" d="M49.591,96.1A17.6,17.6,0,1,1,31.048,79.492,17.6,17.6,0,0,1,49.591,96.1" transform="translate(4.778 26.336)" fill="#fff"/>
    <path id="패스_1333" data-name="패스 1333" d="M49.591,96.1A17.6,17.6,0,1,1,31.048,79.492,17.6,17.6,0,0,1,49.591,96.1Z" transform="translate(4.778 26.336)" fill="none" stroke="#4a3e56" stroke-width="4"/>
    <path id="패스_1334" data-name="패스 1334" d="M166.384,99.009A67.644,67.644,0,1,1,95.121,35.19a67.644,67.644,0,0,1,71.263,63.819" transform="translate(10.34 11.628)" fill="#fff"/>
    <circle id="타원_64" data-name="타원 64" cx="67.643" cy="67.643" r="67.643" transform="translate(13.767 121.229) rotate(-49.118)" fill="none" stroke="#4a3e56" stroke-width="4"/>
    <path id="패스_1335" data-name="패스 1335" d="M74.039,101.834a9.224,9.224,0,1,1-9.718-8.7,9.225,9.225,0,0,1,9.718,8.7" transform="translate(18.429 30.861)" fill="#4a3e56"/>
    <path id="패스_1336" data-name="패스 1336" d="M111.327,99.78a9.224,9.224,0,1,1-9.718-8.7,9.225,9.225,0,0,1,9.718,8.7" transform="translate(30.787 30.18)" fill="#4a3e56"/>
    <path id="패스_1337" data-name="패스 1337" d="M66.126,41.417s19.34,31.853-2.781,51.549C47.613,106.971,31.2,100.138,31.2,100.138S30.84,59.563,66.126,41.417" transform="translate(10.341 13.727)" fill="#4a3e56"/>
    <path id="패스_1338" data-name="패스 1338" d="M71.817,37.443,56.728,46.516s5.71,43.2,37.73,46.816a312,312,0,0,0,63.184.349s-8.1-69.436-85.825-56.237" transform="translate(18.801 11.857)" fill="#4a3e56"/>
    <path id="패스_1339" data-name="패스 1339" d="M89.885,95.865s12.1,11.582,30.016-9.592" transform="translate(29.79 28.593)" fill="#fff"/>
    <path id="패스_1340" data-name="패스 1340" d="M89.885,95.865s12.1,11.582,30.016-9.592" transform="translate(29.79 28.593)" fill="none" stroke="#4a3e56" stroke-linecap="round" stroke-width="4"/>
    <path id="패스_1341" data-name="패스 1341" d="M79.247,97.487s-12.1,11.582-30.016-9.592" transform="translate(16.316 29.13)" fill="#fff"/>
    <path id="패스_1342" data-name="패스 1342" d="M79.247,97.487s-12.1,11.582-30.016-9.592" transform="translate(16.316 29.13)" fill="none" stroke="#4a3e56" stroke-linecap="round" stroke-width="4"/>
    <path id="패스_1343" data-name="패스 1343" d="M59.81,125.923s-4.888-13.76,12.478-10.735,38.305-4.189,43.889-5.817,16.287,20.242-3.49,21.172-49.619,10.97-52.877-4.62" transform="translate(19.612 36.219)" fill="#fff"/>
    <path id="패스_1344" data-name="패스 1344" d="M59.81,125.923s-4.888-13.76,12.478-10.735,38.305-4.189,43.889-5.817,16.287,20.242-3.49,21.172S63.068,141.512,59.81,125.923Z" transform="translate(19.612 36.219)" fill="none" stroke="#4a3e56" stroke-linecap="round" stroke-width="4"/>
    <path id="패스_1345" data-name="패스 1345" d="M127.938,75.849l19.66-42.44a4.328,4.328,0,0,0-5.447-5.873L104.774,41.554a4.329,4.329,0,0,0-1.843,6.78l22.046,27.192Z" transform="translate(33.793 9.031)" fill="#4a3e56"/>
    <path id="패스_1346" data-name="패스 1346" d="M47.294,76.223,27.2,33.986a4.328,4.328,0,0,1,5.387-5.927l37.52,13.634a4.329,4.329,0,0,1,1.912,6.76L50.252,75.869Z" transform="translate(8.871 9.209)" fill="#4a3e56"/>
    <path id="패스_1347" data-name="패스 1347" d="M137.627,32.039l9.247-28.771a1.509,1.509,0,0,1,2.554-.551L169.72,25.111a1.509,1.509,0,0,1-.8,2.487l-29.539,6.378a1.508,1.508,0,0,1-1.755-1.936" transform="translate(45.588 0.736)" fill="#4a3e56"/>
    <path id="패스_1348" data-name="패스 1348" d="M137.627,32.039l9.247-28.771a1.509,1.509,0,0,1,2.554-.551L169.72,25.111a1.509,1.509,0,0,1-.8,2.487l-29.539,6.378A1.508,1.508,0,0,1,137.627,32.039Z" transform="translate(45.588 0.736)" fill="none" stroke="#4a3e56" stroke-width="4"/>
    <path id="패스_1349" data-name="패스 1349" d="M32.307,34.158,3.118,26.329A1.509,1.509,0,0,1,2.443,23.8L23.818,2.442a1.507,1.507,0,0,1,2.523.676l7.814,29.193a1.509,1.509,0,0,1-1.848,1.847" transform="translate(0.663 0.663)" fill="#4a3e56"/>
    <path id="패스_1350" data-name="패스 1350" d="M32.307,34.158,3.118,26.329A1.509,1.509,0,0,1,2.443,23.8L23.818,2.442a1.507,1.507,0,0,1,2.523.676l7.814,29.193A1.509,1.509,0,0,1,32.307,34.158Z" transform="translate(0.663 0.663)" fill="none" stroke="#4a3e56" stroke-width="4"/>
  </g>
</svg>
