<svg id="프로필_이미지_모바일_메뉴" data-name="프로필 이미지 모바일 메뉴" xmlns="http://www.w3.org/2000/svg" xmlns:xlink="http://www.w3.org/1999/xlink" width="80" height="81.363" viewBox="0 0 80 81.363">
  <defs>
    <clipPath id="clip-path">
      <rect id="사각형_6652" data-name="사각형 6652" width="80" height="79.543" fill="none"/>
    </clipPath>
  </defs>
  <rect id="사각형_6651" data-name="사각형 6651" width="77.871" height="80.298" transform="translate(1.064 1.064)" fill="#fff"/>
  <path id="패스_164" data-name="패스 164" d="M2.129,1.832H77.871v77.7H2.129ZM0,81.363H80V0H0Z" fill="#bcbcbc"/>
  <g id="그룹_429" data-name="그룹 429">
    <g id="그룹_428" data-name="그룹 428" clip-path="url(#clip-path)">
      <path id="패스_165" data-name="패스 165" d="M53.969,62.775A15.68,15.68,0,0,0,73.146,73.7,15.435,15.435,0,0,0,84.218,54.775,15.68,15.68,0,0,0,65.041,43.847,15.436,15.436,0,0,0,53.969,62.775" transform="translate(-24.999 -20.266)" fill="#fff"/>
      <path id="패스_166" data-name="패스 166" d="M53.969,62.775A15.68,15.68,0,0,0,73.146,73.7,15.435,15.435,0,0,0,84.218,54.775,15.68,15.68,0,0,0,65.041,43.847,15.436,15.436,0,0,0,53.969,62.775Z" transform="translate(-24.999 -20.266)" fill="none" stroke="#bcbcbc" stroke-width="4"/>
      <path id="패스_167" data-name="패스 167" d="M92.195,75.28a2.138,2.138,0,0,0,2.615,1.49,2.105,2.105,0,0,0,1.51-2.581A2.139,2.139,0,0,0,93.7,72.7a2.1,2.1,0,0,0-1.51,2.581" transform="translate(-43.101 -33.98)" fill="#bcbcbc"/>
      <path id="패스_168" data-name="패스 168" d="M71.3,80.8A2.138,2.138,0,0,0,73.917,82.3a2.105,2.105,0,0,0,1.51-2.581,2.139,2.139,0,0,0-2.615-1.49A2.1,2.1,0,0,0,71.3,80.8" transform="translate(-33.326 -36.565)" fill="#bcbcbc"/>
      <path id="패스_169" data-name="패스 169" d="M88.109,43.831s-1.957,8.292,4.329,10.994a7.43,7.43,0,0,0,7.587-.731s-2.846-8.835-11.916-10.263" transform="translate(-41.089 -20.507)" fill="#bcbcbc"/>
      <path id="패스_170" data-name="패스 170" d="M68.492,43.34l3.973.9s1.86,9.786-4.923,12.85A72.89,72.89,0,0,1,53.67,61.659S50.444,46.008,68.492,43.34" transform="translate(-25.006 -20.278)" fill="#bcbcbc"/>
      <path id="패스_171" data-name="패스 171" d="M42.911,64.215,33.1,52.863a1.381,1.381,0,0,1,1.185-2.272l12.852,1.1A1.381,1.381,0,0,1,48.3,53.616L43.8,63.861Z" transform="translate(-15.33 -23.668)" fill="#bcbcbc"/>
      <path id="패스_172" data-name="패스 172" d="M42.911,64.215,33.1,52.863a1.381,1.381,0,0,1,1.185-2.272l12.852,1.1A1.381,1.381,0,0,1,48.3,53.616L43.8,63.861Z" transform="translate(-15.33 -23.668)" fill="none" stroke="#bcbcbc" stroke-width="4"/>
      <path id="패스_173" data-name="패스 173" d="M98.795,46.974,101.539,32.3a1.4,1.4,0,0,0-2.177-1.382l-10.573,7.3a1.371,1.371,0,0,0-.032,2.241l9.086,6.653Z" transform="translate(-41.262 -14.348)" fill="#bcbcbc"/>
      <path id="패스_174" data-name="패스 174" d="M98.795,46.974,101.539,32.3a1.4,1.4,0,0,0-2.177-1.382l-10.573,7.3a1.371,1.371,0,0,0-.032,2.241l9.086,6.653Z" transform="translate(-41.262 -14.348)" fill="none" stroke="#bcbcbc" stroke-width="4"/>
      <path id="패스_175" data-name="패스 175" d="M21.348,42.232,16.2,34.527a.6.6,0,0,0-1.039.063l-4.185,8.256a.6.6,0,0,0,.574.874l9.336-.551a.6.6,0,0,0,.466-.937" transform="translate(-5.103 -16.029)" fill="#bcbcbc"/>
      <path id="패스_176" data-name="패스 176" d="M21.348,42.232,16.2,34.527a.6.6,0,0,0-1.039.063l-4.185,8.256a.6.6,0,0,0,.574.874l9.336-.551A.6.6,0,0,0,21.348,42.232Z" transform="translate(-5.103 -16.029)" fill="none" stroke="#bcbcbc" stroke-width="4"/>
      <path id="패스_177" data-name="패스 177" d="M113.306,19.119l8.1-4.616a.6.6,0,0,0,0-1.048l-8.1-4.616a.6.6,0,0,0-.9.524V18.6a.6.6,0,0,0,.9.524" transform="translate(-52.591 -4.099)" fill="#bcbcbc"/>
      <path id="패스_178" data-name="패스 178" d="M113.306,19.119l8.1-4.616a.6.6,0,0,0,0-1.048l-8.1-4.616a.6.6,0,0,0-.9.524V18.6A.6.6,0,0,0,113.306,19.119Z" transform="translate(-52.591 -4.099)" fill="none" stroke="#bcbcbc" stroke-width="4"/>
      <path id="패스_179" data-name="패스 179" d="M68.708,104.232,49.663,139.79a1.553,1.553,0,0,0,1.369,2.287h38.09a1.553,1.553,0,0,0,1.369-2.287L71.447,104.232a1.553,1.553,0,0,0-2.739,0" transform="translate(-23.149 -48.384)" fill="#fff"/>
      <path id="패스_180" data-name="패스 180" d="M68.708,104.232,49.663,139.79a1.553,1.553,0,0,0,1.369,2.287h38.09a1.553,1.553,0,0,0,1.369-2.287L71.447,104.232A1.553,1.553,0,0,0,68.708,104.232Z" transform="translate(-23.149 -48.384)" fill="none" stroke="#bcbcbc" stroke-width="4"/>
      <path id="패스_181" data-name="패스 181" d="M61.81,107.536l-21.5,10.617-4.476-2.719" transform="translate(-16.765 -50.313)" fill="none" stroke="#bcbcbc" stroke-linecap="round" stroke-width="4"/>
      <line id="선_103" data-name="선 103" y1="4.531" x2="5.05" transform="translate(18.494 67.84)" fill="none" stroke="#bcbcbc" stroke-linecap="round" stroke-width="4"/>
      <line id="선_104" data-name="선 104" x1="0.574" y1="5.437" transform="translate(23.544 68.633)" fill="none" stroke="#bcbcbc" stroke-linecap="round" stroke-width="4"/>
      <path id="패스_182" data-name="패스 182" d="M92.508,107.852l21.5,10.617,4.476-2.719" transform="translate(-43.282 -50.461)" fill="none" stroke="#bcbcbc" stroke-linecap="round" stroke-width="4"/>
      <line id="선_105" data-name="선 105" x1="5.05" y1="4.531" transform="translate(70.727 68.008)" fill="none" stroke="#bcbcbc" stroke-linecap="round" stroke-width="4"/>
      <line id="선_106" data-name="선 106" y1="5.437" x2="0.574" transform="translate(70.153 68.801)" fill="none" stroke="#bcbcbc" stroke-linecap="round" stroke-width="4"/>
      <path id="패스_183" data-name="패스 183" d="M69.886,176.073l.856,20.818-6.866.68" transform="translate(-29.886 -82.38)" fill="none" stroke="#bcbcbc" stroke-linecap="round" stroke-linejoin="round" stroke-width="4"/>
      <path id="패스_184" data-name="패스 184" d="M101,176.073l-.856,20.818,6.866.68" transform="translate(-46.857 -82.38)" fill="none" stroke="#bcbcbc" stroke-linecap="round" stroke-linejoin="round" stroke-width="4"/>
    </g>
  </g>
</svg>
