<svg id="프로필_이미지_계정관리" data-name="프로필 이미지 계정관리" xmlns="http://www.w3.org/2000/svg" xmlns:xlink="http://www.w3.org/1999/xlink" width="150.34" height="177.67" viewBox="0 0 150.34 177.67">
  <defs>
    <clipPath id="clip-path">
      <rect id="사각형_6652" data-name="사각형 6652" width="150.34" height="177.67" fill="none"/>
    </clipPath>
  </defs>
  <rect id="사각형_6651" data-name="사각형 6651" width="146.34" height="173.67" transform="translate(2 2)" fill="#fff"/>
  <path id="패스_164" data-name="패스 164" d="M4,4H146.34V173.67H4ZM0,177.67H150.34V0H0Z" fill="#bcbcbc"/>
  <g id="그룹_429" data-name="그룹 429">
    <g id="그룹_428" data-name="그룹 428" clip-path="url(#clip-path)">
      <path id="패스_165" data-name="패스 165" d="M54.442,79.885A29.466,29.466,0,0,0,90.48,100.422a29.006,29.006,0,0,0,20.807-35.571A29.466,29.466,0,0,0,75.249,44.313,29.007,29.007,0,0,0,54.442,79.885" fill="#fff"/>
      <path id="패스_166" data-name="패스 166" d="M54.442,79.885A29.466,29.466,0,0,0,90.48,100.422a29.006,29.006,0,0,0,20.807-35.571A29.466,29.466,0,0,0,75.249,44.313,29.007,29.007,0,0,0,54.442,79.885Z" fill="none" stroke="#bcbcbc" stroke-width="4"/>
      <path id="패스_167" data-name="패스 167" d="M92.259,77.613a4.019,4.019,0,0,0,4.914,2.8,3.957,3.957,0,0,0,2.838-4.851,4.019,4.019,0,0,0-4.915-2.8,3.956,3.956,0,0,0-2.837,4.851" fill="#bcbcbc"/>
      <path id="패스_168" data-name="패스 168" d="M71.367,83.138a4.019,4.019,0,0,0,4.914,2.8,3.957,3.957,0,0,0,2.838-4.851,4.019,4.019,0,0,0-4.915-2.8,3.956,3.956,0,0,0-2.837,4.851" fill="#bcbcbc"/>
      <path id="패스_169" data-name="패스 169" d="M88.362,43.831S84.685,59.414,96.5,64.491a13.963,13.963,0,0,0,14.258-1.374s-5.349-16.6-22.394-19.286" fill="#bcbcbc"/>
      <path id="패스_170" data-name="패스 170" d="M81.721,43.34l7.467,1.683s3.495,18.391-9.251,24.148a136.979,136.979,0,0,1-26.07,8.6S47.8,48.353,81.721,43.34" fill="#bcbcbc"/>
      <path id="패스_171" data-name="패스 171" d="M51.833,76.2,33.4,54.865A2.6,2.6,0,0,1,35.627,50.6L59.78,52.664a2.6,2.6,0,0,1,2.186,3.617L53.512,75.534Z" fill="#bcbcbc"/>
      <path id="패스_172" data-name="패스 172" d="M51.833,76.2,33.4,54.865A2.6,2.6,0,0,1,35.627,50.6L59.78,52.664a2.6,2.6,0,0,1,2.186,3.617L53.512,75.534Z" fill="none" stroke="#bcbcbc" stroke-width="4"/>
      <path id="패스_173" data-name="패스 173" d="M108.118,61.313l5.157-27.573a2.625,2.625,0,0,0-4.092-2.6L89.313,44.853a2.576,2.576,0,0,0-.06,4.211l17.074,12.5Z" fill="#bcbcbc"/>
      <path id="패스_174" data-name="패스 174" d="M108.118,61.313l5.157-27.573a2.625,2.625,0,0,0-4.092-2.6L89.313,44.853a2.576,2.576,0,0,0-.06,4.211l17.074,12.5Z" fill="none" stroke="#bcbcbc" stroke-width="4"/>
      <path id="패스_175" data-name="패스 175" d="M30.529,49.242l-9.681-14.48a1.133,1.133,0,0,0-1.952.118L11.031,50.4a1.133,1.133,0,0,0,1.078,1.642L29.654,51a1.133,1.133,0,0,0,.875-1.761" fill="#bcbcbc"/>
      <path id="패스_176" data-name="패스 176" d="M30.529,49.242l-9.681-14.48a1.133,1.133,0,0,0-1.952.118L11.031,50.4a1.133,1.133,0,0,0,1.078,1.642L29.654,51A1.133,1.133,0,0,0,30.529,49.242Z" fill="none" stroke="#bcbcbc" stroke-width="4"/>
      <path id="패스_177" data-name="패스 177" d="M114.1,28.228l15.222-8.674a1.134,1.134,0,0,0,0-1.969L114.1,8.91A1.133,1.133,0,0,0,112.4,9.9V27.244a1.133,1.133,0,0,0,1.694.984" fill="#bcbcbc"/>
      <path id="패스_178" data-name="패스 178" d="M114.1,28.228l15.222-8.674a1.134,1.134,0,0,0,0-1.969L114.1,8.91A1.133,1.133,0,0,0,112.4,9.9V27.244A1.133,1.133,0,0,0,114.1,28.228Z" fill="none" stroke="#bcbcbc" stroke-width="4"/>
      <path id="패스_179" data-name="패스 179" d="M85.617,104.953l-35.79,66.822a2.919,2.919,0,0,0,2.573,4.3h71.581a2.919,2.919,0,0,0,2.573-4.3l-35.79-66.822a2.919,2.919,0,0,0-5.147,0" fill="#fff"/>
      <path id="패스_180" data-name="패스 180" d="M85.617,104.953l-35.79,66.822a2.919,2.919,0,0,0,2.573,4.3h71.581a2.919,2.919,0,0,0,2.573-4.3l-35.79-66.822A2.919,2.919,0,0,0,85.617,104.953Z" fill="none" stroke="#bcbcbc" stroke-width="4"/>
      <path id="패스_181" data-name="패스 181" d="M84.65,107.536,44.244,127.488l-8.411-5.109" fill="none" stroke="#bcbcbc" stroke-linecap="round" stroke-width="4"/>
      <line id="선_103" data-name="선 103" y1="8.515" x2="9.49" transform="translate(34.754 127.488)" fill="none" stroke="#bcbcbc" stroke-linecap="round" stroke-width="4"/>
      <line id="선_104" data-name="선 104" x1="1.078" y1="10.218" transform="translate(44.244 128.978)" fill="none" stroke="#bcbcbc" stroke-linecap="round" stroke-width="4"/>
      <path id="패스_182" data-name="패스 182" d="M92.508,107.852,132.914,127.8l8.411-5.109" fill="none" stroke="#bcbcbc" stroke-linecap="round" stroke-width="4"/>
      <line id="선_105" data-name="선 105" x1="9.49" y1="8.515" transform="translate(132.914 127.805)" fill="none" stroke="#bcbcbc" stroke-linecap="round" stroke-width="4"/>
      <line id="선_106" data-name="선 106" y1="10.218" x2="1.078" transform="translate(131.836 129.295)" fill="none" stroke="#bcbcbc" stroke-linecap="round" stroke-width="4"/>
      <path id="패스_183" data-name="패스 183" d="M75.171,176.073,76.779,215.2l-12.9,1.277" fill="none" stroke="#bcbcbc" stroke-linecap="round" stroke-linejoin="round" stroke-width="4"/>
      <path id="패스_184" data-name="패스 184" d="M101.756,176.073,100.148,215.2l12.9,1.277" fill="none" stroke="#bcbcbc" stroke-linecap="round" stroke-linejoin="round" stroke-width="4"/>
    </g>
  </g>
</svg>
