<svg xmlns="http://www.w3.org/2000/svg" xmlns:xlink="http://www.w3.org/1999/xlink" width="25.464" height="28.182" viewBox="0 0 25.464 28.182">
  <defs>
    <clipPath id="clip-path">
      <rect id="사각형_6886" data-name="사각형 6886" width="25.464" height="28.182" fill="none"/>
    </clipPath>
  </defs>
  <g id="비밀번호_찾기" data-name="비밀번호 찾기" transform="translate(0 0)">
    <g id="그룹_490" data-name="그룹 490" transform="translate(0 0)" clip-path="url(#clip-path)">
      <path id="패스_270" data-name="패스 270" d="M23.055,29.417H2.721A1.722,1.722,0,0,1,1,27.695V15a1.722,1.722,0,0,1,1.721-1.721H23.055A1.722,1.722,0,0,1,24.777,15v12.7a1.722,1.722,0,0,1-1.721,1.722" transform="translate(-0.157 -2.078)" fill="#fff"/>
      <path id="사각형_6885" data-name="사각형 6885" d="M2.042,0H21.736a2.041,2.041,0,0,1,2.041,2.041V14.1a2.041,2.041,0,0,1-2.041,2.041H2.041A2.041,2.041,0,0,1,0,14.1V2.042A2.042,2.042,0,0,1,2.042,0Z" transform="translate(0.844 11.198)" fill="none" stroke="#a666fb" stroke-width="2"/>
      <path id="패스_271" data-name="패스 271" d="M6.576,11.354V8.186A7.185,7.185,0,0,1,20.783,6.661" transform="translate(-1.03 -0.157)" fill="none" stroke="#a666fb" stroke-linecap="round" stroke-linejoin="round" stroke-width="2"/>
      <path id="패스_272" data-name="패스 272" d="M17.3,19.764a2.7,2.7,0,1,1-2.7-2.7A2.7,2.7,0,0,1,17.3,19.764Z" transform="translate(-1.861 -2.671)" fill="none" stroke="#a666fb" stroke-linecap="round" stroke-linejoin="round" stroke-width="2"/>
      <line id="선_167" data-name="선 167" y2="3.536" transform="translate(12.732 19.797)" fill="none" stroke="#a666fb" stroke-linecap="round" stroke-linejoin="round" stroke-width="2"/>
    </g>
  </g>
</svg>
