<svg xmlns="http://www.w3.org/2000/svg" xmlns:xlink="http://www.w3.org/1999/xlink" width="60.716" height="31.92" viewBox="0 0 60.716 31.92">
  <defs>
    <clipPath id="clip-path">
      <rect id="사각형_8043" data-name="사각형 8043" width="60.716" height="31.92" fill="none"/>
    </clipPath>
  </defs>
  <g id="식사량_많이" data-name="식사량 많이" transform="translate(0 0)">
    <g id="그룹_826" data-name="그룹 826" transform="translate(0 0)" clip-path="url(#clip-path)">
      <path id="패스_958" data-name="패스 958" d="M5.372,16.745l-.382.119a.507.507,0,0,1-.634-.332L.024,2.646a.507.507,0,0,1,.332-.634l.382-.119a.507.507,0,0,1,.634.332L5.7,16.11a.506.506,0,0,1-.332.634" transform="translate(0 -0.407)" fill="#a666fb"/>
      <path id="패스_959" data-name="패스 959" d="M8.779,14.875l-.382.119a.507.507,0,0,1-.634-.332L3.431.776A.507.507,0,0,1,3.763.142L4.145.023a.507.507,0,0,1,.634.332L9.111,14.24a.506.506,0,0,1-.332.634" transform="translate(-0.742 0)" fill="#a666fb"/>
      <path id="패스_960" data-name="패스 960" d="M29.068,11.224A2.337,2.337,0,0,0,25.394,9.3a2.382,2.382,0,0,0,.027-.261A2.338,2.338,0,0,0,21.41,7.409a5.163,5.163,0,0,0-4.682-1.263A2.334,2.334,0,1,0,12.19,7.241c-.023,0-.045-.007-.068-.007a2.333,2.333,0,0,0-1.971,3.592,2.3,2.3,0,0,0-.369-.038,2.34,2.34,0,0,0-2.34,2.34c0,.015,0,.028,0,.043a2.338,2.338,0,1,0,2.761,2.3c0-.015,0-.028,0-.043.055-.009.107-.025.16-.039a5.2,5.2,0,0,0,9.132,2.92,5.2,5.2,0,0,0,8.881-5.423,2.333,2.333,0,0,0,.691-1.659" transform="translate(-1.204 -0.95)" fill="#fff"/>
      <path id="패스_961" data-name="패스 961" d="M29.068,11.224A2.337,2.337,0,0,0,25.394,9.3a2.382,2.382,0,0,0,.027-.261A2.338,2.338,0,0,0,21.41,7.409a5.163,5.163,0,0,0-4.682-1.263A2.334,2.334,0,1,0,12.19,7.241c-.023,0-.045-.007-.068-.007a2.333,2.333,0,0,0-1.971,3.592,2.3,2.3,0,0,0-.369-.038,2.34,2.34,0,0,0-2.34,2.34c0,.015,0,.028,0,.043a2.338,2.338,0,1,0,2.761,2.3c0-.015,0-.028,0-.043.055-.009.107-.025.16-.039a5.2,5.2,0,0,0,9.132,2.92,5.2,5.2,0,0,0,8.881-5.423A2.333,2.333,0,0,0,29.068,11.224Z" transform="translate(-1.204 -0.95)" fill="none" stroke="#a666fb" stroke-linecap="round" stroke-linejoin="round" stroke-width="1"/>
      <path id="패스_962" data-name="패스 962" d="M16.807,33.15c7.474,0,13.533-6.733,13.533-15.037H3.274c0,8.3,6.059,15.037,13.533,15.037" transform="translate(-0.713 -3.945)" fill="#fff"/>
      <path id="패스_963" data-name="패스 963" d="M16.807,33.15c7.474,0,13.533-6.733,13.533-15.037H3.274C3.274,26.417,9.333,33.15,16.807,33.15Z" transform="translate(-0.713 -3.945)" fill="none" stroke="#a666fb" stroke-linecap="round" stroke-linejoin="round" stroke-width="1"/>
      <rect id="사각형_8039" data-name="사각형 8039" width="10.492" height="3.472" transform="translate(10.901 28.058)" fill="#fff"/>
      <rect id="사각형_8040" data-name="사각형 8040" width="10.492" height="3.472" transform="translate(10.901 28.058)" fill="none" stroke="#a666fb" stroke-linecap="round" stroke-linejoin="round" stroke-width="1"/>
      <path id="패스_964" data-name="패스 964" d="M13.113,15.249s.957-1.356,2.529,0" transform="translate(-2.856 -3.19)" fill="none" stroke="#a666fb" stroke-linecap="round" stroke-linejoin="round" stroke-width="1"/>
      <path id="패스_965" data-name="패스 965" d="M19.361,10.944a2.065,2.065,0,0,1,2.6,0" transform="translate(-4.216 -2.278)" fill="none" stroke="#a666fb" stroke-linecap="round" stroke-linejoin="round" stroke-width="1"/>
      <path id="패스_966" data-name="패스 966" d="M26.963,14.861a1.431,1.431,0,0,1,2.324,0" transform="translate(-5.872 -3.102)" fill="none" stroke="#a666fb" stroke-linecap="round" stroke-linejoin="round" stroke-width="1"/>
      <path id="패스_967" data-name="패스 967" d="M44.616,16.745l-.382.119a.507.507,0,0,1-.634-.332L39.268,2.646a.507.507,0,0,1,.332-.634l.382-.119a.507.507,0,0,1,.634.332L44.948,16.11a.506.506,0,0,1-.332.634" transform="translate(-8.546 -0.407)" fill="#a666fb"/>
      <path id="패스_968" data-name="패스 968" d="M48.023,14.875l-.383.119a.507.507,0,0,1-.634-.332L42.675.776a.507.507,0,0,1,.332-.634L43.39.023a.506.506,0,0,1,.634.332L48.356,14.24a.507.507,0,0,1-.332.634" transform="translate(-9.288 0)" fill="#a666fb"/>
      <path id="패스_969" data-name="패스 969" d="M68.313,11.224A2.337,2.337,0,0,0,64.639,9.3a2.381,2.381,0,0,0,.027-.261,2.338,2.338,0,0,0-4.011-1.634,5.163,5.163,0,0,0-4.682-1.263,2.334,2.334,0,1,0-4.538,1.094c-.023,0-.045-.007-.068-.007A2.333,2.333,0,0,0,49.4,10.826a2.3,2.3,0,0,0-.369-.038,2.34,2.34,0,0,0-2.34,2.34c0,.015,0,.028,0,.043a2.338,2.338,0,1,0,2.761,2.3c0-.015,0-.028,0-.043.055-.009.107-.025.16-.039a5.2,5.2,0,0,0,9.132,2.92,5.2,5.2,0,0,0,8.881-5.423,2.333,2.333,0,0,0,.691-1.659" transform="translate(-9.75 -0.95)" fill="#fff"/>
      <path id="패스_970" data-name="패스 970" d="M68.313,11.224A2.337,2.337,0,0,0,64.639,9.3a2.381,2.381,0,0,0,.027-.261,2.338,2.338,0,0,0-4.011-1.634,5.163,5.163,0,0,0-4.682-1.263,2.334,2.334,0,1,0-4.538,1.094c-.023,0-.045-.007-.068-.007A2.333,2.333,0,0,0,49.4,10.826a2.3,2.3,0,0,0-.369-.038,2.34,2.34,0,0,0-2.34,2.34c0,.015,0,.028,0,.043a2.338,2.338,0,1,0,2.761,2.3c0-.015,0-.028,0-.043.055-.009.107-.025.16-.039a5.2,5.2,0,0,0,9.132,2.92,5.2,5.2,0,0,0,8.881-5.423A2.333,2.333,0,0,0,68.313,11.224Z" transform="translate(-9.75 -0.95)" fill="none" stroke="#a666fb" stroke-linecap="round" stroke-linejoin="round" stroke-width="1"/>
      <path id="패스_971" data-name="패스 971" d="M56.051,33.15c7.474,0,13.533-6.733,13.533-15.037H42.518c0,8.3,6.059,15.037,13.533,15.037" transform="translate(-9.259 -3.945)" fill="#fff"/>
      <path id="패스_972" data-name="패스 972" d="M56.051,33.15c7.474,0,13.533-6.733,13.533-15.037H42.518C42.518,26.417,48.577,33.15,56.051,33.15Z" transform="translate(-9.259 -3.945)" fill="none" stroke="#a666fb" stroke-linecap="round" stroke-linejoin="round" stroke-width="1"/>
      <rect id="사각형_8041" data-name="사각형 8041" width="10.492" height="3.472" transform="translate(41.599 28.058)" fill="#fff"/>
      <rect id="사각형_8042" data-name="사각형 8042" width="10.492" height="3.472" transform="translate(41.599 28.058)" fill="none" stroke="#a666fb" stroke-linecap="round" stroke-linejoin="round" stroke-width="1"/>
      <path id="패스_973" data-name="패스 973" d="M52.358,15.249s.957-1.356,2.529,0" transform="translate(-11.402 -3.19)" fill="none" stroke="#a666fb" stroke-linecap="round" stroke-linejoin="round" stroke-width="1"/>
      <path id="패스_974" data-name="패스 974" d="M58.6,10.944a2.065,2.065,0,0,1,2.6,0" transform="translate(-12.763 -2.278)" fill="none" stroke="#a666fb" stroke-linecap="round" stroke-linejoin="round" stroke-width="1"/>
      <path id="패스_975" data-name="패스 975" d="M66.207,14.861a1.431,1.431,0,0,1,2.324,0" transform="translate(-14.418 -3.102)" fill="none" stroke="#a666fb" stroke-linecap="round" stroke-linejoin="round" stroke-width="1"/>
    </g>
  </g>
</svg>
