<svg xmlns="http://www.w3.org/2000/svg" xmlns:xlink="http://www.w3.org/1999/xlink" width="22.917" height="30" viewBox="0 0 22.917 30">
  <defs>
    <clipPath id="clip-path">
      <rect id="사각형_7409" data-name="사각형 7409" width="22.917" height="30" fill="none"/>
    </clipPath>
  </defs>
  <g id="엑셀다운" transform="translate(0 0)">
    <g id="그룹_576" data-name="그룹 576" transform="translate(0 0)" clip-path="url(#clip-path)">
      <path id="패스_335" data-name="패스 335" d="M20.1,10.87V29.016a.393.393,0,0,1-.382.4H1.882a.393.393,0,0,1-.382-.4V3.356a.393.393,0,0,1,.382-.4H14.127" transform="translate(-0.31 -0.61)" fill="none" stroke="#a666fb" stroke-linecap="round" stroke-linejoin="round" stroke-width="3"/>
      <path id="패스_336" data-name="패스 336" d="M18.028,2.951v7.487h5.485" transform="translate(-3.726 -0.61)" fill="none" stroke="#a666fb" stroke-linecap="round" stroke-linejoin="round" stroke-width="3"/>
      <path id="패스_337" data-name="패스 337" d="M20.1,29.745l-18.6-.22V3.46H14.612v7.515H20.1Z" transform="translate(-0.31 -0.715)" fill="#fff"/>
      <path id="패스_338" data-name="패스 338" d="M20.1,29.745l-18.6-.22V3.46H14.612v7.515H20.1Z" transform="translate(-0.31 -0.715)" fill="none" stroke="#a666fb" stroke-linecap="round" stroke-linejoin="round" stroke-width="2"/>
      <rect id="사각형_7404" data-name="사각형 7404" width="10.398" height="2.228" transform="translate(5.36 16.608)" fill="#a666fb"/>
      <rect id="사각형_7405" data-name="사각형 7405" width="4.159" height="1.681" transform="translate(5.36 13.173)" fill="#a666fb"/>
      <rect id="사각형_7406" data-name="사각형 7406" width="4.159" height="1.681" transform="translate(11.599 13.173)" fill="#a666fb"/>
      <rect id="사각형_7407" data-name="사각형 7407" width="10.398" height="2.228" transform="translate(5.36 20.273)" fill="#a666fb"/>
      <rect id="사각형_7408" data-name="사각형 7408" width="10.398" height="2.228" transform="translate(5.36 23.937)" fill="#a666fb"/>
      <path id="패스_339" data-name="패스 339" d="M21.484,1V7.424h5.08Z" transform="translate(-4.44 -0.207)" fill="#fff"/>
      <path id="패스_340" data-name="패스 340" d="M21.484,1V7.424h5.08Z" transform="translate(-4.44 -0.207)" fill="none" stroke="#a666fb" stroke-linecap="round" stroke-linejoin="round" stroke-width="2"/>
    </g>
  </g>
</svg>
