<svg xmlns="http://www.w3.org/2000/svg" width="86.427" height="65.75" viewBox="0 0 86.427 65.75">
  <g id="그룹_359" data-name="그룹 359" transform="translate(-424.278 -320.637)">
    <g id="그룹_41" data-name="그룹 41" transform="translate(-1282.009)">
      <circle id="타원_60" data-name="타원 60" cx="19.899" cy="19.899" r="19.899" transform="translate(1706.287 320.836)" fill="#fff292"/>
    </g>
    <g id="그룹_123" data-name="그룹 123" transform="translate(-1282.009)">
      <path id="패스_189" data-name="패스 189" d="M1760.044,327.9c-.148-.712,7.158-12.254,20.891-.6,14.171,12.022,1.9,28.473,11.119,30.134,0,0-11.887,6.448-14.53-4.157-2.445-9.81-3.661-14.447-7.946-15.657" fill="#80f6a9"/>
    </g>
    <g id="그룹_124" data-name="그룹 124" transform="translate(-1282.009)">
      <path id="패스_190" data-name="패스 190" d="M1718.57,368.09a7.029,7.029,0,0,1-.984-13.986,1.5,1.5,0,0,1,.426,2.97,4.027,4.027,0,0,0,1.146,7.973,1.5,1.5,0,0,1,.428,2.97A7.117,7.117,0,0,1,1718.57,368.09Z" fill="#a666fb"/>
    </g>
    <g id="그룹_125" data-name="그룹 125" transform="translate(-1282.009)">
      <path id="패스_191" data-name="패스 191" d="M1767.744,367.881a7.088,7.088,0,0,1-1.547-.172,1.5,1.5,0,1,1,.655-2.927,4.028,4.028,0,0,0,1.756-7.862,1.5,1.5,0,0,1,.655-2.927,7.029,7.029,0,0,1-1.519,13.888Z" fill="#a666fb"/>
    </g>
    <g id="그룹_126" data-name="그룹 126" transform="translate(-1282.009)">
      <circle id="타원_79" data-name="타원 79" cx="2.173" cy="2.173" r="2.173" transform="translate(1730.846 357.109)" fill="#a666fb"/>
    </g>
    <g id="그룹_127" data-name="그룹 127" transform="translate(-1282.009)">
      <circle id="타원_80" data-name="타원 80" cx="2.173" cy="2.173" r="2.173" transform="translate(1750.541 357.109)" fill="#a666fb"/>
    </g>
    <g id="그룹_128" data-name="그룹 128" transform="translate(-1282.009)">
      <path id="패스_192" data-name="패스 192" d="M1743.139,386.387c-14.391,0-26.1-12.834-26.1-28.608s11.707-28.608,26.1-28.608,26.1,12.833,26.1,28.608S1757.529,386.387,1743.139,386.387Zm0-54.216c-12.737,0-23.1,11.488-23.1,25.608s10.361,25.608,23.1,25.608,23.1-11.488,23.1-25.608S1755.875,332.171,1743.139,332.171Z" fill="#a666fb"/>
    </g>
    <g id="그룹_129" data-name="그룹 129" transform="translate(-1282.009)">
      <path id="패스_193" data-name="패스 193" d="M1743.577,377.88a15.375,15.375,0,0,1-9.68-3.767,1.5,1.5,0,0,1,1.986-2.25h0c.311.274,7.711,6.612,14.457.051a1.5,1.5,0,1,1,2.092,2.15A12.433,12.433,0,0,1,1743.577,377.88Z" fill="#a666fb"/>
    </g>
    <g id="그룹_130" data-name="그룹 130" transform="translate(-1282.009)">
      <path id="패스_194" data-name="패스 194" d="M1742.445,367.526a1.5,1.5,0,0,1-.776-2.784,3.632,3.632,0,0,1,4.255.143,1.5,1.5,0,0,1-1.9,2.319c-.116-.076-.372-.153-.8.106A1.5,1.5,0,0,1,1742.445,367.526Z" fill="#a666fb"/>
    </g>
    <g id="그룹_131" data-name="그룹 131" transform="translate(-1282.009)">
      <path id="패스_195" data-name="패스 195" d="M1718.9,358c-.2,0-.322,0-.365-.006a1.5,1.5,0,0,1,.136-3h0c.1,0,11.28.326,24.622-10.535a1.5,1.5,0,0,1,2.344.616,19,19,0,0,1,1.226,5.519,18.782,18.782,0,0,0,5.213-4.094,1.5,1.5,0,0,1,2.4.058c.024.032,3.245,4.263,13.677,8.065a1.5,1.5,0,1,1-1.027,2.818c-7.908-2.881-12.026-6.051-13.862-7.8a30.008,30.008,0,0,1-7.706,4.992,1.5,1.5,0,0,1-1.947-2.038c.493-1,.241-2.879-.15-4.451C1731.131,357.495,1720.954,358,1718.9,358Z" fill="#a666fb"/>
    </g>
    <g id="그룹_132" data-name="그룹 132" transform="translate(-1282.009)">
      <path id="패스_196" data-name="패스 196" d="M1765.073,342.436c-.172,0-.344-.009-.517-.026a5.18,5.18,0,1,1,.517.026Zm-.008-7.372a2.186,2.186,0,0,0-.211,4.361,2.2,2.2,0,0,0,2.391-1.958,2.186,2.186,0,0,0-1.958-2.391A2.064,2.064,0,0,0,1765.065,335.064Z" fill="#a666fb"/>
    </g>
    <g id="그룹_133" data-name="그룹 133" transform="translate(-1282.009)">
      <path id="패스_197" data-name="패스 197" d="M1758.849,336.751c-.175,0-.35-.008-.526-.025a5.2,5.2,0,1,1,.526.025Zm-.016-7.371a2.186,2.186,0,1,0,2.18,2.4h0a2.188,2.188,0,0,0-1.958-2.391A2.1,2.1,0,0,0,1758.833,329.38Z" fill="#a666fb"/>
    </g>
    <g id="그룹_134" data-name="그룹 134" transform="translate(-1282.009)">
      <path id="패스_198" data-name="패스 198" d="M1783.959,360.868a9.393,9.393,0,0,1-3.8-.743c-2.466-1.086-4.124-3.27-4.925-6.49-2.41-9.662-3.522-13.622-6.9-14.576a1.5,1.5,0,0,1,.817-2.887c5.186,1.465,6.539,6.89,8.993,16.738.574,2.3,1.626,3.763,3.217,4.466,1.964.869,4.416.461,6.287-.114-1.963-2.08-1.829-5.658-1.7-9.148.227-6,.508-13.455-6.822-19.675-4.709-3.994-9.02-5.522-12.809-4.539a9.415,9.415,0,0,0-5.63,4.239,1.5,1.5,0,0,1-2.951.066c-.319-1.529,2.313-4.478,4.7-5.9,3.094-1.84,9.625-3.788,18.627,3.848,8.442,7.162,8.117,15.782,7.879,22.075-.2,5.349-.043,7.262,2.535,7.727a1.5,1.5,0,0,1,.45,2.794A18.885,18.885,0,0,1,1783.959,360.868Zm-23.287-33.276v0Z" fill="#a666fb"/>
    </g>
  </g>
</svg>
