<svg xmlns="http://www.w3.org/2000/svg" xmlns:xlink="http://www.w3.org/1999/xlink" width="42.508" height="42.508" viewBox="0 0 42.508 42.508">
  <defs>
    <clipPath id="clip-path">
      <rect id="사각형_8646" data-name="사각형 8646" width="42.508" height="42.508" fill="none"/>
    </clipPath>
  </defs>
  <g id="그룹_1138" data-name="그룹 1138" transform="translate(0 0)">
    <g id="그룹_1137" data-name="그룹 1137" transform="translate(0 0)" clip-path="url(#clip-path)">
      <path id="패스_1975" data-name="패스 1975" d="M20.2,32.55A12.155,12.155,0,1,1,32.35,20.4,12.168,12.168,0,0,1,20.2,32.55" transform="translate(1.194 1.223)" fill="#fdb43b"/>
      <path id="패스_1976" data-name="패스 1976" d="M20.345,9.538A11.006,11.006,0,1,1,9.339,20.544,11.006,11.006,0,0,1,20.345,9.538m0-2.3a13.3,13.3,0,1,0,13.3,13.3,13.318,13.318,0,0,0-13.3-13.3" transform="translate(1.046 1.075)" fill="#fff"/>
      <line id="선_473" data-name="선 473" y2="4.386" transform="translate(21.39 1.148)" fill="#fff"/>
      <line id="선_474" data-name="선 474" y2="4.386" transform="translate(21.39 1.148)" fill="none" stroke="#fdb43b" stroke-linecap="round" stroke-linejoin="round" stroke-width="2"/>
      <line id="선_475" data-name="선 475" x2="2.194" y2="3.799" transform="translate(11.319 3.774)" fill="#fff"/>
      <line id="선_476" data-name="선 476" x2="2.194" y2="3.799" transform="translate(11.319 3.774)" fill="none" stroke="#fdb43b" stroke-linecap="round" stroke-linejoin="round" stroke-width="2"/>
      <line id="선_477" data-name="선 477" x2="3.799" y2="2.194" transform="translate(3.91 11.083)" fill="#fff"/>
      <line id="선_478" data-name="선 478" x2="3.799" y2="2.194" transform="translate(3.91 11.083)" fill="none" stroke="#fdb43b" stroke-linecap="round" stroke-linejoin="round" stroke-width="2"/>
      <line id="선_479" data-name="선 479" x2="4.386" transform="translate(1.149 21.117)" fill="#fff"/>
      <line id="선_480" data-name="선 480" x2="4.386" transform="translate(1.149 21.117)" fill="none" stroke="#fdb43b" stroke-linecap="round" stroke-linejoin="round" stroke-width="2"/>
      <line id="선_481" data-name="선 481" y1="2.194" x2="3.799" transform="translate(3.774 28.995)" fill="#fff"/>
      <line id="선_482" data-name="선 482" y1="2.194" x2="3.799" transform="translate(3.774 28.995)" fill="none" stroke="#fdb43b" stroke-linecap="round" stroke-linejoin="round" stroke-width="2"/>
      <line id="선_483" data-name="선 483" y1="3.799" x2="2.194" transform="translate(11.083 34.798)" fill="#fff"/>
      <line id="선_484" data-name="선 484" y1="3.799" x2="2.194" transform="translate(11.083 34.798)" fill="none" stroke="#fdb43b" stroke-linecap="round" stroke-linejoin="round" stroke-width="2"/>
      <line id="선_485" data-name="선 485" y1="4.386" transform="translate(21.118 36.973)" fill="#fff"/>
      <line id="선_486" data-name="선 486" y1="4.386" transform="translate(21.118 36.973)" fill="none" stroke="#fdb43b" stroke-linecap="round" stroke-linejoin="round" stroke-width="2"/>
      <line id="선_487" data-name="선 487" x1="2.194" y1="3.799" transform="translate(28.995 34.934)" fill="#fff"/>
      <line id="선_488" data-name="선 488" x1="2.194" y1="3.799" transform="translate(28.995 34.934)" fill="none" stroke="#fdb43b" stroke-linecap="round" stroke-linejoin="round" stroke-width="2"/>
      <line id="선_489" data-name="선 489" x1="3.799" y1="2.194" transform="translate(34.798 29.231)" fill="#fff"/>
      <line id="선_490" data-name="선 490" x1="3.799" y1="2.194" transform="translate(34.798 29.231)" fill="none" stroke="#fdb43b" stroke-linecap="round" stroke-linejoin="round" stroke-width="2"/>
      <line id="선_491" data-name="선 491" x1="4.386" transform="translate(36.973 21.39)" fill="#fff"/>
      <line id="선_492" data-name="선 492" x1="4.386" transform="translate(36.973 21.39)" fill="none" stroke="#fdb43b" stroke-linecap="round" stroke-linejoin="round" stroke-width="2"/>
      <line id="선_493" data-name="선 493" x1="3.799" y2="2.194" transform="translate(34.935 11.319)" fill="#fff"/>
      <line id="선_494" data-name="선 494" x1="3.799" y2="2.194" transform="translate(34.935 11.319)" fill="none" stroke="#fdb43b" stroke-linecap="round" stroke-linejoin="round" stroke-width="2"/>
      <line id="선_495" data-name="선 495" x1="2.194" y2="3.799" transform="translate(29.231 3.91)" fill="#fff"/>
      <line id="선_496" data-name="선 496" x1="2.194" y2="3.799" transform="translate(29.231 3.91)" fill="none" stroke="#fdb43b" stroke-linecap="round" stroke-linejoin="round" stroke-width="2"/>
    </g>
  </g>
</svg>
