<svg id="Group_2220" data-name="Group 2220" xmlns="http://www.w3.org/2000/svg" width="96.828" height="110.508" viewBox="0 0 96.828 110.508">
  <g id="Group_2203" data-name="Group 2203">
    <circle id="Ellipse_168" data-name="Ellipse 168" cx="28.971" cy="28.971" r="28.971" fill="#fff292"/>
  </g>
  <g id="Group_2204" data-name="Group 2204" transform="translate(28.907 42.586)">
    <circle id="Ellipse_169" data-name="Ellipse 169" cx="20.863" cy="20.863" r="20.863" fill="#80f6a9"/>
  </g>
  <g id="Group_2219" data-name="Group 2219" transform="translate(2.711 16.391)">
    <g id="Group_2205" data-name="Group 2205" transform="translate(39.903 22.721)">
      <path id="Path_4823" data-name="Path 4823" d="M364.759,716.8a2.169,2.169,0,0,1-1.369-.483c-2.538-2.044-3.845-1.776-6.224-1.28-.725.151-1.545.322-2.44.422-4.538.495-5.374-.84-6.607-4.8-.144-.467-.307-.993-.5-1.587-.645-1.973-1.441-2.2-3.806-2.858a22.665,22.665,0,0,1-5.588-2.207,5.048,5.048,0,0,1-2.762-4.1c-.3-4.154,4.775-8.354,5.8-9.153a2.183,2.183,0,0,1,2.7,3.433c-2.027,1.6-4.223,4.213-4.138,5.411.006.084.023.3.588.63a18.4,18.4,0,0,0,4.585,1.784c2.66.745,5.41,1.517,6.777,5.71.2.614.371,1.16.521,1.642.226.728.459,1.475.626,1.865.271,0,.716-.036,1.328-.1.687-.077,1.339-.211,2.029-.355,2.677-.56,5.707-1.189,9.858,2.153a2.184,2.184,0,0,1-1.373,3.884Zm-11.727-5.355h0Z" transform="translate(-335.451 -690.281)" fill="#a666fb"/>
    </g>
    <g id="Group_2206" data-name="Group 2206" transform="translate(24.419 31.512)">
      <path id="Path_4824" data-name="Path 4824" d="M330.159,722.974a16.751,16.751,0,0,1-3.638-.456,2.185,2.185,0,0,1,.959-4.263c2.542.572,3.874.37,4.27-.013.782-.748.205-3.924-.013-5.119-.78-4.292,2.728-5.315,4.225-5.752a5.37,5.37,0,0,0,1.331-.5,3.554,3.554,0,0,0-.134-.935c-1.108-4.32-7.6-5.266-7.665-5.275a2.184,2.184,0,0,1,.581-4.33c.386.052,9.473,1.335,11.315,8.518,1.309,5.1-2.555,6.23-4.2,6.71a7.412,7.412,0,0,0-1.188.415,1.893,1.893,0,0,0,.038.363c.614,3.379,1.023,6.86-1.261,9.052A6.365,6.365,0,0,1,330.159,722.974Z" transform="translate(-324.816 -696.319)" fill="#a666fb"/>
    </g>
    <g id="Group_2207" data-name="Group 2207" transform="translate(38.835 48.082)">
      <path id="Path_4825" data-name="Path 4825" d="M340.092,718.505a7.312,7.312,0,0,1-2.059-.3,4.316,4.316,0,0,1-3.075-2.709c-.843-2.395.775-4.9,1.108-5.381.023-.035.048-.067.074-.1a5.142,5.142,0,0,1,3.934-2.307c2.2-.073,3.676,1.757,4.749,3.06l.25.3a3.975,3.975,0,0,1,.192,4.814A6.222,6.222,0,0,1,340.092,718.505Zm-1-4.555a1.342,1.342,0,0,0,.176.06,2.314,2.314,0,0,0,2.248-.4l-.061-.076a9.712,9.712,0,0,0-1.319-1.411,3.02,3.02,0,0,0-.508.52A3.749,3.749,0,0,0,339.089,713.95Zm2.629-.087v0Z" transform="translate(-334.718 -707.701)" fill="#a666fb"/>
    </g>
    <g id="Group_2208" data-name="Group 2208" transform="translate(9.773 9.773)">
      <path id="Path_4826" data-name="Path 4826" d="M352.041,755.959a37.286,37.286,0,1,1,37.288-37.288A37.328,37.328,0,0,1,352.041,755.959Zm0-70.2a32.919,32.919,0,1,0,32.92,32.917A32.955,32.955,0,0,0,352.041,685.755Z" transform="translate(-314.756 -681.387)" fill="#a666fb"/>
    </g>
    <g id="Group_2209" data-name="Group 2209" transform="translate(22.723 22.723)">
      <path id="Path_4827" data-name="Path 4827" d="M347.986,738.954a24.336,24.336,0,1,1,24.338-24.338A24.364,24.364,0,0,1,347.986,738.954Zm0-44.3a19.969,19.969,0,1,0,19.97,19.967A19.991,19.991,0,0,0,347.986,694.65Z" transform="translate(-323.651 -690.282)" fill="#a666fb"/>
    </g>
    <g id="Group_2210" data-name="Group 2210" transform="translate(47.12 52.289)">
      <path id="Path_4828" data-name="Path 4828" d="M342.595,729.583a1.931,1.931,0,0,1-.2-.01,2.181,2.181,0,0,1-1.973-2.376c.042-.446,1.1-10.976,8-15.041,3.624-2.134,8.025-2.086,13.082.135a2.183,2.183,0,0,1-1.757,4c-3.7-1.622-6.762-1.747-9.109-.37-4.152,2.444-5.646,9.262-5.871,11.682A2.184,2.184,0,0,1,342.595,729.583Z" transform="translate(-340.408 -710.59)" fill="#a666fb"/>
    </g>
    <g id="Group_2211" data-name="Group 2211" transform="translate(35.229)">
      <path id="Path_4829" data-name="Path 4829" d="M353.712,689.438a2.186,2.186,0,0,1-2.172-1.986l-.764-8.411h-13.41l-.764,8.411a2.221,2.221,0,0,1-2.373,1.977,2.185,2.185,0,0,1-1.978-2.373l.948-10.4a2.184,2.184,0,0,1,2.175-1.986h17.4a2.185,2.185,0,0,1,2.175,1.986l.948,10.4a2.186,2.186,0,0,1-1.978,2.373Q353.813,689.438,353.712,689.438Z" transform="translate(-332.241 -674.674)" fill="#a666fb"/>
    </g>
    <g id="Group_2212" data-name="Group 2212" transform="translate(6.993 6.994)">
      <path id="Path_4830" data-name="Path 4830" d="M321.714,704.166a2.182,2.182,0,0,1-1.68-.786l-6.681-8.02a2.181,2.181,0,0,1,.134-2.941l12.3-12.3a2.182,2.182,0,0,1,2.941-.133l8.02,6.68a2.184,2.184,0,0,1-2.8,3.356l-6.489-5.4-9.481,9.48,5.4,6.489a2.184,2.184,0,0,1-1.676,3.581Z" transform="translate(-312.846 -679.478)" fill="#a666fb"/>
    </g>
    <g id="Group_2213" data-name="Group 2213" transform="translate(0 35.229)">
      <path id="Path_4831" data-name="Path 4831" d="M320.626,722.53c-.067,0-.134,0-.2-.007l-10.4-.948a2.185,2.185,0,0,1-1.986-2.175V702a2.184,2.184,0,0,1,1.986-2.175l10.4-.948a2.185,2.185,0,1,1,.395,4.352l-8.409.764v13.41l8.409.764a2.184,2.184,0,0,1-.194,4.359Z" transform="translate(-308.043 -698.872)" fill="#a666fb"/>
    </g>
    <g id="Group_2214" data-name="Group 2214" transform="translate(6.993 62.433)">
      <path id="Path_4832" data-name="Path 4832" d="M327.332,742.249a2.174,2.174,0,0,1-1.543-.641l-12.3-12.3a2.181,2.181,0,0,1-.134-2.941l6.681-8.02a2.184,2.184,0,0,1,3.356,2.8l-5.4,6.489,9.481,9.482,6.489-5.406a2.183,2.183,0,0,1,2.8,3.354l-8.02,6.682A2.174,2.174,0,0,1,327.332,742.249Z" transform="translate(-312.846 -717.558)" fill="#a666fb"/>
    </g>
    <g id="Group_2215" data-name="Group 2215" transform="translate(35.229 79.352)">
      <path id="Path_4833" data-name="Path 4833" d="M352.769,743.944h-17.4a2.184,2.184,0,0,1-2.175-1.987l-.948-10.395a2.185,2.185,0,0,1,4.352-.4l.764,8.411h13.41l.764-8.411a2.185,2.185,0,0,1,4.352.4l-.948,10.395A2.185,2.185,0,0,1,352.769,743.944Z" transform="translate(-332.241 -729.179)" fill="#a666fb"/>
    </g>
    <g id="Group_2216" data-name="Group 2216" transform="translate(62.434 62.434)">
      <path id="Path_4834" data-name="Path 4834" d="M361.132,742.249a2.174,2.174,0,0,1-1.4-.507l-8.02-6.682a2.183,2.183,0,0,1,2.8-3.354L361,737.111l9.481-9.482-5.4-6.489a2.183,2.183,0,0,1,3.354-2.8l6.681,8.02a2.181,2.181,0,0,1-.134,2.941l-12.3,12.3A2.176,2.176,0,0,1,361.132,742.249Z" transform="translate(-350.928 -717.559)" fill="#a666fb"/>
    </g>
    <g id="Group_2217" data-name="Group 2217" transform="translate(79.353 35.229)">
      <path id="Path_4835" data-name="Path 4835" d="M364.73,722.53a2.184,2.184,0,0,1-.2-4.359l8.411-.764V704l-8.411-.764a2.185,2.185,0,0,1,.4-4.352l10.395.948A2.184,2.184,0,0,1,377.313,702v17.4a2.185,2.185,0,0,1-1.987,2.175l-10.395.948C364.864,722.527,364.8,722.53,364.73,722.53Z" transform="translate(-362.549 -698.872)" fill="#a666fb"/>
    </g>
    <g id="Group_2218" data-name="Group 2218" transform="translate(62.434 6.994)">
      <path id="Path_4836" data-name="Path 4836" d="M366.75,704.166a2.184,2.184,0,0,1-1.676-3.581l5.4-6.489L361,684.616l-6.489,5.4a2.184,2.184,0,0,1-2.8-3.356l8.02-6.68a2.182,2.182,0,0,1,2.941.133l12.3,12.3a2.181,2.181,0,0,1,.134,2.941l-6.681,8.02A2.179,2.179,0,0,1,366.75,704.166Z" transform="translate(-350.928 -679.478)" fill="#a666fb"/>
    </g>
  </g>
</svg>
