<svg xmlns="http://www.w3.org/2000/svg" xmlns:xlink="http://www.w3.org/1999/xlink" width="32.905" height="37.062" viewBox="0 0 32.905 37.062">
  <defs>
    <clipPath id="clip-path">
      <rect id="사각형_6473" data-name="사각형 6473" width="32.905" height="37.062" fill="none"/>
    </clipPath>
  </defs>
  <g id="안전사고_아이콘" data-name="안전사고 아이콘" transform="translate(0 0)">
    <g id="그룹_412" data-name="그룹 412" transform="translate(0 0)" clip-path="url(#clip-path)">
      <path id="패스_61" data-name="패스 61" d="M16.362,35.884a1.079,1.079,0,0,1-.538-.143,26.04,26.04,0,0,1-8.013-6.432A23.024,23.024,0,0,1,3.3,19.249L1.021,7.512a1.088,1.088,0,0,1,1.069-1.3,1.245,1.245,0,0,1,.155.011,14.748,14.748,0,0,0,2.112.17A15.194,15.194,0,0,0,15.563,1.35a1.089,1.089,0,0,1,1.6,0A15.193,15.193,0,0,0,28.367,6.4a14.762,14.762,0,0,0,2.113-.17,1.231,1.231,0,0,1,.155-.011,1.09,1.09,0,0,1,1.069,1.3L29.425,19.249a23.03,23.03,0,0,1-4.511,10.06A26.04,26.04,0,0,1,16.9,35.741a1.079,1.079,0,0,1-.538.143" transform="translate(0.089 0.089)" fill="#fff"/>
      <path id="패스_62" data-name="패스 62" d="M16.452,2.179a16.319,16.319,0,0,0,12,5.4,15.911,15.911,0,0,0,2.268-.181L28.445,19.131a21.879,21.879,0,0,1-4.291,9.585,24.992,24.992,0,0,1-7.7,6.167,24.992,24.992,0,0,1-7.7-6.167,21.879,21.879,0,0,1-4.291-9.585L2.179,7.394a15.911,15.911,0,0,0,2.268.181,16.321,16.321,0,0,0,12-5.4M30.724,7.394h.005M16.452,0a2.18,2.18,0,0,0-1.6.7A14.114,14.114,0,0,1,4.447,5.4a13.615,13.615,0,0,1-1.96-.159,2.257,2.257,0,0,0-.308-.022A2.179,2.179,0,0,0,.04,7.809L2.319,19.546A24.138,24.138,0,0,0,7.051,30.083a27.047,27.047,0,0,0,8.323,6.7,2.183,2.183,0,0,0,2.155,0,27.047,27.047,0,0,0,8.323-6.7,24.151,24.151,0,0,0,4.732-10.536L32.841,7.921a2.181,2.181,0,0,0-2.1-2.706h-.087a2.242,2.242,0,0,0-.271.026,13.613,13.613,0,0,1-1.924.154A14.114,14.114,0,0,1,18.051.7a2.18,2.18,0,0,0-1.6-.7" transform="translate(0 0)" fill="#9e9e9e"/>
      <path id="패스_63" data-name="패스 63" d="M22.434,15.309H17.206V10.083h-3.1v5.227H8.881v3.1h5.228v5.227h3.1V18.408h5.228Z" transform="translate(0.794 0.901)" fill="#9e9e9e"/>
    </g>
  </g>
</svg>
