<svg xmlns="http://www.w3.org/2000/svg" width="76.722" height="56.758" viewBox="0 0 76.722 56.758">
  <g id="그룹_3" data-name="그룹 3" transform="translate(-721.262 -461.6)">
    <g id="그룹_86" data-name="그룹 86">
      <path id="패스_622" data-name="패스 622" d="M787.535,462.035s-7.608-2.791-14.326,5.766c0,0-11.79,10.312-27.508,4.058,0,0-15.468-6.847-23.326,9.463,0,0-7.7,18.893,17.416,30.092-.375,2.592-1.162,5.9-2.777,6.944,0,0,5.89-1.094,9.21-5.149,11.1,2.185,35.719,3.613,48.749-22.25C794.973,490.959,805.367,467.759,787.535,462.035Z" fill="#fff"/>
      <g id="그룹_85" data-name="그룹 85">
        <path id="패스_623" data-name="패스 623" d="M779.693,472.8a1.692,1.692,0,1,1-.979-2.184A1.692,1.692,0,0,1,779.693,472.8Z" fill="#625c50"/>
        <path id="패스_624" data-name="패스 624" d="M788.113,476a1.691,1.691,0,1,1-.979-2.182A1.691,1.691,0,0,1,788.113,476Z" fill="#625c50"/>
        <path id="패스_625" data-name="패스 625" d="M785.484,480.553a.883.883,0,0,0-.723-1.612h0a5.89,5.89,0,0,1-7.784-2.951v-.005l-.005-.007h0a.883.883,0,0,0-1.612.721h0l0,0a7.651,7.651,0,0,0,10.1,3.857A.053.053,0,0,0,785.484,480.553Z" fill="#625c50"/>
      </g>
    </g>
    <g id="그룹_94" data-name="그룹 94">
      <g id="그룹_87" data-name="그룹 87">
        <path id="패스_626" data-name="패스 626" d="M768.736,500.652V498.5h.436v2.156Z" fill="#96999c"/>
        <path id="패스_627" data-name="패스 627" d="M769.525,500.652V498.5h1.6v.365h-1.164v.479h1.084v.363h-1.084v.586h1.206v.363Z" fill="#96999c"/>
        <path id="패스_628" data-name="패스 628" d="M772.855,499.859l.424.135a.943.943,0,0,1-.324.524.916.916,0,0,1-.572.172.93.93,0,0,1-.707-.293,1.128,1.128,0,0,1-.276-.8,1.174,1.174,0,0,1,.278-.837.954.954,0,0,1,.73-.3.9.9,0,0,1,.645.234.851.851,0,0,1,.219.4l-.43.1a.462.462,0,0,0-.16-.263.447.447,0,0,0-.295-.1.49.49,0,0,0-.391.173.834.834,0,0,0-.147.555.9.9,0,0,0,.147.585.472.472,0,0,0,.382.171.451.451,0,0,0,.3-.108A.64.64,0,0,0,772.855,499.859Z" fill="#96999c"/>
        <path id="패스_629" data-name="패스 629" d="M773.592,500.652V498.5h1.6v.365h-1.165v.479h1.083v.363h-1.083v.586h1.206v.363Z" fill="#96999c"/>
        <path id="패스_630" data-name="패스 630" d="M775.541,498.5h.795a1.578,1.578,0,0,1,.411.041.746.746,0,0,1,.325.2.948.948,0,0,1,.207.351,1.63,1.63,0,0,1,.071.511,1.428,1.428,0,0,1-.067.459.987.987,0,0,1-.23.381.772.772,0,0,1-.307.171,1.235,1.235,0,0,1-.386.045h-.819Zm.436.365v1.428h.324a1.163,1.163,0,0,0,.263-.02.372.372,0,0,0,.176-.089.446.446,0,0,0,.115-.209,1.4,1.4,0,0,0,.043-.4,1.28,1.28,0,0,0-.043-.385.5.5,0,0,0-.123-.207.42.42,0,0,0-.2-.1,1.991,1.991,0,0,0-.359-.02Z" fill="#96999c"/>
        <path id="패스_631" data-name="패스 631" d="M780.269,500.652H779.8l-.189-.488h-.863l-.178.488H778.1l.842-2.156h.459Zm-.8-.851-.3-.8-.293.8Z" fill="#96999c"/>
        <path id="패스_632" data-name="패스 632" d="M780.437,498.879V498.5h.414v.383Zm0,1.773V499.09h.414v1.562Z" fill="#96999c"/>
        <path id="패스_633" data-name="패스 633" d="M782.774,498.5h.434v1.365a1.431,1.431,0,0,1-.047.412.592.592,0,0,1-.231.3.749.749,0,0,1-.438.115.646.646,0,0,1-.491-.18.733.733,0,0,1-.175-.523l.41-.047a.559.559,0,0,0,.057.261.228.228,0,0,0,.213.115.239.239,0,0,0,.207-.081.668.668,0,0,0,.061-.345Z" fill="#96999c"/>
        <path id="패스_634" data-name="패스 634" d="M783.513,499.85a.854.854,0,0,1,.1-.4.728.728,0,0,1,.288-.294.879.879,0,0,1,.416-.1.782.782,0,0,1,.809.812.8.8,0,0,1-.229.589.774.774,0,0,1-.576.234.937.937,0,0,1-.41-.1.674.674,0,0,1-.3-.285A.958.958,0,0,1,783.513,499.85Zm.423.022a.517.517,0,0,0,.111.356.359.359,0,0,0,.543,0,.528.528,0,0,0,.109-.359.516.516,0,0,0-.109-.353.361.361,0,0,0-.543,0A.517.517,0,0,0,783.936,499.872Z" fill="#96999c"/>
        <path id="패스_635" data-name="패스 635" d="M785.7,499.566l-.375-.068a.585.585,0,0,1,.217-.334.8.8,0,0,1,.46-.109.977.977,0,0,1,.411.065.432.432,0,0,1,.192.166.854.854,0,0,1,.054.37l0,.485a1.486,1.486,0,0,0,.021.3.838.838,0,0,0,.072.209h-.408a.849.849,0,0,1-.04-.121c0-.025-.013-.041-.014-.049a.765.765,0,0,1-.227.155.636.636,0,0,1-.257.053.532.532,0,0,1-.382-.133.433.433,0,0,1-.139-.331.452.452,0,0,1,.064-.236.424.424,0,0,1,.176-.159,1.369,1.369,0,0,1,.331-.1,2.211,2.211,0,0,0,.4-.1v-.041a.211.211,0,0,0-.059-.17.354.354,0,0,0-.22-.051.293.293,0,0,0-.173.043A.314.314,0,0,0,785.7,499.566Zm.553.336a2.232,2.232,0,0,1-.251.065.666.666,0,0,0-.225.072.173.173,0,0,0-.082.145.2.2,0,0,0,.066.15.225.225,0,0,0,.165.064.362.362,0,0,0,.214-.075.27.27,0,0,0,.1-.135.982.982,0,0,0,.014-.2Z" fill="#96999c"/>
      </g>
      <g id="그룹_92" data-name="그룹 92">
        <g id="그룹_88" data-name="그룹 88">
          <path id="패스_636" data-name="패스 636" d="M758.826,486.621h1.28l-1.962,2.235,0,0a.9.9,0,0,0,1.394,1.134h0l2.527-3.113,2.53,3.113h0a.9.9,0,0,0,1.394-1.134l.005,0-1.964-2.235H765.3a.9.9,0,0,0,0-1.8v-.006h-6.471v.006a.9.9,0,0,0,0,1.8Z" fill="#2f2528"/>
          <path id="패스_637" data-name="패스 637" d="M767.1,491.853a.9.9,0,0,0-.891-.9v-.006h-3.246v-.676h0a.9.9,0,0,0-1.8,0h-.007v.676h-3.254v.006a.9.9,0,0,0,0,1.8h8.3A.9.9,0,0,0,767.1,491.853Z" fill="#2f2528"/>
          <path id="패스_638" data-name="패스 638" d="M765.3,495.279v0H763.14v-.562h0a1.071,1.071,0,0,0-2.142,0h-.007v.562h-2.164v0a.9.9,0,0,0,0,1.8h.87a3.418,3.418,0,1,0,4.706,0h.9a.9.9,0,0,0,0-1.8Zm-3.248,5.9a1.623,1.623,0,1,1,1.623-1.623A1.623,1.623,0,0,1,762.049,501.174Z" fill="#2f2528"/>
        </g>
        <g id="그룹_89" data-name="그룹 89">
          <path id="패스_639" data-name="패스 639" d="M734.318,484.855a3.993,3.993,0,1,0,3.994,3.995A3.995,3.995,0,0,0,734.318,484.855Zm0,6.19a2.2,2.2,0,1,1,2.2-2.2A2.2,2.2,0,0,1,734.318,491.045Z" fill="#2f2528"/>
          <path id="패스_640" data-name="패스 640" d="M743.291,488.827a.9.9,0,0,0-.891-.9v-.005h-1.292v-2.818a.3.3,0,0,0-.286-.27H739.59a.3.3,0,0,0-.284.27v9.462h0a.9.9,0,0,0,1.8,0h0v-4.842H742.4A.9.9,0,0,0,743.291,488.827Z" fill="#2f2528"/>
        </g>
        <g id="그룹_90" data-name="그룹 90">
          <path id="패스_641" data-name="패스 641" d="M772.734,484.855a3.993,3.993,0,1,0,3.994,3.995A3.995,3.995,0,0,0,772.734,484.855Zm0,6.19a2.2,2.2,0,1,1,2.2-2.2A2.2,2.2,0,0,1,772.734,491.045Z" fill="#2f2528"/>
          <path id="패스_642" data-name="패스 642" d="M781.707,488.827a.9.9,0,0,0-.892-.9v-.005h-1.29v-2.818a.3.3,0,0,0-.285-.27h-1.234a.3.3,0,0,0-.285.27v9.462h0a.9.9,0,0,0,1.8,0h.007v-4.842h1.29A.9.9,0,0,0,781.707,488.827Z" fill="#2f2528"/>
        </g>
        <g id="그룹_91" data-name="그룹 91">
          <path id="패스_643" data-name="패스 643" d="M748.152,484.855a3.993,3.993,0,1,0,3.994,3.995A3.993,3.993,0,0,0,748.152,484.855Zm0,6.19a2.2,2.2,0,1,1,2.2-2.2A2.2,2.2,0,0,1,748.152,491.045Z" fill="#2f2528"/>
          <path id="패스_644" data-name="패스 644" d="M754.947,485.105a.3.3,0,0,0-.285-.27H753.43a.3.3,0,0,0-.286.27v9.462h0a.9.9,0,0,0,1.8,0h0Z" fill="#2f2528"/>
        </g>
      </g>
      <path id="패스_645" data-name="패스 645" d="M755.241,496.815h-2.3a.3.3,0,0,0-.3.261v2.543a.3.3,0,0,0,.308.262h1l0,.294a1.2,1.2,0,0,1-1.014,1.3h0c-.008,0-.012,0-.021,0-.032.005-.062.011-.091.013a.311.311,0,0,0-.2.258v.94a.3.3,0,0,0,.283.27c2.638-.186,2.634-2.991,2.634-2.991V497.1A.3.3,0,0,0,755.241,496.815Z" fill="#f36a10"/>
      <g id="그룹_93" data-name="그룹 93">
        <path id="패스_646" data-name="패스 646" d="M786.758,494.066a1.45,1.45,0,1,1-1.45-1.451A1.451,1.451,0,0,1,786.758,494.066Z" fill="#2cae96"/>
        <path id="패스_647" data-name="패스 647" d="M786.441,484.816H784.17a.3.3,0,0,0-.312.273V490.3h0a1.45,1.45,0,0,0,2.9,0h0v-5.173A.31.31,0,0,0,786.441,484.816Z" fill="#2cae96"/>
      </g>
    </g>
  </g>
</svg>
