<svg xmlns="http://www.w3.org/2000/svg" xmlns:xlink="http://www.w3.org/1999/xlink" width="30.555" height="39.63" viewBox="0 0 30.555 39.63">
  <defs>
    <clipPath id="clip-path">
      <rect id="사각형_6472" data-name="사각형 6472" width="30.555" height="39.63" fill="none"/>
    </clipPath>
  </defs>
  <g id="투약_아이콘" data-name="투약 아이콘" transform="translate(0 0)">
    <g id="그룹_410" data-name="그룹 410" transform="translate(0 0)" clip-path="url(#clip-path)">
      <path id="패스_56" data-name="패스 56" d="M9.642,37.953A8.672,8.672,0,0,1,2.074,25.111L7.426,15.4a1.043,1.043,0,0,1,1.416-.41L22.2,22.344a1.042,1.042,0,0,1,.41,1.416l-5.351,9.715A8.685,8.685,0,0,1,9.642,37.953Z" transform="translate(0.043 0.634)" fill="#fff"/>
      <path id="패스_57" data-name="패스 57" d="M8.381,15.943,21.735,23.3l-5.352,9.714a7.639,7.639,0,0,1-6.7,3.939,7.545,7.545,0,0,1-3.656-.941,7.643,7.643,0,0,1-3-10.354Zm0-2.085a2.087,2.087,0,0,0-1.829,1.079L1.2,24.65A9.708,9.708,0,0,0,18.21,34.02l5.351-9.714a2.084,2.084,0,0,0-.82-2.832L9.388,14.118a2.072,2.072,0,0,0-1-.26" transform="translate(0 0.591)" fill="#a666fc"/>
      <path id="패스_58" data-name="패스 58" d="M21.855,24.1a1.036,1.036,0,0,1-.5-.129L8,16.609a1.043,1.043,0,0,1-.411-1.416L12.94,5.479a8.666,8.666,0,0,1,15.181,8.364l-5.352,9.713a1.042,1.042,0,0,1-.914.54" transform="translate(0.319 0.042)" fill="#a666fc"/>
      <path id="패스_59" data-name="패스 59" d="M20.6,2.085a7.556,7.556,0,0,1,3.656.941,7.646,7.646,0,0,1,3,10.355L21.9,23.1,8.545,15.739,13.9,6.025a7.644,7.644,0,0,1,6.7-3.939M20.6,0a9.723,9.723,0,0,0-8.525,5.019L6.719,14.732a2.086,2.086,0,0,0,.821,2.833l13.353,7.356a2.078,2.078,0,0,0,1.006.26,2.111,2.111,0,0,0,.58-.082,2.089,2.089,0,0,0,1.247-1l5.351-9.714A9.7,9.7,0,0,0,20.6,0" transform="translate(0.276 0)" fill="#fff"/>
      <path id="패스_60" data-name="패스 60" d="M14.739,9.648s2.061-5.374,5.675-5" transform="translate(0.629 0.197)" fill="none" stroke="#fff" stroke-linecap="round" stroke-linejoin="round" stroke-width="2"/>
    </g>
  </g>
</svg>
