<svg xmlns="http://www.w3.org/2000/svg" xmlns:xlink="http://www.w3.org/1999/xlink" width="52" height="52" viewBox="0 0 52 52">
  <defs>
    <filter id="사각형_8598" x="0" y="0" width="52" height="52" filterUnits="userSpaceOnUse">
      <feOffset dx="1" dy="1" input="SourceAlpha"/>
      <feGaussianBlur stdDeviation="3" result="blur"/>
      <feFlood flood-color="#505050" flood-opacity="0.161"/>
      <feComposite operator="in" in2="blur"/>
      <feComposite in="SourceGraphic"/>
    </filter>
    <filter id="사각형_8598-2" x="0" y="0" width="52" height="52" filterUnits="userSpaceOnUse">
      <feOffset dx="2" dy="2" input="SourceAlpha"/>
      <feGaussianBlur stdDeviation="1.5" result="blur-2"/>
      <feFlood flood-color="#fff" flood-opacity="0.161" result="color"/>
      <feComposite operator="out" in="SourceGraphic" in2="blur-2"/>
      <feComposite operator="in" in="color"/>
      <feComposite operator="in" in2="SourceGraphic"/>
    </filter>
    <clipPath id="clip-path">
      <path id="패스_1681" data-name="패스 1681" d="M0,0H26.293V24.956H0Z" transform="translate(-2.309 -1.602)" fill="none"/>
    </clipPath>
  </defs>
  <g id="가져오기_아이콘" data-name="가져오기 아이콘" transform="translate(-532 -396)">
    <g data-type="innerShadowGroup">
      <g transform="matrix(1, 0, 0, 1, 532, 396)" filter="url(#사각형_8598)">
        <rect id="사각형_8598-3" data-name="사각형 8598" width="34" height="34" rx="5" transform="translate(8 8)" fill="#fff"/>
      </g>
      <g transform="matrix(1, 0, 0, 1, 532, 396)" filter="url(#사각형_8598-2)">
        <rect id="사각형_8598-4" data-name="사각형 8598" width="34" height="34" rx="5" transform="translate(8 8)" fill="#fff"/>
      </g>
    </g>
    <g id="그룹_1069" data-name="그룹 1069" transform="translate(546.163 410.124)">
      <g id="마스크_그룹_3" data-name="마스크 그룹 3" transform="translate(0 0)" clip-path="url(#clip-path)">
        <path id="패스_1679" data-name="패스 1679" d="M14.594,8.137h5.444a1.534,1.534,0,0,1,1.486,1.578V21.352a1.534,1.534,0,0,1-1.486,1.578H2.486A1.534,1.534,0,0,1,1,21.352V9.715A1.534,1.534,0,0,1,2.486,8.137H7.7" transform="translate(-0.293 -2.384)" fill="none" stroke="#a666fb" stroke-linecap="round" stroke-width="2"/>
        <line id="선_414" data-name="선 414" y2="11.303" transform="translate(10.902 0.707)" fill="none" stroke="#a666fb" stroke-linecap="round" stroke-width="2"/>
        <path id="패스_1680" data-name="패스 1680" d="M16.912,14.274l-2.54,3.058-2.4-3.058" transform="translate(-3.508 -4.181)" fill="none" stroke="#a666fb" stroke-linecap="round" stroke-linejoin="round" stroke-width="2"/>
      </g>
    </g>
  </g>
</svg>
