<svg xmlns="http://www.w3.org/2000/svg" xmlns:xlink="http://www.w3.org/1999/xlink" width="33.29" height="39.281" viewBox="0 0 33.29 39.281">
  <defs>
    <clipPath id="clip-path">
      <rect id="사각형_8248" data-name="사각형 8248" width="33.29" height="39.281" transform="translate(0 0.001)" fill="none"/>
    </clipPath>
  </defs>
  <g id="그룹_1013" data-name="그룹 1013" transform="translate(0 0)">
    <g id="그룹_1012" data-name="그룹 1012" clip-path="url(#clip-path)">
      <path id="패스_1658" data-name="패스 1658" d="M29.559,38.282H3.73A2.731,2.731,0,0,1,1,35.551V3.731A2.73,2.73,0,0,1,3.73,1H29.559a2.731,2.731,0,0,1,2.731,2.73v31.82a2.731,2.731,0,0,1-2.731,2.731" fill="#fff"/>
      <path id="사각형_8247" data-name="사각형 8247" d="M2.731,0H28.56a2.73,2.73,0,0,1,2.73,2.73V34.551a2.73,2.73,0,0,1-2.73,2.73H2.731A2.731,2.731,0,0,1,0,34.55V2.731A2.731,2.731,0,0,1,2.731,0Z" transform="translate(1 1.001)" fill="none" stroke="#a666fc" stroke-width="2"/>
      <path id="패스_1659" data-name="패스 1659" d="M26.431,25.384v-1.5a9.786,9.786,0,0,0-19.573,0v1.5Z" fill="#fff"/>
      <path id="패스_1660" data-name="패스 1660" d="M26.431,25.384v-1.5a9.786,9.786,0,0,0-19.573,0v1.5Z" fill="none" stroke="#a666fc" stroke-linecap="round" stroke-linejoin="round" stroke-width="2"/>
      <path id="패스_1661" data-name="패스 1661" d="M14.678,25.384l1.967-5.645,2.227,5.645Z" fill="#a666fc"/>
      <path id="패스_1662" data-name="패스 1662" d="M17.694,15.141a1.158,1.158,0,0,1-1.05,1.243A1.158,1.158,0,0,1,15.6,15.141,1.158,1.158,0,0,1,16.644,13.9a1.158,1.158,0,0,1,1.05,1.243" fill="#a666fc"/>
      <path id="패스_1663" data-name="패스 1663" d="M24.883,19.893a1.064,1.064,0,1,1-1.2-1.718,1.064,1.064,0,1,1,1.2,1.718" fill="#a666fc"/>
      <path id="패스_1664" data-name="패스 1664" d="M9.677,18.3a1.159,1.159,0,0,1,.417,1.572,1.159,1.159,0,0,1-1.62.146,1.159,1.159,0,0,1-.417-1.572,1.159,1.159,0,0,1,1.62-.146" fill="#a666fc"/>
    </g>
  </g>
</svg>
