<svg xmlns="http://www.w3.org/2000/svg" xmlns:xlink="http://www.w3.org/1999/xlink" width="45.976" height="47.876" viewBox="0 0 45.976 47.876">
  <defs>
    <clipPath id="clip-path">
      <rect id="사각형_8639" data-name="사각형 8639" width="45.976" height="47.876" fill="none"/>
    </clipPath>
  </defs>
  <g id="그룹_1125" data-name="그룹 1125" transform="translate(0 0)">
    <g id="그룹_1124" data-name="그룹 1124" transform="translate(0 0)" clip-path="url(#clip-path)">
      <path id="패스_1941" data-name="패스 1941" d="M33.511,20.69,19.773,7.769l6.045-6.427a1.082,1.082,0,0,1,1.531-.047L39.509,12.731a1.085,1.085,0,0,1,.047,1.532Z" transform="translate(4.879 0.247)" fill="#fff"/>
      <path id="패스_1942" data-name="패스 1942" d="M33.511,20.69,19.773,7.769l6.045-6.427a1.082,1.082,0,0,1,1.531-.047L39.509,12.731a1.085,1.085,0,0,1,.047,1.532Z" transform="translate(4.879 0.247)" fill="none" stroke="#9f9f9f" stroke-width="2"/>
      <path id="패스_1943" data-name="패스 1943" d="M3.775,39.005l15.495-3.668a.55.55,0,0,0,.248-.936L6.383,22.046a.551.551,0,0,0-.921.307L2.748,38.04a.844.844,0,0,0,1.026.965" transform="translate(0.675 5.403)" fill="#fff"/>
      <path id="패스_1944" data-name="패스 1944" d="M3.775,39.005l15.495-3.668a.55.55,0,0,0,.248-.936L6.383,22.046a.551.551,0,0,0-.921.307L2.748,38.04A.844.844,0,0,0,3.775,39.005Z" transform="translate(0.675 5.403)" fill="none" stroke="#9f9f9f" stroke-width="2"/>
      <path id="패스_1945" data-name="패스 1945" d="M18.241,39.117,5.06,26.72a.382.382,0,0,1-.017-.541L24.379,5.621,38.117,18.543,18.78,39.1a.382.382,0,0,1-.54.016" transform="translate(1.219 1.387)" fill="#9f9f9f"/>
      <path id="패스_1946" data-name="패스 1946" d="M18.241,39.117,5.06,26.72a.382.382,0,0,1-.017-.541L24.379,5.621,38.117,18.543,18.78,39.1A.382.382,0,0,1,18.241,39.117Z" transform="translate(1.219 1.387)" fill="none" stroke="#fff" stroke-width="2"/>
      <line id="선_470" data-name="선 470" x1="19.598" y2="20.836" transform="translate(10.416 11.162)" fill="none" stroke="#fff" stroke-width="2"/>
      <line id="선_471" data-name="선 471" x1="19.598" y2="20.836" transform="translate(15.384 15.835)" fill="none" stroke="#fff" stroke-width="2"/>
      <line id="선_472" data-name="선 472" x1="2.668" y2="2.838" transform="translate(0.909 44.185)" fill="none" stroke="#fff" stroke-width="2"/>
    </g>
  </g>
</svg>
