<svg xmlns="http://www.w3.org/2000/svg" xmlns:xlink="http://www.w3.org/1999/xlink" width="32.154" height="32.59" viewBox="0 0 32.154 32.59">
  <defs>
    <clipPath id="clip-path">
      <rect id="사각형_6884" data-name="사각형 6884" width="32.154" height="32.59" transform="translate(-2 -2)" fill="none"/>
    </clipPath>
  </defs>
  <g id="회원가입" transform="translate(2 2)">
    <g id="그룹_488" data-name="그룹 488" transform="translate(0 0)" clip-path="url(#clip-path)">
      <path id="패스_267" data-name="패스 267" d="M19.711,7.347A6.347,6.347,0,1,1,13.363,1a6.347,6.347,0,0,1,6.347,6.347" transform="translate(-1.607 -0.229)" fill="#fff"/>
      <circle id="타원_53" data-name="타원 53" cx="6.347" cy="6.347" r="6.347" transform="translate(5.409 0.771)" fill="none" stroke="#a666fb" stroke-width="2"/>
      <path id="패스_268" data-name="패스 268" d="M11.986,22.378A10.949,10.949,0,0,0,1.019,31.3,1.4,1.4,0,0,0,2.4,32.944H21.575A1.4,1.4,0,0,0,22.952,31.3a10.949,10.949,0,0,0-10.966-8.926" transform="translate(-0.229 -5.125)" fill="#fff"/>
      <path id="패스_269" data-name="패스 269" d="M11.986,22.378A10.949,10.949,0,0,0,1.019,31.3,1.4,1.4,0,0,0,2.4,32.944H21.575A1.4,1.4,0,0,0,22.952,31.3,10.949,10.949,0,0,0,11.986,22.378Z" transform="translate(-0.229 -5.125)" fill="none" stroke="#a666fb" stroke-width="2"/>
      <line id="선_165" data-name="선 165" y2="5.68" transform="translate(24.543 1.326)" fill="none" stroke="#a666fb" stroke-linecap="round" stroke-width="2"/>
      <line id="선_166" data-name="선 166" x2="5.68" transform="translate(21.704 4.165)" fill="none" stroke="#a666fb" stroke-linecap="round" stroke-width="2"/>
    </g>
  </g>
</svg>
