<svg xmlns="http://www.w3.org/2000/svg" width="65.982" height="66.61" viewBox="0 0 65.982 66.61">
  <g id="그룹_364" data-name="그룹 364" transform="translate(-308.286 -549.066)">
    <g id="그룹_33" data-name="그룹 33" transform="translate(-1282.009)">
      <path id="패스_125" data-name="패스 125" d="M1635.412,601.143a81.33,81.33,0,0,1-17.3-6.74,6.74,6.74,0,0,0-6.74,6.74c.1-.455-1.294,7.3,11.722,12.308h.593C1636.706,608.447,1635.315,600.688,1635.412,601.143Z" fill="#fff292"/>
    </g>
    <g id="그룹_49" data-name="그룹 49" transform="translate(-1282.009)">
      <circle id="타원_64" data-name="타원 64" cx="19.899" cy="19.899" r="19.899" transform="translate(1590.815 549.066)" fill="#80f6a9"/>
    </g>
    <g id="그룹_181" data-name="그룹 181" transform="translate(-1282.009)">
      <path id="패스_240" data-name="패스 240" d="M1636.568,601.8a1.5,1.5,0,0,1-1.5-1.435,5.785,5.785,0,0,0-10.462-3.143,1.5,1.5,0,1,1-2.427-1.762,8.784,8.784,0,0,1,15.887,4.774,1.5,1.5,0,0,1-1.433,1.565Z" fill="#a666fb"/>
    </g>
    <g id="그룹_182" data-name="그룹 182" transform="translate(-1282.009)">
      <path id="패스_241" data-name="패스 241" d="M1624.493,615.647a1.5,1.5,0,0,1-.6-2.875c11.287-4.916,11.293-11.111,11.178-12.3a1.542,1.542,0,0,1,1.23-1.663,1.52,1.52,0,0,1,1.719,1.12,1.482,1.482,0,0,1,.048.388c.132,1.865-.155,9.623-12.978,15.207A1.5,1.5,0,0,1,1624.493,615.647Z" fill="#a666fb"/>
    </g>
    <g id="그룹_183" data-name="그룹 183" transform="translate(-1282.009)">
      <path id="패스_242" data-name="패스 242" d="M1610.614,602.938a1.5,1.5,0,0,1-1.5-1.434,8.785,8.785,0,0,1,15.41-6.143,1.5,1.5,0,1,1-2.263,1.969,5.785,5.785,0,0,0-10.149,4.043,1.5,1.5,0,0,1-1.433,1.565Z" fill="#a666fb"/>
    </g>
    <g id="그룹_184" data-name="그룹 184" transform="translate(-1282.009)">
      <path id="패스_243" data-name="패스 243" d="M1623.853,615.676a1.5,1.5,0,0,1-.477-.078c-13.312-4.462-14.23-12.2-14.255-14.026a1.444,1.444,0,0,1,.015-.381,1.514,1.514,0,0,1,1.614-1.268,1.54,1.54,0,0,1,1.37,1.55c-.006.733.282,7.283,12.209,11.281a1.5,1.5,0,0,1-.476,2.922Z" fill="#a666fb"/>
    </g>
    <g id="그룹_185" data-name="그룹 185" transform="translate(-1282.009)">
      <path id="패스_244" data-name="패스 244" d="M1636.568,601.8a1.5,1.5,0,0,1-1.5-1.435,5.785,5.785,0,0,0-10.462-3.143,1.5,1.5,0,1,1-2.427-1.762,8.784,8.784,0,0,1,15.887,4.774,1.5,1.5,0,0,1-1.433,1.565Z" fill="#a666fb"/>
    </g>
    <g id="그룹_186" data-name="그룹 186" transform="translate(-1282.009)">
      <path id="패스_245" data-name="패스 245" d="M1624.493,615.647a1.5,1.5,0,0,1-.6-2.875c11.287-4.916,11.293-11.111,11.178-12.3a1.542,1.542,0,0,1,1.23-1.663,1.52,1.52,0,0,1,1.719,1.12,1.482,1.482,0,0,1,.048.388c.132,1.865-.155,9.623-12.978,15.207A1.5,1.5,0,0,1,1624.493,615.647Z" fill="#a666fb"/>
    </g>
    <g id="그룹_187" data-name="그룹 187" transform="translate(-1282.009)">
      <path id="패스_246" data-name="패스 246" d="M1610.614,602.938a1.5,1.5,0,0,1-1.5-1.434,8.785,8.785,0,0,1,15.41-6.143,1.5,1.5,0,1,1-2.263,1.969,5.785,5.785,0,0,0-10.149,4.043,1.5,1.5,0,0,1-1.433,1.565Z" fill="#a666fb"/>
    </g>
    <g id="그룹_188" data-name="그룹 188" transform="translate(-1282.009)">
      <path id="패스_247" data-name="패스 247" d="M1623.853,615.676a1.5,1.5,0,0,1-.477-.078c-13.312-4.462-14.23-12.2-14.255-14.026a1.444,1.444,0,0,1,.015-.381,1.514,1.514,0,0,1,1.614-1.268,1.54,1.54,0,0,1,1.37,1.55c-.006.733.282,7.283,12.209,11.281a1.5,1.5,0,0,1-.476,2.922Z" fill="#a666fb"/>
    </g>
    <g id="그룹_189" data-name="그룹 189" transform="translate(-1282.009)">
      <path id="패스_248" data-name="패스 248" d="M1644.409,611.34h-12.027a1.5,1.5,0,0,1,0-3h10.527V586.172L1623.426,572.1l-18.9,14.627V608.34h10.922a1.5,1.5,0,0,1,0,3h-12.422a1.5,1.5,0,0,1-1.5-1.5V586a1.5,1.5,0,0,1,.582-1.186l20.368-15.765a1.5,1.5,0,0,1,1.795-.029l21.015,15.173a1.5,1.5,0,0,1,.622,1.216V609.84A1.5,1.5,0,0,1,1644.409,611.34Z" fill="#a666fb"/>
    </g>
    <g id="그룹_190" data-name="그룹 190" transform="translate(-1282.009)">
      <path id="패스_249" data-name="패스 249" d="M1597.116,591.536a1.5,1.5,0,0,1-1.169-.558l-5.32-6.6a1.5,1.5,0,0,1,.266-2.14l31.149-23.465a1.5,1.5,0,1,1,1.805,2.4L1593.936,583.7l3.436,4.264,25.12-18.931a1.5,1.5,0,1,1,1.805,2.4l-26.279,19.8A1.49,1.49,0,0,1,1597.116,591.536Z" fill="#a666fb"/>
    </g>
    <g id="그룹_191" data-name="그룹 191" transform="translate(-1282.009)">
      <path id="패스_250" data-name="패스 250" d="M1649.456,590.365a1.49,1.49,0,0,1-.871-.28l-26.063-18.634a1.5,1.5,0,0,1,1.745-2.439l24.911,17.809,3.425-4.249L1622.084,561.2a1.5,1.5,0,1,1,1.721-2.457l31.833,22.295a1.5,1.5,0,0,1,.307,2.17l-5.32,6.6A1.5,1.5,0,0,1,1649.456,590.365Z" fill="#a666fb"/>
    </g>
  </g>
</svg>
