<svg xmlns="http://www.w3.org/2000/svg" width="72.971" height="63.684" viewBox="0 0 72.971 63.684">
  <g id="그룹_360" data-name="그룹 360" transform="translate(-190.866 -442.956)">
    <g id="그룹_42" data-name="그룹 42" transform="translate(-1282.009)">
      <path id="패스_127" data-name="패스 127" d="M1536.841,497.678a50.393,50.393,0,0,1-10.738-4.185,4.185,4.185,0,0,0-4.185,4.185c.061-.283-.8,4.534,7.277,7.641h.369C1537.644,502.212,1536.78,497.395,1536.841,497.678Z" fill="#fff292"/>
    </g>
    <g id="그룹_135" data-name="그룹 135" transform="translate(-1282.009)">
      <circle id="타원_81" data-name="타원 81" cx="19.899" cy="19.899" r="19.899" transform="translate(1472.875 442.956)" fill="#80f6a9"/>
    </g>
    <g id="그룹_136" data-name="그룹 136" transform="translate(-1282.009)">
      <path id="패스_199" data-name="패스 199" d="M1484.531,486.937a7.355,7.355,0,0,1,0-14.711,1.5,1.5,0,0,1,0,3,4.355,4.355,0,0,0,0,8.711,1.5,1.5,0,0,1,0,3Z" fill="#a666fb"/>
    </g>
    <g id="그룹_137" data-name="그룹 137" transform="translate(-1282.009)">
      <path id="패스_200" data-name="패스 200" d="M1538.49,486.937a1.5,1.5,0,0,1,0-3,4.355,4.355,0,1,0,0-8.711,1.5,1.5,0,0,1,0-3,7.355,7.355,0,1,1,0,14.711Z" fill="#a666fb"/>
    </g>
    <g id="그룹_138" data-name="그룹 138" transform="translate(-1282.009)">
      <circle id="타원_82" data-name="타원 82" cx="2.301" cy="2.301" r="2.301" transform="translate(1502.544 476.609)" fill="#a666fb"/>
    </g>
    <g id="그룹_139" data-name="그룹 139" transform="translate(-1282.009)">
      <circle id="타원_83" data-name="타원 83" cx="2.301" cy="2.301" r="2.301" transform="translate(1517.05 476.609)" fill="#a666fb"/>
    </g>
    <g id="그룹_140" data-name="그룹 140" transform="translate(-1282.009)">
      <path id="패스_201" data-name="패스 201" d="M1511.593,506.467a27.55,27.55,0,1,1,23.165-12.628l-2.52-1.627a24.534,24.534,0,1,0-9.305,8.485l1.386,2.66A27.6,27.6,0,0,1,1511.593,506.467Z" fill="#a666fb"/>
    </g>
    <g id="그룹_141" data-name="그룹 141" transform="translate(-1282.009)">
      <path id="패스_202" data-name="패스 202" d="M1512.813,468.436a6.8,6.8,0,0,1-3.193-.847c-3.729-1.987-5.109-5.8-3.692-10.189,1.038-3.215,3.536-6.341,5.866-6.033a1.5,1.5,0,0,1-.308,2.983c-.738.239-2.676,2.582-3.044,5.474a4.671,4.671,0,0,0,2.588,5.116,3.014,3.014,0,0,0,3.494-.109,5.578,5.578,0,0,0,1.8-5.26,1.5,1.5,0,0,1,2.92-.691,8.591,8.591,0,0,1-2.891,8.326A5.735,5.735,0,0,1,1512.813,468.436Zm-1.291-14.1" fill="#a666fb"/>
    </g>
    <g id="그룹_142" data-name="그룹 142" transform="translate(-1282.009)">
      <path id="패스_203" data-name="패스 203" d="M1512.826,494.993c-4.807,0-8.456-3.914-8.611-4.083a1.5,1.5,0,0,1,2.208-2.032h0c.029.032,3,3.168,6.556,3.113,1.917-.051,3.725-1.079,5.376-3.056a1.5,1.5,0,1,1,2.3,1.921c-2.234,2.677-4.8,4.068-7.625,4.135Z" fill="#a666fb"/>
    </g>
    <g id="그룹_143" data-name="그룹 143" transform="translate(-1282.009)">
      <path id="패스_204" data-name="패스 204" d="M1536.841,499a1.5,1.5,0,0,1-1.5-1.5,2.684,2.684,0,0,0-4.787-1.669,1.5,1.5,0,0,1-2.348-1.867,5.684,5.684,0,0,1,10.135,3.536A1.5,1.5,0,0,1,1536.841,499Z" fill="#a666fb"/>
    </g>
    <g id="그룹_144" data-name="그룹 144" transform="translate(-1282.009)">
      <path id="패스_205" data-name="패스 205" d="M1529.563,506.64a1.5,1.5,0,0,1-.538-2.9c6.321-2.429,6.334-5.777,6.315-6.15a1.525,1.525,0,0,1,1.3-1.589,1.508,1.508,0,0,1,1.666,1.186,1.467,1.467,0,0,1,.032.365c.024,1.218-.411,5.979-8.238,8.989A1.521,1.521,0,0,1,1529.563,506.64Z" fill="#a666fb"/>
    </g>
    <g id="그룹_145" data-name="그룹 145" transform="translate(-1282.009)">
      <path id="패스_206" data-name="패스 206" d="M1521.918,499a1.5,1.5,0,0,1-1.5-1.5,5.685,5.685,0,0,1,10.136-3.536,1.5,1.5,0,0,1-2.348,1.867,2.685,2.685,0,0,0-4.788,1.669A1.5,1.5,0,0,1,1521.918,499Z" fill="#a666fb"/>
    </g>
    <g id="그룹_146" data-name="그룹 146" transform="translate(-1282.009)">
      <path id="패스_207" data-name="패스 207" d="M1529.195,506.64a1.519,1.519,0,0,1-.538-.1c-7.844-3.017-8.264-7.793-8.239-8.992a1.549,1.549,0,0,1,.033-.362,1.5,1.5,0,0,1,2.968.4c-.02.373-.006,3.721,6.314,6.15a1.5,1.5,0,0,1-.538,2.9Z" fill="#a666fb"/>
    </g>
  </g>
</svg>
