<svg id="그룹_1123" data-name="그룹 1123" xmlns="http://www.w3.org/2000/svg" xmlns:xlink="http://www.w3.org/1999/xlink" width="36.217" height="47.311" viewBox="0 0 36.217 47.311">
  <defs>
    <clipPath id="clip-path">
      <rect id="사각형_8638" data-name="사각형 8638" width="36.217" height="47.311" fill="none"/>
    </clipPath>
  </defs>
  <g id="그룹_1122" data-name="그룹 1122" clip-path="url(#clip-path)">
    <rect id="사각형_8636" data-name="사각형 8636" width="30.782" height="44.906" rx="1" transform="translate(4.233 1.203)" fill="#fff"/>
    <path id="패스_1940" data-name="패스 1940" d="M33.3,44.908H4.926V2.4H33.3ZM33.3,0H4.926a2.4,2.4,0,0,0-2.4,2.4v42.5a2.4,2.4,0,0,0,2.4,2.4H33.3a2.4,2.4,0,0,0,2.4-2.4V2.4A2.4,2.4,0,0,0,33.3,0" transform="translate(0.509)" fill="#9f9f9f"/>
    <rect id="사각형_8637" data-name="사각형 8637" width="6.434" height="42.504" transform="translate(4.233 2.404)" fill="#9f9f9f"/>
    <line id="선_461" data-name="선 461" x2="5.513" transform="translate(1.202 40.065)" fill="none" stroke="#fff" stroke-linecap="round" stroke-linejoin="round" stroke-width="2"/>
    <line id="선_462" data-name="선 462" x2="5.513" transform="translate(1.202 32.029)" fill="none" stroke="#fff" stroke-linecap="round" stroke-linejoin="round" stroke-width="2"/>
    <line id="선_463" data-name="선 463" x2="5.513" transform="translate(1.202 23.992)" fill="none" stroke="#fff" stroke-linecap="round" stroke-linejoin="round" stroke-width="2"/>
    <line id="선_464" data-name="선 464" x2="5.513" transform="translate(1.202 15.955)" fill="none" stroke="#fff" stroke-linecap="round" stroke-linejoin="round" stroke-width="2"/>
    <line id="선_465" data-name="선 465" x2="5.513" transform="translate(1.202 7.918)" fill="none" stroke="#fff" stroke-linecap="round" stroke-linejoin="round" stroke-width="2"/>
    <line id="선_466" data-name="선 466" x2="13.688" transform="translate(15.9 10.588)" fill="none" stroke="#9f9f9f" stroke-linecap="round" stroke-linejoin="round" stroke-width="2"/>
    <line id="선_467" data-name="선 467" x2="13.688" transform="translate(15.9 19.025)" fill="none" stroke="#9f9f9f" stroke-linecap="round" stroke-linejoin="round" stroke-width="2"/>
    <line id="선_468" data-name="선 468" x2="13.688" transform="translate(15.9 27.463)" fill="none" stroke="#9f9f9f" stroke-linecap="round" stroke-linejoin="round" stroke-width="2"/>
    <line id="선_469" data-name="선 469" x2="13.688" transform="translate(15.9 35.9)" fill="none" stroke="#9f9f9f" stroke-linecap="round" stroke-linejoin="round" stroke-width="2"/>
  </g>
</svg>
