<svg xmlns="http://www.w3.org/2000/svg" xmlns:xlink="http://www.w3.org/1999/xlink" width="41.798" height="37.896" viewBox="0 0 41.798 37.896">
  <defs>
    <clipPath id="clip-path">
      <rect id="사각형_8627" data-name="사각형 8627" width="41.798" height="37.896" fill="none"/>
    </clipPath>
  </defs>
  <g id="그룹_1112" data-name="그룹 1112" transform="translate(0 0)">
    <g id="그룹_1111" data-name="그룹 1111" transform="translate(0 0)" clip-path="url(#clip-path)">
      <path id="패스_1928" data-name="패스 1928" d="M40.317,37.043H1.4a.9.9,0,0,1-.9-.9V4.485a.9.9,0,0,1,.9-.9H40.317a.9.9,0,0,1,.9.9V36.148a.9.9,0,0,1-.9.9" transform="translate(0.043 0.31)" fill="#fff"/>
      <rect id="사각형_8620" data-name="사각형 8620" width="40.712" height="33.453" rx="0.824" transform="translate(0.543 3.9)" fill="none" stroke="#9f9f9f" stroke-width="1"/>
      <path id="패스_1929" data-name="패스 1929" d="M40.317,11.459H1.4a.9.9,0,0,1-.9-.9V4.485a.9.9,0,0,1,.9-.9H40.317a.9.9,0,0,1,.9.9v6.079a.9.9,0,0,1-.9.9" transform="translate(0.043 0.31)" fill="#9f9f9f"/>
      <line id="선_444" data-name="선 444" y2="4.468" transform="translate(4.232 1.087)" fill="none" stroke="#fff" stroke-linecap="round" stroke-width="2"/>
      <line id="선_445" data-name="선 445" y2="4.468" transform="translate(8.994 1.087)" fill="none" stroke="#fff" stroke-linecap="round" stroke-width="2"/>
      <line id="선_446" data-name="선 446" y2="4.468" transform="translate(13.756 1.087)" fill="none" stroke="#fff" stroke-linecap="round" stroke-width="2"/>
      <line id="선_447" data-name="선 447" y2="4.468" transform="translate(18.518 1.087)" fill="none" stroke="#fff" stroke-linecap="round" stroke-width="2"/>
      <line id="선_448" data-name="선 448" y2="4.468" transform="translate(23.28 1.087)" fill="none" stroke="#fff" stroke-linecap="round" stroke-width="2"/>
      <line id="선_449" data-name="선 449" y2="4.468" transform="translate(28.042 1.087)" fill="none" stroke="#fff" stroke-linecap="round" stroke-width="2"/>
      <line id="선_450" data-name="선 450" y2="4.468" transform="translate(32.804 1.087)" fill="none" stroke="#fff" stroke-linecap="round" stroke-width="2"/>
      <line id="선_451" data-name="선 451" y2="4.468" transform="translate(37.566 1.087)" fill="none" stroke="#fff" stroke-linecap="round" stroke-width="2"/>
      <path id="사각형_8621" data-name="사각형 8621" d="M.57,0H5.864a.571.571,0,0,1,.571.571V5.864a.571.571,0,0,1-.571.571H.57A.57.57,0,0,1,0,5.865V.57A.57.57,0,0,1,.57,0Z" transform="translate(5.58 14.472)" fill="none" stroke="#9f9f9f" stroke-linecap="round" stroke-width="1"/>
      <path id="사각형_8622" data-name="사각형 8622" d="M.57,0H5.864a.571.571,0,0,1,.571.571V5.865a.57.57,0,0,1-.57.57H.57A.57.57,0,0,1,0,5.865V.57A.57.57,0,0,1,.57,0Z" transform="translate(17.681 14.472)" fill="none" stroke="#9f9f9f" stroke-linecap="round" stroke-width="1"/>
      <path id="사각형_8623" data-name="사각형 8623" d="M.57,0H5.864a.571.571,0,0,1,.571.571V5.865a.57.57,0,0,1-.57.57H.57A.57.57,0,0,1,0,5.865V.57A.57.57,0,0,1,.57,0Z" transform="translate(29.782 14.472)" fill="none" stroke="#9f9f9f" stroke-linecap="round" stroke-width="1"/>
      <path id="사각형_8624" data-name="사각형 8624" d="M.57,0H5.864a.571.571,0,0,1,.571.571V5.864a.571.571,0,0,1-.571.571H.57A.57.57,0,0,1,0,5.865V.57A.57.57,0,0,1,.57,0Z" transform="translate(5.58 25.991)" fill="none" stroke="#9f9f9f" stroke-linecap="round" stroke-width="1"/>
      <path id="사각형_8625" data-name="사각형 8625" d="M.57,0H5.864a.571.571,0,0,1,.571.571V5.864a.571.571,0,0,1-.571.571H.57A.57.57,0,0,1,0,5.865V.57A.57.57,0,0,1,.57,0Z" transform="translate(17.681 25.991)" fill="none" stroke="#9f9f9f" stroke-linecap="round" stroke-width="1"/>
      <path id="사각형_8626" data-name="사각형 8626" d="M.57,0H5.864a.571.571,0,0,1,.571.571V5.864a.571.571,0,0,1-.571.571H.57A.57.57,0,0,1,0,5.865V.57A.57.57,0,0,1,.57,0Z" transform="translate(29.782 25.991)" fill="none" stroke="#9f9f9f" stroke-linecap="round" stroke-width="1"/>
    </g>
  </g>
</svg>
