<svg xmlns="http://www.w3.org/2000/svg" xmlns:xlink="http://www.w3.org/1999/xlink" width="99.643" height="99.921" viewBox="0 0 99.643 99.921">
  <defs>
    <clipPath id="clip-path">
      <rect id="사각형_6507" data-name="사각형 6507" width="99.643" height="99.921" fill="none"/>
    </clipPath>
  </defs>
  <g id="계정관리_아이콘" data-name="계정관리 아이콘" transform="translate(0)">
    <g id="그룹_422" data-name="그룹 422" transform="translate(0)" clip-path="url(#clip-path)">
      <path id="패스_127" data-name="패스 127" d="M64.7,12.194,61.286,3.779A2.849,2.849,0,0,0,58.644,2H49.069a2.852,2.852,0,0,0-2.787,2.252l-1.241,5.79Z" transform="translate(0.083 0.004)" fill="#fff"/>
      <path id="패스_128" data-name="패스 128" d="M64.7,12.194,61.286,3.779A2.849,2.849,0,0,0,58.644,2H49.069a2.852,2.852,0,0,0-2.787,2.252l-1.241,5.79L64.7,12.194" transform="translate(0.083 0.004)" fill="none" stroke="#a666fb" stroke-width="4"/>
      <path id="패스_129" data-name="패스 129" d="M78.808,20.443l8.284-2.088a3.73,3.73,0,0,1,4.142,1.751l4.55,7.88a3.729,3.729,0,0,1-.053,3.82l-4.869,7.912" transform="translate(0.145 0.034)" fill="#fff"/>
      <path id="패스_130" data-name="패스 130" d="M78.808,20.443l8.284-2.088a3.73,3.73,0,0,1,4.142,1.751l4.55,7.88a3.729,3.729,0,0,1-.053,3.82l-4.869,7.912" transform="translate(0.145 0.034)" fill="none" stroke="#a666fb" stroke-width="4"/>
      <path id="패스_131" data-name="패스 131" d="M91.755,58.071l4.891,5.5a3.321,3.321,0,0,1,.53,3.607L93.448,75.2a3.322,3.322,0,0,1-3.5,1.884l-6.338-.94" transform="translate(0.154 0.107)" fill="#fff"/>
      <path id="패스_132" data-name="패스 132" d="M91.755,58.071l4.891,5.5a3.321,3.321,0,0,1,.53,3.607L93.448,75.2a3.322,3.322,0,0,1-3.5,1.884l-6.338-.94" transform="translate(0.154 0.107)" fill="none" stroke="#a666fb" stroke-width="4"/>
      <path id="패스_133" data-name="패스 133" d="M74.106,84.88v6.557a3.336,3.336,0,0,1-2.419,3.207L61.211,97.633a3.337,3.337,0,0,1-3.591-1.216l-3.606-4.845" transform="translate(0.099 0.156)" fill="#fff"/>
      <path id="패스_134" data-name="패스 134" d="M74.106,84.88v6.557a3.336,3.336,0,0,1-2.419,3.207L61.211,97.633a3.337,3.337,0,0,1-3.591-1.216l-3.606-4.845" transform="translate(0.099 0.156)" fill="none" stroke="#a666fb" stroke-width="4"/>
      <path id="패스_135" data-name="패스 135" d="M35.978,88.546l-6.039,3.688a3.559,3.559,0,0,1-4.243-.4l-5.738-5.185a3.56,3.56,0,0,1-.842-4.142l2.075-4.463" transform="translate(0.035 0.144)" fill="#fff"/>
      <path id="패스_136" data-name="패스 136" d="M35.978,88.546l-6.039,3.688a3.559,3.559,0,0,1-4.243-.4l-5.738-5.185a3.56,3.56,0,0,1-.842-4.142l2.075-4.463" transform="translate(0.035 0.144)" fill="none" stroke="#a666fb" stroke-width="4"/>
      <path id="패스_137" data-name="패스 137" d="M12.753,63.365l-8.514-2.35A3.052,3.052,0,0,1,2,58.072V47.816a3.051,3.051,0,0,1,2.363-2.973l7.154-1.657" transform="translate(0.004 0.08)" fill="#fff"/>
      <path id="패스_138" data-name="패스 138" d="M12.753,63.365l-8.514-2.35A3.052,3.052,0,0,1,2,58.072V47.816a3.051,3.051,0,0,1,2.363-2.973l7.154-1.657" transform="translate(0.004 0.08)" fill="none" stroke="#a666fb" stroke-width="4"/>
      <line id="선_89" data-name="선 89" x1="8.143" y2="18.069" transform="translate(83.766 58.179)" fill="#fff"/>
      <line id="선_90" data-name="선 90" x1="8.143" y2="18.069" transform="translate(83.766 58.179)" fill="none" stroke="#a666fb" stroke-width="4"/>
      <line id="선_91" data-name="선 91" x2="12.054" y2="19.275" transform="translate(78.953 20.477)" fill="#fff"/>
      <line id="선_92" data-name="선 92" x2="12.054" y2="19.275" transform="translate(78.953 20.477)" fill="none" stroke="#a666fb" stroke-width="4"/>
      <path id="패스_139" data-name="패스 139" d="M30.609,14.57c0,1.277-12.593,12.077-12.593,12.077l-2.392-5.162A2.866,2.866,0,0,1,16.3,18.16l6.395-5.813a2.864,2.864,0,0,1,3.34-.373L31.725,15.2" transform="translate(0.028 0.022)" fill="#fff"/>
      <path id="패스_140" data-name="패스 140" d="M30.609,14.57c0,1.277-12.593,12.077-12.593,12.077l-2.392-5.162A2.866,2.866,0,0,1,16.3,18.16l6.395-5.813a2.864,2.864,0,0,1,3.34-.373L31.725,15.2" transform="translate(0.028 0.022)" fill="none" stroke="#a666fb" stroke-width="4"/>
      <line id="선_93" data-name="선 93" y2="19.837" transform="translate(11.521 43.266)" fill="#fff"/>
      <line id="선_94" data-name="선 94" y2="19.837" transform="translate(11.521 43.266)" fill="none" stroke="#a666fb" stroke-width="4"/>
      <line id="선_95" data-name="선 95" x2="13.944" y2="10.401" transform="translate(20.829 79.047)" fill="#fff"/>
      <line id="선_96" data-name="선 96" x2="13.944" y2="10.401" transform="translate(20.829 79.047)" fill="none" stroke="#a666fb" stroke-width="4"/>
      <line id="선_97" data-name="선 97" y1="7.864" x2="19.252" transform="translate(54.953 85.036)" fill="#fff"/>
      <line id="선_98" data-name="선 98" y1="7.864" x2="19.252" transform="translate(54.953 85.036)" fill="none" stroke="#a666fb" stroke-width="4"/>
      <path id="패스_141" data-name="패스 141" d="M51.659,10.027A40.878,40.878,0,1,0,92.537,50.9,40.878,40.878,0,0,0,51.659,10.027m0,59.439A18.561,18.561,0,1,1,70.22,50.9,18.561,18.561,0,0,1,51.659,69.466" transform="translate(0.02 0.019)" fill="#fff"/>
      <path id="패스_142" data-name="패스 142" d="M51.659,10.027A40.878,40.878,0,1,0,92.537,50.9,40.878,40.878,0,0,0,51.659,10.027Zm0,59.439A18.561,18.561,0,1,1,70.22,50.9,18.561,18.561,0,0,1,51.659,69.466Z" transform="translate(0.02 0.019)" fill="none" stroke="#a666fb" stroke-width="4"/>
    </g>
  </g>
</svg>
