<svg xmlns="http://www.w3.org/2000/svg" width="263.424" height="167.453" viewBox="0 0 263.424 167.453">
  <g id="그룹_36" data-name="그룹 36" transform="translate(-166.9 -205.066)">
    <g id="그룹_31" data-name="그룹 31">
      <g id="그룹_24" data-name="그룹 24">
<!--        <path id="패스_3" data-name="패스 3" d="M328.468,362.783v-9.076h1.83v9.076Z" fill="#96999c"/>-->
<!--        <path id="패스_4" data-name="패스 4" d="M331.793,362.783v-9.076h6.726v1.537h-4.9v2.01h4.559v1.529h-4.559v2.47h5.069v1.53Z" fill="#96999c"/>-->
<!--        <path id="패스_5" data-name="패스 5" d="M345.8,359.446l1.774.563a3.973,3.973,0,0,1-1.357,2.207,4.279,4.279,0,0,1-5.383-.512,4.732,4.732,0,0,1-1.163-3.378,4.975,4.975,0,0,1,1.167-3.521,4.023,4.023,0,0,1,3.08-1.253,3.776,3.776,0,0,1,2.7.986,3.569,3.569,0,0,1,.928,1.67l-1.817.433a1.871,1.871,0,0,0-1.91-1.521,2.073,2.073,0,0,0-1.639.722,3.57,3.57,0,0,0-.627,2.345,3.825,3.825,0,0,0,.619,2.454,2.013,2.013,0,0,0,1.612.73,1.841,1.841,0,0,0,1.254-.463A2.73,2.73,0,0,0,345.8,359.446Z" fill="#96999c"/>-->
<!--        <path id="패스_6" data-name="패스 6" d="M348.895,362.783v-9.076h6.73v1.537h-4.9v2.01h4.557v1.529h-4.557v2.47h5.07v1.53Z" fill="#96999c"/>-->
<!--        <path id="패스_7" data-name="패스 7" d="M357.092,353.707h3.349a6.562,6.562,0,0,1,1.727.174,3.035,3.035,0,0,1,1.369.835,3.95,3.95,0,0,1,.865,1.471,6.638,6.638,0,0,1,.3,2.146,5.984,5.984,0,0,1-.279,1.93,4.045,4.045,0,0,1-.973,1.6,3.211,3.211,0,0,1-1.289.725,5.5,5.5,0,0,1-1.622.192h-3.447Zm1.833,1.537v6.009h1.368a4.859,4.859,0,0,0,1.106-.087,1.685,1.685,0,0,0,.742-.376,1.932,1.932,0,0,0,.48-.877,5.909,5.909,0,0,0,.185-1.661,5.437,5.437,0,0,0-.185-1.618,2.106,2.106,0,0,0-.519-.877,1.745,1.745,0,0,0-.848-.428,8.5,8.5,0,0,0-1.507-.085Z" fill="#96999c"/>-->
<!--        <path id="패스_8" data-name="패스 8" d="M376.983,362.783h-1.992l-.792-2.062H370.57l-.75,2.062h-1.942l3.534-9.076h1.939Zm-3.375-3.59-1.249-3.369-1.226,3.369Z" fill="#96999c"/>-->
<!--        <path id="패스_9" data-name="패스 9" d="M377.688,355.318v-1.611h1.74v1.611Zm0,7.465v-6.575h1.74v6.575Z" fill="#96999c"/>-->
<!--        <path id="패스_10" data-name="패스 10" d="M387.514,353.707h1.826v5.746a5.927,5.927,0,0,1-.2,1.732,2.462,2.462,0,0,1-.966,1.273,3.206,3.206,0,0,1-1.845.479,2.729,2.729,0,0,1-2.066-.753,3.076,3.076,0,0,1-.735-2.2l1.731-.2a2.367,2.367,0,0,0,.229,1.1.982.982,0,0,0,.9.488,1,1,0,0,0,.867-.35,2.76,2.76,0,0,0,.253-1.452Z" fill="#96999c"/>-->
<!--        <path id="패스_11" data-name="패스 11" d="M390.624,359.4a3.566,3.566,0,0,1,.424-1.677,2.937,2.937,0,0,1,1.212-1.238,3.578,3.578,0,0,1,1.748-.429,3.28,3.28,0,0,1,2.445.97,3.346,3.346,0,0,1,.953,2.448,3.393,3.393,0,0,1-.961,2.474,3.262,3.262,0,0,1-2.426.979,3.862,3.862,0,0,1-1.722-.406,2.835,2.835,0,0,1-1.249-1.2A4.014,4.014,0,0,1,390.624,359.4Zm1.778.094a2.185,2.185,0,0,0,.467,1.5,1.478,1.478,0,0,0,1.144.518,1.461,1.461,0,0,0,1.141-.518,2.2,2.2,0,0,0,.462-1.512,2.158,2.158,0,0,0-.462-1.486,1.457,1.457,0,0,0-1.141-.518,1.475,1.475,0,0,0-1.144.518A2.187,2.187,0,0,0,392.4,359.5Z" fill="#96999c"/>-->
<!--        <path id="패스_12" data-name="패스 12" d="M399.813,358.212l-1.577-.281a2.461,2.461,0,0,1,.916-1.413,3.344,3.344,0,0,1,1.932-.459,4.2,4.2,0,0,1,1.732.274,1.735,1.735,0,0,1,.8.7,3.631,3.631,0,0,1,.232,1.556l-.019,2.031a6.886,6.886,0,0,0,.085,1.278,3.423,3.423,0,0,0,.311.883h-1.722c-.042-.116-.1-.288-.167-.513-.028-.1-.049-.171-.061-.2a3.146,3.146,0,0,1-.954.649,2.727,2.727,0,0,1-1.083.216,2.239,2.239,0,0,1-1.6-.55,1.822,1.822,0,0,1-.586-1.393,1.866,1.866,0,0,1,.264-.991,1.758,1.758,0,0,1,.75-.671,5.779,5.779,0,0,1,1.381-.4,9.518,9.518,0,0,0,1.69-.428v-.171a.9.9,0,0,0-.247-.718,1.5,1.5,0,0,0-.934-.212,1.222,1.222,0,0,0-.722.182A1.3,1.3,0,0,0,399.813,358.212Zm2.328,1.412a10.36,10.36,0,0,1-1.057.267,3.212,3.212,0,0,0-.947.3.728.728,0,0,0-.342.613.849.849,0,0,0,.274.63.944.944,0,0,0,.694.267,1.5,1.5,0,0,0,.895-.309,1.085,1.085,0,0,0,.415-.575,3.378,3.378,0,0,0,.068-.849Z" fill="#96999c"/>-->
      </g>
      <g id="그룹_29" data-name="그룹 29">
        <g id="그룹_25" data-name="그룹 25">
          <path id="패스_13" data-name="패스 13" d="M286.786,303.757v0h5.389l-8.263,9.407.021.017a3.776,3.776,0,0,0,5.86,4.764l.008,0,10.633-13.09,10.636,13.09,0,0a3.778,3.778,0,0,0,5.864-4.764l.019-.017-8.264-9.407H314v0a3.778,3.778,0,0,0,0-7.556v-.025H286.786v.025a3.778,3.778,0,0,0,0,7.556Z" fill="#2f2528"/>
          <path id="패스_14" data-name="패스 14" d="M321.609,325.767a3.78,3.78,0,0,0-3.752-3.778v-.023H304.2v-2.847h0a3.779,3.779,0,0,0-7.558,0h-.024v2.847H282.935v.023a3.78,3.78,0,0,0,0,7.559v0h34.922v0A3.78,3.78,0,0,0,321.609,325.767Z" fill="#2f2528"/>
          <path id="패스_15" data-name="패스 15" d="M314,340.183v-.024h-9.07v-2.367h-.007a4.5,4.5,0,0,0-9.007,0h-.028v2.367h-9.1v.024a3.778,3.778,0,0,0,0,7.556v0h3.659a14.375,14.375,0,1,0,19.795,0H314v0a3.778,3.778,0,0,0,0-7.556Zm-13.659,24.79a6.826,6.826,0,1,1,6.829-6.826A6.824,6.824,0,0,1,300.343,364.973Z" fill="#2f2528"/>
        </g>
        <g id="그룹_26" data-name="그룹 26">
          <path id="패스_16" data-name="패스 16" d="M183.7,296.329a16.8,16.8,0,1,0,16.8,16.8A16.8,16.8,0,0,0,183.7,296.329Zm0,26.039a9.24,9.24,0,1,1,9.238-9.241A9.243,9.243,0,0,1,183.7,322.368Z" fill="#2f2528"/>
          <path id="패스_17" data-name="패스 17" d="M221.443,313.036a3.778,3.778,0,0,0-3.75-3.78v-.024h-5.435V297.377a1.251,1.251,0,0,0-1.2-1.13h-5.188a1.252,1.252,0,0,0-1.2,1.13v39.8h0a3.779,3.779,0,0,0,7.558,0h.023V316.818h5.435v0A3.779,3.779,0,0,0,221.443,313.036Z" fill="#2f2528"/>
        </g>
        <g id="그룹_27" data-name="그룹 27">
          <path id="패스_18" data-name="패스 18" d="M345.286,296.329a16.8,16.8,0,1,0,16.8,16.8A16.8,16.8,0,0,0,345.286,296.329Zm0,26.039a9.24,9.24,0,1,1,9.241-9.241A9.239,9.239,0,0,1,345.286,322.368Z" fill="#2f2528"/>
          <path id="패스_19" data-name="패스 19" d="M383.032,313.036a3.779,3.779,0,0,0-3.752-3.78v-.024h-5.43V297.377a1.259,1.259,0,0,0-1.2-1.13h-5.184a1.246,1.246,0,0,0-1.2,1.13v39.8h0a3.78,3.78,0,0,0,7.56,0h.024V316.818h5.43v0A3.781,3.781,0,0,0,383.032,313.036Z" fill="#2f2528"/>
        </g>
        <g id="그룹_28" data-name="그룹 28">
          <path id="패스_20" data-name="패스 20" d="M241.888,296.329a16.8,16.8,0,1,0,16.8,16.8A16.8,16.8,0,0,0,241.888,296.329Zm0,26.039a9.24,9.24,0,1,1,9.241-9.241A9.24,9.24,0,0,1,241.888,322.368Z" fill="#2f2528"/>
          <path id="패스_21" data-name="패스 21" d="M270.475,297.377a1.258,1.258,0,0,0-1.2-1.13h-5.184a1.251,1.251,0,0,0-1.2,1.13v39.8h0a3.779,3.779,0,0,0,7.558,0h.024Z" fill="#2f2528"/>
        </g>
      </g>
      <path id="패스_22" data-name="패스 22" d="M271.707,346.634h-9.686a1.246,1.246,0,0,0-1.258,1.1v10.7a1.245,1.245,0,0,0,1.3,1.1l0,.008h4.211l.012,1.235c0,3.933-2.573,5.1-4.262,5.449l0,.01c-.037,0-.059.01-.09.01-.134.028-.26.049-.379.064a1.293,1.293,0,0,0-.838,1.077v3.956a1.254,1.254,0,0,0,1.19,1.138c11.1-.79,11.078-12.587,11.078-12.587V347.829A1.267,1.267,0,0,0,271.707,346.634Z" fill="#f36a10"/>
      <g id="그룹_30" data-name="그룹 30">
        <path id="패스_23" data-name="패스 23" d="M404.273,335.074a6.1,6.1,0,1,1-6.1-6.1A6.1,6.1,0,0,1,404.273,335.074Z" fill="#57bbad"/>
        <path id="패스_24" data-name="패스 24" d="M402.945,296.168h-9.558a1.26,1.26,0,0,0-1.31,1.148V319.23h0a6.1,6.1,0,0,0,12.2,0h0V297.476A1.3,1.3,0,0,0,402.945,296.168Z" fill="#57bbad"/>
      </g>
    </g>
    <g id="그룹_35" data-name="그룹 35">
      <path id="패스_25" data-name="패스 25" d="M415.667,205.675s-10.669-3.912-20.1,8.091c0,0-16.535,14.464-38.587,5.692,0,0-21.694-9.6-32.721,13.276,0,0-10.775,26.481,24.433,42.2-.527,3.636-1.626,8.281-3.9,9.752,0,0,8.248-1.544,12.9-7.225,15.561,3.066,50.119,5.084,68.4-31.21C426.1,246.248,440.68,213.707,415.667,205.675Z" fill="#ffc600"/>
      <g id="그룹_34" data-name="그룹 34">
        <g id="그룹_32" data-name="그룹 32">
          <path id="패스_26" data-name="패스 26" d="M404.668,220.775a2.374,2.374,0,1,1-1.374-3.062A2.376,2.376,0,0,1,404.668,220.775Z" fill="#625c50"/>
          <path id="패스_27" data-name="패스 27" d="M416.48,225.263a2.373,2.373,0,1,1-1.376-3.058A2.375,2.375,0,0,1,416.48,225.263Z" fill="#625c50"/>
          <path id="패스_28" data-name="패스 28" d="M412.791,231.652a1.238,1.238,0,0,0-1.015-2.258h0a8.267,8.267,0,0,1-10.92-4.142l0-.006-.006-.01v0h0a1.238,1.238,0,0,0-2.258,1.014h0l.005.006a10.735,10.735,0,0,0,14.168,5.41C412.772,231.658,412.781,231.658,412.791,231.652Z" fill="#625c50"/>
        </g>
        <g id="그룹_33" data-name="그룹 33">
          <path id="패스_29" data-name="패스 29" d="M357.277,236.029a3.3,3.3,0,1,0,1.367-4.464A3.3,3.3,0,0,0,357.277,236.029Z" fill="#625c50"/>
          <path id="패스_30" data-name="패스 30" d="M341.759,244.27a3.3,3.3,0,1,0,1.366-4.459A3.3,3.3,0,0,0,341.759,244.27Z" fill="#625c50"/>
          <path id="패스_31" data-name="패스 31" d="M347.958,252.444a1.721,1.721,0,1,1,1.008-3.292h0a11.493,11.493,0,0,0,14.346-7.61l0-.009.007-.014v0h0a1.721,1.721,0,0,1,3.291,1.008h0l-.005.01A14.931,14.931,0,0,1,348,252.456C347.984,252.45,347.973,252.45,347.958,252.444Z" fill="#625c50"/>
        </g>
      </g>
    </g>
  </g>
</svg>
