<svg xmlns="http://www.w3.org/2000/svg" xmlns:xlink="http://www.w3.org/1999/xlink" width="52" height="52" viewBox="0 0 52 52">
  <defs>
    <filter id="사각형_8515" x="0" y="0" width="52" height="52" filterUnits="userSpaceOnUse">
      <feOffset dx="1" dy="1" input="SourceAlpha"/>
      <feGaussianBlur stdDeviation="3" result="blur"/>
      <feFlood flood-color="#505050" flood-opacity="0.161"/>
      <feComposite operator="in" in2="blur"/>
      <feComposite in="SourceGraphic"/>
    </filter>
    <filter id="사각형_8515-2" x="0" y="0" width="52" height="52" filterUnits="userSpaceOnUse">
      <feOffset dx="2" dy="2" input="SourceAlpha"/>
      <feGaussianBlur stdDeviation="1.5" result="blur-2"/>
      <feFlood flood-color="#fff" flood-opacity="0.161" result="color"/>
      <feComposite operator="out" in="SourceGraphic" in2="blur-2"/>
      <feComposite operator="in" in="color"/>
      <feComposite operator="in" in2="SourceGraphic"/>
    </filter>
    <clipPath id="clip-path">
      <rect id="사각형_8391" data-name="사각형 8391" width="20.807" height="27.219" fill="none"/>
    </clipPath>
  </defs>
  <g id="녹음_아이콘" data-name="녹음 아이콘" transform="translate(-763 -350)">
    <g data-type="innerShadowGroup">
      <g transform="matrix(1, 0, 0, 1, 763, 350)" filter="url(#사각형_8515)">
        <rect id="사각형_8515-3" data-name="사각형 8515" width="34" height="34" rx="5" transform="translate(8 8)" fill="#fff"/>
      </g>
      <g transform="matrix(1, 0, 0, 1, 763, 350)" filter="url(#사각형_8515-2)">
        <rect id="사각형_8515-4" data-name="사각형 8515" width="34" height="34" rx="5" transform="translate(8 8)" fill="#fff"/>
      </g>
    </g>
    <g id="그룹_1027" data-name="그룹 1027" transform="translate(780.597 363.391)">
      <g id="마스크_그룹_1026" data-name="마스크 그룹 1026" transform="translate(-3 -2)" clip-path="url(#clip-path)">
        <path id="패스_1675" data-name="패스 1675" d="M1,19.99v.2a7.561,7.561,0,0,0,.12,1.345,7.613,7.613,0,0,0,15.106-1.345v-.2" transform="translate(2.218 -5.231)" fill="none" stroke="#a666fb" stroke-linecap="round" stroke-linejoin="round" stroke-width="2"/>
        <path id="패스_1676" data-name="패스 1676" d="M10.286,17.884h0a4.481,4.481,0,0,1-4.468-4.468V5.468a4.468,4.468,0,1,1,8.937,0v7.947a4.481,4.481,0,0,1-4.468,4.468" transform="translate(0.545 1.363)" fill="#fff"/>
        <path id="패스_1677" data-name="패스 1677" d="M10.286,17.884h0a4.481,4.481,0,0,1-4.468-4.468V5.468a4.468,4.468,0,1,1,8.937,0v7.947A4.481,4.481,0,0,1,10.286,17.884Z" transform="translate(0.545 1.363)" fill="none" stroke="#a666fb" stroke-linecap="round" stroke-linejoin="round" stroke-width="2"/>
        <line id="선_411" data-name="선 411" y2="2.592" transform="translate(10.831 22.578)" fill="none" stroke="#a666fb" stroke-linecap="round" stroke-linejoin="round" stroke-width="2"/>
        <path id="패스_1678" data-name="패스 1678" d="M7.42,36.739c.228-.038,6.75-.1,6.844,0" transform="translate(-0.011 -11.028)" fill="none" stroke="#a666fb" stroke-linecap="round" stroke-linejoin="round" stroke-width="2"/>
        <line id="선_412" data-name="선 412" x2="2.895" transform="translate(6.363 9.62)" fill="none" stroke="#a666fb" stroke-linecap="round" stroke-linejoin="round" stroke-width="2"/>
        <line id="선_413" data-name="선 413" x2="2.895" transform="translate(6.363 12.19)" fill="none" stroke="#a666fb" stroke-linecap="round" stroke-linejoin="round" stroke-width="2"/>
      </g>
    </g>
  </g>
</svg>
