<svg xmlns="http://www.w3.org/2000/svg" width="67.426" height="64.254" viewBox="0 0 67.426 64.254">
  <g id="그룹_365" data-name="그룹 365" transform="translate(-416.662 -550.906)">
    <g id="그룹_46" data-name="그룹 46" transform="translate(-1282.009)">
      <circle id="타원_63" data-name="타원 63" cx="19.899" cy="19.899" r="19.899" transform="translate(1698.671 550.906)" fill="#fff292"/>
    </g>
    <g id="그룹_192" data-name="그룹 192" transform="translate(-1282.009)">
      <path id="패스_251" data-name="패스 251" d="M1763.748,599.767a87.7,87.7,0,0,1-18.63-7.26,7.26,7.26,0,0,0-7.26,7.26c.1-.491-1.393,7.867,12.626,13.257h.639C1765.142,607.634,1763.643,599.276,1763.748,599.767Z" fill="#80f6a9"/>
    </g>
    <g id="그룹_197" data-name="그룹 197" transform="translate(-1282.009)">
      <g id="그룹_193" data-name="그룹 193">
        <path id="패스_252" data-name="패스 252" d="M1764.578,600.656a1.5,1.5,0,0,1-1.5-1.434,6.074,6.074,0,0,0-1.978-4.243,6.008,6.008,0,0,0-4.4-1.6,6.085,6.085,0,0,0-4.684,2.519,1.5,1.5,0,0,1-2.428-1.763,9.118,9.118,0,0,1,16.488,4.956,1.5,1.5,0,0,1-1.433,1.564Z" fill="#a666fb"/>
      </g>
      <g id="그룹_194" data-name="그룹 194">
        <path id="패스_253" data-name="패스 253" d="M1751.953,615.131a1.5,1.5,0,0,1-.6-2.875c11.843-5.158,11.847-11.68,11.728-12.935a1.545,1.545,0,0,1,1.23-1.664,1.524,1.524,0,0,1,1.767,1.512c.137,1.935-.156,10.014-13.528,15.837A1.5,1.5,0,0,1,1751.953,615.131Z" fill="#a666fb"/>
      </g>
      <g id="그룹_195" data-name="그룹 195">
        <path id="패스_254" data-name="패스 254" d="M1737.44,601.842a1.5,1.5,0,0,1-1.5-1.435,9.118,9.118,0,0,1,15.994-6.375,1.5,1.5,0,0,1-2.264,1.969,6.117,6.117,0,0,0-10.732,4.275,1.5,1.5,0,0,1-1.433,1.565Z" fill="#a666fb"/>
      </g>
      <g id="그룹_196" data-name="그룹 196">
        <path id="패스_255" data-name="패스 255" d="M1751.282,615.16a1.464,1.464,0,0,1-.476-.078c-13.882-4.652-14.834-12.711-14.859-14.6a1.5,1.5,0,0,1,.015-.384,1.528,1.528,0,0,1,1.615-1.27,1.545,1.545,0,0,1,1.37,1.552c-.011,1.26.556,7.753,12.812,11.861a1.5,1.5,0,0,1-.477,2.922Z" fill="#a666fb"/>
      </g>
    </g>
    <g id="그룹_198" data-name="그룹 198" transform="translate(-1282.009)">
      <path id="패스_256" data-name="패스 256" d="M1735.731,610.586a24.869,24.869,0,1,1,23.984-18.2,1.5,1.5,0,1,1-2.891-.807,21.865,21.865,0,1,0-15.615,15.313,1.5,1.5,0,1,1,.748,2.905A24.97,24.97,0,0,1,1735.731,610.586Z" fill="#a666fb"/>
    </g>
    <g id="그룹_199" data-name="그룹 199" transform="translate(-1282.009)">
      <path id="패스_257" data-name="패스 257" d="M1759.126,587.191a1.49,1.49,0,0,1-.94-.332c-2.982-2.4-4.678-2.05-7.244-1.513-.783.163-1.593.332-2.5.433-4.367.481-4.907-.619-6.118-4.512-.153-.5-.327-1.054-.532-1.684-.813-2.492-2.067-2.845-4.566-3.545a23.172,23.172,0,0,1-5.718-2.255,4.549,4.549,0,0,1-2.514-3.691c-.29-4.064,5.188-8.486,5.814-8.976a1.5,1.5,0,0,1,1.852,2.36c-2.017,1.587-4.8,4.625-4.674,6.4.015.205.054.747,1.021,1.3a20.374,20.374,0,0,0,5.029,1.964c2.724.764,5.3,1.487,6.608,5.5.211.645.388,1.216.546,1.722a10.176,10.176,0,0,0,.941,2.488,7.825,7.825,0,0,0,1.98-.066c.766-.085,1.505-.239,2.221-.389,2.776-.579,5.65-1.179,9.738,2.115a1.5,1.5,0,0,1-.942,2.668Z" fill="#a666fb"/>
    </g>
    <g id="그룹_200" data-name="그룹 200" transform="translate(-1282.009)">
      <path id="패스_258" data-name="패스 258" d="M1717.465,596.618a16.911,16.911,0,0,1-3.664-.464,1.5,1.5,0,1,1,.658-2.927c2.659.6,4.473.523,5.245-.218,1-.96.7-3.516.222-6.134-.7-3.816,2.29-4.687,3.893-5.154,1.848-.539,2.286-.667,1.82-2.488-1.315-5.125-8.689-6.158-8.763-6.168a1.5,1.5,0,1,1,.4-2.974c.384.052,9.461,1.332,11.274,8.4,1.188,4.634-2.112,5.6-3.886,6.114-1.918.559-1.969.712-1.782,1.737.61,3.353,1.027,6.8-1.1,8.835A5.965,5.965,0,0,1,1717.465,596.618Z" fill="#a666fb"/>
    </g>
    <g id="그룹_201" data-name="그룹 201" transform="translate(-1282.009)">
      <path id="패스_259" data-name="패스 259" d="M1728.773,599.124a6.742,6.742,0,0,1-1.9-.277,3.789,3.789,0,0,1-2.715-2.357c-.776-2.205.88-4.679,1.072-4.955.016-.023.034-.046.051-.068a4.621,4.621,0,0,1,3.529-2.128h.04c1.925,0,3.265,1.628,4.343,2.938l.269.325a3.366,3.366,0,0,1,.147,4.126A5.821,5.821,0,0,1,1728.773,599.124Zm-1.1-5.845a3.425,3.425,0,0,0-.684,2.216c.085.238.445.389.731.473a3.053,3.053,0,0,0,3.383-.887c.229-.351.121-.481.055-.559l-.279-.338c-.606-.736-1.519-1.845-2.029-1.845h0C1728.636,592.341,1728.22,592.591,1727.671,593.279Z" fill="#a666fb"/>
    </g>
  </g>
</svg>
