<svg xmlns="http://www.w3.org/2000/svg" width="73.237" height="65.371" viewBox="0 0 73.237 65.371">
  <g id="그룹_363" data-name="그룹 363" transform="translate(-192.197 -553.756)">
    <g id="그룹_45" data-name="그룹 45" transform="translate(-1282.009)">
      <circle id="타원_62" data-name="타원 62" cx="19.899" cy="19.899" r="19.899" transform="translate(1474.206 553.756)" fill="#fff292"/>
    </g>
    <g id="그룹_174" data-name="그룹 174" transform="translate(-1282.009)">
      <path id="패스_233" data-name="패스 233" d="M1526.943,584.891a1.5,1.5,0,0,1-1.5-1.435,5.032,5.032,0,0,0-9.1-2.734,1.5,1.5,0,1,1-2.428-1.764,8.033,8.033,0,0,1,14.527,4.367,1.5,1.5,0,0,1-1.433,1.565Z" fill="#a666fb"/>
    </g>
    <g id="그룹_175" data-name="그룹 175" transform="translate(-1282.009)">
      <path id="패스_234" data-name="패스 234" d="M1516.116,597.3a1.5,1.5,0,0,1-.6-2.875c10.239-4.46,9.992-10.232,9.93-10.875a1.535,1.535,0,0,1,1.23-1.658,1.509,1.509,0,0,1,1.719,1.119,1.535,1.535,0,0,1,.047.378c.12,1.706-.145,8.741-11.729,13.786A1.493,1.493,0,0,1,1516.116,597.3Z" fill="#a666fb"/>
    </g>
    <g id="그룹_176" data-name="그룹 176" transform="translate(-1282.009)">
      <path id="패스_235" data-name="패스 235" d="M1503.67,585.907a1.5,1.5,0,0,1-1.5-1.434,8.033,8.033,0,0,1,14.091-5.617,1.5,1.5,0,1,1-2.266,1.967,4.975,4.975,0,0,0-4.02-1.728,5.036,5.036,0,0,0-4.807,5.247,1.5,1.5,0,0,1-1.434,1.564Z" fill="#a666fb"/>
    </g>
    <g id="그룹_177" data-name="그룹 177" transform="translate(-1282.009)">
      <path id="패스_236" data-name="패스 236" d="M1515.541,597.328a1.476,1.476,0,0,1-.477-.078c-12.007-4.024-12.862-11.037-12.887-12.712a1.513,1.513,0,0,1,1.63-1.643,1.536,1.536,0,0,1,1.369,1.543c-.005.647.256,6.419,10.842,9.968a1.5,1.5,0,0,1-.477,2.922Z" fill="#a666fb"/>
    </g>
    <g id="그룹_178" data-name="그룹 178" transform="translate(-1282.009)">
      <path id="패스_237" data-name="패스 237" d="M1510.716,619.127l-.069,0-14.324-.646a1.5,1.5,0,0,1-1.344-2.006,20.591,20.591,0,0,0,.823-2.937c-.287-.175-.694-.4-1.044-.593-3.414-1.882-10.518-5.8-10.959-15.062-.535-11.243,2.549-17.313,6.033-23.038,2.166-3.558,5.128-4.261,7.172-3.737a4.125,4.125,0,0,1,3.255,3.7,4.588,4.588,0,0,1-1.72,3.664,18.574,18.574,0,0,0-3.876,5.854,11.836,11.836,0,0,0-1.1,5.8,4.325,4.325,0,0,1,.383-.276c1.66-1.067,4.412-1.042,6.718,2.52,1.992,3.079,4.858,5.1,7.631,7.048a28.466,28.466,0,0,1,4.936,4.026c3.4,3.832,0,11.4-.758,12.946l-.286,1.519A1.5,1.5,0,0,1,1510.716,619.127Zm-12.308-3.557,11.072.5.083-.442a1.554,1.554,0,0,1,.136-.4c.939-1.863,3.189-7.66,1.29-9.8a26.469,26.469,0,0,0-4.419-3.565c-2.866-2.017-6.114-4.3-8.424-7.872-.351-.542-1.57-2.263-2.577-1.626a1.981,1.981,0,0,0-.5,2.564,1.5,1.5,0,0,1-2.5,1.655,14.191,14.191,0,0,1-.635-13.508,21.507,21.507,0,0,1,4.435-6.681c.838-.878.913-1,.893-1.462-.017-.39-.439-.778-1-.922-1-.26-2.549.231-3.862,2.39-2.589,4.253-6.135,10.078-5.6,21.335.362,7.586,6.249,10.834,9.412,12.578,1.654.913,2.652,1.464,2.652,2.679A10.834,10.834,0,0,1,1498.408,615.57Z" fill="#a666fb"/>
    </g>
    <g id="그룹_179" data-name="그룹 179" transform="translate(-1282.009)">
      <path id="패스_238" data-name="패스 238" d="M1520.143,615.9s-4.086-8.077-1.073-11.47,9.151-5.762,12.705-11.255,7.539-.482,5.6,2.56a12.754,12.754,0,0,0,.508-12.037c-3.093-6.786-5.57-6.355-5.462-8.832s4.631-4.2,7.647.754,6.354,10.878,5.816,22.187-12.063,13.893-12.063,15.185a17.445,17.445,0,0,0,.969,3.985l-14.324.647Z" fill="#80f6a9"/>
    </g>
    <g id="그룹_180" data-name="그룹 180" transform="translate(-1282.009)">
      <path id="패스_239" data-name="패스 239" d="M1520.465,619.127a1.5,1.5,0,0,1-1.474-1.224l-.285-1.519c-.755-1.551-4.16-9.114-.759-12.946a28.544,28.544,0,0,1,4.937-4.026c2.771-1.951,5.638-3.969,7.631-7.048,2.306-3.563,5.059-3.586,6.717-2.52a4.237,4.237,0,0,1,.383.276,11.821,11.821,0,0,0-1.1-5.8,18.6,18.6,0,0,0-3.877-5.854,4.588,4.588,0,0,1-1.72-3.664,4.125,4.125,0,0,1,3.255-3.7c2.045-.524,5.006.178,7.172,3.737,3.484,5.725,6.568,11.795,6.033,23.038-.442,9.261-7.545,13.18-10.959,15.062-.351.194-.757.418-1.044.593a20.571,20.571,0,0,0,.822,2.937,1.5,1.5,0,0,1-1.344,2.006l-14.324.646Zm14.675-26.9c-.884,0-1.808,1.306-2.106,1.766-2.309,3.57-5.557,5.856-8.424,7.873a26.551,26.551,0,0,0-4.419,3.564c-1.9,2.138.352,7.935,1.29,9.8a1.479,1.479,0,0,1,.136.4l.083.442,11.072-.5a10.84,10.84,0,0,1-.451-2.575c0-1.215,1-1.766,2.653-2.679,3.163-1.744,9.049-4.992,9.412-12.578.535-11.257-3.011-17.082-5.6-21.335-1.313-2.159-2.861-2.65-3.862-2.39-.566.144-.987.532-1,.922-.021.461.055.584.893,1.462a21.5,21.5,0,0,1,4.436,6.681,14.2,14.2,0,0,1-.637,13.508,1.5,1.5,0,0,1-2.5-1.655,1.979,1.979,0,0,0-.5-2.564A.867.867,0,0,0,1535.14,592.227Z" fill="#a666fb"/>
    </g>
  </g>
</svg>
