<svg xmlns="http://www.w3.org/2000/svg" width="75.514" height="65.602" viewBox="0 0 75.514 65.602">
  <g id="그룹_358" data-name="그룹 358" transform="translate(-304.788 -314.928)">
    <g id="그룹_40" data-name="그룹 40" transform="translate(-1282.009)">
      <circle id="타원_59" data-name="타원 59" cx="10.822" cy="10.822" r="10.822" transform="translate(1640.666 341.071)" fill="#fff292"/>
    </g>
    <g id="그룹_111" data-name="그룹 111" transform="translate(-1282.009)">
      <circle id="타원_76" data-name="타원 76" cx="19.899" cy="19.899" r="19.899" transform="translate(1586.797 314.928)" fill="#80f6a9"/>
    </g>
    <g id="그룹_112" data-name="그룹 112" transform="translate(-1282.009)">
      <path id="패스_180" data-name="패스 180" d="M1598.452,358.909a7.355,7.355,0,0,1,0-14.711,1.5,1.5,0,0,1,0,3,4.355,4.355,0,0,0,0,8.711,1.5,1.5,0,0,1,0,3Z" fill="#a666fb"/>
    </g>
    <g id="그룹_113" data-name="그룹 113" transform="translate(-1282.009)">
      <path id="패스_181" data-name="패스 181" d="M1652.411,358.909a1.5,1.5,0,0,1,0-3,4.355,4.355,0,1,0,0-8.711,1.5,1.5,0,0,1,0-3,7.355,7.355,0,1,1,0,14.711Z" fill="#a666fb"/>
    </g>
    <g id="그룹_114" data-name="그룹 114" transform="translate(-1282.009)">
      <circle id="타원_77" data-name="타원 77" cx="2.301" cy="2.301" r="2.301" transform="translate(1613.552 349.119)" fill="#a666fb"/>
    </g>
    <g id="그룹_115" data-name="그룹 115" transform="translate(-1282.009)">
      <circle id="타원_78" data-name="타원 78" cx="2.301" cy="2.301" r="2.301" transform="translate(1632.982 349.119)" fill="#a666fb"/>
    </g>
    <g id="그룹_116" data-name="그룹 116" transform="translate(-1282.009)">
      <path id="패스_182" data-name="패스 182" d="M1649.85,341.071" fill="none" stroke="#a666fb" stroke-linecap="round" stroke-miterlimit="10" stroke-width="3"/>
    </g>
    <g id="그룹_117" data-name="그룹 117" transform="translate(-1282.009)">
      <path id="패스_183" data-name="패스 183" d="M1625.432,380.53c-15.195,0-27.557-13.288-27.557-29.621s12.362-29.621,27.557-29.621a1.5,1.5,0,0,1,0,3c-13.541,0-24.557,11.942-24.557,26.621s11.016,26.621,24.557,26.621,24.556-11.942,24.556-26.621a28.513,28.513,0,0,0-1.556-9.348,1.5,1.5,0,1,1,2.836-.98,31.527,31.527,0,0,1,1.72,10.328C1652.988,367.242,1640.626,380.53,1625.432,380.53Z" fill="#a666fb"/>
    </g>
    <g id="그룹_118" data-name="그룹 118" transform="translate(-1282.009)">
      <path id="패스_184" data-name="패스 184" d="M1625.9,371.033a16.2,16.2,0,0,1-10.194-3.968,1.5,1.5,0,0,1,1.986-2.25h0c.332.292,8.231,7.06,15.435.051a1.5,1.5,0,0,1,2.092,2.151A13.086,13.086,0,0,1,1625.9,371.033Z" fill="#a666fb"/>
    </g>
    <g id="그룹_119" data-name="그룹 119" transform="translate(-1282.009)">
      <path id="패스_185" data-name="패스 185" d="M1624.7,360.065a1.5,1.5,0,0,1-.776-2.784,3.762,3.762,0,0,1,4.4.142,1.5,1.5,0,0,1-1.906,2.317c-.113-.076-.424-.207-.946.109A1.49,1.49,0,0,1,1624.7,360.065Z" fill="#a666fb"/>
    </g>
    <g id="그룹_120" data-name="그룹 120" transform="translate(-1282.009)">
      <path id="패스_186" data-name="패스 186" d="M1603.875,354.691h-4.5a1.5,1.5,0,0,1,0-3h3.41l2.485-7.64a1.5,1.5,0,0,1,1.277-1.029c.163-.016,16.344-1.689,21.811-6.99a1.5,1.5,0,0,1,2.533.888l.417,3.286,2.834-3.327a1.5,1.5,0,0,1,2.446.233l3.023,5.33,3.07-3.195a1.5,1.5,0,0,1,2.447.417l1.5,3.294,1.281-2.107a1.5,1.5,0,0,1,2.563,1.559l-2.753,4.527a1.521,1.521,0,0,1-1.37.718,1.5,1.5,0,0,1-1.277-.875l-1.759-3.862-2.932,3.054a1.5,1.5,0,0,1-2.387-.3l-2.959-5.216-3.646,4.281a1.5,1.5,0,0,1-2.63-.783l-.515-4.055c-6.231,4-17.086,5.588-20.42,6l-2.522,7.759A1.5,1.5,0,0,1,1603.875,354.691Z" fill="#a666fb"/>
    </g>
    <g id="그룹_121" data-name="그룹 121" transform="translate(-1282.009)">
      <path id="패스_187" data-name="패스 187" d="M1649.191,344.11a1.473,1.473,0,0,1-.333-.038,1.5,1.5,0,0,1-1.13-1.795l2.906-12.789c-.408-.112-.877-.238-1.373-.373-2.3-.62-5.158-1.393-6.765-1.963a46.414,46.414,0,0,0-17.725-2.866,1.5,1.5,0,0,1-.15-3,49.381,49.381,0,0,1,18.878,3.035c1.5.531,4.414,1.319,6.544,1.894,1.315.355,2.353.636,2.833.792a1.5,1.5,0,0,1,1,1.759l-3.221,14.172A1.5,1.5,0,0,1,1649.191,344.11Z" fill="#a666fb"/>
    </g>
    <g id="그룹_122" data-name="그룹 122" transform="translate(-1282.009)">
      <path id="패스_188" data-name="패스 188" d="M1619.39,323.548" fill="none" stroke="#a666fb" stroke-linecap="round" stroke-linejoin="round" stroke-width="3"/>
    </g>
  </g>
</svg>
