<svg xmlns="http://www.w3.org/2000/svg" width="77.534" height="61.558" viewBox="0 0 77.534 61.558">
  <g id="그룹_352" data-name="그룹 352" transform="translate(-187.307 -96.67)">
    <g id="그룹_34" data-name="그룹 34" transform="translate(-1282.009)">
      <path id="패스_126" data-name="패스 126" d="M1542.974,156.215h-56.411v-8.909l28.206-1.9,28.206,1.9Z" fill="#fff292"/>
    </g>
    <g id="그룹_50" data-name="그룹 50" transform="translate(-1282.009)">
      <circle id="타원_65" data-name="타원 65" cx="19.899" cy="19.899" r="19.899" transform="translate(1469.316 96.67)" fill="#80f6a9"/>
    </g>
    <g id="그룹_51" data-name="그룹 51" transform="translate(-1282.009)">
      <path id="패스_130" data-name="패스 130" d="M1514.677,123.851a10.652,10.652,0,1,1,10.381-10.649A10.53,10.53,0,0,1,1514.677,123.851Zm0-18.3a7.654,7.654,0,1,0,7.381,7.649A7.527,7.527,0,0,0,1514.677,105.553Z" fill="#a666fb"/>
    </g>
    <g id="그룹_52" data-name="그룹 52" transform="translate(-1282.009)">
      <path id="패스_131" data-name="패스 131" d="M1490.449,123.851a8.143,8.143,0,1,1,7.947-8.141A8.054,8.054,0,0,1,1490.449,123.851Zm0-13.281a5.144,5.144,0,1,0,4.947,5.14A5.052,5.052,0,0,0,1490.449,110.57Z" fill="#a666fb"/>
    </g>
    <g id="그룹_53" data-name="그룹 53" transform="translate(-1282.009)">
      <path id="패스_132" data-name="패스 132" d="M1538.9,123.851a8.143,8.143,0,1,1,7.947-8.141A8.054,8.054,0,0,1,1538.9,123.851Zm0-13.281a5.144,5.144,0,1,0,4.947,5.14A5.052,5.052,0,0,0,1538.9,110.57Z" fill="#a666fb"/>
    </g>
    <g id="그룹_54" data-name="그룹 54" transform="translate(-1282.009)">
      <path id="패스_133" data-name="패스 133" d="M1489.931,148.6c-.318-.52-7.74-12.822-4.727-20.668a9.168,9.168,0,0,1,6.367-5.561,12.191,12.191,0,0,1,10.4,1.878,12.5,12.5,0,0,1,1.727,1.577c.037-.039.075-.079.114-.118a14.82,14.82,0,0,1,10.846-4.547h.022l0,3h-.018a11.882,11.882,0,0,0-8.7,3.641q-.231.237-.449.485a21.142,21.142,0,0,1,2.789,9.248,4.389,4.389,0,0,1-1.942,4.032,4.27,4.27,0,0,1-4.3.17c-1.676-.886-2.675-2.794-2.741-5.234a14.955,14.955,0,0,1,2.5-8.282,10.062,10.062,0,0,0-1.647-1.575,9.121,9.121,0,0,0-7.835-1.375,6.181,6.181,0,0,0-4.327,3.736c-2.066,5.38,2.538,14.839,4.486,18.03Zm13.689-17.52a11.366,11.366,0,0,0-1.3,5.342,2.975,2.975,0,0,0,1.145,2.663,1.263,1.263,0,0,0,1.275-.042,1.386,1.386,0,0,0,.569-1.336A18.514,18.514,0,0,0,1503.62,131.08Z" fill="#a666fb"/>
    </g>
    <g id="그룹_55" data-name="그룹 55" transform="translate(-1282.009)">
      <path id="패스_134" data-name="패스 134" d="M1539.422,148.6l-2.561-1.563c.07-.115,6.973-11.563,4.487-18.033a6.239,6.239,0,0,0-4.421-3.758,9.062,9.062,0,0,0-7.74,1.4,10,10,0,0,0-1.649,1.575,14.946,14.946,0,0,1,2.5,8.282c-.065,2.44-1.064,4.348-2.739,5.234a4.27,4.27,0,0,1-4.3-.17,4.387,4.387,0,0,1-1.942-4.032,21.142,21.142,0,0,1,2.789-9.248c-.146-.165-.3-.328-.449-.485a11.882,11.882,0,0,0-8.7-3.641h-.017l0-3h.021a14.817,14.817,0,0,1,10.846,4.547l.114.118a12.555,12.555,0,0,1,1.727-1.577,12.141,12.141,0,0,1,10.3-1.9,9.22,9.22,0,0,1,6.461,5.586C1547.162,135.778,1539.739,148.08,1539.422,148.6Zm-13.69-17.52a18.511,18.511,0,0,0-1.684,6.627,1.386,1.386,0,0,0,.569,1.336,1.268,1.268,0,0,0,1.275.042,2.973,2.973,0,0,0,1.144-2.663A11.353,11.353,0,0,0,1525.732,131.08Z" fill="#a666fb"/>
    </g>
    <g id="그룹_56" data-name="그룹 56" transform="translate(-1282.009)">
      <path id="패스_135" data-name="패스 135" d="M1544.474,158.228h-59.595V146.555l1.245-.215c.322-.055,32.377-5.46,57.173.014l1.177.259Zm-56.595-3h53.595v-6.195c-21.283-4.36-47.611-.836-53.595.067Z" fill="#a666fb"/>
    </g>
  </g>
</svg>
