<svg xmlns="http://www.w3.org/2000/svg" width="183.669" height="142.51" viewBox="0 0 183.669 142.51">
  <g id="그룹_10" data-name="그룹 10" transform="translate(-3776.251 -276.458)">
    <path id="패스_1" data-name="패스 1" d="M3828.418,345.922l-27.159,20.724H3905.85l25.425-20.724Z" fill="none" stroke="#e59015" stroke-linecap="round" stroke-linejoin="round" stroke-width="3"/>
    <path id="패스_2" data-name="패스 2" d="M3801.259,366.646l9.438,50.822h96.693l-1.541-50.822Z" fill="#fff" stroke="#e59015" stroke-linecap="round" stroke-linejoin="round" stroke-width="3"/>
    <path id="패스_3" data-name="패스 3" d="M3931.275,345.922l-3.082,56.25-20.8,15.3-1.541-50.822Z" fill="none" stroke="#e59015" stroke-linecap="round" stroke-linejoin="round" stroke-width="3"/>
    <path id="패스_4" data-name="패스 4" d="M3828.418,345.922l-2.735-42.927,105.592-1.974v44.9Z" fill="none" stroke="#e59015" stroke-linecap="round" stroke-linejoin="round" stroke-width="3"/>
    <path id="패스_5" data-name="패스 5" d="M3931.275,345.922s26.644-2.96,27.138-30.592-27.138-14.309-27.138-14.309Z" fill="none" stroke="#e59015" stroke-linecap="round" stroke-linejoin="round" stroke-width="3"/>
    <path id="패스_6" data-name="패스 6" d="M3825.683,302.995" fill="#fff" stroke="#e59015" stroke-linecap="round" stroke-linejoin="round" stroke-width="3"/>
    <path id="패스_7" data-name="패스 7" d="M3825.683,302.995l39.145-6.579,80.019,1.395-13.572,5.184Z" fill="#fff" stroke="#e59015" stroke-linecap="round" stroke-linejoin="round" stroke-width="3"/>
    <path id="패스_8" data-name="패스 8" d="M3937.959,309.573V336.45s12.916-3.858,13.194-20.524S3937.959,309.573,3937.959,309.573Z" fill="#fff" stroke="#e59015" stroke-linecap="round" stroke-linejoin="round" stroke-width="3"/>
    <path id="패스_9" data-name="패스 9" d="M3803.2,379.178H3905.85l24.74-18.655" fill="none" stroke="#e59015" stroke-linecap="round" stroke-linejoin="round" stroke-width="3"/>
    <path id="패스_10" data-name="패스 10" d="M3805.376,390.91H3907.2l22.474-13.742" fill="none" stroke="#e59015" stroke-linecap="round" stroke-linejoin="round" stroke-width="3"/>
    <path id="패스_11" data-name="패스 11" d="M3808.233,404.866h99.036l21.252-11.481" fill="none" stroke="#e59015" stroke-linecap="round" stroke-linejoin="round" stroke-width="3"/>
    <g id="그룹_7" data-name="그룹 7">
      <path id="패스_12" data-name="패스 12" d="M3804.152,325.629l-26.4-1.011,19.284-16.495-5.3-27.262,24.344,12.605,21.226-14.913-5.4,25.305,23.636,15.4-27.25,5.689-13.538,26.154Z" fill="#f9ff12" stroke="#e59015" stroke-linecap="round" stroke-linejoin="round" stroke-width="3"/>
      <path id="패스_13" data-name="패스 13" d="M3814.749,351.107c-1.626-3.909-4.362-35.648-4.362-35.648l45.15,3.8" fill="none" stroke="#e59015" stroke-linecap="round" stroke-linejoin="round" stroke-width="3"/>
      <path id="패스_14" data-name="패스 14" d="M3837.3,278.554l-26.915,36.905-18.655-34.6" fill="none" stroke="#e59015" stroke-linecap="round" stroke-linejoin="round" stroke-width="3"/>
      <path id="패스_15" data-name="패스 15" d="M3780.021,324.7c1.056.04,30.366-9.246,30.366-9.246" fill="#fff" stroke="#e59015" stroke-linecap="round" stroke-linejoin="round" stroke-width="3"/>
    </g>
    <g id="그룹_8" data-name="그룹 8">
      <path id="패스_16" data-name="패스 16" d="M3859.463,347.4l-6.723-7.445,9.6.871,6.006-8.668,3.026,9.959,9.68,1.818-8.311,5.239,2.077,10.509-8.769-5.9-10.7,3.252Z" fill="#f9ff12" stroke="#e59015" stroke-linecap="round" stroke-linejoin="round" stroke-width="3"/>
    </g>
    <g id="그룹_9" data-name="그룹 9">
      <path id="패스_17" data-name="패스 17" d="M3913.517,300.7l8.41-12.761,2.385,14.484,15.079,5.543-13.531,8.27,1.02,14.971-10.9-10.254-14.7,7.081,5.349-15.188-8.886-14.535Z" fill="#f9ff12" stroke="#e59015" stroke-linecap="round" stroke-linejoin="round" stroke-width="3"/>
    </g>
  </g>
</svg>
