<svg xmlns="http://www.w3.org/2000/svg" xmlns:xlink="http://www.w3.org/1999/xlink" width="41.798" height="37.896" viewBox="0 0 41.798 37.896">
  <defs>
    <clipPath id="clip-path">
      <rect id="사각형_8654" data-name="사각형 8654" width="41.798" height="37.896" fill="none"/>
    </clipPath>
  </defs>
  <g id="그룹_1140" data-name="그룹 1140" transform="translate(0 0)">
    <g id="그룹_1139" data-name="그룹 1139" transform="translate(0 0)" clip-path="url(#clip-path)">
      <path id="패스_1977" data-name="패스 1977" d="M40.317,37.043H1.4a.9.9,0,0,1-.9-.9V4.485a.9.9,0,0,1,.9-.9H40.317a.9.9,0,0,1,.9.9V36.148a.9.9,0,0,1-.9.9" transform="translate(0.043 0.31)" fill="#fff"/>
      <rect id="사각형_8647" data-name="사각형 8647" width="40.712" height="33.453" rx="0.824" transform="translate(0.543 3.9)" fill="none" stroke="#fdb43b" stroke-width="1"/>
      <path id="패스_1978" data-name="패스 1978" d="M40.317,11.459H1.4a.9.9,0,0,1-.9-.9V4.485a.9.9,0,0,1,.9-.9H40.317a.9.9,0,0,1,.9.9v6.079a.9.9,0,0,1-.9.9" transform="translate(0.043 0.31)" fill="#fdb43b"/>
      <line id="선_497" data-name="선 497" y2="4.468" transform="translate(4.232 1.087)" fill="none" stroke="#fff" stroke-linecap="round" stroke-width="2"/>
      <line id="선_498" data-name="선 498" y2="4.468" transform="translate(8.994 1.087)" fill="none" stroke="#fff" stroke-linecap="round" stroke-width="2"/>
      <line id="선_499" data-name="선 499" y2="4.468" transform="translate(13.756 1.087)" fill="none" stroke="#fff" stroke-linecap="round" stroke-width="2"/>
      <line id="선_500" data-name="선 500" y2="4.468" transform="translate(18.518 1.087)" fill="none" stroke="#fff" stroke-linecap="round" stroke-width="2"/>
      <line id="선_501" data-name="선 501" y2="4.468" transform="translate(23.28 1.087)" fill="none" stroke="#fff" stroke-linecap="round" stroke-width="2"/>
      <line id="선_502" data-name="선 502" y2="4.468" transform="translate(28.042 1.087)" fill="none" stroke="#fff" stroke-linecap="round" stroke-width="2"/>
      <line id="선_503" data-name="선 503" y2="4.468" transform="translate(32.804 1.087)" fill="none" stroke="#fff" stroke-linecap="round" stroke-width="2"/>
      <line id="선_504" data-name="선 504" y2="4.468" transform="translate(37.566 1.087)" fill="none" stroke="#fff" stroke-linecap="round" stroke-width="2"/>
      <path id="사각형_8648" data-name="사각형 8648" d="M.57,0H5.864a.571.571,0,0,1,.571.571V5.864a.571.571,0,0,1-.571.571H.57A.57.57,0,0,1,0,5.865V.57A.57.57,0,0,1,.57,0Z" transform="translate(5.58 14.472)" fill="none" stroke="#fdb43b" stroke-linecap="round" stroke-width="1"/>
      <path id="사각형_8649" data-name="사각형 8649" d="M.57,0H5.864a.571.571,0,0,1,.571.571V5.865a.57.57,0,0,1-.57.57H.57A.57.57,0,0,1,0,5.865V.57A.57.57,0,0,1,.57,0Z" transform="translate(17.681 14.472)" fill="none" stroke="#fdb43b" stroke-linecap="round" stroke-width="1"/>
      <path id="사각형_8650" data-name="사각형 8650" d="M.57,0H5.864a.571.571,0,0,1,.571.571V5.865a.57.57,0,0,1-.57.57H.57A.57.57,0,0,1,0,5.865V.57A.57.57,0,0,1,.57,0Z" transform="translate(29.782 14.472)" fill="none" stroke="#fdb43b" stroke-linecap="round" stroke-width="1"/>
      <path id="사각형_8651" data-name="사각형 8651" d="M.57,0H5.864a.571.571,0,0,1,.571.571V5.864a.571.571,0,0,1-.571.571H.57A.57.57,0,0,1,0,5.865V.57A.57.57,0,0,1,.57,0Z" transform="translate(5.58 25.991)" fill="none" stroke="#fdb43b" stroke-linecap="round" stroke-width="1"/>
      <path id="사각형_8652" data-name="사각형 8652" d="M.57,0H5.864a.571.571,0,0,1,.571.571V5.864a.571.571,0,0,1-.571.571H.57A.57.57,0,0,1,0,5.865V.57A.57.57,0,0,1,.57,0Z" transform="translate(17.681 25.991)" fill="none" stroke="#fdb43b" stroke-linecap="round" stroke-width="1"/>
      <path id="사각형_8653" data-name="사각형 8653" d="M.57,0H5.864a.571.571,0,0,1,.571.571V5.864a.571.571,0,0,1-.571.571H.57A.57.57,0,0,1,0,5.865V.57A.57.57,0,0,1,.57,0Z" transform="translate(29.782 25.991)" fill="none" stroke="#fdb43b" stroke-linecap="round" stroke-width="1"/>
    </g>
  </g>
</svg>
