<svg xmlns="http://www.w3.org/2000/svg" width="114.916" height="85.015" viewBox="0 0 114.916 85.015">
  <g id="그룹_2" data-name="그룹 2" transform="translate(-1039.899 -126.029)">
    <g id="그룹_76" data-name="그룹 76">
      <path id="패스_596" data-name="패스 596" d="M1139.163,126.68s-11.393-4.178-21.456,8.638c0,0-17.659,15.446-41.2,6.078,0,0-23.165-10.255-34.938,14.176,0,0-11.534,28.295,26.087,45.071-.562,3.882-1.741,8.832-4.16,10.4,0,0,8.824-1.64,13.794-7.714,16.621,3.274,53.5,5.413,73.017-33.327C1150.3,170,1165.873,135.254,1139.163,126.68Z" fill="#ffc600"/>
      <g id="그룹_75" data-name="그룹 75">
        <path id="패스_597" data-name="패스 597" d="M1127.42,142.8a2.534,2.534,0,1,1-1.469-3.269A2.535,2.535,0,0,1,1127.42,142.8Z" fill="#fff5d1"/>
        <path id="패스_598" data-name="패스 598" d="M1140.029,147.6a2.533,2.533,0,1,1-1.466-3.268A2.533,2.533,0,0,1,1140.029,147.6Z" fill="#fff5d1"/>
        <path id="패스_599" data-name="패스 599" d="M1136.092,154.418a1.322,1.322,0,0,0-1.083-2.412h0a8.824,8.824,0,0,1-11.659-4.423l0-.007c0-.006-.006-.006-.008-.011h0a1.321,1.321,0,0,0-2.412,1.08h0l.006.007a11.46,11.46,0,0,0,15.127,5.778C1136.072,154.424,1136.082,154.424,1136.092,154.418Z" fill="#fff5d1"/>
      </g>
    </g>
    <g id="그룹_84" data-name="그룹 84">
      <g id="그룹_77" data-name="그룹 77">
        <path id="패스_600" data-name="패스 600" d="M1111.006,184.523v-3.23h.652v3.23Z" fill="#636568"/>
        <path id="패스_601" data-name="패스 601" d="M1112.19,184.523v-3.23h2.4v.548h-1.744v.716h1.623v.543h-1.623v.88h1.8v.543Z" fill="#636568"/>
        <path id="패스_602" data-name="패스 602" d="M1117.178,183.337l.632.2a1.4,1.4,0,0,1-.484.785,1.373,1.373,0,0,1-.858.258,1.393,1.393,0,0,1-1.059-.439,1.691,1.691,0,0,1-.413-1.2,1.769,1.769,0,0,1,.416-1.253,1.431,1.431,0,0,1,1.1-.447,1.351,1.351,0,0,1,.964.35,1.3,1.3,0,0,1,.33.6l-.647.154a.7.7,0,0,0-.239-.4.683.683,0,0,0-.441-.145.73.73,0,0,0-.584.259,1.261,1.261,0,0,0-.223.834,1.356,1.356,0,0,0,.221.874.712.712,0,0,0,.572.258.665.665,0,0,0,.449-.164A.971.971,0,0,0,1117.178,183.337Z" fill="#636568"/>
        <path id="패스_603" data-name="패스 603" d="M1118.279,184.523v-3.23h2.4v.548h-1.744v.716h1.623v.543h-1.623v.88h1.806v.543Z" fill="#636568"/>
        <path id="패스_604" data-name="패스 604" d="M1121.2,181.293h1.193a2.372,2.372,0,0,1,.614.062,1.078,1.078,0,0,1,.486.3,1.4,1.4,0,0,1,.31.524,2.41,2.41,0,0,1,.1.764,2.152,2.152,0,0,1-.1.687,1.437,1.437,0,0,1-.346.572,1.151,1.151,0,0,1-.459.258,1.933,1.933,0,0,1-.577.066H1121.2Zm.653.548v2.139h.486a1.613,1.613,0,0,0,.394-.032.565.565,0,0,0,.264-.133.688.688,0,0,0,.172-.312,2.164,2.164,0,0,0,.064-.592,1.969,1.969,0,0,0-.064-.575.728.728,0,0,0-.186-.312.616.616,0,0,0-.3-.154,3.117,3.117,0,0,0-.537-.029Z" fill="#636568"/>
        <path id="패스_605" data-name="패스 605" d="M1128.281,184.523h-.709l-.282-.732H1126l-.267.732h-.693l1.261-3.23h.688Zm-1.2-1.277-.445-1.2-.438,1.2Z" fill="#636568"/>
        <path id="패스_606" data-name="패스 606" d="M1128.533,181.867v-.574h.619v.574Zm0,2.656v-2.339h.619v2.339Z" fill="#636568"/>
        <path id="패스_607" data-name="패스 607" d="M1132.033,181.293h.649v2.046a2.12,2.12,0,0,1-.07.617.876.876,0,0,1-.346.452,1.121,1.121,0,0,1-.655.172.968.968,0,0,1-.736-.27,1.092,1.092,0,0,1-.262-.783l.616-.072a.889.889,0,0,0,.082.4.349.349,0,0,0,.322.171.355.355,0,0,0,.308-.123.984.984,0,0,0,.092-.517Z" fill="#636568"/>
        <path id="패스_608" data-name="패스 608" d="M1133.139,183.321a1.28,1.28,0,0,1,.15-.6,1.057,1.057,0,0,1,.432-.441,1.286,1.286,0,0,1,.623-.152,1.175,1.175,0,0,1,.871.344,1.2,1.2,0,0,1,.34.873,1.209,1.209,0,0,1-.344.882,1.156,1.156,0,0,1-.863.348,1.379,1.379,0,0,1-.614-.146,1.008,1.008,0,0,1-.445-.426A1.442,1.442,0,0,1,1133.139,183.321Zm.634.034a.774.774,0,0,0,.167.534.542.542,0,0,0,.812,0,.784.784,0,0,0,.165-.539.765.765,0,0,0-.165-.529.538.538,0,0,0-.812,0A.77.77,0,0,0,1133.773,183.355Z" fill="#636568"/>
        <path id="패스_609" data-name="패스 609" d="M1136.412,182.9l-.562-.1a.878.878,0,0,1,.326-.5,1.2,1.2,0,0,1,.687-.162,1.482,1.482,0,0,1,.617.1.625.625,0,0,1,.287.248,1.29,1.29,0,0,1,.082.556l-.006.723a2.388,2.388,0,0,0,.03.454,1.373,1.373,0,0,0,.109.313h-.611a1.879,1.879,0,0,1-.06-.181.74.74,0,0,0-.021-.072,1.141,1.141,0,0,1-.341.23.939.939,0,0,1-.384.078.794.794,0,0,1-.571-.2.649.649,0,0,1-.209-.5.684.684,0,0,1,.095-.354.632.632,0,0,1,.267-.238,2.012,2.012,0,0,1,.492-.143,3.285,3.285,0,0,0,.6-.154v-.061a.32.32,0,0,0-.088-.255.539.539,0,0,0-.332-.075.371.371,0,0,0-.408.293Zm.828.5a3.434,3.434,0,0,1-.377.1,1.022,1.022,0,0,0-.337.108.256.256,0,0,0-.122.218.309.309,0,0,0,.1.225.342.342,0,0,0,.247.1.534.534,0,0,0,.319-.112.384.384,0,0,0,.149-.205,1.31,1.31,0,0,0,.023-.3Z" fill="#636568"/>
      </g>
      <g id="그룹_82" data-name="그룹 82">
        <g id="그룹_78" data-name="그룹 78">
          <path id="패스_610" data-name="패스 610" d="M1096.164,163.507v0h1.917l-2.94,3.349.006.005a1.345,1.345,0,0,0,2.087,1.7h0l3.787-4.662,3.787,4.662h0a1.346,1.346,0,0,0,2.09-1.7l.006-.005-2.941-3.349h1.889v0a1.346,1.346,0,0,0,0-2.691v-.009h-9.69v.009a1.346,1.346,0,0,0,0,2.691Z" fill="#2f2528"/>
          <path id="패스_611" data-name="패스 611" d="M1108.563,171.344a1.345,1.345,0,0,0-1.336-1.344v-.01h-4.863v-1.013h0a1.346,1.346,0,0,0-2.691,0h-.008v1.013h-4.873V170a1.346,1.346,0,0,0,0,2.691h12.436A1.346,1.346,0,0,0,1108.563,171.344Z" fill="#2f2528"/>
          <path id="패스_612" data-name="패스 612" d="M1105.854,176.477v-.008h-3.23v-.842h0a1.6,1.6,0,0,0-3.208,0h-.009v.842h-3.242v.008a1.346,1.346,0,0,0,0,2.691v0h1.3a5.117,5.117,0,1,0,7.049,0h1.338v0a1.346,1.346,0,0,0,0-2.691Zm-4.863,8.828a2.431,2.431,0,1,1,2.432-2.43A2.43,2.43,0,0,1,1100.991,185.3Z" fill="#2f2528"/>
        </g>
        <g id="그룹_79" data-name="그룹 79">
          <path id="패스_613" data-name="패스 613" d="M1059.455,160.861a5.983,5.983,0,1,0,5.983,5.982A5.983,5.983,0,0,0,1059.455,160.861Zm0,9.272a3.29,3.29,0,1,1,3.291-3.29A3.291,3.291,0,0,1,1059.455,170.133Z" fill="#2f2528"/>
          <path id="패스_614" data-name="패스 614" d="M1072.9,166.811a1.344,1.344,0,0,0-1.335-1.346v-.008h-1.935v-4.221a.446.446,0,0,0-.428-.4h-1.845a.443.443,0,0,0-.427.4v14.172h0a1.346,1.346,0,0,0,2.692,0h.008v-7.252h1.935A1.345,1.345,0,0,0,1072.9,166.811Z" fill="#2f2528"/>
        </g>
        <g id="그룹_80" data-name="그룹 80">
          <path id="패스_615" data-name="패스 615" d="M1116.994,160.861a5.983,5.983,0,1,0,5.985,5.982A5.981,5.981,0,0,0,1116.994,160.861Zm0,9.272a3.29,3.29,0,1,1,3.291-3.29A3.289,3.289,0,0,1,1116.994,170.133Z" fill="#2f2528"/>
          <path id="패스_616" data-name="패스 616" d="M1130.435,166.811a1.345,1.345,0,0,0-1.335-1.346v-.008h-1.934v-4.221a.448.448,0,0,0-.428-.4h-1.846a.445.445,0,0,0-.428.4v14.172h0a1.346,1.346,0,0,0,2.691,0h.01v-7.252h1.934A1.345,1.345,0,0,0,1130.435,166.811Z" fill="#2f2528"/>
        </g>
        <g id="그룹_81" data-name="그룹 81">
          <path id="패스_617" data-name="패스 617" d="M1080.176,160.861a5.983,5.983,0,1,0,5.982,5.982A5.983,5.983,0,0,0,1080.176,160.861Zm0,9.272a3.29,3.29,0,1,1,3.29-3.29A3.29,3.29,0,0,1,1080.176,170.133Z" fill="#2f2528"/>
          <path id="패스_618" data-name="패스 618" d="M1090.353,161.236a.444.444,0,0,0-.427-.4h-1.846a.444.444,0,0,0-.426.4v14.172h0a1.346,1.346,0,0,0,2.692,0h.006Z" fill="#2f2528"/>
        </g>
      </g>
      <path id="패스_619" data-name="패스 619" d="M1090.794,178.775h-3.45a.444.444,0,0,0-.447.39v3.812a.442.442,0,0,0,.461.39l0,0h1.5l.005.44a1.8,1.8,0,0,1-1.518,1.941l0,0c-.012,0-.02,0-.031,0-.049.009-.094.017-.136.021a.465.465,0,0,0-.3.385v1.407a.446.446,0,0,0,.425.406c3.95-.281,3.944-4.481,3.944-4.481v-4.3A.45.45,0,0,0,1090.794,178.775Z" fill="#f36a10"/>
      <g id="그룹_83" data-name="그룹 83">
        <path id="패스_620" data-name="패스 620" d="M1138,174.658a2.172,2.172,0,1,1-2.172-2.172A2.172,2.172,0,0,1,1138,174.658Z" fill="#2cae96"/>
        <path id="패스_621" data-name="패스 621" d="M1137.526,160.8h-3.4a.448.448,0,0,0-.467.408v7.805h0a2.171,2.171,0,0,0,4.342,0h0V161.27A.463.463,0,0,0,1137.526,160.8Z" fill="#2cae96"/>
      </g>
    </g>
  </g>
</svg>
