<svg xmlns="http://www.w3.org/2000/svg" width="80.181" height="67.362" viewBox="0 0 80.181 67.362">
  <g id="그룹_353" data-name="그룹 353" transform="translate(-296.768 -95.124)">
    <g id="그룹_35" data-name="그룹 35" transform="translate(-1282.009)">
      <circle id="타원_54" data-name="타원 54" cx="19.899" cy="19.899" r="19.899" transform="translate(1578.776 95.124)" fill="#fff292"/>
    </g>
    <g id="그룹_57" data-name="그룹 57" transform="translate(-1282.009)">
      <path id="패스_136" data-name="패스 136" d="M1623.316,112.86a7.38,7.38,0,1,1,7.38-7.381A7.388,7.388,0,0,1,1623.316,112.86Zm0-11.76a4.38,4.38,0,1,0,4.38,4.379A4.383,4.383,0,0,0,1623.316,101.1Z" fill="#a666fb"/>
    </g>
    <g id="그룹_58" data-name="그룹 58" transform="translate(-1282.009)">
      <path id="패스_137" data-name="패스 137" d="M1623.314,137.866a1.5,1.5,0,0,1-.782-.221c-.56-.344-13.746-8.513-15.141-16.637a7.532,7.532,0,0,1,1.631-6.254c4.587-5.667,11.717-1.973,14.061-.759.162.084.3.157.412.213a1.5,1.5,0,0,1,1.321,1.526,1.554,1.554,0,0,1-.749,1.28c-.784.462-1.446.119-2.364-.355-3.4-1.762-7.646-3.354-10.349-.017a4.59,4.59,0,0,0-1.007,3.857c.966,5.633,10.256,12.441,13.754,14.589a1.5,1.5,0,0,1-.787,2.778Z" fill="#a666fb"/>
    </g>
    <g id="그룹_59" data-name="그룹 59" transform="translate(-1282.009)">
      <path id="패스_138" data-name="패스 138" d="M1623.318,137.866a1.5,1.5,0,0,1-.786-2.778c3.5-2.148,12.788-8.956,13.754-14.589a4.587,4.587,0,0,0-1.008-3.857c-2.7-3.338-6.948-1.744-10.348.017-.919.474-1.583.817-2.365.355l-.714-.424-.035-.856a1.5,1.5,0,0,1,1.322-1.526c.112-.056.25-.129.412-.213,2.344-1.214,9.474-4.909,14.06.759a7.529,7.529,0,0,1,1.632,6.254c-1.395,8.124-14.581,16.293-15.141,16.637A1.5,1.5,0,0,1,1623.318,137.866Z" fill="#a666fb"/>
    </g>
    <g id="그룹_60" data-name="그룹 60" transform="translate(-1282.009)">
      <path id="패스_139" data-name="패스 139" d="M1595.108,162.02a7.429,7.429,0,0,1-1.921-.254,7.342,7.342,0,1,1,1.921.254Zm-.018-11.765a4.361,4.361,0,0,0-2.183.588h0a4.357,4.357,0,1,0,2.183-.588Z" fill="#a666fb"/>
    </g>
    <g id="그룹_61" data-name="그룹 61" transform="translate(-1282.009)">
      <path id="패스_140" data-name="패스 140" d="M1611.609,162.486a8.508,8.508,0,0,1-1.334-.107c-7.2-1.139-7.567-9.162-7.687-11.8-.008-.182-.014-.339-.022-.464a1.5,1.5,0,0,1,.662-1.906,1.555,1.555,0,0,1,1.483.009c.793.447.827,1.192.874,2.224.174,3.825.918,8.3,5.159,8.972a4.6,4.6,0,0,0,3.846-1.058c4.4-3.66,5.647-15.1,5.757-19.2a1.474,1.474,0,0,1,1.539-1.46,1.5,1.5,0,0,1,1.459,1.539c-.017.658-.5,16.162-6.836,21.432A7.5,7.5,0,0,1,1611.609,162.486Z" fill="#a666fb"/>
    </g>
    <g id="그룹_62" data-name="그룹 62" transform="translate(-1282.009)">
      <path id="패스_141" data-name="패스 141" d="M1603.947,151.028a1.5,1.5,0,0,1-1.2-.6c-.1-.069-.237-.152-.391-.25-2.223-1.423-8.988-5.752-6.374-12.557a7.536,7.536,0,0,1,4.6-4.541c7.731-2.851,21.4,4.482,21.979,4.795a1.5,1.5,0,0,1-1.43,2.637c-3.609-1.955-14.152-6.6-19.512-4.617a4.591,4.591,0,0,0-2.837,2.8c-1.54,4.007,1.965,6.89,5.19,8.953.871.558,1.5.96,1.489,1.87l-.009.832-.724.457A1.5,1.5,0,0,1,1603.947,151.028Z" fill="#a666fb"/>
    </g>
    <g id="그룹_63" data-name="그룹 63" transform="translate(-1282.009)">
      <path id="패스_142" data-name="패스 142" d="M1649.889,137.692c-3.891-10.127-24.464,1.035-24.464,1.035s.62,23.4,11.336,21.7c7.5-1.186,6.1-11.621,6.564-11.369C1642.875,148.787,1652.613,144.783,1649.889,137.692Z" fill="#80f6a9"/>
    </g>
    <g id="그룹_64" data-name="그룹 64" transform="translate(-1282.009)">
      <path id="패스_143" data-name="패스 143" d="M1651.566,162.02a7.339,7.339,0,0,1-3.677-.991h0a7.342,7.342,0,1,1,3.677.992Zm-2.177-3.59a4.38,4.38,0,1,0-1.6-5.983,4.347,4.347,0,0,0,1.6,5.983Z" fill="#a666fb"/>
    </g>
    <g id="그룹_65" data-name="그룹 65" transform="translate(-1282.009)">
      <path id="패스_144" data-name="패스 144" d="M1642.729,151.028a1.5,1.5,0,0,1-.781-.219,1.557,1.557,0,0,1-.733-1.289c-.01-.91.618-1.312,1.489-1.87,3.225-2.063,6.73-4.946,5.19-8.953a4.591,4.591,0,0,0-2.837-2.8c-5.364-1.979-15.9,2.662-19.512,4.617a1.5,1.5,0,0,1-1.43-2.637c.577-.314,14.244-7.647,21.979-4.795a7.531,7.531,0,0,1,4.6,4.541c2.615,6.8-4.15,11.134-6.374,12.557-.153.1-.286.181-.39.25A1.5,1.5,0,0,1,1642.729,151.028Z" fill="#a666fb"/>
    </g>
    <g id="그룹_66" data-name="그룹 66" transform="translate(-1282.009)">
      <path id="패스_145" data-name="패스 145" d="M1635.066,162.486a7.488,7.488,0,0,1-4.9-1.821c-6.337-5.27-6.819-20.774-6.836-21.432a1.5,1.5,0,1,1,3-.08c.111,4.1,1.362,15.553,5.758,19.206a4.59,4.59,0,0,0,3.845,1.057c4.24-.671,4.984-5.147,5.159-8.972.047-1.032.081-1.777.874-2.224l.724-.408.759.4a1.5,1.5,0,0,1,.661,1.906c-.007.126-.013.282-.021.464-.121,2.636-.487,10.659-7.688,11.8A8.491,8.491,0,0,1,1635.066,162.486Z" fill="#a666fb"/>
    </g>
  </g>
</svg>
