<svg xmlns="http://www.w3.org/2000/svg" xmlns:xlink="http://www.w3.org/1999/xlink" width="33.29" height="32.118" viewBox="0 0 33.29 32.118">
  <defs>
    <clipPath id="clip-path">
      <rect id="사각형_6883" data-name="사각형 6883" width="33.29" height="32.118" transform="translate(-2 -2)" fill="none"/>
    </clipPath>
  </defs>
  <g id="아이디찾기" transform="translate(2 2)">
    <g id="그룹_486" data-name="그룹 486" transform="translate(0 0)" clip-path="url(#clip-path)">
      <circle id="타원_52" data-name="타원 52" cx="6.465" cy="6.465" r="6.465" transform="translate(5.596 0.785)" fill="none" stroke="#a666fb" stroke-width="2"/>
      <path id="패스_263" data-name="패스 263" d="M12.275,22.378A11.094,11.094,0,0,0,1,32.325a.744.744,0,0,0,.733.814H22.814a.744.744,0,0,0,.733-.814A11.093,11.093,0,0,0,12.275,22.378Z" transform="translate(-0.215 -4.806)" fill="none" stroke="#a666fb" stroke-width="2"/>
      <path id="패스_264" data-name="패스 264" d="M28.709,16.086a6.852,6.852,0,1,1-6.853-6.853,6.852,6.852,0,0,1,6.853,6.853" transform="translate(-3.223 -1.983)" fill="#fff"/>
      <path id="패스_265" data-name="패스 265" d="M28.709,16.086a6.852,6.852,0,1,1-6.853-6.853A6.852,6.852,0,0,1,28.709,16.086Z" transform="translate(-3.223 -1.983)" fill="none" stroke="#a666fb" stroke-linejoin="round" stroke-width="2"/>
      <line id="선_164" data-name="선 164" x1="5.038" y1="4.784" transform="translate(23.467 19.133)" fill="none" stroke="#a666fb" stroke-linecap="round" stroke-width="2"/>
      <path id="패스_266" data-name="패스 266" d="M25.83,12.7s2.846.842,2.77,5.135" transform="translate(-5.548 -2.728)" fill="none" stroke="#a666fb" stroke-linecap="round" stroke-width="2"/>
    </g>
  </g>
</svg>
