<svg xmlns="http://www.w3.org/2000/svg" xmlns:xlink="http://www.w3.org/1999/xlink" width="35" height="38" viewBox="0 0 35 38">
  <defs>
    <clipPath id="clip-path">
      <rect id="사각형_6457" data-name="사각형 6457" width="35" height="38" transform="translate(-2 -2)" fill="none"/>
    </clipPath>
  </defs>
  <g id="공유_아이콘" data-name="공유 아이콘" transform="translate(2 2)" clip-path="url(#clip-path)">
    <path id="패스_7" data-name="패스 7" d="M12.31,19.744a5.655,5.655,0,1,1-5.655-5.693,5.674,5.674,0,0,1,5.655,5.693" transform="translate(-0.275 -3.801)" fill="none"/>
    <ellipse id="타원_42" data-name="타원 42" cx="5.655" cy="5.693" rx="5.655" ry="5.693" transform="translate(0.725 10.25)" fill="none" stroke="#a666fb" stroke-width="2"/>
    <path id="패스_8" data-name="패스 8" d="M37.483,6.693A5.655,5.655,0,1,1,31.828,1a5.674,5.674,0,0,1,5.655,5.693" transform="translate(-7.207 -0.271)" fill="none"/>
    <ellipse id="타원_43" data-name="타원 43" cx="5.655" cy="5.693" rx="5.655" ry="5.693" transform="translate(18.965 0.729)" fill="none" stroke="#a666fb" stroke-width="2"/>
    <path id="패스_9" data-name="패스 9" d="M37.483,33.054a5.655,5.655,0,1,1-5.655-5.693,5.674,5.674,0,0,1,5.655,5.693" transform="translate(-7.207 -7.402)" fill="none"/>
    <ellipse id="타원_44" data-name="타원 44" cx="5.655" cy="5.693" rx="5.655" ry="5.693" transform="translate(18.965 19.959)" fill="none" stroke="#a666fb" stroke-width="2"/>
    <line id="선_58" data-name="선 58" x1="6.659" y1="4.501" transform="translate(11.613 19.385)" fill="none" stroke="#a666fb" stroke-linecap="round" stroke-width="2"/>
    <line id="선_59" data-name="선 59" x1="6.659" y2="4.501" transform="translate(11.613 7.999)" fill="none" stroke="#a666fb" stroke-linecap="round" stroke-width="2"/>
  </g>
</svg>
