<svg xmlns="http://www.w3.org/2000/svg" width="69.927" height="70.96" viewBox="0 0 69.927 70.96">
  <g id="그룹_361" data-name="그룹 361" transform="translate(-304.788 -438.259)">
    <g id="그룹_43" data-name="그룹 43" transform="translate(-1282.009)">
      <circle id="타원_61" data-name="타원 61" cx="19.899" cy="19.899" r="19.899" transform="translate(1586.797 438.259)" fill="#fff292"/>
    </g>
    <g id="그룹_147" data-name="그룹 147" transform="translate(-1282.009)">
      <circle id="타원_84" data-name="타원 84" cx="11.72" cy="11.72" r="11.72" transform="translate(1626.595 485.778)" fill="#80f6a9"/>
    </g>
    <g id="그룹_148" data-name="그룹 148" transform="translate(-1282.009)">
      <path id="패스_208" data-name="패스 208" d="M1638.812,473.915a1.5,1.5,0,0,1-1.5-1.5,4.784,4.784,0,0,0-8.53-2.975,1.5,1.5,0,1,1-2.347-1.867,7.783,7.783,0,0,1,13.877,4.842A1.5,1.5,0,0,1,1638.812,473.915Z" fill="#a666fb"/>
    </g>
    <g id="그룹_149" data-name="그룹 149" transform="translate(-1282.009)">
      <path id="패스_209" data-name="패스 209" d="M1627.885,485.388a1.5,1.5,0,0,1-.538-2.9c9.986-3.84,9.995-9.359,9.963-9.976a1.535,1.535,0,0,1,1.3-1.6,1.513,1.513,0,0,1,1.667,1.193,1.528,1.528,0,0,1,.033.379c.042,1.659-.52,8.435-11.888,12.806A1.519,1.519,0,0,1,1627.885,485.388Z" fill="#a666fb"/>
    </g>
    <g id="그룹_150" data-name="그룹 150" transform="translate(-1282.009)">
      <path id="패스_210" data-name="패스 210" d="M1616.406,473.915a1.5,1.5,0,0,1-1.5-1.5,7.783,7.783,0,0,1,13.876-4.842,1.5,1.5,0,1,1-2.347,1.867,4.784,4.784,0,0,0-8.529,2.975A1.5,1.5,0,0,1,1616.406,473.915Z" fill="#a666fb"/>
    </g>
    <g id="그룹_151" data-name="그룹 151" transform="translate(-1282.009)">
      <path id="패스_211" data-name="패스 211" d="M1627.333,485.388a1.514,1.514,0,0,1-.538-.1c-11.4-4.383-11.933-11.184-11.888-12.809a1.52,1.52,0,0,1,1.7-1.569,1.535,1.535,0,0,1,1.3,1.6c-.032.617-.023,6.136,9.963,9.976a1.5,1.5,0,0,1-.538,2.9Z" fill="#a666fb"/>
    </g>
    <g id="그룹_152" data-name="그룹 152" transform="translate(-1282.009)">
      <path id="패스_212" data-name="패스 212" d="M1604.249,471.833a1.564,1.564,0,0,1-.3-.03,1.5,1.5,0,0,1-1.169-1.771,25.76,25.76,0,0,1,18.717-19.661,1.5,1.5,0,0,1,.746,2.906,22.739,22.739,0,0,0-16.523,17.357A1.5,1.5,0,0,1,1604.249,471.833Z" fill="#a666fb"/>
    </g>
    <g id="그룹_153" data-name="그룹 153" transform="translate(-1282.009)">
      <path id="패스_213" data-name="패스 213" d="M1622.8,499.736a1.5,1.5,0,0,1-.3-.03,25.754,25.754,0,0,1-19.661-18.716,1.5,1.5,0,1,1,2.906-.746,22.734,22.734,0,0,0,17.357,16.523,1.5,1.5,0,0,1-.3,2.969Z" fill="#a666fb"/>
    </g>
    <g id="그룹_154" data-name="그룹 154" transform="translate(-1282.009)">
      <path id="패스_214" data-name="패스 214" d="M1633.081,499.7a1.5,1.5,0,0,1-.372-2.953,22.734,22.734,0,0,0,16.522-17.356,1.5,1.5,0,0,1,2.94.6,25.753,25.753,0,0,1-18.716,19.661A1.464,1.464,0,0,1,1633.081,499.7Z" fill="#a666fb"/>
    </g>
    <g id="그룹_155" data-name="그룹 155" transform="translate(-1282.009)">
      <path id="패스_215" data-name="패스 215" d="M1650.659,470.9a1.5,1.5,0,0,1-1.452-1.127,22.735,22.735,0,0,0-17.356-16.522,1.5,1.5,0,0,1,.6-2.94,25.756,25.756,0,0,1,19.661,18.716,1.5,1.5,0,0,1-1.08,1.826A1.464,1.464,0,0,1,1650.659,470.9Z" fill="#a666fb"/>
    </g>
    <g id="그룹_156" data-name="그룹 156" transform="translate(-1282.009)">
      <path id="패스_216" data-name="패스 216" d="M1605.415,460.224a7.232,7.232,0,1,1,7.231-7.232A7.24,7.24,0,0,1,1605.415,460.224Zm0-11.463a4.232,4.232,0,1,0,4.231,4.231A4.236,4.236,0,0,0,1605.415,448.761Z" fill="#a666fb"/>
    </g>
    <g id="그룹_157" data-name="그룹 157" transform="translate(-1282.009)">
      <path id="패스_217" data-name="패스 217" d="M1605.209,504.3a7.232,7.232,0,1,1,7.231-7.233A7.24,7.24,0,0,1,1605.209,504.3Zm0-11.464a4.232,4.232,0,1,0,4.231,4.231A4.236,4.236,0,0,0,1605.209,492.837Z" fill="#a666fb"/>
    </g>
    <g id="그룹_158" data-name="그룹 158" transform="translate(-1282.009)">
      <path id="패스_218" data-name="패스 218" d="M1649.285,504.507a7.231,7.231,0,1,1,7.233-7.232A7.24,7.24,0,0,1,1649.285,504.507Zm0-11.463a4.231,4.231,0,1,0,4.233,4.231A4.236,4.236,0,0,0,1649.285,493.044Z" fill="#a666fb"/>
    </g>
    <g id="그룹_159" data-name="그룹 159" transform="translate(-1282.009)">
      <path id="패스_219" data-name="패스 219" d="M1649.492,460.43a7.231,7.231,0,1,1,7.232-7.232A7.24,7.24,0,0,1,1649.492,460.43Zm0-11.463a4.231,4.231,0,1,0,4.232,4.231A4.236,4.236,0,0,0,1649.492,448.967Z" fill="#a666fb"/>
    </g>
  </g>
</svg>
