<svg xmlns="http://www.w3.org/2000/svg" width="66.183" height="72.206" viewBox="0 0 66.183 72.206">
  <g id="그룹_362" data-name="그룹 362" transform="translate(-424.014 -432.118)">
    <g id="그룹_44" data-name="그룹 44" transform="translate(-1282.009)">
      <rect id="사각형_9" data-name="사각형 9" width="52.181" height="9.338" transform="translate(1718.525 493.486)" fill="#fff292"/>
    </g>
    <g id="그룹_160" data-name="그룹 160" transform="translate(-1282.009)">
      <circle id="타원_85" data-name="타원 85" cx="19.899" cy="19.899" r="19.899" transform="translate(1706.023 432.118)" fill="#80f6a9"/>
    </g>
    <g id="그룹_161" data-name="그룹 161" transform="translate(-1282.009)">
      <path id="패스_220" data-name="패스 220" d="M1756.9,467.19a1.5,1.5,0,0,1-1.1-2.513,3.7,3.7,0,0,0-3.315-6.16,1.5,1.5,0,0,1-.47-2.963,6.7,6.7,0,0,1,6,11.15A1.5,1.5,0,0,1,1756.9,467.19Z" fill="#a666fb"/>
    </g>
    <g id="그룹_162" data-name="그룹 162" transform="translate(-1282.009)">
      <path id="패스_221" data-name="패스 221" d="M1750.678,469.569a20.338,20.338,0,0,1-7.416-1.59,1.5,1.5,0,1,1,1.1-2.791c8.079,3.174,11.062-.064,11.374-.443a1.53,1.53,0,0,1,2.038-.3,1.515,1.515,0,0,1,.425,2,1.447,1.447,0,0,1-.227.3C1757.32,467.488,1755.1,469.569,1750.678,469.569Z" fill="#a666fb"/>
    </g>
    <g id="그룹_163" data-name="그룹 163" transform="translate(-1282.009)">
      <path id="패스_222" data-name="패스 222" d="M1752.25,458.535c-.036,0-.071,0-.107,0a1.5,1.5,0,0,1-1.391-1.6,3.7,3.7,0,0,0-6.426-2.764,1.5,1.5,0,1,1-2.213-2.027,6.7,6.7,0,0,1,11.631,5A1.5,1.5,0,0,1,1752.25,458.535Z" fill="#a666fb"/>
    </g>
    <g id="그룹_164" data-name="그룹 164" transform="translate(-1282.009)">
      <path id="패스_223" data-name="패스 223" d="M1743.474,467.773a1.5,1.5,0,0,1-1.344-.831c-4.569-9.177-1.03-13.747-.055-14.76a1.484,1.484,0,0,1,.276-.252,1.5,1.5,0,0,1,1.913,2.3c-.351.346-3.317,3.6.551,11.37a1.5,1.5,0,0,1-1.341,2.169Z" fill="#a666fb"/>
    </g>
    <g id="그룹_165" data-name="그룹 165" transform="translate(-1282.009)">
      <path id="패스_224" data-name="패스 224" d="M1732.973,480.374a1.5,1.5,0,0,1-1.242-.656,5.647,5.647,0,0,1,6.344-8.571,1.5,1.5,0,0,1-.89,2.866,2.646,2.646,0,0,0-2.973,4.017,1.5,1.5,0,0,1-1.239,2.344Z" fill="#a666fb"/>
    </g>
    <g id="그룹_166" data-name="그룹 166" transform="translate(-1282.009)">
      <path id="패스_225" data-name="패스 225" d="M1742.716,483.214a1.5,1.5,0,0,1-1.495-1.4c-.439-6.688-3.593-7.682-3.95-7.773a1.5,1.5,0,1,1,.852-2.877c1.162.336,5.547,2.15,6.092,10.452a1.5,1.5,0,0,1-1.4,1.6Z" fill="#a666fb"/>
    </g>
    <g id="그룹_167" data-name="그룹 167" transform="translate(-1282.009)">
      <path id="패스_226" data-name="패스 226" d="M1733.238,488.2a1.5,1.5,0,0,1-.446-.067,5.646,5.646,0,0,1-.363-10.656,1.5,1.5,0,1,1,1.086,2.8,2.646,2.646,0,0,0,.17,4.995,1.5,1.5,0,0,1-.447,2.932Z" fill="#a666fb"/>
    </g>
    <g id="그룹_168" data-name="그룹 168" transform="translate(-1282.009)">
      <path id="패스_227" data-name="패스 227" d="M1734.775,488.436a6.191,6.191,0,0,1-1.935-.29,1.554,1.554,0,0,1-.337-.139,1.5,1.5,0,0,1,1.267-2.714c.346.127,3.51,1.1,7.663-4.16a1.5,1.5,0,0,1,2.353,1.859C1740.2,487.534,1736.859,488.436,1734.775,488.436Z" fill="#a666fb"/>
    </g>
    <g id="그룹_169" data-name="그룹 169" transform="translate(-1282.009)">
      <path id="패스_228" data-name="패스 228" d="M1744.617,494.986c-.041,0-.082,0-.123-.005a1.5,1.5,0,0,1-1.374-1.616c1.058-13.075-.17-18.691-1.253-23.646a52.281,52.281,0,0,1-1.045-5.871,1.5,1.5,0,1,1,2.985-.315,49.711,49.711,0,0,0,.992,5.545c1.071,4.9,2.405,11.009,1.311,24.529A1.5,1.5,0,0,1,1744.617,494.986Z" fill="#a666fb"/>
    </g>
    <g id="그룹_170" data-name="그룹 170" transform="translate(-1282.009)">
      <path id="패스_229" data-name="패스 229" d="M1770.706,504.324h-52.181a1.5,1.5,0,0,1-1.5-1.5v-9.338a1.5,1.5,0,0,1,1.5-1.5h52.181a1.5,1.5,0,0,1,1.5,1.5v9.338A1.5,1.5,0,0,1,1770.706,504.324Zm-50.681-3h49.181v-6.338h-49.181Z" fill="#a666fb"/>
    </g>
    <g id="그룹_171" data-name="그룹 171" transform="translate(-1282.009)">
      <path id="패스_230" data-name="패스 230" d="M1732.993,455.671a1.5,1.5,0,0,1-.81-.238l-7.073-4.546a1.5,1.5,0,0,1,1.623-2.524l7.073,4.546a1.5,1.5,0,0,1-.813,2.762Z" fill="#a666fb"/>
    </g>
    <g id="그룹_172" data-name="그룹 172" transform="translate(-1282.009)">
      <path id="패스_231" data-name="패스 231" d="M1739.863,448.026a1.5,1.5,0,0,1-1.259-.683l-4.576-7.054a1.5,1.5,0,0,1,2.518-1.633l4.575,7.054a1.5,1.5,0,0,1-1.258,2.316Z" fill="#a666fb"/>
    </g>
    <g id="그룹_173" data-name="그룹 173" transform="translate(-1282.009)">
      <path id="패스_232" data-name="패스 232" d="M1750.063,443.485a1.5,1.5,0,0,1-1.466-1.189l-1.743-8.226a1.5,1.5,0,0,1,2.936-.621l1.742,8.226a1.5,1.5,0,0,1-1.469,1.81Z" fill="#a666fb"/>
    </g>
  </g>
</svg>
