<svg xmlns="http://www.w3.org/2000/svg" width="107.667" height="98.702" viewBox="0 0 107.667 98.702">
  <g id="Group_2239" data-name="Group 2239" transform="translate(0)">
    <g id="Group_2221" data-name="Group 2221" transform="translate(0)">
      <circle id="Ellipse_170" data-name="Ellipse 170" cx="28.971" cy="28.971" r="28.971" fill="#80f6a9"/>
    </g>
    <g id="Group_2222" data-name="Group 2222" transform="translate(16.609 23.158)">
      <path id="Path_4837" data-name="Path 4837" d="M523.868,744.917H437.177a2.185,2.185,0,0,1-2.184-2.184V683.622a2.185,2.185,0,0,1,2.184-2.184h86.691a2.185,2.185,0,0,1,2.184,2.184v59.111A2.185,2.185,0,0,1,523.868,744.917Zm-84.507-4.368h82.323V685.806H439.361Z" transform="translate(-434.993 -681.438)" fill="#a666fb"/>
    </g>
    <g id="Group_2223" data-name="Group 2223" transform="translate(25.464 48.49)">
      <path id="Path_4838" data-name="Path 4838" d="M443.259,713.571a2.185,2.185,0,0,1-2.184-2.184V701.022a2.184,2.184,0,0,1,4.368,0v10.366A2.185,2.185,0,0,1,443.259,713.571Z" transform="translate(-441.075 -698.838)" fill="#a666fb"/>
    </g>
    <g id="Group_2224" data-name="Group 2224" transform="translate(68.122 35.942)">
      <path id="Path_4839" data-name="Path 4839" d="M472.56,704.952a2.185,2.185,0,0,1-2.184-2.184V692.4a2.184,2.184,0,1,1,4.368,0v10.366A2.185,2.185,0,0,1,472.56,704.952Z" transform="translate(-470.376 -690.219)" fill="#a666fb"/>
    </g>
    <g id="Group_2225" data-name="Group 2225" transform="translate(76.1 35.942)">
      <path id="Path_4840" data-name="Path 4840" d="M478.04,704.952a2.185,2.185,0,0,1-2.184-2.184V692.4a2.184,2.184,0,1,1,4.368,0v10.366A2.185,2.185,0,0,1,478.04,704.952Z" transform="translate(-475.856 -690.219)" fill="#a666fb"/>
    </g>
    <g id="Group_2226" data-name="Group 2226" transform="translate(86.466 48.49)">
      <path id="Path_4841" data-name="Path 4841" d="M489.587,712.062a6.612,6.612,0,1,1,6.611-6.611A6.619,6.619,0,0,1,489.587,712.062Zm0-8.856a2.244,2.244,0,1,0,2.244,2.245A2.247,2.247,0,0,0,489.587,703.206Z" transform="translate(-482.976 -698.838)" fill="#a666fb"/>
    </g>
    <g id="Group_2227" data-name="Group 2227" transform="translate(38.862 33.955)">
      <path id="Path_4842" data-name="Path 4842" d="M473.554,707.757H452.462a2.185,2.185,0,0,1-2.184-2.184V691.038a2.185,2.185,0,0,1,2.184-2.184h21.092a2.184,2.184,0,0,1,2.184,2.184v14.535A2.184,2.184,0,0,1,473.554,707.757Zm-18.909-4.368h16.725V693.222H454.646Z" transform="translate(-450.278 -688.854)" fill="#a666fb"/>
    </g>
    <g id="Group_2228" data-name="Group 2228" transform="translate(38.862 58.267)">
      <path id="Path_4843" data-name="Path 4843" d="M473.554,724.456H452.462a2.185,2.185,0,0,1-2.184-2.184V707.737a2.185,2.185,0,0,1,2.184-2.184h21.092a2.184,2.184,0,0,1,2.184,2.184v14.535A2.184,2.184,0,0,1,473.554,724.456Zm-18.909-4.368h16.725V709.921H454.646Z" transform="translate(-450.278 -705.553)" fill="#a666fb"/>
    </g>
    <g id="Group_2238" data-name="Group 2238" transform="translate(54.231 64.617)">
      <g id="Group_2229" data-name="Group 2229" transform="translate(3.276 3.701)">
        <path id="Path_4844" data-name="Path 4844" d="M497.371,722.07a9.614,9.614,0,0,0-17.141-5.979,9.613,9.613,0,0,0-17.14,5.979c.138-.651-1.846,10.417,16.718,17.553h.846C499.217,732.487,497.232,721.419,497.371,722.07Z" transform="translate(-463.085 -712.457)" fill="#fff292"/>
      </g>
      <g id="Group_2230" data-name="Group 2230" transform="translate(18.237)">
        <path id="Path_4845" data-name="Path 4845" d="M494.334,724.216a2.185,2.185,0,0,1-2.181-2.088,8.207,8.207,0,0,0-14.841-4.461,2.183,2.183,0,0,1-3.535-2.564,12.574,12.574,0,0,1,22.741,6.834,2.183,2.183,0,0,1-2.086,2.277Z" transform="translate(-473.361 -709.915)" fill="#a666fb"/>
      </g>
      <g id="Group_2231" data-name="Group 2231" transform="translate(19.803 9.903)">
        <path id="Path_4846" data-name="Path 4846" d="M476.622,740.859a2.183,2.183,0,0,1-.872-4.186c16.413-7.148,16.016-16.464,15.917-17.5a2.242,2.242,0,0,1,1.791-2.418,2.206,2.206,0,0,1,2.571,2.191c.189,2.669-.22,13.758-18.536,21.735A2.168,2.168,0,0,1,476.622,740.859Z" transform="translate(-474.437 -716.717)" fill="#a666fb"/>
      </g>
      <g id="Group_2232" data-name="Group 2232" transform="translate(0 0.708)">
        <path id="Path_4847" data-name="Path 4847" d="M463.028,725.612a2.184,2.184,0,0,1-2.181-2.089,12.572,12.572,0,0,1,22.056-8.791,2.183,2.183,0,0,1-3.3,2.864,8.206,8.206,0,0,0-14.4,5.736,2.186,2.186,0,0,1-2.088,2.278Z" transform="translate(-460.835 -710.402)" fill="#a666fb"/>
      </g>
      <g id="Group_2233" data-name="Group 2233" transform="translate(0.01 11.521)">
        <path id="Path_4848" data-name="Path 4848" d="M481.906,740.392a2.136,2.136,0,0,1-.693-.114c-18.995-6.367-20.324-17.424-20.362-20.04a2.187,2.187,0,0,1,.02-.559,2.186,2.186,0,0,1,4.346.411c-.007,1.044.411,10.358,17.383,16.048a2.184,2.184,0,0,1-.694,4.254Z" transform="translate(-460.842 -717.828)" fill="#a666fb"/>
      </g>
      <g id="Group_2234" data-name="Group 2234" transform="translate(18.237)">
        <path id="Path_4849" data-name="Path 4849" d="M494.334,724.216a2.185,2.185,0,0,1-2.181-2.088,8.207,8.207,0,0,0-14.841-4.461,2.183,2.183,0,0,1-3.535-2.564,12.574,12.574,0,0,1,22.741,6.834,2.183,2.183,0,0,1-2.086,2.277Z" transform="translate(-473.361 -709.915)" fill="#a666fb"/>
      </g>
      <g id="Group_2235" data-name="Group 2235" transform="translate(19.803 9.903)">
        <path id="Path_4850" data-name="Path 4850" d="M476.622,740.859a2.183,2.183,0,0,1-.872-4.186c16.413-7.148,16.016-16.464,15.917-17.5a2.242,2.242,0,0,1,1.791-2.418,2.206,2.206,0,0,1,2.571,2.191c.189,2.669-.22,13.758-18.536,21.735A2.168,2.168,0,0,1,476.622,740.859Z" transform="translate(-474.437 -716.717)" fill="#a666fb"/>
      </g>
      <g id="Group_2236" data-name="Group 2236" transform="translate(0 0.708)">
        <path id="Path_4851" data-name="Path 4851" d="M463.028,725.612a2.184,2.184,0,0,1-2.181-2.089,12.572,12.572,0,0,1,22.056-8.791,2.183,2.183,0,0,1-3.3,2.864,8.206,8.206,0,0,0-14.4,5.736,2.186,2.186,0,0,1-2.088,2.278Z" transform="translate(-460.835 -710.402)" fill="#a666fb"/>
      </g>
      <g id="Group_2237" data-name="Group 2237" transform="translate(0.01 11.521)">
        <path id="Path_4852" data-name="Path 4852" d="M481.906,740.392a2.136,2.136,0,0,1-.693-.114c-18.995-6.367-20.324-17.424-20.362-20.04a2.187,2.187,0,0,1,.02-.559,2.186,2.186,0,0,1,4.346.411c-.007,1.044.411,10.358,17.383,16.048a2.184,2.184,0,0,1-.694,4.254Z" transform="translate(-460.842 -717.828)" fill="#a666fb"/>
      </g>
    </g>
  </g>
</svg>
