<svg xmlns="http://www.w3.org/2000/svg" xmlns:xlink="http://www.w3.org/1999/xlink" width="42.508" height="42.508" viewBox="0 0 42.508 42.508">
  <defs>
    <clipPath id="clip-path">
      <rect id="사각형_8619" data-name="사각형 8619" width="42.508" height="42.508" fill="none"/>
    </clipPath>
  </defs>
  <g id="그룹_1110" data-name="그룹 1110" transform="translate(0 0)">
    <g id="그룹_1109" data-name="그룹 1109" transform="translate(0 0)" clip-path="url(#clip-path)">
      <path id="패스_1926" data-name="패스 1926" d="M20.2,32.55A12.155,12.155,0,1,1,32.35,20.4,12.168,12.168,0,0,1,20.2,32.55" transform="translate(1.194 1.223)" fill="#9f9f9f"/>
      <path id="패스_1927" data-name="패스 1927" d="M20.345,9.538A11.006,11.006,0,1,1,9.339,20.544,11.006,11.006,0,0,1,20.345,9.538m0-2.3a13.3,13.3,0,1,0,13.3,13.3,13.318,13.318,0,0,0-13.3-13.3" transform="translate(1.046 1.075)" fill="#fff"/>
      <line id="선_420" data-name="선 420" y2="4.386" transform="translate(21.39 1.148)" fill="#fff"/>
      <line id="선_421" data-name="선 421" y2="4.386" transform="translate(21.39 1.148)" fill="none" stroke="#9f9f9f" stroke-linecap="round" stroke-linejoin="round" stroke-width="2"/>
      <line id="선_422" data-name="선 422" x2="2.194" y2="3.799" transform="translate(11.319 3.774)" fill="#fff"/>
      <line id="선_423" data-name="선 423" x2="2.194" y2="3.799" transform="translate(11.319 3.774)" fill="none" stroke="#9f9f9f" stroke-linecap="round" stroke-linejoin="round" stroke-width="2"/>
      <line id="선_424" data-name="선 424" x2="3.799" y2="2.194" transform="translate(3.91 11.083)" fill="#fff"/>
      <line id="선_425" data-name="선 425" x2="3.799" y2="2.194" transform="translate(3.91 11.083)" fill="none" stroke="#9f9f9f" stroke-linecap="round" stroke-linejoin="round" stroke-width="2"/>
      <line id="선_426" data-name="선 426" x2="4.386" transform="translate(1.149 21.117)" fill="#fff"/>
      <line id="선_427" data-name="선 427" x2="4.386" transform="translate(1.149 21.117)" fill="none" stroke="#9f9f9f" stroke-linecap="round" stroke-linejoin="round" stroke-width="2"/>
      <line id="선_428" data-name="선 428" y1="2.194" x2="3.799" transform="translate(3.774 28.995)" fill="#fff"/>
      <line id="선_429" data-name="선 429" y1="2.194" x2="3.799" transform="translate(3.774 28.995)" fill="none" stroke="#9f9f9f" stroke-linecap="round" stroke-linejoin="round" stroke-width="2"/>
      <line id="선_430" data-name="선 430" y1="3.799" x2="2.194" transform="translate(11.083 34.798)" fill="#fff"/>
      <line id="선_431" data-name="선 431" y1="3.799" x2="2.194" transform="translate(11.083 34.798)" fill="none" stroke="#9f9f9f" stroke-linecap="round" stroke-linejoin="round" stroke-width="2"/>
      <line id="선_432" data-name="선 432" y1="4.386" transform="translate(21.118 36.973)" fill="#fff"/>
      <line id="선_433" data-name="선 433" y1="4.386" transform="translate(21.118 36.973)" fill="none" stroke="#9f9f9f" stroke-linecap="round" stroke-linejoin="round" stroke-width="2"/>
      <line id="선_434" data-name="선 434" x1="2.194" y1="3.799" transform="translate(28.995 34.934)" fill="#fff"/>
      <line id="선_435" data-name="선 435" x1="2.194" y1="3.799" transform="translate(28.995 34.934)" fill="none" stroke="#9f9f9f" stroke-linecap="round" stroke-linejoin="round" stroke-width="2"/>
      <line id="선_436" data-name="선 436" x1="3.799" y1="2.194" transform="translate(34.798 29.231)" fill="#fff"/>
      <line id="선_437" data-name="선 437" x1="3.799" y1="2.194" transform="translate(34.798 29.231)" fill="none" stroke="#9f9f9f" stroke-linecap="round" stroke-linejoin="round" stroke-width="2"/>
      <line id="선_438" data-name="선 438" x1="4.386" transform="translate(36.973 21.39)" fill="#fff"/>
      <line id="선_439" data-name="선 439" x1="4.386" transform="translate(36.973 21.39)" fill="none" stroke="#9f9f9f" stroke-linecap="round" stroke-linejoin="round" stroke-width="2"/>
      <line id="선_440" data-name="선 440" x1="3.799" y2="2.194" transform="translate(34.935 11.319)" fill="#fff"/>
      <line id="선_441" data-name="선 441" x1="3.799" y2="2.194" transform="translate(34.935 11.319)" fill="none" stroke="#9f9f9f" stroke-linecap="round" stroke-linejoin="round" stroke-width="2"/>
      <line id="선_442" data-name="선 442" x1="2.194" y2="3.799" transform="translate(29.231 3.91)" fill="#fff"/>
      <line id="선_443" data-name="선 443" x1="2.194" y2="3.799" transform="translate(29.231 3.91)" fill="none" stroke="#9f9f9f" stroke-linecap="round" stroke-linejoin="round" stroke-width="2"/>
    </g>
  </g>
</svg>
