<svg xmlns="http://www.w3.org/2000/svg" width="72.97" height="66.409" viewBox="0 0 72.97 66.409">
  <g id="그룹_354" data-name="그룹 354" transform="translate(-198.396 -218.286)">
    <g id="그룹_36" data-name="그룹 36" transform="translate(-1282.009)">
      <circle id="타원_55" data-name="타원 55" cx="6.952" cy="6.952" r="6.952" transform="translate(1512.17 268.484)" fill="#fff292"/>
    </g>
    <g id="그룹_67" data-name="그룹 67" transform="translate(-1282.009)">
      <circle id="타원_66" data-name="타원 66" cx="19.899" cy="19.899" r="19.899" transform="translate(1480.405 218.286)" fill="#80f6a9"/>
    </g>
    <g id="그룹_68" data-name="그룹 68" transform="translate(-1282.009)">
      <path id="패스_146" data-name="패스 146" d="M1526.187,281.554l-.768-2.9a24.556,24.556,0,1,0-12.883-.078l-.8,2.89a27.557,27.557,0,1,1,14.454.088Z" fill="#a666fb"/>
    </g>
    <g id="그룹_69" data-name="그룹 69" transform="translate(-1282.009)">
      <path id="패스_147" data-name="패스 147" d="M1492.061,262.267a7.355,7.355,0,1,1,0-14.711,1.5,1.5,0,0,1,0,3,4.355,4.355,0,1,0,0,8.711,1.5,1.5,0,0,1,0,3Z" fill="#a666fb"/>
    </g>
    <g id="그룹_70" data-name="그룹 70" transform="translate(-1282.009)">
      <path id="패스_148" data-name="패스 148" d="M1546.02,262.267a1.5,1.5,0,0,1,0-3,4.355,4.355,0,0,0,0-8.711,1.5,1.5,0,0,1,0-3,7.355,7.355,0,0,1,0,14.711Z" fill="#a666fb"/>
    </g>
    <g id="그룹_71" data-name="그룹 71" transform="translate(-1282.009)">
      <circle id="타원_67" data-name="타원 67" cx="2.301" cy="2.301" r="2.301" transform="translate(1510.074 251.939)" fill="#a666fb"/>
    </g>
    <g id="그룹_72" data-name="그룹 72" transform="translate(-1282.009)">
      <circle id="타원_68" data-name="타원 68" cx="2.301" cy="2.301" r="2.301" transform="translate(1524.58 251.939)" fill="#a666fb"/>
    </g>
    <g id="그룹_73" data-name="그룹 73" transform="translate(-1282.009)">
      <path id="패스_149" data-name="패스 149" d="M1518.47,243.107a8.943,8.943,0,0,1-7.287-3.933,5.856,5.856,0,0,1-1.232-5.145c.993-3.9,5.953-6.211,6.516-6.462a1.5,1.5,0,0,1,1.224,2.739c-1.163.523-4.3,2.346-4.834,4.467a2.955,2.955,0,0,0,.71,2.581c1.652,2.163,3.648,3.064,5.923,2.667a7.033,7.033,0,0,0,4.643-2.9c.094-.677-.129-.913-.2-.991-.185-.2-1.01-.817-3.887-.585a1.5,1.5,0,0,1-.244-2.99c3.055-.252,5.119.248,6.315,1.519a4.064,4.064,0,0,1,.978,3.52c-.283,1.977-3.227,4.412-6.3,5.213A9.289,9.289,0,0,1,1518.47,243.107Z" fill="#a666fb"/>
    </g>
    <g id="그룹_74" data-name="그룹 74" transform="translate(-1282.009)">
      <path id="패스_150" data-name="패스 150" d="M1518.969,284.7a9.259,9.259,0,1,1,9.26-9.259A9.269,9.269,0,0,1,1518.969,284.7Zm0-15.518a6.259,6.259,0,1,0,6.26,6.259A6.266,6.266,0,0,0,1518.969,269.177Z" fill="#a666fb"/>
    </g>
    <g id="그룹_75" data-name="그룹 75" transform="translate(-1282.009)">
      <path id="패스_151" data-name="패스 151" d="M1514.136,270.447a1.5,1.5,0,0,1-.741-.2,4.823,4.823,0,0,1-2.759-4.053c0-3.021,3.66-5.387,8.333-5.387s8.334,2.366,8.334,5.387a4.594,4.594,0,0,1-2.3,3.771,1.5,1.5,0,0,1-1.664-2.5c.614-.409.966-.874.966-1.275,0-.973-2.078-2.387-5.334-2.387s-5.333,1.414-5.333,2.387c0,.462.465,1,1.243,1.446a1.5,1.5,0,0,1-.743,2.8Z" fill="#a666fb"/>
    </g>
  </g>
</svg>
