<svg xmlns="http://www.w3.org/2000/svg" width="79.618" height="65.986" viewBox="0 0 79.618 65.986">
  <g id="그룹_355" data-name="그룹 355" transform="translate(-303.006 -216.644)">
    <g id="그룹_37" data-name="그룹 37" transform="translate(-1282.009)">
      <circle id="타원_56" data-name="타원 56" cx="19.899" cy="19.899" r="19.899" transform="translate(1585.015 219.12)" fill="#fff292"/>
    </g>
    <g id="그룹_76" data-name="그룹 76" transform="translate(-1282.009)">
      <path id="패스_152" data-name="패스 152" d="M1662.972,248.686l-9.312-8.557h0l-1.921-1.962c-.7-6.43-5.109-6.7-6.488-6.626l-1.125-1.149h0l-7.04-11.9-9.58,11.168,8.516,2.436,1.718.341,11.122,13.937-.03,1.686,6.7,4.694Z" fill="#80f6a9"/>
    </g>
    <g id="그룹_77" data-name="그룹 77" transform="translate(-1282.009)">
      <path id="패스_153" data-name="패스 153" d="M1596.671,263.1a7.356,7.356,0,1,1,0-14.711,1.5,1.5,0,0,1,0,3,4.356,4.356,0,1,0,0,8.711,1.5,1.5,0,0,1,0,3Z" fill="#a666fb"/>
    </g>
    <g id="그룹_78" data-name="그룹 78" transform="translate(-1282.009)">
      <path id="패스_154" data-name="패스 154" d="M1650.63,263.1a1.5,1.5,0,0,1,0-3,4.356,4.356,0,0,0,0-8.711,1.5,1.5,0,0,1,0-3,7.356,7.356,0,0,1,0,14.711Z" fill="#a666fb"/>
    </g>
    <g id="그룹_79" data-name="그룹 79" transform="translate(-1282.009)">
      <circle id="타원_69" data-name="타원 69" cx="2.301" cy="2.301" r="2.301" transform="translate(1614.684 252.772)" fill="#a666fb"/>
    </g>
    <g id="그룹_80" data-name="그룹 80" transform="translate(-1282.009)">
      <circle id="타원_70" data-name="타원 70" cx="2.301" cy="2.301" r="2.301" transform="translate(1629.19 252.772)" fill="#a666fb"/>
    </g>
    <g id="그룹_81" data-name="그룹 81" transform="translate(-1282.009)">
      <path id="패스_155" data-name="패스 155" d="M1623.732,282.63a27.557,27.557,0,1,1,27.557-27.556A27.587,27.587,0,0,1,1623.732,282.63Zm0-52.113a24.557,24.557,0,1,0,24.557,24.557A24.584,24.584,0,0,0,1623.732,230.517Z" fill="#a666fb"/>
    </g>
    <g id="그룹_82" data-name="그룹 82" transform="translate(-1282.009)">
      <path id="패스_156" data-name="패스 156" d="M1624.953,244.6a6.777,6.777,0,0,1-3.192-.847c-3.73-1.987-5.11-5.8-3.693-10.189,1.037-3.215,3.518-6.348,5.866-6.032a1.5,1.5,0,0,1-.307,2.982c-.739.24-2.678,2.583-3.044,5.476a4.671,4.671,0,0,0,2.588,5.116,3.014,3.014,0,0,0,3.494-.11,5.578,5.578,0,0,0,1.8-5.259,1.5,1.5,0,0,1,2.92-.693,8.594,8.594,0,0,1-2.89,8.327A5.729,5.729,0,0,1,1624.953,244.6Zm-1.291-14.1" fill="#a666fb"/>
    </g>
    <g id="그룹_83" data-name="그룹 83" transform="translate(-1282.009)">
      <path id="패스_157" data-name="패스 157" d="M1624.966,271.157c-4.808,0-8.456-3.914-8.612-4.083a1.5,1.5,0,0,1,2.209-2.032c.044.05,3.059,3.2,6.555,3.113,1.917-.05,3.727-1.078,5.378-3.057a1.5,1.5,0,0,1,2.3,1.923c-2.235,2.677-4.8,4.067-7.626,4.134Z" fill="#a666fb"/>
    </g>
    <g id="그룹_84" data-name="그룹 84" transform="translate(-1282.009)">
      <path id="패스_158" data-name="패스 158" d="M1642.271,237.686a1.5,1.5,0,0,1-1.313-2.223l2.306-4.2-6.242-10.554-8.215,9.579a1.5,1.5,0,0,1-2.278-1.953l9.579-11.169a1.5,1.5,0,0,1,2.43.213l7.743,13.093a1.5,1.5,0,0,1,.024,1.486l-2.718,4.948A1.5,1.5,0,0,1,1642.271,237.686Z" fill="#a666fb"/>
    </g>
    <g id="그룹_85" data-name="그룹 85" transform="translate(-1282.009)">
      <path id="패스_159" data-name="패스 159" d="M1655.693,253.907a1.5,1.5,0,0,1-.719-2.817l5.6-3.06-9.028-8.3-4.587,1.385a1.5,1.5,0,0,1-.867-2.872l5.405-1.632a1.5,1.5,0,0,1,1.448.331l11.2,10.292a1.5,1.5,0,0,1-.295,2.421l-7.441,4.064A1.5,1.5,0,0,1,1655.693,253.907Z" fill="#a666fb"/>
    </g>
    <g id="그룹_86" data-name="그룹 86" transform="translate(-1282.009)">
      <path id="패스_160" data-name="패스 160" d="M1651.931,239.551a1.5,1.5,0,0,1-1.492-1.362c-.2-2.193-.881-3.753-2.015-4.637a4.557,4.557,0,0,0-3.189-.835,1.514,1.514,0,0,1-1.718-1.237,1.5,1.5,0,0,1,1.215-1.721,7.58,7.58,0,0,1,5.488,1.39c1.843,1.41,2.922,3.685,3.206,6.764a1.5,1.5,0,0,1-1.356,1.631A1.3,1.3,0,0,1,1651.931,239.551Z" fill="#a666fb"/>
    </g>
  </g>
</svg>
