<svg xmlns="http://www.w3.org/2000/svg" xmlns:xlink="http://www.w3.org/1999/xlink" width="42.478" height="43.164" viewBox="0 0 42.478 43.164">
  <defs>
    <clipPath id="clip-path">
      <rect id="사각형_6466" data-name="사각형 6466" width="42.478" height="43.164" transform="translate(-2 -2)" fill="none"/>
    </clipPath>
  </defs>
  <g id="출석_아이콘" data-name="출석 아이콘" transform="translate(2 2)">
    <g id="그룹_398" data-name="그룹 398" clip-path="url(#clip-path)">
      <path id="패스_19" data-name="패스 19" d="M36.044,38.664H2.433A1.938,1.938,0,0,1,.5,36.731V9.8A1.938,1.938,0,0,1,2.433,7.868H36.044A1.939,1.939,0,0,1,37.977,9.8V36.731a1.939,1.939,0,0,1-1.933,1.933" fill="#9f9f9f" stroke="#9f9f9f" stroke-width="1"/>
      <path id="사각형_6465" data-name="사각형 6465" d="M1.933,0H35.545a1.933,1.933,0,0,1,1.933,1.933V28.862A1.934,1.934,0,0,1,35.544,30.8H1.934A1.934,1.934,0,0,1,0,28.862V1.933A1.933,1.933,0,0,1,1.933,0Z" transform="translate(0.5 7.868)" fill="none" stroke="#9f9f9f" stroke-width="1"/>
      <path id="패스_20" data-name="패스 20" d="M36.552,37.124H3.96a.841.841,0,0,1-.852-.824V20.18a.841.841,0,0,1,.852-.824H36.552a.841.841,0,0,1,.851.824V36.3a.841.841,0,0,1-.851.824" transform="translate(-1.094)" fill="#fff"/>
      <path id="패스_21" data-name="패스 21" d="M11,12.162h0A2.607,2.607,0,0,1,8.4,9.555V3.607a2.607,2.607,0,1,1,5.214,0V9.555A2.607,2.607,0,0,1,11,12.162" fill="#fff" stroke="#9f9f9f" stroke-width="1"/>
      <path id="패스_22" data-name="패스 22" d="M11,12.162h0A2.607,2.607,0,0,1,8.4,9.555V3.607a2.607,2.607,0,1,1,5.214,0V9.555A2.607,2.607,0,0,1,11,12.162Z" fill="none" stroke="#9f9f9f" stroke-width="2"/>
      <path id="패스_23" data-name="패스 23" d="M27.473,12.162h0a2.607,2.607,0,0,1-2.607-2.607V3.607a2.607,2.607,0,0,1,5.214,0V9.555a2.607,2.607,0,0,1-2.607,2.607" fill="#fff" stroke="#9f9f9f" stroke-width="1"/>
      <path id="패스_24" data-name="패스 24" d="M27.473,12.162h0a2.607,2.607,0,0,1-2.607-2.607V3.607a2.607,2.607,0,0,1,5.214,0V9.555A2.607,2.607,0,0,1,27.473,12.162Z" fill="none" stroke="#9f9f9f" stroke-width="2"/>
      <path id="패스_25" data-name="패스 25" d="M13.784,27.427l4.957,5.2,6.891-9.36" fill="none" stroke="#9f9f9f" stroke-linecap="round" stroke-linejoin="round" stroke-width="2"/>
    </g>
  </g>
</svg>
