<svg xmlns="http://www.w3.org/2000/svg" width="72.97" height="65.823" viewBox="0 0 72.97 65.823">
  <g id="그룹_357" data-name="그룹 357" transform="translate(-196.932 -320.615)">
    <g id="그룹_39" data-name="그룹 39" transform="translate(-1282.009)">
      <circle id="타원_58" data-name="타원 58" cx="19.899" cy="19.899" r="19.899" transform="translate(1478.941 320.836)" fill="#fff292"/>
    </g>
    <g id="그룹_99" data-name="그룹 99" transform="translate(-1282.009)">
      <path id="패스_170" data-name="패스 170" d="M1526.97,332.64s-4.036,5.231-2.346,9.454a28.712,28.712,0,0,0,15.673,15.368c8.992,3.439-1.9-15.7-3.445-17.3S1526.97,332.64,1526.97,332.64Z" fill="#80f6a9"/>
    </g>
    <g id="그룹_100" data-name="그룹 100" transform="translate(-1282.009)">
      <path id="패스_171" data-name="패스 171" d="M1490.6,364.817a7.355,7.355,0,1,1,0-14.711,1.5,1.5,0,0,1,0,3,4.355,4.355,0,1,0,0,8.711,1.5,1.5,0,0,1,0,3Z" fill="#a666fb"/>
    </g>
    <g id="그룹_101" data-name="그룹 101" transform="translate(-1282.009)">
      <path id="패스_172" data-name="패스 172" d="M1544.556,364.817a1.5,1.5,0,0,1,0-3,4.355,4.355,0,0,0,0-8.711,1.5,1.5,0,0,1,0-3,7.355,7.355,0,0,1,0,14.711Z" fill="#a666fb"/>
    </g>
    <g id="그룹_102" data-name="그룹 102" transform="translate(-1282.009)">
      <circle id="타원_74" data-name="타원 74" cx="2.301" cy="2.301" r="2.301" transform="translate(1508.61 353.907)" fill="#a666fb"/>
    </g>
    <g id="그룹_103" data-name="그룹 103" transform="translate(-1282.009)">
      <circle id="타원_75" data-name="타원 75" cx="2.301" cy="2.301" r="2.301" transform="translate(1523.116 353.907)" fill="#a666fb"/>
    </g>
    <g id="그룹_104" data-name="그룹 104" transform="translate(-1282.009)">
      <path id="패스_173" data-name="패스 173" d="M1517.576,386.438c-15.194,0-27.556-12.68-27.556-28.267s12.362-28.266,27.556-28.266,27.557,12.68,27.557,28.266S1532.771,386.438,1517.576,386.438Zm0-53.533c-13.541,0-24.556,11.334-24.556,25.266s11.015,25.267,24.556,25.267,24.557-11.334,24.557-25.267S1531.117,332.9,1517.576,332.9Z" fill="#a666fb"/>
    </g>
    <g id="그룹_105" data-name="그룹 105" transform="translate(-1282.009)">
      <path id="패스_174" data-name="패스 174" d="M1518.039,375.821a16.186,16.186,0,0,1-10.193-3.968,1.5,1.5,0,0,1,1.985-2.249h0c.332.291,8.232,7.057,15.437.05a1.5,1.5,0,1,1,2.091,2.151A13.085,13.085,0,0,1,1518.039,375.821Z" fill="#a666fb"/>
    </g>
    <g id="그룹_106" data-name="그룹 106" transform="translate(-1282.009)">
      <path id="패스_175" data-name="패스 175" d="M1516.842,364.853a1.5,1.5,0,0,1-.777-2.784,3.764,3.764,0,0,1,4.4.142,1.5,1.5,0,0,1-1.906,2.317c-.114-.076-.424-.207-.947.109A1.486,1.486,0,0,1,1516.842,364.853Z" fill="#a666fb"/>
    </g>
    <g id="그룹_107" data-name="그룹 107" transform="translate(-1282.009)">
      <path id="패스_176" data-name="패스 176" d="M1543.633,359.672a1.522,1.522,0,0,1-.449-.069c-.206-.065-17.8-5.764-19.687-19.818-11.328,18.078-31.617,15.64-31.843,15.609a1.5,1.5,0,1,1,.395-2.974c.923.12,22.821,2.677,31.975-20.335l2.852.908c-1.695,7,.609,13.088,6.851,18.1a36.173,36.173,0,0,0,10.356,5.649,1.5,1.5,0,0,1-.45,2.931Z" fill="#a666fb"/>
    </g>
    <g id="그룹_108" data-name="그룹 108" transform="translate(-1282.009)">
      <path id="패스_177" data-name="패스 177" d="M1496.681,342.194a1.5,1.5,0,0,1-1.448-1.11l-3.83-14.207a1.5,1.5,0,0,1,1.545-1.887l15.18.98a1.5,1.5,0,0,1,1.241.818l2,3.938a1.5,1.5,0,0,1-2.676,1.358l-1.612-3.175-12.236-.79,3.285,12.184a1.5,1.5,0,0,1-1.449,1.891Z" fill="#a666fb"/>
    </g>
    <g id="그룹_109" data-name="그룹 109" transform="translate(-1282.009)">
      <path id="패스_178" data-name="패스 178" d="M1531.085,336.777c-.05,0-.1,0-.149-.007a1.5,1.5,0,0,1-1.346-1.641l1.1-11.077-11.94,2.785-1.44,4.569a1.5,1.5,0,0,1-2.862-.9l1.7-5.384a1.5,1.5,0,0,1,1.089-1.011l14.813-3.454a1.5,1.5,0,0,1,1.834,1.608l-1.3,13.161A1.5,1.5,0,0,1,1531.085,336.777Z" fill="#a666fb"/>
    </g>
    <g id="그룹_110" data-name="그룹 110" transform="translate(-1282.009)">
      <path id="패스_179" data-name="패스 179" d="M1508.029,328.96a1.473,1.473,0,0,1-.627-.139,1.494,1.494,0,0,1-.737-1.974,7.576,7.576,0,0,1,4.239-3.75c2.2-.73,4.693-.337,7.4,1.161a1.5,1.5,0,0,1-1.455,2.624c-1.926-1.069-3.594-1.386-4.967-.947a4.558,4.558,0,0,0-2.486,2.163A1.51,1.51,0,0,1,1508.029,328.96Z" fill="#a666fb"/>
    </g>
  </g>
</svg>
