<svg xmlns="http://www.w3.org/2000/svg" xmlns:xlink="http://www.w3.org/1999/xlink" width="32.769" height="34.848" viewBox="0 0 32.769 34.848">
  <defs>
    <clipPath id="clip-path">
      <rect id="사각형_8035" data-name="사각형 8035" width="32.769" height="34.848" fill="none"/>
    </clipPath>
  </defs>
  <g id="식사량_조금" data-name="식사량 조금" transform="translate(0 0)">
    <g id="그룹_822" data-name="그룹 822" transform="translate(0 0)" clip-path="url(#clip-path)">
      <path id="패스_941" data-name="패스 941" d="M5.993,18.539l-.608.19a.455.455,0,0,1-.569-.3L.02,3.059a.454.454,0,0,1,.3-.569L.926,2.3a.454.454,0,0,1,.569.3l4.8,15.371a.454.454,0,0,1-.3.569" transform="translate(0 -0.681)" fill="#a666fb"/>
      <path id="패스_942" data-name="패스 942" d="M10.149,16.259l-.608.19a.455.455,0,0,1-.569-.3L4.176.779a.454.454,0,0,1,.3-.569L5.082.02a.454.454,0,0,1,.569.3l4.8,15.371a.454.454,0,0,1-.3.569" transform="translate(-1.242 0)" fill="#a666fb"/>
      <path id="패스_943" data-name="패스 943" d="M36.5,18.367a1.705,1.705,0,0,0-1.628-1.773,1.529,1.529,0,0,0-.928.318,1.833,1.833,0,0,0,.018-.2,1.7,1.7,0,0,0-1.628-1.773,1.562,1.562,0,0,0-1.163.534,3.453,3.453,0,0,0-2.461-1.055,3.367,3.367,0,0,0-.8.1,1.66,1.66,0,0,0-1.577-1.35,1.705,1.705,0,0,0-1.628,1.773,1.894,1.894,0,0,0,.048.407c-.016,0-.032,0-.048,0a1.7,1.7,0,0,0-1.628,1.773,1.875,1.875,0,0,0,.257.948,1.482,1.482,0,0,0-.257-.029,1.7,1.7,0,0,0-1.628,1.773c0,.011,0,.022,0,.032a1.736,1.736,0,0,0-1.335,1.74,1.634,1.634,0,1,0,3.257,0c0-.011,0-.021,0-.032.038-.008.074-.019.111-.029A3.759,3.759,0,0,0,27.1,25.108a3.5,3.5,0,0,0,2.747-1.376,3.557,3.557,0,0,0,3.036,1.8A3.8,3.8,0,0,0,36.5,21.582a4.2,4.2,0,0,0-.481-1.958,1.843,1.843,0,0,0,.481-1.257" transform="translate(-6.013 -3.935)" fill="#fff"/>
      <path id="패스_944" data-name="패스 944" d="M36.5,18.367a1.705,1.705,0,0,0-1.628-1.773,1.529,1.529,0,0,0-.928.318,1.833,1.833,0,0,0,.018-.2,1.7,1.7,0,0,0-1.628-1.773,1.562,1.562,0,0,0-1.163.534,3.453,3.453,0,0,0-2.461-1.055,3.367,3.367,0,0,0-.8.1,1.66,1.66,0,0,0-1.577-1.35,1.705,1.705,0,0,0-1.628,1.773,1.894,1.894,0,0,0,.048.407c-.016,0-.032,0-.048,0a1.7,1.7,0,0,0-1.628,1.773,1.875,1.875,0,0,0,.257.948,1.482,1.482,0,0,0-.257-.029,1.7,1.7,0,0,0-1.628,1.773c0,.011,0,.022,0,.032a1.736,1.736,0,0,0-1.335,1.74,1.634,1.634,0,1,0,3.257,0c0-.011,0-.021,0-.032.038-.008.074-.019.111-.029A3.759,3.759,0,0,0,27.1,25.108a3.5,3.5,0,0,0,2.747-1.376,3.557,3.557,0,0,0,3.036,1.8A3.8,3.8,0,0,0,36.5,21.582a4.2,4.2,0,0,0-.481-1.958A1.843,1.843,0,0,0,36.5,18.367Z" transform="translate(-6.013 -3.935)" fill="none" stroke="#a666fb" stroke-linecap="round" stroke-linejoin="round" stroke-width="1"/>
      <path id="패스_945" data-name="패스 945" d="M18.826,38.569c8.172,0,14.8-7.361,14.8-16.44H4.03c0,9.079,6.625,16.44,14.8,16.44" transform="translate(-1.204 -6.612)" fill="#fff"/>
      <path id="패스_946" data-name="패스 946" d="M18.826,38.569c8.172,0,14.8-7.361,14.8-16.44H4.03C4.03,31.208,10.655,38.569,18.826,38.569Z" transform="translate(-1.204 -6.612)" fill="none" stroke="#a666fb" stroke-linecap="round" stroke-linejoin="round" stroke-width="1"/>
      <rect id="사각형_8033" data-name="사각형 8033" width="11.471" height="3.795" transform="translate(11.944 30.702)" fill="#fff"/>
      <rect id="사각형_8034" data-name="사각형 8034" width="11.471" height="3.795" transform="translate(11.944 30.702)" fill="none" stroke="#a666fb" stroke-linecap="round" stroke-linejoin="round" stroke-width="1"/>
      <path id="패스_947" data-name="패스 947" d="M27.7,20.361a1.588,1.588,0,0,1,2,0" transform="translate(-8.278 -5.972)" fill="none" stroke="#a666fb" stroke-linecap="round" stroke-linejoin="round" stroke-width="1"/>
      <path id="패스_948" data-name="패스 948" d="M33.394,19.283a1.565,1.565,0,0,1,2.541,0" transform="translate(-9.979 -5.561)" fill="none" stroke="#a666fb" stroke-linecap="round" stroke-linejoin="round" stroke-width="1"/>
    </g>
  </g>
</svg>
