<svg xmlns="http://www.w3.org/2000/svg" xmlns:xlink="http://www.w3.org/1999/xlink" width="33.372" height="52.496" viewBox="0 0 33.372 52.496">
  <defs>
    <clipPath id="clip-path">
      <rect id="사각형_6467" data-name="사각형 6467" width="33.372" height="52.496" transform="translate(-2 -3)" fill="none"/>
    </clipPath>
  </defs>
  <g id="체온_신장_체중_아이콘" data-name="체온/신장/체중 아이콘" transform="translate(2 3)">
    <g id="그룹_400" data-name="그룹 400" transform="translate(0 0)" clip-path="url(#clip-path)">
      <path id="패스_26" data-name="패스 26" d="M12.917,45.157A11.93,11.93,0,0,1,1,33.24,11.8,11.8,0,0,1,7.907,22.457V6.01a5.01,5.01,0,1,1,10.02,0V22.457A11.8,11.8,0,0,1,24.833,33.24,11.93,11.93,0,0,1,12.917,45.157" transform="translate(0.169 0.17)" fill="#fff"/>
      <path id="패스_27" data-name="패스 27" d="M13.086,2.339a3.852,3.852,0,0,1,3.84,3.84V23.128c0,.09-.02.175-.027.264a10.747,10.747,0,1,1-7.627,0c-.007-.089-.027-.174-.027-.264V6.179a3.852,3.852,0,0,1,3.84-3.84m0-2.339A6.186,6.186,0,0,0,6.907,6.179V21.9A12.952,12.952,0,0,0,0,33.41a13.086,13.086,0,0,0,26.172,0A12.952,12.952,0,0,0,19.265,21.9V6.179A6.186,6.186,0,0,0,13.086,0" transform="translate(0 0)" fill="#a666fc"/>
      <path id="패스_28" data-name="패스 28" d="M18.941,29.769A6.77,6.77,0,1,1,12.171,23a6.77,6.77,0,0,1,6.77,6.77" transform="translate(0.915 3.897)" fill="#a666fc"/>
      <path id="패스_29" data-name="패스 29" d="M25.681,17.255a1.949,1.949,0,1,1-1.949-1.949,1.949,1.949,0,0,1,1.949,1.949" transform="translate(3.691 2.594)" fill="#a666fc"/>
      <line id="선_66" data-name="선 66" y2="18.46" transform="translate(13.086 15.207)" fill="none" stroke="#a666fc" stroke-linecap="round" stroke-width="3"/>
    </g>
  </g>
</svg>
