<svg xmlns="http://www.w3.org/2000/svg" xmlns:xlink="http://www.w3.org/1999/xlink" width="46.32" height="45.427" viewBox="0 0 46.32 45.427">
  <defs>
    <clipPath id="clip-path">
      <rect id="사각형_6470" data-name="사각형 6470" width="46.32" height="45.427" fill="none"/>
    </clipPath>
  </defs>
  <g id="낮잠_아이콘" data-name="낮잠 아이콘" transform="translate(0 0)">
    <g id="그룹_406" data-name="그룹 406" transform="translate(0 0)" clip-path="url(#clip-path)">
      <path id="패스_44" data-name="패스 44" d="M34.911,30.6A20.847,20.847,0,0,1,15.156,2.991,20.875,20.875,0,1,0,41.639,29.474,20.847,20.847,0,0,1,34.911,30.6" transform="translate(0.2 0.598)" fill="#fff"/>
      <path id="패스_45" data-name="패스 45" d="M34.911,30.6A20.847,20.847,0,0,1,15.156,2.991,20.875,20.875,0,1,0,41.639,29.474,20.847,20.847,0,0,1,34.911,30.6Z" transform="translate(0.2 0.598)" fill="none" stroke="#9e9e9e" stroke-linejoin="round" stroke-width="2"/>
      <path id="패스_46" data-name="패스 46" d="M23.966,15.075a.68.68,0,0,1,.425.3.561.561,0,0,1,.079.41.574.574,0,0,1-.238.346.671.671,0,0,1-.511.1,16.059,16.059,0,0,0-2.4-.136q-1.2.02-2.4.092a.641.641,0,0,1-.547-.338.684.684,0,0,1,.072-.641,19.492,19.492,0,0,1,1.722-2.218q.943-1.053,1.894-2.089c-.539,0-1.069.008-1.592.029s-1.055.052-1.592.1a.712.712,0,0,1-.432-.179.557.557,0,0,1-.181-.332.572.572,0,0,1,.095-.367.73.73,0,0,1,.374-.288q1.18-.115,2.362-.137t2.378.007a.646.646,0,0,1,.482.425.627.627,0,0,1-.166.612q-.95,1.024-1.916,2.038a24.961,24.961,0,0,0-1.815,2.14q.993-.029,1.959-.014a16.722,16.722,0,0,1,1.945.144" transform="translate(3.647 1.94)" fill="#fff"/>
      <path id="패스_47" data-name="패스 47" d="M23.966,15.075a.68.68,0,0,1,.425.3.561.561,0,0,1,.079.41.574.574,0,0,1-.238.346.671.671,0,0,1-.511.1,16.059,16.059,0,0,0-2.4-.136q-1.2.02-2.4.092a.641.641,0,0,1-.547-.338.684.684,0,0,1,.072-.641,19.492,19.492,0,0,1,1.722-2.218q.943-1.053,1.894-2.089c-.539,0-1.069.008-1.592.029s-1.055.052-1.592.1a.712.712,0,0,1-.432-.179.557.557,0,0,1-.181-.332.572.572,0,0,1,.095-.367.73.73,0,0,1,.374-.288q1.18-.115,2.362-.137t2.378.007a.646.646,0,0,1,.482.425.627.627,0,0,1-.166.612q-.95,1.024-1.916,2.038a24.961,24.961,0,0,0-1.815,2.14q.993-.029,1.959-.014A16.722,16.722,0,0,1,23.966,15.075Z" transform="translate(3.647 1.94)" fill="none" stroke="#fff" stroke-width="1"/>
      <path id="패스_48" data-name="패스 48" d="M36.156,17.208a.68.68,0,0,1,.425.3.561.561,0,0,1,.079.41.574.574,0,0,1-.238.346.671.671,0,0,1-.511.1,16.059,16.059,0,0,0-2.4-.136q-1.2.02-2.4.092a.641.641,0,0,1-.547-.338.684.684,0,0,1,.072-.641A19.492,19.492,0,0,1,32.36,15.12q.943-1.053,1.894-2.089c-.539,0-1.069.008-1.592.029s-1.055.052-1.592.1a.712.712,0,0,1-.432-.179.557.557,0,0,1-.181-.332.572.572,0,0,1,.095-.367.73.73,0,0,1,.374-.288q1.18-.115,2.362-.137t2.378.007a.646.646,0,0,1,.482.425.627.627,0,0,1-.166.612q-.95,1.024-1.916,2.038a24.961,24.961,0,0,0-1.815,2.14q.993-.029,1.959-.014a16.722,16.722,0,0,1,1.945.144" transform="translate(6.081 2.366)" fill="#fff"/>
      <path id="패스_49" data-name="패스 49" d="M36.156,17.208a.68.68,0,0,1,.425.3.561.561,0,0,1,.079.41.574.574,0,0,1-.238.346.671.671,0,0,1-.511.1,16.059,16.059,0,0,0-2.4-.136q-1.2.02-2.4.092a.641.641,0,0,1-.547-.338.684.684,0,0,1,.072-.641A19.492,19.492,0,0,1,32.36,15.12q.943-1.053,1.894-2.089c-.539,0-1.069.008-1.592.029s-1.055.052-1.592.1a.712.712,0,0,1-.432-.179.557.557,0,0,1-.181-.332.572.572,0,0,1,.095-.367.73.73,0,0,1,.374-.288q1.18-.115,2.362-.137t2.378.007a.646.646,0,0,1,.482.425.627.627,0,0,1-.166.612q-.95,1.024-1.916,2.038a24.961,24.961,0,0,0-1.815,2.14q.993-.029,1.959-.014A16.722,16.722,0,0,1,36.156,17.208Z" transform="translate(6.081 2.366)" fill="none" stroke="#fff" stroke-width="1"/>
      <path id="패스_50" data-name="패스 50" d="M38.629,5.861a.68.68,0,0,1,.425.3.561.561,0,0,1,.079.41.574.574,0,0,1-.238.346.671.671,0,0,1-.511.1,16.059,16.059,0,0,0-2.4-.136q-1.2.02-2.4.092a.641.641,0,0,1-.547-.338.684.684,0,0,1,.072-.641,19.493,19.493,0,0,1,1.722-2.218q.943-1.053,1.894-2.089c-.539,0-1.069.008-1.592.029s-1.055.052-1.592.1a.712.712,0,0,1-.432-.179A.557.557,0,0,1,32.93,1.3a.572.572,0,0,1,.095-.367A.73.73,0,0,1,33.4.646Q34.58.531,35.762.51T38.14.517a.646.646,0,0,1,.482.425.627.627,0,0,1-.166.612q-.95,1.024-1.916,2.038a24.961,24.961,0,0,0-1.815,2.14q.993-.029,1.959-.014a16.722,16.722,0,0,1,1.945.144" transform="translate(6.575 0.1)" fill="#fff"/>
      <path id="패스_51" data-name="패스 51" d="M38.629,5.861a.68.68,0,0,1,.425.3.561.561,0,0,1,.079.41.574.574,0,0,1-.238.346.671.671,0,0,1-.511.1,16.059,16.059,0,0,0-2.4-.136q-1.2.02-2.4.092a.641.641,0,0,1-.547-.338.684.684,0,0,1,.072-.641,19.493,19.493,0,0,1,1.722-2.218q.943-1.053,1.894-2.089c-.539,0-1.069.008-1.592.029s-1.055.052-1.592.1a.712.712,0,0,1-.432-.179A.557.557,0,0,1,32.93,1.3a.572.572,0,0,1,.095-.367A.73.73,0,0,1,33.4.646Q34.58.531,35.762.51T38.14.517a.646.646,0,0,1,.482.425.627.627,0,0,1-.166.612q-.95,1.024-1.916,2.038a24.961,24.961,0,0,0-1.815,2.14q.993-.029,1.959-.014A16.722,16.722,0,0,1,38.629,5.861Z" transform="translate(6.575 0.1)" fill="none" stroke="#fff" stroke-width="1"/>
    </g>
  </g>
</svg>
