<svg xmlns="http://www.w3.org/2000/svg" width="72.971" height="68.666" viewBox="0 0 72.971 68.666">
  <g id="그룹_356" data-name="그룹 356" transform="translate(-423.434 -215.222)">
    <g id="그룹_38" data-name="그룹 38" transform="translate(-1282.009)">
      <circle id="타원_57" data-name="타원 57" cx="10.822" cy="10.822" r="10.822" transform="translate(1749.618 259.67)" fill="#fff292"/>
    </g>
    <g id="그룹_87" data-name="그룹 87" transform="translate(-1282.009)">
      <circle id="타원_71" data-name="타원 71" cx="19.899" cy="19.899" r="19.899" transform="translate(1705.443 218.286)" fill="#80f6a9"/>
    </g>
    <g id="그룹_88" data-name="그룹 88" transform="translate(-1282.009)">
      <path id="패스_161" data-name="패스 161" d="M1717.1,262.267a7.355,7.355,0,1,1,0-14.711,1.5,1.5,0,0,1,0,3,4.355,4.355,0,1,0,0,8.711,1.5,1.5,0,0,1,0,3Z" fill="#a666fb"/>
    </g>
    <g id="그룹_89" data-name="그룹 89" transform="translate(-1282.009)">
      <path id="패스_162" data-name="패스 162" d="M1771.058,262.267a1.5,1.5,0,0,1,0-3,4.355,4.355,0,1,0,0-8.711,1.5,1.5,0,0,1,0-3,7.355,7.355,0,1,1,0,14.711Z" fill="#a666fb"/>
    </g>
    <g id="그룹_90" data-name="그룹 90" transform="translate(-1282.009)">
      <circle id="타원_72" data-name="타원 72" cx="2.301" cy="2.301" r="2.301" transform="translate(1735.112 249.637)" fill="#a666fb"/>
    </g>
    <g id="그룹_91" data-name="그룹 91" transform="translate(-1282.009)">
      <circle id="타원_73" data-name="타원 73" cx="2.301" cy="2.301" r="2.301" transform="translate(1749.618 249.637)" fill="#a666fb"/>
    </g>
    <g id="그룹_92" data-name="그룹 92" transform="translate(-1282.009)">
      <path id="패스_163" data-name="패스 163" d="M1744.079,283.888c-15.194,0-27.557-12.68-27.557-28.266s12.363-28.267,27.557-28.267,27.557,12.68,27.557,28.267S1759.273,283.888,1744.079,283.888Zm0-53.533c-13.541,0-24.557,11.334-24.557,25.267s11.016,25.266,24.557,25.266,24.557-11.334,24.557-25.266S1757.62,230.355,1744.079,230.355Z" fill="#a666fb"/>
    </g>
    <g id="그룹_93" data-name="그룹 93" transform="translate(-1282.009)">
      <path id="패스_164" data-name="패스 164" d="M1744.541,270.97A16.192,16.192,0,0,1,1734.348,267a1.5,1.5,0,0,1,1.985-2.25h0c.332.292,8.232,7.057,15.437.051a1.5,1.5,0,1,1,2.091,2.151A13.085,13.085,0,0,1,1744.541,270.97Z" fill="#a666fb"/>
    </g>
    <g id="그룹_94" data-name="그룹 94" transform="translate(-1282.009)">
      <path id="패스_165" data-name="패스 165" d="M1744.027,230.354a2.124,2.124,0,0,1-.308-.021,1.5,1.5,0,0,1,.2-2.986h.055c.659-.29,2.264-2.364,2.475-4.749a3.754,3.754,0,0,0-2.142-3.974,2.378,2.378,0,0,0-2.783.076,4.57,4.57,0,0,0-1.476,4.314,1.5,1.5,0,0,1-2.92.692,7.617,7.617,0,0,1,2.564-7.382,5.374,5.374,0,0,1,6.025-.348c3.307,1.762,4.533,5.134,3.279,9.02C1748.12,227.709,1746.063,230.354,1744.027,230.354Z" fill="#a666fb"/>
    </g>
    <g id="그룹_95" data-name="그룹 95" transform="translate(-1282.009)">
      <path id="패스_166" data-name="패스 166" d="M1768.053,238.984a1.5,1.5,0,0,1-.324-2.965,4.575,4.575,0,0,0,3.239-3.209,2.376,2.376,0,0,0-1.144-2.538,3.754,3.754,0,0,0-4.511-.2c-2.054,1.23-3.221,3.578-3.2,4.3a1.5,1.5,0,0,1-2.576,1.53c-1.188-1.793.34-5.006,2.5-7.075,2.951-2.823,6.519-3.188,9.547-.98a5.374,5.374,0,0,1,2.313,5.574,7.617,7.617,0,0,1-5.527,5.525A1.506,1.506,0,0,1,1768.053,238.984Zm-5.931-4.557Z" fill="#a666fb"/>
    </g>
    <g id="그룹_96" data-name="그룹 96" transform="translate(-1282.009)">
      <path id="패스_167" data-name="패스 167" d="M1733,232.868a1.5,1.5,0,0,1-.9-2.7c.331-.64.28-3.261-1.051-5.252a3.754,3.754,0,0,0-4.162-1.75,2.374,2.374,0,0,0-2.12,1.8,4.576,4.576,0,0,0,1.556,4.286,1.5,1.5,0,1,1-1.838,2.37,7.612,7.612,0,0,1-2.635-7.356,5.375,5.375,0,0,1,4.474-4.052c3.681-.7,6.75,1.155,8.212,4.968,1.071,2.8,1.08,6.354-.762,7.466A1.485,1.485,0,0,1,1733,232.868Zm-.927-2.655Z" fill="#a666fb"/>
    </g>
    <g id="그룹_97" data-name="그룹 97" transform="translate(-1282.009)">
      <path id="패스_168" data-name="패스 168" d="M1715.357,244.471a1.553,1.553,0,0,1-.3-.031,7.614,7.614,0,0,1-5.619-5.43,5.373,5.373,0,0,1,2.218-5.613c2.99-2.26,6.564-1.952,9.561.818,2.2,2.033,3.783,5.219,2.624,7.033a1.5,1.5,0,0,1-2.6-1.487c.014-.72-1.192-3.048-3.267-4.243a3.752,3.752,0,0,0-4.507.273,2.376,2.376,0,0,0-1.1,2.556,4.572,4.572,0,0,0,3.293,3.153,1.5,1.5,0,0,1-.3,2.971Z" fill="#a666fb"/>
    </g>
    <g id="그룹_98" data-name="그룹 98" transform="translate(-1282.009)">
      <path id="패스_169" data-name="패스 169" d="M1744.456,261.382a3.563,3.563,0,0,1-2.248-.778,1.5,1.5,0,0,1,1.906-2.317c.115.077.425.208.947-.109a1.5,1.5,0,1,1,1.55,2.568A4.139,4.139,0,0,1,1744.456,261.382Z" fill="#a666fb"/>
    </g>
  </g>
</svg>
