<svg xmlns="http://www.w3.org/2000/svg" xmlns:xlink="http://www.w3.org/1999/xlink" width="52" height="52" viewBox="0 0 52 52">
  <defs>
    <filter id="사각형_8513" x="0" y="0" width="52" height="52" filterUnits="userSpaceOnUse">
      <feOffset dx="1" dy="1" input="SourceAlpha"/>
      <feGaussianBlur stdDeviation="3" result="blur"/>
      <feFlood flood-color="#505050" flood-opacity="0.161"/>
      <feComposite operator="in" in2="blur"/>
      <feComposite in="SourceGraphic"/>
    </filter>
    <filter id="사각형_8513-2" x="0" y="0" width="52" height="52" filterUnits="userSpaceOnUse">
      <feOffset dx="2" dy="2" input="SourceAlpha"/>
      <feGaussianBlur stdDeviation="1.5" result="blur-2"/>
      <feFlood flood-color="#fff" flood-opacity="0.161" result="color"/>
      <feComposite operator="out" in="SourceGraphic" in2="blur-2"/>
      <feComposite operator="in" in="color"/>
      <feComposite operator="in" in2="SourceGraphic"/>
    </filter>
    <clipPath id="clip-path">
      <rect id="사각형_8387" data-name="사각형 8387" width="25.824" height="23.648" fill="none"/>
    </clipPath>
  </defs>
  <g id="촬영_아이콘" data-name="촬영 아이콘" transform="translate(-641 -350)">
    <g data-type="innerShadowGroup">
      <g transform="matrix(1, 0, 0, 1, 641, 350)" filter="url(#사각형_8513)">
        <rect id="사각형_8513-3" data-name="사각형 8513" width="34" height="34" rx="5" transform="translate(8 8)" fill="#fff"/>
      </g>
      <g transform="matrix(1, 0, 0, 1, 641, 350)" filter="url(#사각형_8513-2)">
        <rect id="사각형_8513-4" data-name="사각형 8513" width="34" height="34" rx="5" transform="translate(8 8)" fill="#fff"/>
      </g>
    </g>
    <g id="그룹_1022" data-name="그룹 1022" transform="translate(653.088 363.176)">
      <g id="그룹_1020" data-name="그룹 1020" transform="translate(0 0)" clip-path="url(#clip-path)">
        <path id="패스_1667" data-name="패스 1667" d="M24.15,9.7H21.088l-.579-2.294H5.991L5.412,9.7H2.351A1.35,1.35,0,0,0,1,11.052V24.143a1.35,1.35,0,0,0,1.351,1.35h21.8a1.351,1.351,0,0,0,1.351-1.35V11.052A1.351,1.351,0,0,0,24.15,9.7" transform="translate(-0.338 -2.506)" fill="#fff"/>
        <path id="패스_1668" data-name="패스 1668" d="M24.15,9.7H21.088l-.579-2.294H5.991L5.412,9.7H2.351A1.35,1.35,0,0,0,1,11.052V24.143a1.35,1.35,0,0,0,1.351,1.35h21.8a1.351,1.351,0,0,0,1.351-1.35V11.052A1.351,1.351,0,0,0,24.15,9.7Z" transform="translate(-0.338 -2.506)" fill="none" stroke="#a666fb" stroke-linecap="round" stroke-linejoin="round" stroke-width="2"/>
        <path id="패스_1669" data-name="패스 1669" d="M22.254,19.628a5.606,5.606,0,1,1-5.605-5.605,5.605,5.605,0,0,1,5.605,5.605" transform="translate(-3.736 -4.745)" fill="#fff"/>
        <path id="패스_1670" data-name="패스 1670" d="M22.254,19.628a5.606,5.606,0,1,1-5.605-5.605A5.605,5.605,0,0,1,22.254,19.628Z" transform="translate(-3.736 -4.745)" fill="none" stroke="#a666fb" stroke-linecap="round" stroke-linejoin="round" stroke-width="2"/>
        <path id="패스_1671" data-name="패스 1671" d="M20.927,21.017a2.891,2.891,0,1,1-2.891-2.891,2.891,2.891,0,0,1,2.891,2.891" transform="translate(-5.125 -6.133)" fill="#fff"/>
        <ellipse id="타원_69" data-name="타원 69" cx="2.891" cy="2.891" rx="2.891" ry="2.891" transform="translate(10.021 11.993)" fill="none" stroke="#a666fb" stroke-linecap="round" stroke-linejoin="round" stroke-width="2"/>
        <path id="패스_1672" data-name="패스 1672" d="M25.736,3.139H21.8A1.07,1.07,0,0,1,21.8,1h3.931a1.07,1.07,0,1,1,0,2.139Z" transform="translate(-7.016 -0.338)" fill="none" stroke="#a666fb" stroke-linecap="round" stroke-linejoin="round" stroke-width="2"/>
      </g>
    </g>
  </g>
</svg>
