<svg xmlns="http://www.w3.org/2000/svg" xmlns:xlink="http://www.w3.org/1999/xlink" width="33.807" height="48.075" viewBox="0 0 33.807 48.075">
  <defs>
    <clipPath id="clip-path">
      <rect id="사각형_6471" data-name="사각형 6471" width="33.807" height="48.075" fill="none"/>
    </clipPath>
  </defs>
  <g id="배변_아이콘" data-name="배변 아이콘" transform="translate(0 0)">
    <g id="그룹_408" data-name="그룹 408" transform="translate(0 0)" clip-path="url(#clip-path)">
      <path id="패스_52" data-name="패스 52" d="M25.478,14.3c0,7.346-4.466,13.3-9.975,13.3S5.528,21.647,5.528,14.3,9.993,1,15.5,1s9.975,5.955,9.975,13.3" transform="translate(1.401 0.253)" fill="#fff"/>
      <path id="패스_53" data-name="패스 53" d="M25.478,14.3c0,7.346-4.466,13.3-9.975,13.3S5.528,21.647,5.528,14.3,9.993,1,15.5,1,25.478,6.955,25.478,14.3Z" transform="translate(1.401 0.253)" fill="none" stroke="#a666fc" stroke-linejoin="round" stroke-width="2"/>
      <path id="패스_54" data-name="패스 54" d="M30.406,19.691H2.893a1.893,1.893,0,0,0,0,3.787H5c.179,5.277,2.657,9.77,6.2,12.113v6.239H22.094V35.591c3.544-2.342,6.022-6.835,6.2-12.113h2.111a1.893,1.893,0,1,0,0-3.787" transform="translate(0.254 4.991)" fill="#a666fc"/>
      <path id="패스_55" data-name="패스 55" d="M30.406,19.691H2.893a1.893,1.893,0,0,0,0,3.787H5c.179,5.277,2.657,9.77,6.2,12.113v6.239H22.094V35.591c3.544-2.342,6.022-6.835,6.2-12.113h2.111a1.893,1.893,0,1,0,0-3.787Z" transform="translate(0.254 4.991)" fill="none" stroke="#fff" stroke-linejoin="round" stroke-width="2"/>
    </g>
  </g>
</svg>
